<?xml version="1.0" encoding="utf-8" standalone="no"?>
<!DOCTYPE svg PUBLIC "-//W3C//DTD SVG 1.1//EN"
  "http://www.w3.org/Graphics/SVG/1.1/DTD/svg11.dtd">
<!-- Created with matplotlib (https://matplotlib.org/) -->
<svg height="1391.94825pt" version="1.1" viewBox="0 0 1863.570062 1391.94825" width="1863.570062pt" xmlns="http://www.w3.org/2000/svg" xmlns:xlink="http://www.w3.org/1999/xlink">
 <metadata>
  <rdf:RDF xmlns:cc="http://creativecommons.org/ns#" xmlns:dc="http://purl.org/dc/elements/1.1/" xmlns:rdf="http://www.w3.org/1999/02/22-rdf-syntax-ns#">
   <cc:Work>
    <dc:type rdf:resource="http://purl.org/dc/dcmitype/StillImage"/>
    <dc:date>2021-08-06T14:46:04.095899</dc:date>
    <dc:format>image/svg+xml</dc:format>
    <dc:creator>
     <cc:Agent>
      <dc:title>Matplotlib v3.3.2, https://matplotlib.org/</dc:title>
     </cc:Agent>
    </dc:creator>
   </cc:Work>
  </rdf:RDF>
 </metadata>
 <defs>
  <style type="text/css">*{stroke-linecap:butt;stroke-linejoin:round;}</style>
 </defs>
 <g id="figure_1">
  <g id="patch_1">
   <path d="M 0 1391.94825 
L 1863.570062 1391.94825 
L 1863.570062 0 
L 0 0 
z
" style="fill:#ffffff;"/>
  </g>
  <g id="axes_1">
   <g id="patch_2">
    <path d="M 60.114062 1354.392 
L 1856.370062 1354.392 
L 1856.370062 7.2 
L 60.114062 7.2 
z
" style="fill:#ffffff;"/>
   </g>
   <g id="patch_3">
    <path clip-path="url(#p220019757a)" d="M 189.634483 722.505801 
C 195.835105 722.505801 201.782601 720.042268 206.167103 715.657766 
C 210.551605 711.273264 213.015138 705.325769 213.015138 699.125147 
C 213.015138 692.924524 210.551605 686.977029 206.167103 682.592527 
C 201.782601 678.208025 195.835105 675.744492 189.634483 675.744492 
C 183.433861 675.744492 177.486366 678.208025 173.101864 682.592527 
C 168.717362 686.977029 166.253829 692.924524 166.253829 699.125147 
C 166.253829 705.325769 168.717362 711.273264 173.101864 715.657766 
C 177.486366 720.042268 183.433861 722.505801 189.634483 722.505801 
z
" style="fill:#00008b;stroke:#00008b;stroke-linejoin:miter;"/>
   </g>
   <g id="patch_4">
    <path clip-path="url(#p220019757a)" d="M 1598.786318 705.492317 
C 1600.47501 705.492317 1602.094766 704.821392 1603.288852 703.627306 
C 1604.482938 702.43322 1605.153862 700.813465 1605.153862 699.124773 
C 1605.153862 697.43608 1604.482938 695.816325 1603.288852 694.622239 
C 1602.094766 693.428153 1600.47501 692.757228 1598.786318 692.757228 
C 1597.097625 692.757228 1595.47787 693.428153 1594.283784 694.622239 
C 1593.089698 695.816325 1592.418774 697.43608 1592.418774 699.124773 
C 1592.418774 700.813465 1593.089698 702.43322 1594.283784 703.627306 
C 1595.47787 704.821392 1597.097625 705.492317 1598.786318 705.492317 
z
" style="fill:#808080;stroke:#808080;stroke-linejoin:miter;"/>
   </g>
   <g id="patch_5">
    <path clip-path="url(#p220019757a)" d="M 189.634483 722.505801 
C 195.835105 722.505801 201.782601 720.042268 206.167103 715.657766 
C 210.551605 711.273264 213.015138 705.325769 213.015138 699.125147 
C 213.015138 692.924524 210.551605 686.977029 206.167103 682.592527 
C 201.782601 678.208025 195.835105 675.744492 189.634483 675.744492 
C 183.433861 675.744492 177.486366 678.208025 173.101864 682.592527 
C 168.717362 686.977029 166.253829 692.924524 166.253829 699.125147 
C 166.253829 705.325769 168.717362 711.273264 173.101864 715.657766 
C 177.486366 720.042268 183.433861 722.505801 189.634483 722.505801 
z
" style="fill:#00008b;stroke:#00008b;stroke-linejoin:miter;"/>
   </g>
   <g id="patch_6">
    <path clip-path="url(#p220019757a)" d="M 1598.786318 705.492317 
C 1600.47501 705.492317 1602.094766 704.821392 1603.288852 703.627306 
C 1604.482938 702.43322 1605.153862 700.813465 1605.153862 699.124773 
C 1605.153862 697.43608 1604.482938 695.816325 1603.288852 694.622239 
C 1602.094766 693.428153 1600.47501 692.757228 1598.786318 692.757228 
C 1597.097625 692.757228 1595.47787 693.428153 1594.283784 694.622239 
C 1593.089698 695.816325 1592.418774 697.43608 1592.418774 699.124773 
C 1592.418774 700.813465 1593.089698 702.43322 1594.283784 703.627306 
C 1595.47787 704.821392 1597.097625 705.492317 1598.786318 705.492317 
z
" style="fill:#808080;stroke:#808080;stroke-linejoin:miter;"/>
   </g>
   <g id="patch_7">
    <path clip-path="url(#p220019757a)" d="M 189.634483 722.505801 
C 195.835105 722.505801 201.782601 720.042268 206.167103 715.657766 
C 210.551605 711.273264 213.015138 705.325769 213.015138 699.125147 
C 213.015138 692.924524 210.551605 686.977029 206.167103 682.592527 
C 201.782601 678.208025 195.835105 675.744492 189.634483 675.744492 
C 183.433861 675.744492 177.486366 678.208025 173.101864 682.592527 
C 168.717362 686.977029 166.253829 692.924524 166.253829 699.125147 
C 166.253829 705.325769 168.717362 711.273264 173.101864 715.657766 
C 177.486366 720.042268 183.433861 722.505801 189.634483 722.505801 
z
" style="fill:#00008b;stroke:#00008b;stroke-linejoin:miter;"/>
   </g>
   <g id="patch_8">
    <path clip-path="url(#p220019757a)" d="M 1598.786318 705.492317 
C 1600.47501 705.492317 1602.094766 704.821392 1603.288852 703.627306 
C 1604.482938 702.43322 1605.153862 700.813465 1605.153862 699.124773 
C 1605.153862 697.43608 1604.482938 695.816325 1603.288852 694.622239 
C 1602.094766 693.428153 1600.47501 692.757228 1598.786318 692.757228 
C 1597.097625 692.757228 1595.47787 693.428153 1594.283784 694.622239 
C 1593.089698 695.816325 1592.418774 697.43608 1592.418774 699.124773 
C 1592.418774 700.813465 1593.089698 702.43322 1594.283784 703.627306 
C 1595.47787 704.821392 1597.097625 705.492317 1598.786318 705.492317 
z
" style="fill:#808080;stroke:#808080;stroke-linejoin:miter;"/>
   </g>
   <g id="patch_9">
    <path clip-path="url(#p220019757a)" d="M 189.634483 722.505801 
C 195.835105 722.505801 201.782601 720.042268 206.167103 715.657766 
C 210.551605 711.273264 213.015138 705.325769 213.015138 699.125147 
C 213.015138 692.924524 210.551605 686.977029 206.167103 682.592527 
C 201.782601 678.208025 195.835105 675.744492 189.634483 675.744492 
C 183.433861 675.744492 177.486366 678.208025 173.101864 682.592527 
C 168.717362 686.977029 166.253829 692.924524 166.253829 699.125147 
C 166.253829 705.325769 168.717362 711.273264 173.101864 715.657766 
C 177.486366 720.042268 183.433861 722.505801 189.634483 722.505801 
z
" style="fill:#00008b;stroke:#00008b;stroke-linejoin:miter;"/>
   </g>
   <g id="patch_10">
    <path clip-path="url(#p220019757a)" d="M 1598.786318 705.492317 
C 1600.47501 705.492317 1602.094766 704.821392 1603.288852 703.627306 
C 1604.482938 702.43322 1605.153862 700.813465 1605.153862 699.124773 
C 1605.153862 697.43608 1604.482938 695.816325 1603.288852 694.622239 
C 1602.094766 693.428153 1600.47501 692.757228 1598.786318 692.757228 
C 1597.097625 692.757228 1595.47787 693.428153 1594.283784 694.622239 
C 1593.089698 695.816325 1592.418774 697.43608 1592.418774 699.124773 
C 1592.418774 700.813465 1593.089698 702.43322 1594.283784 703.627306 
C 1595.47787 704.821392 1597.097625 705.492317 1598.786318 705.492317 
z
" style="fill:#808080;stroke:#808080;stroke-linejoin:miter;"/>
   </g>
   <g id="matplotlib.axis_1">
    <g id="xtick_1">
     <g id="line2d_1">
      <path clip-path="url(#p220019757a)" d="M 206.747205 1354.392 
L 206.747205 7.2 
" style="fill:none;stroke:#b0b0b0;stroke-linecap:square;stroke-width:0.8;"/>
     </g>
     <g id="line2d_2">
      <defs>
       <path d="M 0 0 
L 0 3.5 
" id="m329495a0c2" style="stroke:#000000;stroke-width:0.8;"/>
      </defs>
      <g>
       <use style="stroke:#000000;stroke-width:0.8;" x="206.747205" xlink:href="#m329495a0c2" y="1354.392"/>
      </g>
     </g>
     <g id="text_1">
      <!-- 0.0 -->
      <g transform="translate(198.795643 1368.990438)scale(0.1 -0.1)">
       <defs>
        <path d="M 31.78125 66.40625 
Q 24.171875 66.40625 20.328125 58.90625 
Q 16.5 51.421875 16.5 36.375 
Q 16.5 21.390625 20.328125 13.890625 
Q 24.171875 6.390625 31.78125 6.390625 
Q 39.453125 6.390625 43.28125 13.890625 
Q 47.125 21.390625 47.125 36.375 
Q 47.125 51.421875 43.28125 58.90625 
Q 39.453125 66.40625 31.78125 66.40625 
z
M 31.78125 74.21875 
Q 44.046875 74.21875 50.515625 64.515625 
Q 56.984375 54.828125 56.984375 36.375 
Q 56.984375 17.96875 50.515625 8.265625 
Q 44.046875 -1.421875 31.78125 -1.421875 
Q 19.53125 -1.421875 13.0625 8.265625 
Q 6.59375 17.96875 6.59375 36.375 
Q 6.59375 54.828125 13.0625 64.515625 
Q 19.53125 74.21875 31.78125 74.21875 
z
" id="DejaVuSans-48"/>
        <path d="M 10.6875 12.40625 
L 21 12.40625 
L 21 0 
L 10.6875 0 
z
" id="DejaVuSans-46"/>
       </defs>
       <use xlink:href="#DejaVuSans-48"/>
       <use x="63.623047" xlink:href="#DejaVuSans-46"/>
       <use x="95.410156" xlink:href="#DejaVuSans-48"/>
      </g>
     </g>
    </g>
    <g id="xtick_2">
     <g id="line2d_3">
      <path clip-path="url(#p220019757a)" d="M 573.330062 1354.392 
L 573.330062 7.2 
" style="fill:none;stroke:#b0b0b0;stroke-linecap:square;stroke-width:0.8;"/>
     </g>
     <g id="line2d_4">
      <g>
       <use style="stroke:#000000;stroke-width:0.8;" x="573.330062" xlink:href="#m329495a0c2" y="1354.392"/>
      </g>
     </g>
     <g id="text_2">
      <!-- 100.0 -->
      <g transform="translate(559.016 1368.990438)scale(0.1 -0.1)">
       <defs>
        <path d="M 12.40625 8.296875 
L 28.515625 8.296875 
L 28.515625 63.921875 
L 10.984375 60.40625 
L 10.984375 69.390625 
L 28.421875 72.90625 
L 38.28125 72.90625 
L 38.28125 8.296875 
L 54.390625 8.296875 
L 54.390625 0 
L 12.40625 0 
z
" id="DejaVuSans-49"/>
       </defs>
       <use xlink:href="#DejaVuSans-49"/>
       <use x="63.623047" xlink:href="#DejaVuSans-48"/>
       <use x="127.246094" xlink:href="#DejaVuSans-48"/>
       <use x="190.869141" xlink:href="#DejaVuSans-46"/>
       <use x="222.65625" xlink:href="#DejaVuSans-48"/>
      </g>
     </g>
    </g>
    <g id="xtick_3">
     <g id="line2d_5">
      <path clip-path="url(#p220019757a)" d="M 939.91292 1354.392 
L 939.91292 7.2 
" style="fill:none;stroke:#b0b0b0;stroke-linecap:square;stroke-width:0.8;"/>
     </g>
     <g id="line2d_6">
      <g>
       <use style="stroke:#000000;stroke-width:0.8;" x="939.91292" xlink:href="#m329495a0c2" y="1354.392"/>
      </g>
     </g>
     <g id="text_3">
      <!-- 200.0 -->
      <g transform="translate(925.598857 1368.990438)scale(0.1 -0.1)">
       <defs>
        <path d="M 19.1875 8.296875 
L 53.609375 8.296875 
L 53.609375 0 
L 7.328125 0 
L 7.328125 8.296875 
Q 12.9375 14.109375 22.625 23.890625 
Q 32.328125 33.6875 34.8125 36.53125 
Q 39.546875 41.84375 41.421875 45.53125 
Q 43.3125 49.21875 43.3125 52.78125 
Q 43.3125 58.59375 39.234375 62.25 
Q 35.15625 65.921875 28.609375 65.921875 
Q 23.96875 65.921875 18.8125 64.3125 
Q 13.671875 62.703125 7.8125 59.421875 
L 7.8125 69.390625 
Q 13.765625 71.78125 18.9375 73 
Q 24.125 74.21875 28.421875 74.21875 
Q 39.75 74.21875 46.484375 68.546875 
Q 53.21875 62.890625 53.21875 53.421875 
Q 53.21875 48.921875 51.53125 44.890625 
Q 49.859375 40.875 45.40625 35.40625 
Q 44.1875 33.984375 37.640625 27.21875 
Q 31.109375 20.453125 19.1875 8.296875 
z
" id="DejaVuSans-50"/>
       </defs>
       <use xlink:href="#DejaVuSans-50"/>
       <use x="63.623047" xlink:href="#DejaVuSans-48"/>
       <use x="127.246094" xlink:href="#DejaVuSans-48"/>
       <use x="190.869141" xlink:href="#DejaVuSans-46"/>
       <use x="222.65625" xlink:href="#DejaVuSans-48"/>
      </g>
     </g>
    </g>
    <g id="xtick_4">
     <g id="line2d_7">
      <path clip-path="url(#p220019757a)" d="M 1306.495777 1354.392 
L 1306.495777 7.2 
" style="fill:none;stroke:#b0b0b0;stroke-linecap:square;stroke-width:0.8;"/>
     </g>
     <g id="line2d_8">
      <g>
       <use style="stroke:#000000;stroke-width:0.8;" x="1306.495777" xlink:href="#m329495a0c2" y="1354.392"/>
      </g>
     </g>
     <g id="text_4">
      <!-- 300.0 -->
      <g transform="translate(1292.181714 1368.990438)scale(0.1 -0.1)">
       <defs>
        <path d="M 40.578125 39.3125 
Q 47.65625 37.796875 51.625 33 
Q 55.609375 28.21875 55.609375 21.1875 
Q 55.609375 10.40625 48.1875 4.484375 
Q 40.765625 -1.421875 27.09375 -1.421875 
Q 22.515625 -1.421875 17.65625 -0.515625 
Q 12.796875 0.390625 7.625 2.203125 
L 7.625 11.71875 
Q 11.71875 9.328125 16.59375 8.109375 
Q 21.484375 6.890625 26.8125 6.890625 
Q 36.078125 6.890625 40.9375 10.546875 
Q 45.796875 14.203125 45.796875 21.1875 
Q 45.796875 27.640625 41.28125 31.265625 
Q 36.765625 34.90625 28.71875 34.90625 
L 20.21875 34.90625 
L 20.21875 43.015625 
L 29.109375 43.015625 
Q 36.375 43.015625 40.234375 45.921875 
Q 44.09375 48.828125 44.09375 54.296875 
Q 44.09375 59.90625 40.109375 62.90625 
Q 36.140625 65.921875 28.71875 65.921875 
Q 24.65625 65.921875 20.015625 65.03125 
Q 15.375 64.15625 9.8125 62.3125 
L 9.8125 71.09375 
Q 15.4375 72.65625 20.34375 73.4375 
Q 25.25 74.21875 29.59375 74.21875 
Q 40.828125 74.21875 47.359375 69.109375 
Q 53.90625 64.015625 53.90625 55.328125 
Q 53.90625 49.265625 50.4375 45.09375 
Q 46.96875 40.921875 40.578125 39.3125 
z
" id="DejaVuSans-51"/>
       </defs>
       <use xlink:href="#DejaVuSans-51"/>
       <use x="63.623047" xlink:href="#DejaVuSans-48"/>
       <use x="127.246094" xlink:href="#DejaVuSans-48"/>
       <use x="190.869141" xlink:href="#DejaVuSans-46"/>
       <use x="222.65625" xlink:href="#DejaVuSans-48"/>
      </g>
     </g>
    </g>
    <g id="xtick_5">
     <g id="line2d_9">
      <path clip-path="url(#p220019757a)" d="M 1673.078634 1354.392 
L 1673.078634 7.2 
" style="fill:none;stroke:#b0b0b0;stroke-linecap:square;stroke-width:0.8;"/>
     </g>
     <g id="line2d_10">
      <g>
       <use style="stroke:#000000;stroke-width:0.8;" x="1673.078634" xlink:href="#m329495a0c2" y="1354.392"/>
      </g>
     </g>
     <g id="text_5">
      <!-- 400.0 -->
      <g transform="translate(1658.764571 1368.990438)scale(0.1 -0.1)">
       <defs>
        <path d="M 37.796875 64.3125 
L 12.890625 25.390625 
L 37.796875 25.390625 
z
M 35.203125 72.90625 
L 47.609375 72.90625 
L 47.609375 25.390625 
L 58.015625 25.390625 
L 58.015625 17.1875 
L 47.609375 17.1875 
L 47.609375 0 
L 37.796875 0 
L 37.796875 17.1875 
L 4.890625 17.1875 
L 4.890625 26.703125 
z
" id="DejaVuSans-52"/>
       </defs>
       <use xlink:href="#DejaVuSans-52"/>
       <use x="63.623047" xlink:href="#DejaVuSans-48"/>
       <use x="127.246094" xlink:href="#DejaVuSans-48"/>
       <use x="190.869141" xlink:href="#DejaVuSans-46"/>
       <use x="222.65625" xlink:href="#DejaVuSans-48"/>
      </g>
     </g>
    </g>
    <g id="text_6">
     <!-- Unit: 1000 km -->
     <g transform="translate(922.711594 1382.668563)scale(0.1 -0.1)">
      <defs>
       <path d="M 8.6875 72.90625 
L 18.609375 72.90625 
L 18.609375 28.609375 
Q 18.609375 16.890625 22.84375 11.734375 
Q 27.09375 6.59375 36.625 6.59375 
Q 46.09375 6.59375 50.34375 11.734375 
Q 54.59375 16.890625 54.59375 28.609375 
L 54.59375 72.90625 
L 64.5 72.90625 
L 64.5 27.390625 
Q 64.5 13.140625 57.4375 5.859375 
Q 50.390625 -1.421875 36.625 -1.421875 
Q 22.796875 -1.421875 15.734375 5.859375 
Q 8.6875 13.140625 8.6875 27.390625 
z
" id="DejaVuSans-85"/>
       <path d="M 54.890625 33.015625 
L 54.890625 0 
L 45.90625 0 
L 45.90625 32.71875 
Q 45.90625 40.484375 42.875 44.328125 
Q 39.84375 48.1875 33.796875 48.1875 
Q 26.515625 48.1875 22.3125 43.546875 
Q 18.109375 38.921875 18.109375 30.90625 
L 18.109375 0 
L 9.078125 0 
L 9.078125 54.6875 
L 18.109375 54.6875 
L 18.109375 46.1875 
Q 21.34375 51.125 25.703125 53.5625 
Q 30.078125 56 35.796875 56 
Q 45.21875 56 50.046875 50.171875 
Q 54.890625 44.34375 54.890625 33.015625 
z
" id="DejaVuSans-110"/>
       <path d="M 9.421875 54.6875 
L 18.40625 54.6875 
L 18.40625 0 
L 9.421875 0 
z
M 9.421875 75.984375 
L 18.40625 75.984375 
L 18.40625 64.59375 
L 9.421875 64.59375 
z
" id="DejaVuSans-105"/>
       <path d="M 18.3125 70.21875 
L 18.3125 54.6875 
L 36.8125 54.6875 
L 36.8125 47.703125 
L 18.3125 47.703125 
L 18.3125 18.015625 
Q 18.3125 11.328125 20.140625 9.421875 
Q 21.96875 7.515625 27.59375 7.515625 
L 36.8125 7.515625 
L 36.8125 0 
L 27.59375 0 
Q 17.1875 0 13.234375 3.875 
Q 9.28125 7.765625 9.28125 18.015625 
L 9.28125 47.703125 
L 2.6875 47.703125 
L 2.6875 54.6875 
L 9.28125 54.6875 
L 9.28125 70.21875 
z
" id="DejaVuSans-116"/>
       <path d="M 11.71875 12.40625 
L 22.015625 12.40625 
L 22.015625 0 
L 11.71875 0 
z
M 11.71875 51.703125 
L 22.015625 51.703125 
L 22.015625 39.3125 
L 11.71875 39.3125 
z
" id="DejaVuSans-58"/>
       <path id="DejaVuSans-32"/>
       <path d="M 9.078125 75.984375 
L 18.109375 75.984375 
L 18.109375 31.109375 
L 44.921875 54.6875 
L 56.390625 54.6875 
L 27.390625 29.109375 
L 57.625 0 
L 45.90625 0 
L 18.109375 26.703125 
L 18.109375 0 
L 9.078125 0 
z
" id="DejaVuSans-107"/>
       <path d="M 52 44.1875 
Q 55.375 50.25 60.0625 53.125 
Q 64.75 56 71.09375 56 
Q 79.640625 56 84.28125 50.015625 
Q 88.921875 44.046875 88.921875 33.015625 
L 88.921875 0 
L 79.890625 0 
L 79.890625 32.71875 
Q 79.890625 40.578125 77.09375 44.375 
Q 74.3125 48.1875 68.609375 48.1875 
Q 61.625 48.1875 57.5625 43.546875 
Q 53.515625 38.921875 53.515625 30.90625 
L 53.515625 0 
L 44.484375 0 
L 44.484375 32.71875 
Q 44.484375 40.625 41.703125 44.40625 
Q 38.921875 48.1875 33.109375 48.1875 
Q 26.21875 48.1875 22.15625 43.53125 
Q 18.109375 38.875 18.109375 30.90625 
L 18.109375 0 
L 9.078125 0 
L 9.078125 54.6875 
L 18.109375 54.6875 
L 18.109375 46.1875 
Q 21.1875 51.21875 25.484375 53.609375 
Q 29.78125 56 35.6875 56 
Q 41.65625 56 45.828125 52.96875 
Q 50 49.953125 52 44.1875 
z
" id="DejaVuSans-109"/>
      </defs>
      <use xlink:href="#DejaVuSans-85"/>
      <use x="73.193359" xlink:href="#DejaVuSans-110"/>
      <use x="136.572266" xlink:href="#DejaVuSans-105"/>
      <use x="164.355469" xlink:href="#DejaVuSans-116"/>
      <use x="203.564453" xlink:href="#DejaVuSans-58"/>
      <use x="237.255859" xlink:href="#DejaVuSans-32"/>
      <use x="269.042969" xlink:href="#DejaVuSans-49"/>
      <use x="332.666016" xlink:href="#DejaVuSans-48"/>
      <use x="396.289062" xlink:href="#DejaVuSans-48"/>
      <use x="459.912109" xlink:href="#DejaVuSans-48"/>
      <use x="523.535156" xlink:href="#DejaVuSans-32"/>
      <use x="555.322266" xlink:href="#DejaVuSans-107"/>
      <use x="613.232422" xlink:href="#DejaVuSans-109"/>
     </g>
    </g>
   </g>
   <g id="matplotlib.axis_2">
    <g id="ytick_1">
     <g id="line2d_11">
      <path clip-path="url(#p220019757a)" d="M 60.114062 1248.999429 
L 1856.370062 1248.999429 
" style="fill:none;stroke:#b0b0b0;stroke-linecap:square;stroke-width:0.8;"/>
     </g>
     <g id="line2d_12">
      <defs>
       <path d="M 0 0 
L -3.5 0 
" id="m93c7110f69" style="stroke:#000000;stroke-width:0.8;"/>
      </defs>
      <g>
       <use style="stroke:#000000;stroke-width:0.8;" x="60.114062" xlink:href="#m93c7110f69" y="1248.999429"/>
      </g>
     </g>
     <g id="text_7">
      <!-- -150.0 -->
      <g transform="translate(20.878125 1252.798647)scale(0.1 -0.1)">
       <defs>
        <path d="M 4.890625 31.390625 
L 31.203125 31.390625 
L 31.203125 23.390625 
L 4.890625 23.390625 
z
" id="DejaVuSans-45"/>
        <path d="M 10.796875 72.90625 
L 49.515625 72.90625 
L 49.515625 64.59375 
L 19.828125 64.59375 
L 19.828125 46.734375 
Q 21.96875 47.46875 24.109375 47.828125 
Q 26.265625 48.1875 28.421875 48.1875 
Q 40.625 48.1875 47.75 41.5 
Q 54.890625 34.8125 54.890625 23.390625 
Q 54.890625 11.625 47.5625 5.09375 
Q 40.234375 -1.421875 26.90625 -1.421875 
Q 22.3125 -1.421875 17.546875 -0.640625 
Q 12.796875 0.140625 7.71875 1.703125 
L 7.71875 11.625 
Q 12.109375 9.234375 16.796875 8.0625 
Q 21.484375 6.890625 26.703125 6.890625 
Q 35.15625 6.890625 40.078125 11.328125 
Q 45.015625 15.765625 45.015625 23.390625 
Q 45.015625 31 40.078125 35.4375 
Q 35.15625 39.890625 26.703125 39.890625 
Q 22.75 39.890625 18.8125 39.015625 
Q 14.890625 38.140625 10.796875 36.28125 
z
" id="DejaVuSans-53"/>
       </defs>
       <use xlink:href="#DejaVuSans-45"/>
       <use x="36.083984" xlink:href="#DejaVuSans-49"/>
       <use x="99.707031" xlink:href="#DejaVuSans-53"/>
       <use x="163.330078" xlink:href="#DejaVuSans-48"/>
       <use x="226.953125" xlink:href="#DejaVuSans-46"/>
       <use x="258.740234" xlink:href="#DejaVuSans-48"/>
      </g>
     </g>
    </g>
    <g id="ytick_2">
     <g id="line2d_13">
      <path clip-path="url(#p220019757a)" d="M 60.114062 1065.708 
L 1856.370062 1065.708 
" style="fill:none;stroke:#b0b0b0;stroke-linecap:square;stroke-width:0.8;"/>
     </g>
     <g id="line2d_14">
      <g>
       <use style="stroke:#000000;stroke-width:0.8;" x="60.114062" xlink:href="#m93c7110f69" y="1065.708"/>
      </g>
     </g>
     <g id="text_8">
      <!-- -100.0 -->
      <g transform="translate(20.878125 1069.507219)scale(0.1 -0.1)">
       <use xlink:href="#DejaVuSans-45"/>
       <use x="36.083984" xlink:href="#DejaVuSans-49"/>
       <use x="99.707031" xlink:href="#DejaVuSans-48"/>
       <use x="163.330078" xlink:href="#DejaVuSans-48"/>
       <use x="226.953125" xlink:href="#DejaVuSans-46"/>
       <use x="258.740234" xlink:href="#DejaVuSans-48"/>
      </g>
     </g>
    </g>
    <g id="ytick_3">
     <g id="line2d_15">
      <path clip-path="url(#p220019757a)" d="M 60.114062 882.416571 
L 1856.370062 882.416571 
" style="fill:none;stroke:#b0b0b0;stroke-linecap:square;stroke-width:0.8;"/>
     </g>
     <g id="line2d_16">
      <g>
       <use style="stroke:#000000;stroke-width:0.8;" x="60.114062" xlink:href="#m93c7110f69" y="882.416571"/>
      </g>
     </g>
     <g id="text_9">
      <!-- -50.0 -->
      <g transform="translate(27.240625 886.21579)scale(0.1 -0.1)">
       <use xlink:href="#DejaVuSans-45"/>
       <use x="36.083984" xlink:href="#DejaVuSans-53"/>
       <use x="99.707031" xlink:href="#DejaVuSans-48"/>
       <use x="163.330078" xlink:href="#DejaVuSans-46"/>
       <use x="195.117188" xlink:href="#DejaVuSans-48"/>
      </g>
     </g>
    </g>
    <g id="ytick_4">
     <g id="line2d_17">
      <path clip-path="url(#p220019757a)" d="M 60.114062 699.125143 
L 1856.370062 699.125143 
" style="fill:none;stroke:#b0b0b0;stroke-linecap:square;stroke-width:0.8;"/>
     </g>
     <g id="line2d_18">
      <g>
       <use style="stroke:#000000;stroke-width:0.8;" x="60.114062" xlink:href="#m93c7110f69" y="699.125143"/>
      </g>
     </g>
     <g id="text_10">
      <!-- 0.0 -->
      <g transform="translate(37.210937 702.924362)scale(0.1 -0.1)">
       <use xlink:href="#DejaVuSans-48"/>
       <use x="63.623047" xlink:href="#DejaVuSans-46"/>
       <use x="95.410156" xlink:href="#DejaVuSans-48"/>
      </g>
     </g>
    </g>
    <g id="ytick_5">
     <g id="line2d_19">
      <path clip-path="url(#p220019757a)" d="M 60.114062 515.833714 
L 1856.370062 515.833714 
" style="fill:none;stroke:#b0b0b0;stroke-linecap:square;stroke-width:0.8;"/>
     </g>
     <g id="line2d_20">
      <g>
       <use style="stroke:#000000;stroke-width:0.8;" x="60.114062" xlink:href="#m93c7110f69" y="515.833714"/>
      </g>
     </g>
     <g id="text_11">
      <!-- 50.0 -->
      <g transform="translate(30.848437 519.632933)scale(0.1 -0.1)">
       <use xlink:href="#DejaVuSans-53"/>
       <use x="63.623047" xlink:href="#DejaVuSans-48"/>
       <use x="127.246094" xlink:href="#DejaVuSans-46"/>
       <use x="159.033203" xlink:href="#DejaVuSans-48"/>
      </g>
     </g>
    </g>
    <g id="ytick_6">
     <g id="line2d_21">
      <path clip-path="url(#p220019757a)" d="M 60.114062 332.542286 
L 1856.370062 332.542286 
" style="fill:none;stroke:#b0b0b0;stroke-linecap:square;stroke-width:0.8;"/>
     </g>
     <g id="line2d_22">
      <g>
       <use style="stroke:#000000;stroke-width:0.8;" x="60.114062" xlink:href="#m93c7110f69" y="332.542286"/>
      </g>
     </g>
     <g id="text_12">
      <!-- 100.0 -->
      <g transform="translate(24.485937 336.341504)scale(0.1 -0.1)">
       <use xlink:href="#DejaVuSans-49"/>
       <use x="63.623047" xlink:href="#DejaVuSans-48"/>
       <use x="127.246094" xlink:href="#DejaVuSans-48"/>
       <use x="190.869141" xlink:href="#DejaVuSans-46"/>
       <use x="222.65625" xlink:href="#DejaVuSans-48"/>
      </g>
     </g>
    </g>
    <g id="ytick_7">
     <g id="line2d_23">
      <path clip-path="url(#p220019757a)" d="M 60.114062 149.250857 
L 1856.370062 149.250857 
" style="fill:none;stroke:#b0b0b0;stroke-linecap:square;stroke-width:0.8;"/>
     </g>
     <g id="line2d_24">
      <g>
       <use style="stroke:#000000;stroke-width:0.8;" x="60.114062" xlink:href="#m93c7110f69" y="149.250857"/>
      </g>
     </g>
     <g id="text_13">
      <!-- 150.0 -->
      <g transform="translate(24.485937 153.050076)scale(0.1 -0.1)">
       <use xlink:href="#DejaVuSans-49"/>
       <use x="63.623047" xlink:href="#DejaVuSans-53"/>
       <use x="127.246094" xlink:href="#DejaVuSans-48"/>
       <use x="190.869141" xlink:href="#DejaVuSans-46"/>
       <use x="222.65625" xlink:href="#DejaVuSans-48"/>
      </g>
     </g>
    </g>
    <g id="text_14">
     <!-- Unit: 1000 km -->
     <g transform="translate(14.798437 716.326469)rotate(-90)scale(0.1 -0.1)">
      <use xlink:href="#DejaVuSans-85"/>
      <use x="73.193359" xlink:href="#DejaVuSans-110"/>
      <use x="136.572266" xlink:href="#DejaVuSans-105"/>
      <use x="164.355469" xlink:href="#DejaVuSans-116"/>
      <use x="203.564453" xlink:href="#DejaVuSans-58"/>
      <use x="237.255859" xlink:href="#DejaVuSans-32"/>
      <use x="269.042969" xlink:href="#DejaVuSans-49"/>
      <use x="332.666016" xlink:href="#DejaVuSans-48"/>
      <use x="396.289062" xlink:href="#DejaVuSans-48"/>
      <use x="459.912109" xlink:href="#DejaVuSans-48"/>
      <use x="523.535156" xlink:href="#DejaVuSans-32"/>
      <use x="555.322266" xlink:href="#DejaVuSans-107"/>
      <use x="613.232422" xlink:href="#DejaVuSans-109"/>
     </g>
    </g>
   </g>
   <g id="line2d_25">
    <path clip-path="url(#p220019757a)" d="M 1598.786318 699.124773 
L 1598.513709 699.01368 
L 1598.024947 698.577182 
L 1597.448327 697.747601 
L 1596.872803 696.52857 
L 1596.350148 694.905888 
L 1596.208859 694.325646 
L 1596.208859 694.325646 
" style="fill:none;stroke:#c0c0c0;stroke-linecap:square;stroke-width:1.5;"/>
   </g>
   <g id="line2d_26">
    <path clip-path="url(#p220019757a)" d="M 176.28891 719.143214 
L 179.705139 721.214693 
L 183.257331 722.984151 
L 186.892106 724.445827 
L 190.559471 725.609449 
L 194.217374 726.496125 
L 197.833582 727.133462 
L 201.385418 727.551382 
L 204.858321 727.779173 
L 209.902864 727.82258 
L 214.742084 727.576243 
L 219.379101 727.102479 
L 223.823804 726.449895 
L 229.47315 725.365345 
L 234.835385 724.095264 
L 241.180564 722.317982 
L 247.177255 720.389636 
L 253.975629 717.938175 
L 260.399568 715.385508 
L 267.488566 712.325858 
L 275.13349 708.766224 
L 283.240646 704.72375 
L 291.731878 700.222424 
L 300.543276 695.290206 
L 309.623248 689.95688 
L 319.626114 683.817262 
L 330.405779 676.924984 
L 341.839719 669.339127 
L 353.827605 661.12104 
L 367.388194 651.545723 
L 382.272462 640.751878 
L 399.242595 628.156762 
L 419.314516 612.96632 
L 446.131017 592.366255 
L 513.447316 540.533371 
L 536.471062 523.15643 
L 556.58124 508.25016 
L 575.062174 494.821892 
L 592.390718 482.498887 
L 608.974827 470.972789 
L 624.882771 460.181708 
L 640.456215 449.884688 
L 655.445862 440.236019 
L 670.168016 431.020635 
L 684.644204 422.220487 
L 698.893097 413.819186 
L 712.930973 405.801788 
L 726.772082 398.154598 
L 740.428954 390.865028 
L 753.912645 383.921461 
L 767.232936 377.313138 
L 780.398506 371.030069 
L 793.41708 365.062943 
L 806.295543 359.403073 
L 819.040038 354.042308 
L 831.65606 348.973006 
L 844.14853 344.187967 
L 856.754192 339.597987 
L 869.240342 335.289274 
L 881.610713 331.255411 
L 893.86865 327.490319 
L 906.017147 323.988214 
L 918.280876 320.685915 
L 930.436364 317.645194 
L 942.485862 314.860777 
L 954.431353 312.327617 
L 966.274611 310.04088 
L 978.017199 307.995938 
L 989.871275 306.157657 
L 1001.623679 304.560928 
L 1013.275523 303.201415 
L 1024.827751 302.074947 
L 1036.281185 301.177489 
L 1047.838406 300.495172 
L 1059.29459 300.042127 
L 1070.650238 299.81452 
L 1081.905739 299.808636 
L 1093.256219 300.026526 
L 1104.503534 300.466586 
L 1115.647833 301.12524 
L 1126.689173 301.99902 
L 1137.627551 303.084552 
L 1148.648802 304.402667 
L 1159.563304 305.933136 
L 1170.370863 307.67267 
L 1181.071237 309.618074 
L 1191.842747 311.804364 
L 1202.502764 314.197127 
L 1213.050892 316.793234 
L 1223.486714 319.589627 
L 1233.809772 322.583326 
L 1244.188781 325.826169 
L 1254.450198 329.266927 
L 1264.593465 332.902673 
L 1274.618003 336.730535 
L 1284.523211 340.747719 
L 1294.467893 345.021936 
L 1304.288017 349.486097 
L 1313.982924 354.137458 
L 1323.551939 358.97335 
L 1332.994395 363.991161 
L 1342.458809 369.27365 
L 1351.79114 374.738773 
L 1360.99069 380.384028 
L 1370.056761 386.206992 
L 1378.98867 392.205325 
L 1387.785745 398.376776 
L 1396.583723 404.821233 
L 1405.241208 411.439989 
L 1413.757562 418.231014 
L 1422.132173 425.192419 
L 1430.364461 432.322455 
L 1438.453897 439.619547 
L 1446.39998 447.082287 
L 1454.323038 454.829968 
L 1462.097388 462.746292 
L 1469.722703 470.830555 
L 1477.198754 479.082386 
L 1484.525418 487.501823 
L 1491.702696 496.089371 
L 1498.730731 504.846101 
L 1505.60986 513.773779 
L 1512.340636 522.875016 
L 1518.923893 532.153477 
L 1525.360809 541.614167 
L 1531.557295 551.113861 
L 1537.615604 560.805249 
L 1543.538583 570.699668 
L 1549.330093 580.812307 
L 1554.907824 591.000066 
L 1560.284406 601.278357 
L 1565.55876 611.843542 
L 1570.66166 622.570076 
L 1575.534711 633.331468 
L 1580.211975 644.19768 
L 1584.657459 655.085066 
L 1588.76774 665.727538 
L 1592.446355 675.85432 
L 1595.381214 684.557235 
L 1597.282782 690.822371 
L 1598.216377 694.473511 
L 1598.663813 697.050713 
L 1598.697839 698.016116 
L 1597.696977 698.926451 
L 1596.774694 698.309943 
L 1595.24887 696.811067 
L 1592.958006 694.117775 
L 1589.653141 689.823301 
L 1585.055931 683.444121 
L 1579.424189 675.226617 
L 1573.336046 665.946509 
L 1567.028534 655.922748 
L 1560.798055 645.601626 
L 1554.691815 635.054304 
L 1548.767172 624.376545 
L 1542.99464 613.511315 
L 1537.442621 602.586479 
L 1532.09255 591.57018 
L 1526.933079 580.439427 
L 1521.957655 569.177129 
L 1517.163063 557.770342 
L 1512.612707 546.374286 
L 1508.23658 534.816229 
L 1504.037285 523.090585 
L 1500.072685 511.358452 
L 1496.337586 499.617207 
L 1492.779918 487.699726 
L 1489.450272 475.770607 
L 1486.345656 463.829874 
L 1483.425127 451.712049 
L 1480.731267 439.584007 
L 1478.262335 427.447259 
L 1476.016916 415.303645 
L 1473.993874 403.155276 
L 1472.169156 390.838037 
L 1470.571291 378.520944 
L 1469.199732 366.206785 
L 1468.054099 353.89849 
L 1467.134148 341.599093 
L 1466.439752 329.311723 
L 1465.970904 317.039581 
L 1465.72768 304.785933 
L 1465.708958 292.719217 
L 1465.910176 280.67693 
L 1466.331592 268.662309 
L 1466.973537 256.678616 
L 1467.83636 244.729126 
L 1468.920451 232.817118 
L 1470.22623 220.945882 
L 1471.731695 209.280406 
L 1473.453659 197.660931 
L 1475.39256 186.090609 
L 1477.548829 174.572568 
L 1479.922908 163.109944 
L 1482.477723 151.863819 
L 1485.245148 140.67758 
L 1488.225573 129.554195 
L 1491.419368 118.496608 
L 1494.82688 107.507759 
L 1498.395942 96.743823 
L 1502.173347 86.052328 
L 1506.159364 75.436048 
L 1510.354223 64.897748 
L 1514.758126 54.440169 
L 1519.303867 44.213655 
L 1524.053021 34.070835 
L 1529.00568 24.014309 
L 1534.16191 14.046664 
L 1539.521736 4.170464 
L 1542.430205 -1 
L 1542.430205 -1 
" style="fill:none;stroke:#0000ff;stroke-linecap:square;stroke-width:1.5;"/>
   </g>
   <g id="line2d_27">
    <path clip-path="url(#p220019757a)" d="M 1598.786318 699.124773 
L 1598.513709 699.01368 
L 1598.024947 698.577182 
L 1597.448327 697.747601 
L 1596.872803 696.52857 
L 1596.350148 694.905888 
L 1596.208859 694.325646 
L 1596.208859 694.325646 
" style="fill:none;stroke:#c0c0c0;stroke-linecap:square;stroke-width:1.5;"/>
   </g>
   <g id="line2d_28">
    <path clip-path="url(#p220019757a)" d="M 176.28891 719.143214 
L 179.705748 721.2151 
L 183.258537 722.984965 
L 186.893888 724.447055 
L 190.561806 725.611114 
L 194.220241 726.498266 
L 197.836962 727.136128 
L 201.389311 727.55463 
L 204.862735 727.783066 
L 209.908095 727.827558 
L 214.748202 727.582428 
L 219.386194 727.109979 
L 223.831972 726.458807 
L 229.482912 725.376244 
L 234.846921 724.108237 
L 241.194568 722.333647 
L 247.193982 720.408038 
L 253.995942 717.959906 
L 260.42377 715.410575 
L 267.517654 712.354792 
L 275.168572 708.799517 
L 283.282928 704.761842 
L 291.782665 700.265696 
L 300.603946 695.338987 
L 309.695256 690.011431 
L 319.711989 683.87824 
L 330.50825 676.992904 
L 341.961681 669.414372 
L 354.555184 660.799085 
L 368.109911 651.244872 
L 382.995837 640.473928 
L 399.977135 627.904197 
L 420.073746 612.742393 
L 447.356903 591.857665 
L 511.625784 542.565229 
L 534.869329 525.076573 
L 555.165963 510.075984 
L 573.815294 496.563495 
L 591.300218 484.163492 
L 608.03334 472.565393 
L 624.084192 461.706711 
L 639.797953 451.344836 
L 654.923393 441.634947 
L 669.779907 432.360547 
L 684.389422 423.503425 
L 698.770926 415.047059 
L 712.94097 406.976389 
L 726.652136 399.419525 
L 740.185719 392.20869 
L 753.807839 385.203816 
L 767.2665 378.53608 
L 780.570551 372.195421 
L 793.727851 366.172472 
L 806.74541 360.458487 
L 819.629481 355.045275 
L 832.385663 349.925157 
L 845.018951 345.090908 
L 857.53383 340.535717 
L 870.167213 336.174928 
L 882.685655 332.090707 
L 895.092557 328.276959 
L 907.390964 324.727887 
L 919.583605 321.437989 
L 931.89583 318.348153 
L 944.103149 315.516444 
L 956.207594 312.937816 
L 968.210975 310.607427 
L 980.114889 308.520657 
L 991.920737 306.673065 
L 1003.841755 305.033204 
L 1015.663521 303.632542 
L 1027.387013 302.466912 
L 1039.013071 301.532287 
L 1050.542406 300.824793 
L 1062.178908 300.334045 
L 1073.716326 300.070908 
L 1085.155068 300.031683 
L 1096.495451 300.21279 
L 1107.93405 300.619646 
L 1119.271189 301.247477 
L 1130.506943 302.09284 
L 1141.64131 303.152374 
L 1152.674226 304.422818 
L 1163.793154 305.92829 
L 1174.806787 307.645466 
L 1185.714889 309.571177 
L 1196.517173 311.702325 
L 1207.213313 314.035896 
L 1217.981498 316.613579 
L 1228.639099 319.394531 
L 1239.185658 322.375803 
L 1249.620685 325.554509 
L 1260.114761 328.985684 
L 1270.492454 332.615129 
L 1280.753181 336.440011 
L 1290.896331 340.457583 
L 1300.92128 344.665144 
L 1310.988796 349.133668 
L 1320.932869 353.793065 
L 1330.75281 358.64072 
L 1340.44793 363.674082 
L 1350.017531 368.890677 
L 1359.460918 374.288107 
L 1368.926612 379.955438 
L 1378.260544 385.80474 
L 1387.46199 391.833753 
L 1396.530249 398.040316 
L 1405.464621 404.422373 
L 1414.264428 410.977974 
L 1423.065445 417.813465 
L 1431.726232 424.824406 
L 1440.246146 432.009196 
L 1448.624577 439.3664 
L 1456.860942 446.894795 
L 1464.954703 454.593383 
L 1472.905372 462.461431 
L 1480.712505 470.498511 
L 1488.375729 478.704549 
L 1495.894732 487.079904 
L 1503.269283 495.625424 
L 1510.49925 504.34257 
L 1517.584601 513.233538 
L 1524.525436 522.301435 
L 1531.322004 531.5505 
L 1537.871879 540.837513 
L 1544.282958 550.31276 
L 1550.457574 559.830575 
L 1556.499607 569.551787 
L 1562.316078 579.330074 
L 1567.914748 589.174766 
L 1573.303369 599.100283 
L 1578.401063 608.952839 
L 1583.220337 618.747559 
L 1587.687116 628.321852 
L 1591.814568 637.69189 
L 1595.447536 646.47674 
L 1598.597586 654.653939 
L 1601.268527 662.193243 
L 1603.382849 668.804268 
L 1605.016493 674.620212 
L 1606.174825 679.513983 
L 1606.990263 683.911192 
L 1607.46454 687.709624 
L 1607.64068 690.765661 
L 1607.586667 693.653967 
L 1607.292257 696.311902 
L 1606.782678 698.658285 
L 1606.132517 700.617447 
L 1605.259449 702.52345 
L 1604.176717 704.318046 
L 1602.925577 705.958137 
L 1601.276995 707.700689 
L 1599.544166 709.211073 
L 1597.488332 710.726061 
L 1594.860098 712.371167 
L 1591.722259 714.048408 
L 1588.139557 715.705843 
L 1583.90463 717.421799 
L 1578.837454 719.232971 
L 1572.78078 721.152124 
L 1565.819283 723.117041 
L 1558.009928 725.088938 
L 1549.175886 727.084762 
L 1539.767332 728.98225 
L 1529.574994 730.807033 
L 1518.997052 732.471895 
L 1508.012473 733.971747 
L 1496.79598 735.275172 
L 1485.516676 736.362476 
L 1473.963983 737.250599 
L 1462.311773 737.920306 
L 1450.731523 738.364876 
L 1439.023031 738.593543 
L 1427.176452 738.601604 
L 1415.367505 738.388374 
L 1403.403575 737.949119 
L 1391.461765 737.288482 
L 1379.352122 736.393635 
L 1367.252596 735.275018 
L 1355.157987 733.934216 
L 1342.88039 732.347118 
L 1330.598713 730.533354 
L 1318.308946 728.493731 
L 1306.007367 726.228846 
L 1293.506492 723.700308 
L 1280.986317 720.940562 
L 1268.443446 717.949851 
L 1255.689501 714.679246 
L 1242.905305 711.1711 
L 1229.901368 707.369437 
L 1216.85908 703.323374 
L 1203.774718 699.032907 
L 1190.456521 694.431475 
L 1177.086955 689.578599 
L 1163.47221 684.400631 
L 1149.605107 678.886873 
L 1135.669192 673.107577 
L 1121.466584 666.978341 
L 1106.988112 660.488483 
L 1092.223683 653.627364 
L 1077.16219 646.384435 
L 1061.593552 638.64947 
L 1045.698772 630.504348 
L 1029.261109 621.831433 
L 1012.257489 612.60929 
L 994.456075 602.700995 
L 975.611268 591.953537 
L 955.671382 580.321984 
L 934.146201 567.504422 
L 910.284219 553.030598 
L 882.583397 535.958593 
L 846.109062 513.197819 
L 765.850053 463.038198 
L 737.057928 445.36 
L 712.426364 430.49093 
L 689.859824 417.125198 
L 668.96892 405.006453 
L 649.030108 393.695579 
L 630.118212 383.219121 
L 611.718645 373.279055 
L 593.874143 363.890949 
L 576.628084 355.065085 
L 559.713903 346.654806 
L 543.160462 338.667405 
L 526.677617 330.960125 
L 510.604928 323.686557 
L 494.643837 316.704429 
L 478.811013 310.019343 
L 463.123481 303.635244 
L 447.598437 297.55443 
L 431.910358 291.651189 
L 416.412647 286.059107 
L 401.122772 280.776054 
L 385.70605 275.684826 
L 370.525659 270.902757 
L 355.241552 266.319217 
L 339.863295 261.940748 
L 324.400991 257.773097 
L 309.22728 253.910593 
L 293.993716 250.257653 
L 278.710804 246.817174 
L 263.389264 243.591186 
L 247.674216 240.511791 
L 231.941705 237.65867 
L 216.203338 235.031125 
L 200.470585 232.627503 
L 184.389489 230.397107 
L 168.33775 228.394809 
L 151.963318 226.578186 
L 135.642936 224.98961 
L 119.027128 223.594594 
L 102.131647 222.400168 
L 84.972973 221.411886 
L 67.568155 220.633741 
L 49.934665 220.068089 
L 32.090247 219.715623 
L 13.70747 219.574723 
L -1 219.617817 
L -1 219.617817 
" style="fill:none;stroke:#ffff00;stroke-linecap:square;stroke-width:1.5;"/>
   </g>
   <g id="line2d_29">
    <path clip-path="url(#p220019757a)" d="M 1598.786318 699.124773 
L 1598.513709 699.01368 
L 1598.024947 698.577182 
L 1597.448327 697.747601 
L 1596.872803 696.52857 
L 1596.350148 694.905888 
L 1596.208859 694.325646 
L 1596.208859 694.325646 
" style="fill:none;stroke:#c0c0c0;stroke-linecap:square;stroke-width:1.5;"/>
   </g>
   <g id="line2d_30">
    <path clip-path="url(#p220019757a)" d="M 176.28891 719.143214 
L 179.706357 721.215506 
L 183.259743 722.985779 
L 186.895673 724.448283 
L 190.564141 725.612778 
L 194.223107 726.500403 
L 197.840345 727.138793 
L 201.393204 727.557877 
L 204.867149 727.786959 
L 209.913327 727.832532 
L 214.754321 727.588612 
L 219.393291 727.117483 
L 223.840139 726.467719 
L 229.492675 725.387139 
L 234.858458 724.121211 
L 241.208571 722.349303 
L 247.210709 720.426441 
L 254.016247 717.981637 
L 260.447965 715.435639 
L 267.546732 712.383723 
L 275.20364 708.832803 
L 283.325191 704.799926 
L 291.833422 700.308964 
L 300.664579 695.387765 
L 309.767216 690.065982 
L 319.79781 683.939217 
L 330.610648 677.060829 
L 342.083555 669.489632 
L 354.700739 660.882295 
L 368.28365 651.33643 
L 383.203766 640.574313 
L 400.228248 628.014099 
L 420.834714 612.519463 
L 449.002277 591.03252 
L 509.409505 544.88071 
L 533.233149 527.008421 
L 553.717033 511.913114 
L 572.535223 498.316116 
L 590.176748 485.838926 
L 607.058955 474.168684 
L 623.252661 463.242312 
L 638.815878 453.004232 
L 654.082217 443.224651 
L 669.077685 433.883163 
L 683.824661 424.961351 
L 698.070613 416.599621 
L 712.111972 408.611436 
L 725.962726 400.983631 
L 739.635178 393.704102 
L 753.140204 386.761679 
L 766.487438 380.146017 
L 779.685436 373.847504 
L 792.991569 367.744963 
L 806.157785 361.953749 
L 819.190509 356.465597 
L 832.095472 351.272745 
L 844.877813 346.367907 
L 857.542126 341.744216 
L 870.092526 337.39519 
L 882.766395 333.240252 
L 895.329344 329.357934 
L 907.784502 325.742416 
L 920.134664 322.388146 
L 932.382336 319.289865 
L 944.529745 316.442535 
L 956.801095 313.795477 
L 968.972353 311.398916 
L 981.045173 309.248211 
L 993.021003 307.338904 
L 1004.901121 305.666718 
L 1016.900052 304.203503 
L 1028.801931 302.977672 
L 1040.607629 301.985196 
L 1052.317884 301.222202 
L 1063.933326 300.684934 
L 1075.659336 300.366146 
L 1087.288074 300.273775 
L 1098.819872 300.404245 
L 1110.254977 300.754086 
L 1121.593543 301.319936 
L 1133.032028 302.114068 
L 1144.370663 303.125133 
L 1155.6094 304.349879 
L 1166.748127 305.78515 
L 1177.976116 307.457985 
L 1189.100209 309.342327 
L 1200.120125 311.435101 
L 1211.035537 313.733308 
L 1221.84608 316.23403 
L 1232.731886 318.981884 
L 1243.508356 321.933301 
L 1254.175 325.085422 
L 1264.7313 328.435462 
L 1275.176708 331.980699 
L 1285.681943 335.782394 
L 1296.071355 339.780384 
L 1306.344312 343.972013 
L 1316.50016 348.354702 
L 1326.538236 352.925924 
L 1336.619503 357.762765 
L 1346.577697 362.789345 
L 1356.4121 368.003249 
L 1366.121989 373.402128 
L 1375.706642 378.983718 
L 1385.16533 384.745847 
L 1394.646816 390.783691 
L 1403.996747 397.003696 
L 1413.214385 403.403892 
L 1422.298993 409.982412 
L 1431.249854 416.73753 
L 1440.066256 423.667661 
L 1448.747518 430.771385 
L 1457.292956 438.047453 
L 1465.834304 445.614412 
L 1474.234154 453.35731 
L 1482.49188 461.275576 
L 1490.606874 469.368982 
L 1498.57857 477.637672 
L 1506.406419 486.082253 
L 1513.970973 494.567799 
L 1521.395193 503.226615 
L 1528.678637 512.061173 
L 1535.820892 521.074874 
L 1542.821535 530.272269 
L 1549.572371 539.508845 
L 1556.185134 548.936652 
L 1562.555875 558.408523 
L 1568.690371 567.926766 
L 1574.593954 577.496213 
L 1580.271285 587.124923 
L 1585.631349 596.652822 
L 1590.682692 606.08351 
L 1595.341367 615.242396 
L 1599.705242 624.312803 
L 1603.602403 632.921939 
L 1607.042233 641.048246 
L 1610.030796 648.665101 
L 1612.572011 655.737741 
L 1614.67032 662.219689 
L 1616.335449 668.049617 
L 1617.644531 673.398596 
L 1618.656714 678.463492 
L 1619.335435 682.93246 
L 1619.77323 687.277266 
L 1619.955462 691.179778 
L 1619.912965 695.155219 
L 1619.645733 698.882388 
L 1619.144695 702.60694 
L 1618.410433 706.289121 
L 1617.458582 709.892561 
L 1616.221182 713.654116 
L 1614.695706 717.526605 
L 1612.893816 721.470956 
L 1610.710833 725.688034 
L 1608.152902 730.12626 
L 1605.234606 734.747704 
L 1601.835906 739.720789 
L 1597.8284 745.184292 
L 1593.219955 751.078266 
L 1588.018716 757.357343 
L 1582.229863 763.986781 
L 1575.996122 770.787399 
L 1569.172794 777.898579 
L 1561.895083 785.156604 
L 1554.297445 792.418878 
L 1546.370831 799.689004 
L 1538.105165 806.966587 
L 1529.636261 814.126621 
L 1520.956382 821.174693 
L 1512.058008 828.113351 
L 1502.933842 834.94279 
L 1493.728382 841.554691 
L 1484.438967 847.956163 
L 1474.908938 854.252582 
L 1465.287905 860.34167 
L 1455.574218 866.226762 
L 1445.766484 871.910318 
L 1435.86352 877.394108 
L 1425.864331 882.679316 
L 1415.768063 887.76665 
L 1405.573984 892.656407 
L 1395.281463 897.348547 
L 1384.889942 901.842717 
L 1374.398939 906.13832 
L 1363.808012 910.234521 
L 1353.116751 914.130281 
L 1342.324786 917.824384 
L 1331.431747 921.315452 
L 1320.437278 924.601941 
L 1309.520793 927.634145 
L 1298.505403 930.464986 
L 1287.390728 933.09263 
L 1276.176365 935.515127 
L 1264.861858 937.730435 
L 1253.446717 939.736398 
L 1242.120018 941.503067 
L 1230.694862 943.062786 
L 1219.170615 944.413226 
L 1207.54657 945.55196 
L 1195.82193 946.476482 
L 1183.995828 947.184174 
L 1172.067281 947.672341 
L 1160.236589 947.935585 
L 1148.304643 947.981085 
L 1136.270171 947.805983 
L 1124.131766 947.407324 
L 1111.887873 946.78204 
L 1099.536773 945.926956 
L 1087.07657 944.838781 
L 1074.719179 943.538551 
L 1062.252136 942.006407 
L 1049.673029 940.238866 
L 1036.979207 938.232312 
L 1024.167748 935.982989 
L 1011.235442 933.486989 
L 998.178761 930.740249 
L 984.993813 927.738548 
L 971.676331 924.477471 
L 958.221593 920.952432 
L 944.624415 917.15863 
L 930.879068 913.091056 
L 916.979232 908.744472 
L 902.917917 904.113394 
L 888.687386 899.192077 
L 874.279067 893.9745 
L 859.683435 888.45433 
L 844.633035 882.521674 
L 829.365398 876.261678 
L 813.866575 869.666603 
L 797.851817 862.607688 
L 781.563202 855.184766 
L 764.700669 847.25515 
L 747.223399 838.789025 
L 729.083798 829.754613 
L 709.927615 819.96369 
L 689.357415 809.194362 
L 667.233154 797.356555 
L 642.062878 783.628709 
L 611.018468 766.42819 
L 521.042755 716.405679 
L 498.141312 704.033665 
L 478.522252 693.6848 
L 460.772944 684.574542 
L 444.66411 676.555117 
L 429.901906 669.447027 
L 416.12375 663.04817 
L 402.894973 657.142879 
L 390.288566 651.755046 
L 378.385786 646.902585 
L 366.646381 642.359223 
L 355.750006 638.374848 
L 345.122956 634.721018 
L 334.802779 631.40763 
L 324.831326 628.441153 
L 315.254639 625.823843 
L 306.122583 623.552965 
L 297.488215 621.620098 
L 288.586095 619.858429 
L 280.247908 618.433793 
L 272.534224 617.321309 
L 264.614633 616.396267 
L 256.483181 615.688645 
L 249.074251 615.270073 
L 241.494418 615.078347 
L 234.723665 615.121072 
L 227.827868 615.384286 
L 220.813983 615.892901 
L 214.716016 616.544238 
L 208.548231 617.412684 
L 202.322591 618.515798 
L 196.054104 619.870842 
L 189.761053 621.494093 
L 184.513577 623.062228 
L 179.278217 624.833743 
L 174.070596 626.813965 
L 168.90746 629.00616 
L 163.806335 631.411211 
L 158.785077 634.027381 
L 153.861327 636.850179 
L 149.051987 639.872376 
L 144.372667 643.084162 
L 139.837216 646.473452 
L 135.457331 650.026285 
L 131.242329 653.727342 
L 127.199011 657.560443 
L 123.331709 661.509079 
L 119.642397 665.556872 
L 115.44984 670.522838 
L 111.509602 675.58303 
L 107.814942 680.713915 
L 104.356823 685.894478 
L 101.124607 691.106322 
L 97.62366 697.205348 
L 94.395051 703.304433 
L 91.419355 709.386508 
L 88.303918 716.299293 
L 85.467017 723.156493 
L 82.883437 729.94652 
L 80.250888 737.494725 
L 77.879683 744.9394 
L 75.519044 753.08394 
L 73.218197 761.884374 
L 71.190913 770.517766 
L 69.253266 779.747326 
L 67.436126 789.528647 
L 65.763779 799.817748 
L 64.254264 810.571929 
L 62.919946 821.750463 
L 61.768194 833.315041 
L 60.802095 845.230062 
L 59.986085 858.097215 
L 59.349396 871.831231 
L 58.911374 886.35057 
L 58.682256 901.578646 
L 58.667321 918.001536 
L 58.881336 935.49723 
L 59.341672 954.469499 
L 60.072015 975.253024 
L 61.139222 999.066232 
L 62.639272 1027.338036 
L 64.970831 1066.666497 
L 69.298374 1139.243374 
L 70.8943 1170.200006 
L 72.02607 1196.359802 
L 72.838916 1220.242686 
L 73.370073 1242.383469 
L 73.647282 1263.243002 
L 73.68783 1282.917977 
L 73.505968 1301.792074 
L 73.111096 1319.916345 
L 72.501667 1337.62288 
L 71.693202 1354.652336 
L 70.678218 1371.316526 
L 69.479895 1387.362708 
L 69.009798 1392.94825 
L 69.009798 1392.94825 
" style="fill:none;stroke:#008000;stroke-linecap:square;stroke-width:1.5;"/>
   </g>
   <g id="line2d_31">
    <path clip-path="url(#p220019757a)" d="M 1598.786318 699.124773 
L 1598.513709 699.01368 
L 1598.024947 698.577182 
L 1597.448327 697.747601 
L 1596.872803 696.52857 
L 1596.350148 694.905888 
L 1596.208859 694.325646 
L 1596.208859 694.325646 
" style="fill:none;stroke:#c0c0c0;stroke-linecap:square;stroke-width:1.5;"/>
   </g>
   <g id="line2d_32">
    <path clip-path="url(#p220019757a)" d="M 176.28891 719.143214 
L 179.706965 721.215913 
L 183.260949 722.986593 
L 186.897455 724.449511 
L 190.56648 725.614446 
L 194.225974 726.502544 
L 197.843725 727.141458 
L 201.397097 727.561125 
L 204.871562 727.790852 
L 209.918561 727.837511 
L 214.760439 727.5948 
L 219.400385 727.124987 
L 223.84831 726.476627 
L 229.502437 725.39803 
L 234.869994 724.134181 
L 241.222571 722.364956 
L 247.227433 720.444839 
L 254.036548 718.003361 
L 260.472152 715.460694 
L 267.575802 712.412642 
L 275.238692 708.866082 
L 283.367436 704.838003 
L 291.884153 700.352224 
L 300.725178 695.436535 
L 309.839136 690.120526 
L 319.883572 684.000191 
L 330.712972 677.128756 
L 342.205334 669.564902 
L 354.846181 660.965532 
L 368.457241 651.428032 
L 383.411512 640.67476 
L 400.479126 628.124103 
L 421.143769 612.640105 
L 449.818598 590.847465 
L 508.59888 546.120544 
L 532.597744 528.184701 
L 553.23167 513.036134 
L 572.188157 499.391219 
L 589.960347 486.869929 
L 606.968959 475.158186 
L 623.285489 464.192626 
L 638.968457 453.917444 
L 654.354082 444.102013 
L 669.468649 434.725831 
L 684.056433 425.935603 
L 698.423548 417.534587 
L 712.586129 409.508351 
L 726.558317 401.843682 
L 740.352551 394.528437 
L 753.979822 387.551409 
L 767.449857 380.90223 
L 780.771299 374.571274 
L 793.951848 368.549586 
L 806.998367 362.828793 
L 820.164216 357.29951 
L 833.203022 352.066903 
L 846.119979 347.123665 
L 858.919748 342.46292 
L 871.606491 338.078178 
L 884.183956 333.963308 
L 896.655486 330.112494 
L 909.256486 326.454895 
L 921.753483 323.060144 
L 934.149005 319.922964 
L 946.445331 317.038327 
L 958.644471 314.401431 
L 970.971476 311.96562 
L 983.201205 309.777406 
L 995.335134 307.832343 
L 1007.374565 306.126156 
L 1019.320632 304.654744 
L 1031.388987 303.393714 
L 1043.362466 302.367971 
L 1055.241829 301.573641 
L 1067.027707 301.006995 
L 1078.720629 300.664427 
L 1090.527325 300.542253 
L 1102.238492 300.645054 
L 1113.854389 300.96938 
L 1125.375179 301.511894 
L 1136.800958 302.269345 
L 1148.329681 303.257459 
L 1159.760005 304.461636 
L 1171.091822 305.878731 
L 1182.324962 307.505699 
L 1193.459205 309.339567 
L 1204.683679 311.414352 
L 1215.805209 313.697269 
L 1226.823436 316.185428 
L 1237.737942 318.876007 
L 1248.730618 321.816955 
L 1259.615071 324.961576 
L 1270.390782 328.307125 
L 1281.057185 331.850918 
L 1291.613712 335.590342 
L 1302.232917 339.590013 
L 1312.737275 343.786647 
L 1323.126127 348.177708 
L 1333.398787 352.760723 
L 1343.554565 357.533302 
L 1353.592755 362.493117 
L 1363.674282 367.723785 
L 1373.63285 373.143273 
L 1383.467707 378.749384 
L 1393.178087 384.540015 
L 1402.763239 390.513145 
L 1412.222404 396.666873 
L 1421.704297 403.10299 
L 1431.054539 409.721955 
L 1440.272338 416.52214 
L 1449.356918 423.502079 
L 1458.307511 430.660475 
L 1467.123345 437.996219 
L 1475.803664 445.508426 
L 1484.347717 453.19646 
L 1492.754752 461.059971 
L 1501.024018 469.098942 
L 1509.154764 477.313749 
L 1517.146222 485.705226 
L 1524.997591 494.274757 
L 1532.586762 502.884091 
L 1540.038585 511.670565 
L 1547.3521 520.637816 
L 1554.526189 529.790631 
L 1561.447185 538.982945 
L 1568.120203 548.213076 
L 1574.549938 557.480778 
L 1580.7405 566.787492 
L 1586.695173 576.13669 
L 1592.416065 585.53432 
L 1597.805001 594.815355 
L 1602.867456 603.978804 
L 1607.512874 612.842199 
L 1611.749362 621.392443 
L 1615.582642 629.615168 
L 1619.016219 637.493492 
L 1622.05203 645.006578 
L 1624.691728 652.127974 
L 1626.938859 658.824193 
L 1628.801957 665.054111 
L 1630.354007 671.001665 
L 1631.599461 676.631388 
L 1632.590837 682.145296 
L 1633.324299 687.51344 
L 1633.805575 692.702157 
L 1634.05116 697.677899 
L 1634.083775 702.660204 
L 1633.892539 707.86957 
L 1633.483257 713.029282 
L 1632.842254 718.358077 
L 1631.926317 724.063137 
L 1630.768568 729.874806 
L 1629.325709 735.998422 
L 1627.532943 742.622244 
L 1625.377157 749.704647 
L 1622.851313 757.210875 
L 1619.951382 765.113008 
L 1616.673967 773.388928 
L 1613.014733 782.020843 
L 1608.967559 790.993901 
L 1604.524186 800.294929 
L 1599.76523 809.735435 
L 1594.685792 819.31471 
L 1589.278882 829.030391 
L 1583.634426 838.713289 
L 1577.749829 848.367751 
L 1571.621491 857.996006 
L 1565.245068 867.598512 
L 1558.723786 877.021223 
L 1551.949064 886.42058 
L 1545.028199 895.645674 
L 1537.847409 904.845012 
L 1530.518392 913.871404 
L 1523.042279 922.72702 
L 1515.420127 931.413351 
L 1507.652936 939.931325 
L 1499.741671 948.281382 
L 1491.687263 956.46357 
L 1483.490639 964.477588 
L 1475.152712 972.322846 
L 1466.674387 979.998501 
L 1458.056581 987.503475 
L 1449.300204 994.836514 
L 1440.406163 1001.996182 
L 1431.375383 1008.980886 
L 1422.208788 1015.788902 
L 1412.907302 1022.418373 
L 1403.471855 1028.867332 
L 1394.056299 1035.035682 
L 1384.512798 1041.025129 
L 1374.842247 1046.833521 
L 1365.045544 1052.458621 
L 1355.123579 1057.898121 
L 1345.077248 1063.149633 
L 1335.072439 1068.130592 
L 1324.948942 1072.924799 
L 1314.707588 1077.529777 
L 1304.349211 1081.942994 
L 1293.874619 1086.161861 
L 1283.459153 1090.119387 
L 1272.932781 1093.88372 
L 1262.296244 1097.45221 
L 1251.550256 1100.822143 
L 1240.695521 1103.990757 
L 1229.916303 1106.907488 
L 1219.033198 1109.624047 
L 1208.046802 1112.13761 
L 1196.95767 1114.445286 
L 1185.766335 1116.54412 
L 1174.665536 1118.400873 
L 1163.466866 1120.049916 
L 1152.170717 1121.488223 
L 1140.777425 1122.71269 
L 1129.486207 1123.704612 
L 1118.101669 1124.483813 
L 1106.623974 1125.047097 
L 1095.053234 1125.391175 
L 1083.38948 1125.512665 
L 1071.839733 1125.411876 
L 1060.200057 1125.089463 
L 1048.47026 1124.541902 
L 1036.650048 1123.765549 
L 1024.952536 1122.776721 
L 1013.166974 1121.559882 
L 1001.292783 1120.111209 
L 989.329264 1118.426728 
L 977.275587 1116.502318 
L 965.35241 1114.375331 
L 953.340307 1112.008705 
L 941.238043 1109.398038 
L 929.0442 1106.538732 
L 916.757167 1103.425985 
L 904.605283 1100.11958 
L 892.359909 1096.559206 
L 880.018842 1092.739637 
L 867.5796 1088.655368 
L 855.039413 1084.30061 
L 842.634711 1079.759242 
L 830.126537 1074.945518 
L 817.511212 1069.852989 
L 804.784613 1064.474815 
L 791.942131 1058.803723 
L 778.978606 1052.831975 
L 766.141234 1046.675047 
L 753.175759 1040.212617 
L 740.075327 1033.435739 
L 726.832239 1026.334802 
L 713.437822 1018.899438 
L 699.882288 1011.118442 
L 686.154555 1002.97965 
L 672.242032 994.46981 
L 658.130362 985.574443 
L 643.803106 976.277641 
L 629.241328 966.561857 
L 614.423136 956.407644 
L 599.323012 945.793311 
L 583.605494 934.471891 
L 567.213122 922.384287 
L 550.397075 909.707932 
L 532.43611 895.887102 
L 513.18812 880.791466 
L 491.745768 863.68627 
L 465.826399 842.711044 
L 385.46269 777.453771 
L 367.71733 763.46851 
L 352.49446 751.750839 
L 339.129726 741.738032 
L 326.722751 732.72443 
L 315.466846 724.825812 
L 305.5965 718.15304 
L 295.837951 711.82258 
L 287.038708 706.371877 
L 278.515063 701.35411 
L 270.325247 696.805319 
L 262.543682 692.760088 
L 255.26412 689.248517 
L 248.601895 686.29196 
L 242.693704 683.897973 
L 236.400096 681.60907 
L 231.038485 679.8944 
L 225.336083 678.334939 
L 220.80237 677.310248 
L 216.019431 676.458632 
L 210.960756 675.843444 
L 207.424027 675.607463 
L 203.751941 675.550379 
L 199.947475 675.715059 
L 196.023718 676.152601 
L 192.009552 676.920306 
L 187.955758 678.07553 
L 185.936839 678.813597 
L 183.938446 679.663864 
L 181.973342 680.627533 
L 180.05468 681.70315 
L 178.195262 682.886428 
L 176.406741 684.170344 
L 174.698937 685.545561 
L 173.079319 687.001031 
L 170.121674 690.10451 
L 167.544134 693.385757 
L 165.327261 696.762381 
L 163.435126 700.171711 
L 161.826223 703.570363 
L 160.460122 706.930403 
L 159.300518 710.235045 
L 157.881447 715.069327 
L 156.773069 719.746976 
L 155.911056 724.268559 
L 155.062564 730.066356 
L 154.482157 735.620329 
L 154.043709 742.254822 
L 153.848764 748.585796 
L 153.856964 755.832871 
L 154.116226 763.869955 
L 154.653897 772.584319 
L 155.48097 781.878866 
L 156.596676 791.671962 
L 157.992356 801.895899 
L 159.797949 813.354821 
L 161.868174 825.058646 
L 164.334243 837.754997 
L 167.340831 852.042293 
L 170.867556 867.691961 
L 175.037664 885.1626 
L 180.109884 905.413198 
L 186.442031 929.724522 
L 195.281612 962.700428 
L 215.999251 1039.706384 
L 223.352162 1068.075168 
L 229.494288 1092.641227 
L 234.874426 1115.056343 
L 239.748563 1136.315282 
L 244.075238 1156.165187 
L 248.051401 1175.448985 
L 251.623399 1193.865415 
L 254.88004 1211.822252 
L 257.831238 1229.352967 
L 260.437986 1246.160677 
L 262.768152 1262.610382 
L 264.829517 1278.723165 
L 266.629428 1294.517696 
L 268.174824 1310.010569 
L 269.472278 1325.216605 
L 270.546347 1340.439233 
L 271.375418 1355.390128 
L 271.965456 1370.08068 
L 272.322144 1384.521188 
L 272.4255 1392.94825 
L 272.4255 1392.94825 
" style="fill:none;stroke:#800080;stroke-linecap:square;stroke-width:1.5;"/>
   </g>
   <g id="patch_11">
    <path d="M 60.114062 1354.392 
L 60.114062 7.2 
" style="fill:none;stroke:#000000;stroke-linecap:square;stroke-linejoin:miter;stroke-width:0.8;"/>
   </g>
   <g id="patch_12">
    <path d="M 1856.370062 1354.392 
L 1856.370062 7.2 
" style="fill:none;stroke:#000000;stroke-linecap:square;stroke-linejoin:miter;stroke-width:0.8;"/>
   </g>
   <g id="patch_13">
    <path d="M 60.114062 1354.392 
L 1856.370062 1354.392 
" style="fill:none;stroke:#000000;stroke-linecap:square;stroke-linejoin:miter;stroke-width:0.8;"/>
   </g>
   <g id="patch_14">
    <path d="M 60.114062 7.2 
L 1856.370062 7.2 
" style="fill:none;stroke:#000000;stroke-linecap:square;stroke-linejoin:miter;stroke-width:0.8;"/>
   </g>
  </g>
 </g>
 <defs>
  <clipPath id="p220019757a">
   <rect height="1347.192" width="1796.256" x="60.114062" y="7.2"/>
  </clipPath>
 </defs>
</svg>
