<?xml version="1.0" encoding="utf-8" standalone="no"?>
<!DOCTYPE svg PUBLIC "-//W3C//DTD SVG 1.1//EN"
  "http://www.w3.org/Graphics/SVG/1.1/DTD/svg11.dtd">
<!-- Created with matplotlib (https://matplotlib.org/) -->
<svg height="2065.54425pt" version="1.1" viewBox="0 0 2761.698063 2065.54425" width="2761.698063pt" xmlns="http://www.w3.org/2000/svg" xmlns:xlink="http://www.w3.org/1999/xlink">
 <metadata>
  <rdf:RDF xmlns:cc="http://creativecommons.org/ns#" xmlns:dc="http://purl.org/dc/elements/1.1/" xmlns:rdf="http://www.w3.org/1999/02/22-rdf-syntax-ns#">
   <cc:Work>
    <dc:type rdf:resource="http://purl.org/dc/dcmitype/StillImage"/>
    <dc:date>2021-08-06T14:46:04.315508</dc:date>
    <dc:format>image/svg+xml</dc:format>
    <dc:creator>
     <cc:Agent>
      <dc:title>Matplotlib v3.3.2, https://matplotlib.org/</dc:title>
     </cc:Agent>
    </dc:creator>
   </cc:Work>
  </rdf:RDF>
 </metadata>
 <defs>
  <style type="text/css">*{stroke-linecap:butt;stroke-linejoin:round;}</style>
 </defs>
 <g id="figure_1">
  <g id="patch_1">
   <path d="M 0 2065.54425 
L 2761.698063 2065.54425 
L 2761.698063 0 
L 0 0 
z
" style="fill:#ffffff;"/>
  </g>
  <g id="axes_1">
   <g id="patch_2">
    <path d="M 60.114062 2027.988 
L 2754.498063 2027.988 
L 2754.498063 7.2 
L 60.114062 7.2 
z
" style="fill:#ffffff;"/>
   </g>
   <g id="patch_3">
    <path clip-path="url(#pd24f167f57)" d="M 254.394694 1080.158702 
C 263.695627 1080.158702 272.61687 1076.463402 279.193623 1069.886649 
C 285.770376 1063.309896 289.465676 1054.388653 289.465676 1045.08772 
C 289.465676 1035.786787 285.770376 1026.865544 279.193623 1020.288791 
C 272.61687 1013.712038 263.695627 1010.016738 254.394694 1010.016738 
C 245.093761 1010.016738 236.172518 1013.712038 229.595765 1020.288791 
C 223.019012 1026.865544 219.323712 1035.786787 219.323712 1045.08772 
C 219.323712 1054.388653 223.019012 1063.309896 229.595765 1069.886649 
C 236.172518 1076.463402 245.093761 1080.158702 254.394694 1080.158702 
z
" style="fill:#00008b;stroke:#00008b;stroke-linejoin:miter;"/>
   </g>
   <g id="patch_4">
    <path clip-path="url(#pd24f167f57)" d="M 2368.122446 1054.638475 
C 2370.655484 1054.638475 2373.085117 1053.632088 2374.876246 1051.840959 
C 2376.667375 1050.049831 2377.673762 1047.620198 2377.673762 1045.087159 
C 2377.673762 1042.55412 2376.667375 1040.124487 2374.876246 1038.333358 
C 2373.085117 1036.54223 2370.655484 1035.535843 2368.122446 1035.535843 
C 2365.589407 1035.535843 2363.159774 1036.54223 2361.368645 1038.333358 
C 2359.577516 1040.124487 2358.571129 1042.55412 2358.571129 1045.087159 
C 2358.571129 1047.620198 2359.577516 1050.049831 2361.368645 1051.840959 
C 2363.159774 1053.632088 2365.589407 1054.638475 2368.122446 1054.638475 
z
" style="fill:#808080;stroke:#808080;stroke-linejoin:miter;"/>
   </g>
   <g id="patch_5">
    <path clip-path="url(#pd24f167f57)" d="M 254.394694 1080.158702 
C 263.695627 1080.158702 272.61687 1076.463402 279.193623 1069.886649 
C 285.770376 1063.309896 289.465676 1054.388653 289.465676 1045.08772 
C 289.465676 1035.786787 285.770376 1026.865544 279.193623 1020.288791 
C 272.61687 1013.712038 263.695627 1010.016738 254.394694 1010.016738 
C 245.093761 1010.016738 236.172518 1013.712038 229.595765 1020.288791 
C 223.019012 1026.865544 219.323712 1035.786787 219.323712 1045.08772 
C 219.323712 1054.388653 223.019012 1063.309896 229.595765 1069.886649 
C 236.172518 1076.463402 245.093761 1080.158702 254.394694 1080.158702 
z
" style="fill:#00008b;stroke:#00008b;stroke-linejoin:miter;"/>
   </g>
   <g id="patch_6">
    <path clip-path="url(#pd24f167f57)" d="M 2368.122446 1054.638475 
C 2370.655484 1054.638475 2373.085117 1053.632088 2374.876246 1051.840959 
C 2376.667375 1050.049831 2377.673762 1047.620198 2377.673762 1045.087159 
C 2377.673762 1042.55412 2376.667375 1040.124487 2374.876246 1038.333358 
C 2373.085117 1036.54223 2370.655484 1035.535843 2368.122446 1035.535843 
C 2365.589407 1035.535843 2363.159774 1036.54223 2361.368645 1038.333358 
C 2359.577516 1040.124487 2358.571129 1042.55412 2358.571129 1045.087159 
C 2358.571129 1047.620198 2359.577516 1050.049831 2361.368645 1051.840959 
C 2363.159774 1053.632088 2365.589407 1054.638475 2368.122446 1054.638475 
z
" style="fill:#808080;stroke:#808080;stroke-linejoin:miter;"/>
   </g>
   <g id="patch_7">
    <path clip-path="url(#pd24f167f57)" d="M 254.394694 1080.158702 
C 263.695627 1080.158702 272.61687 1076.463402 279.193623 1069.886649 
C 285.770376 1063.309896 289.465676 1054.388653 289.465676 1045.08772 
C 289.465676 1035.786787 285.770376 1026.865544 279.193623 1020.288791 
C 272.61687 1013.712038 263.695627 1010.016738 254.394694 1010.016738 
C 245.093761 1010.016738 236.172518 1013.712038 229.595765 1020.288791 
C 223.019012 1026.865544 219.323712 1035.786787 219.323712 1045.08772 
C 219.323712 1054.388653 223.019012 1063.309896 229.595765 1069.886649 
C 236.172518 1076.463402 245.093761 1080.158702 254.394694 1080.158702 
z
" style="fill:#00008b;stroke:#00008b;stroke-linejoin:miter;"/>
   </g>
   <g id="patch_8">
    <path clip-path="url(#pd24f167f57)" d="M 2368.122446 1054.638475 
C 2370.655484 1054.638475 2373.085117 1053.632088 2374.876246 1051.840959 
C 2376.667375 1050.049831 2377.673762 1047.620198 2377.673762 1045.087159 
C 2377.673762 1042.55412 2376.667375 1040.124487 2374.876246 1038.333358 
C 2373.085117 1036.54223 2370.655484 1035.535843 2368.122446 1035.535843 
C 2365.589407 1035.535843 2363.159774 1036.54223 2361.368645 1038.333358 
C 2359.577516 1040.124487 2358.571129 1042.55412 2358.571129 1045.087159 
C 2358.571129 1047.620198 2359.577516 1050.049831 2361.368645 1051.840959 
C 2363.159774 1053.632088 2365.589407 1054.638475 2368.122446 1054.638475 
z
" style="fill:#808080;stroke:#808080;stroke-linejoin:miter;"/>
   </g>
   <g id="patch_9">
    <path clip-path="url(#pd24f167f57)" d="M 254.394694 1080.158702 
C 263.695627 1080.158702 272.61687 1076.463402 279.193623 1069.886649 
C 285.770376 1063.309896 289.465676 1054.388653 289.465676 1045.08772 
C 289.465676 1035.786787 285.770376 1026.865544 279.193623 1020.288791 
C 272.61687 1013.712038 263.695627 1010.016738 254.394694 1010.016738 
C 245.093761 1010.016738 236.172518 1013.712038 229.595765 1020.288791 
C 223.019012 1026.865544 219.323712 1035.786787 219.323712 1045.08772 
C 219.323712 1054.388653 223.019012 1063.309896 229.595765 1069.886649 
C 236.172518 1076.463402 245.093761 1080.158702 254.394694 1080.158702 
z
" style="fill:#00008b;stroke:#00008b;stroke-linejoin:miter;"/>
   </g>
   <g id="patch_10">
    <path clip-path="url(#pd24f167f57)" d="M 2368.122446 1054.638475 
C 2370.655484 1054.638475 2373.085117 1053.632088 2374.876246 1051.840959 
C 2376.667375 1050.049831 2377.673762 1047.620198 2377.673762 1045.087159 
C 2377.673762 1042.55412 2376.667375 1040.124487 2374.876246 1038.333358 
C 2373.085117 1036.54223 2370.655484 1035.535843 2368.122446 1035.535843 
C 2365.589407 1035.535843 2363.159774 1036.54223 2361.368645 1038.333358 
C 2359.577516 1040.124487 2358.571129 1042.55412 2358.571129 1045.087159 
C 2358.571129 1047.620198 2359.577516 1050.049831 2361.368645 1051.840959 
C 2363.159774 1053.632088 2365.589407 1054.638475 2368.122446 1054.638475 
z
" style="fill:#808080;stroke:#808080;stroke-linejoin:miter;"/>
   </g>
   <g id="patch_11">
    <path clip-path="url(#pd24f167f57)" d="M 254.394694 1080.158702 
C 263.695627 1080.158702 272.61687 1076.463402 279.193623 1069.886649 
C 285.770376 1063.309896 289.465676 1054.388653 289.465676 1045.08772 
C 289.465676 1035.786787 285.770376 1026.865544 279.193623 1020.288791 
C 272.61687 1013.712038 263.695627 1010.016738 254.394694 1010.016738 
C 245.093761 1010.016738 236.172518 1013.712038 229.595765 1020.288791 
C 223.019012 1026.865544 219.323712 1035.786787 219.323712 1045.08772 
C 219.323712 1054.388653 223.019012 1063.309896 229.595765 1069.886649 
C 236.172518 1076.463402 245.093761 1080.158702 254.394694 1080.158702 
z
" style="fill:#00008b;stroke:#00008b;stroke-linejoin:miter;"/>
   </g>
   <g id="patch_12">
    <path clip-path="url(#pd24f167f57)" d="M 2368.122446 1054.638475 
C 2370.655484 1054.638475 2373.085117 1053.632088 2374.876246 1051.840959 
C 2376.667375 1050.049831 2377.673762 1047.620198 2377.673762 1045.087159 
C 2377.673762 1042.55412 2376.667375 1040.124487 2374.876246 1038.333358 
C 2373.085117 1036.54223 2370.655484 1035.535843 2368.122446 1035.535843 
C 2365.589407 1035.535843 2363.159774 1036.54223 2361.368645 1038.333358 
C 2359.577516 1040.124487 2358.571129 1042.55412 2358.571129 1045.087159 
C 2358.571129 1047.620198 2359.577516 1050.049831 2361.368645 1051.840959 
C 2363.159774 1053.632088 2365.589407 1054.638475 2368.122446 1054.638475 
z
" style="fill:#808080;stroke:#808080;stroke-linejoin:miter;"/>
   </g>
   <g id="matplotlib.axis_1">
    <g id="xtick_1">
     <g id="line2d_1">
      <path clip-path="url(#pd24f167f57)" d="M 280.063777 2027.988 
L 280.063777 7.2 
" style="fill:none;stroke:#b0b0b0;stroke-linecap:square;stroke-width:0.8;"/>
     </g>
     <g id="line2d_2">
      <defs>
       <path d="M 0 0 
L 0 3.5 
" id="m329495a0c2" style="stroke:#000000;stroke-width:0.8;"/>
      </defs>
      <g>
       <use style="stroke:#000000;stroke-width:0.8;" x="280.063777" xlink:href="#m329495a0c2" y="2027.988"/>
      </g>
     </g>
     <g id="text_1">
      <!-- 0.0 -->
      <g transform="translate(272.112214 2042.586437)scale(0.1 -0.1)">
       <defs>
        <path d="M 31.78125 66.40625 
Q 24.171875 66.40625 20.328125 58.90625 
Q 16.5 51.421875 16.5 36.375 
Q 16.5 21.390625 20.328125 13.890625 
Q 24.171875 6.390625 31.78125 6.390625 
Q 39.453125 6.390625 43.28125 13.890625 
Q 47.125 21.390625 47.125 36.375 
Q 47.125 51.421875 43.28125 58.90625 
Q 39.453125 66.40625 31.78125 66.40625 
z
M 31.78125 74.21875 
Q 44.046875 74.21875 50.515625 64.515625 
Q 56.984375 54.828125 56.984375 36.375 
Q 56.984375 17.96875 50.515625 8.265625 
Q 44.046875 -1.421875 31.78125 -1.421875 
Q 19.53125 -1.421875 13.0625 8.265625 
Q 6.59375 17.96875 6.59375 36.375 
Q 6.59375 54.828125 13.0625 64.515625 
Q 19.53125 74.21875 31.78125 74.21875 
z
" id="DejaVuSans-48"/>
        <path d="M 10.6875 12.40625 
L 21 12.40625 
L 21 0 
L 10.6875 0 
z
" id="DejaVuSans-46"/>
       </defs>
       <use xlink:href="#DejaVuSans-48"/>
       <use x="63.623047" xlink:href="#DejaVuSans-46"/>
       <use x="95.410156" xlink:href="#DejaVuSans-48"/>
      </g>
     </g>
    </g>
    <g id="xtick_2">
     <g id="line2d_3">
      <path clip-path="url(#pd24f167f57)" d="M 829.938063 2027.988 
L 829.938063 7.2 
" style="fill:none;stroke:#b0b0b0;stroke-linecap:square;stroke-width:0.8;"/>
     </g>
     <g id="line2d_4">
      <g>
       <use style="stroke:#000000;stroke-width:0.8;" x="829.938063" xlink:href="#m329495a0c2" y="2027.988"/>
      </g>
     </g>
     <g id="text_2">
      <!-- 100.0 -->
      <g transform="translate(815.624 2042.586437)scale(0.1 -0.1)">
       <defs>
        <path d="M 12.40625 8.296875 
L 28.515625 8.296875 
L 28.515625 63.921875 
L 10.984375 60.40625 
L 10.984375 69.390625 
L 28.421875 72.90625 
L 38.28125 72.90625 
L 38.28125 8.296875 
L 54.390625 8.296875 
L 54.390625 0 
L 12.40625 0 
z
" id="DejaVuSans-49"/>
       </defs>
       <use xlink:href="#DejaVuSans-49"/>
       <use x="63.623047" xlink:href="#DejaVuSans-48"/>
       <use x="127.246094" xlink:href="#DejaVuSans-48"/>
       <use x="190.869141" xlink:href="#DejaVuSans-46"/>
       <use x="222.65625" xlink:href="#DejaVuSans-48"/>
      </g>
     </g>
    </g>
    <g id="xtick_3">
     <g id="line2d_5">
      <path clip-path="url(#pd24f167f57)" d="M 1379.812348 2027.988 
L 1379.812348 7.2 
" style="fill:none;stroke:#b0b0b0;stroke-linecap:square;stroke-width:0.8;"/>
     </g>
     <g id="line2d_6">
      <g>
       <use style="stroke:#000000;stroke-width:0.8;" x="1379.812348" xlink:href="#m329495a0c2" y="2027.988"/>
      </g>
     </g>
     <g id="text_3">
      <!-- 200.0 -->
      <g transform="translate(1365.498286 2042.586437)scale(0.1 -0.1)">
       <defs>
        <path d="M 19.1875 8.296875 
L 53.609375 8.296875 
L 53.609375 0 
L 7.328125 0 
L 7.328125 8.296875 
Q 12.9375 14.109375 22.625 23.890625 
Q 32.328125 33.6875 34.8125 36.53125 
Q 39.546875 41.84375 41.421875 45.53125 
Q 43.3125 49.21875 43.3125 52.78125 
Q 43.3125 58.59375 39.234375 62.25 
Q 35.15625 65.921875 28.609375 65.921875 
Q 23.96875 65.921875 18.8125 64.3125 
Q 13.671875 62.703125 7.8125 59.421875 
L 7.8125 69.390625 
Q 13.765625 71.78125 18.9375 73 
Q 24.125 74.21875 28.421875 74.21875 
Q 39.75 74.21875 46.484375 68.546875 
Q 53.21875 62.890625 53.21875 53.421875 
Q 53.21875 48.921875 51.53125 44.890625 
Q 49.859375 40.875 45.40625 35.40625 
Q 44.1875 33.984375 37.640625 27.21875 
Q 31.109375 20.453125 19.1875 8.296875 
z
" id="DejaVuSans-50"/>
       </defs>
       <use xlink:href="#DejaVuSans-50"/>
       <use x="63.623047" xlink:href="#DejaVuSans-48"/>
       <use x="127.246094" xlink:href="#DejaVuSans-48"/>
       <use x="190.869141" xlink:href="#DejaVuSans-46"/>
       <use x="222.65625" xlink:href="#DejaVuSans-48"/>
      </g>
     </g>
    </g>
    <g id="xtick_4">
     <g id="line2d_7">
      <path clip-path="url(#pd24f167f57)" d="M 1929.686634 2027.988 
L 1929.686634 7.2 
" style="fill:none;stroke:#b0b0b0;stroke-linecap:square;stroke-width:0.8;"/>
     </g>
     <g id="line2d_8">
      <g>
       <use style="stroke:#000000;stroke-width:0.8;" x="1929.686634" xlink:href="#m329495a0c2" y="2027.988"/>
      </g>
     </g>
     <g id="text_4">
      <!-- 300.0 -->
      <g transform="translate(1915.372571 2042.586437)scale(0.1 -0.1)">
       <defs>
        <path d="M 40.578125 39.3125 
Q 47.65625 37.796875 51.625 33 
Q 55.609375 28.21875 55.609375 21.1875 
Q 55.609375 10.40625 48.1875 4.484375 
Q 40.765625 -1.421875 27.09375 -1.421875 
Q 22.515625 -1.421875 17.65625 -0.515625 
Q 12.796875 0.390625 7.625 2.203125 
L 7.625 11.71875 
Q 11.71875 9.328125 16.59375 8.109375 
Q 21.484375 6.890625 26.8125 6.890625 
Q 36.078125 6.890625 40.9375 10.546875 
Q 45.796875 14.203125 45.796875 21.1875 
Q 45.796875 27.640625 41.28125 31.265625 
Q 36.765625 34.90625 28.71875 34.90625 
L 20.21875 34.90625 
L 20.21875 43.015625 
L 29.109375 43.015625 
Q 36.375 43.015625 40.234375 45.921875 
Q 44.09375 48.828125 44.09375 54.296875 
Q 44.09375 59.90625 40.109375 62.90625 
Q 36.140625 65.921875 28.71875 65.921875 
Q 24.65625 65.921875 20.015625 65.03125 
Q 15.375 64.15625 9.8125 62.3125 
L 9.8125 71.09375 
Q 15.4375 72.65625 20.34375 73.4375 
Q 25.25 74.21875 29.59375 74.21875 
Q 40.828125 74.21875 47.359375 69.109375 
Q 53.90625 64.015625 53.90625 55.328125 
Q 53.90625 49.265625 50.4375 45.09375 
Q 46.96875 40.921875 40.578125 39.3125 
z
" id="DejaVuSans-51"/>
       </defs>
       <use xlink:href="#DejaVuSans-51"/>
       <use x="63.623047" xlink:href="#DejaVuSans-48"/>
       <use x="127.246094" xlink:href="#DejaVuSans-48"/>
       <use x="190.869141" xlink:href="#DejaVuSans-46"/>
       <use x="222.65625" xlink:href="#DejaVuSans-48"/>
      </g>
     </g>
    </g>
    <g id="xtick_5">
     <g id="line2d_9">
      <path clip-path="url(#pd24f167f57)" d="M 2479.56092 2027.988 
L 2479.56092 7.2 
" style="fill:none;stroke:#b0b0b0;stroke-linecap:square;stroke-width:0.8;"/>
     </g>
     <g id="line2d_10">
      <g>
       <use style="stroke:#000000;stroke-width:0.8;" x="2479.56092" xlink:href="#m329495a0c2" y="2027.988"/>
      </g>
     </g>
     <g id="text_5">
      <!-- 400.0 -->
      <g transform="translate(2465.246857 2042.586437)scale(0.1 -0.1)">
       <defs>
        <path d="M 37.796875 64.3125 
L 12.890625 25.390625 
L 37.796875 25.390625 
z
M 35.203125 72.90625 
L 47.609375 72.90625 
L 47.609375 25.390625 
L 58.015625 25.390625 
L 58.015625 17.1875 
L 47.609375 17.1875 
L 47.609375 0 
L 37.796875 0 
L 37.796875 17.1875 
L 4.890625 17.1875 
L 4.890625 26.703125 
z
" id="DejaVuSans-52"/>
       </defs>
       <use xlink:href="#DejaVuSans-52"/>
       <use x="63.623047" xlink:href="#DejaVuSans-48"/>
       <use x="127.246094" xlink:href="#DejaVuSans-48"/>
       <use x="190.869141" xlink:href="#DejaVuSans-46"/>
       <use x="222.65625" xlink:href="#DejaVuSans-48"/>
      </g>
     </g>
    </g>
    <g id="text_6">
     <!-- Unit: 1000 km -->
     <g transform="translate(1371.775594 2056.264563)scale(0.1 -0.1)">
      <defs>
       <path d="M 8.6875 72.90625 
L 18.609375 72.90625 
L 18.609375 28.609375 
Q 18.609375 16.890625 22.84375 11.734375 
Q 27.09375 6.59375 36.625 6.59375 
Q 46.09375 6.59375 50.34375 11.734375 
Q 54.59375 16.890625 54.59375 28.609375 
L 54.59375 72.90625 
L 64.5 72.90625 
L 64.5 27.390625 
Q 64.5 13.140625 57.4375 5.859375 
Q 50.390625 -1.421875 36.625 -1.421875 
Q 22.796875 -1.421875 15.734375 5.859375 
Q 8.6875 13.140625 8.6875 27.390625 
z
" id="DejaVuSans-85"/>
       <path d="M 54.890625 33.015625 
L 54.890625 0 
L 45.90625 0 
L 45.90625 32.71875 
Q 45.90625 40.484375 42.875 44.328125 
Q 39.84375 48.1875 33.796875 48.1875 
Q 26.515625 48.1875 22.3125 43.546875 
Q 18.109375 38.921875 18.109375 30.90625 
L 18.109375 0 
L 9.078125 0 
L 9.078125 54.6875 
L 18.109375 54.6875 
L 18.109375 46.1875 
Q 21.34375 51.125 25.703125 53.5625 
Q 30.078125 56 35.796875 56 
Q 45.21875 56 50.046875 50.171875 
Q 54.890625 44.34375 54.890625 33.015625 
z
" id="DejaVuSans-110"/>
       <path d="M 9.421875 54.6875 
L 18.40625 54.6875 
L 18.40625 0 
L 9.421875 0 
z
M 9.421875 75.984375 
L 18.40625 75.984375 
L 18.40625 64.59375 
L 9.421875 64.59375 
z
" id="DejaVuSans-105"/>
       <path d="M 18.3125 70.21875 
L 18.3125 54.6875 
L 36.8125 54.6875 
L 36.8125 47.703125 
L 18.3125 47.703125 
L 18.3125 18.015625 
Q 18.3125 11.328125 20.140625 9.421875 
Q 21.96875 7.515625 27.59375 7.515625 
L 36.8125 7.515625 
L 36.8125 0 
L 27.59375 0 
Q 17.1875 0 13.234375 3.875 
Q 9.28125 7.765625 9.28125 18.015625 
L 9.28125 47.703125 
L 2.6875 47.703125 
L 2.6875 54.6875 
L 9.28125 54.6875 
L 9.28125 70.21875 
z
" id="DejaVuSans-116"/>
       <path d="M 11.71875 12.40625 
L 22.015625 12.40625 
L 22.015625 0 
L 11.71875 0 
z
M 11.71875 51.703125 
L 22.015625 51.703125 
L 22.015625 39.3125 
L 11.71875 39.3125 
z
" id="DejaVuSans-58"/>
       <path id="DejaVuSans-32"/>
       <path d="M 9.078125 75.984375 
L 18.109375 75.984375 
L 18.109375 31.109375 
L 44.921875 54.6875 
L 56.390625 54.6875 
L 27.390625 29.109375 
L 57.625 0 
L 45.90625 0 
L 18.109375 26.703125 
L 18.109375 0 
L 9.078125 0 
z
" id="DejaVuSans-107"/>
       <path d="M 52 44.1875 
Q 55.375 50.25 60.0625 53.125 
Q 64.75 56 71.09375 56 
Q 79.640625 56 84.28125 50.015625 
Q 88.921875 44.046875 88.921875 33.015625 
L 88.921875 0 
L 79.890625 0 
L 79.890625 32.71875 
Q 79.890625 40.578125 77.09375 44.375 
Q 74.3125 48.1875 68.609375 48.1875 
Q 61.625 48.1875 57.5625 43.546875 
Q 53.515625 38.921875 53.515625 30.90625 
L 53.515625 0 
L 44.484375 0 
L 44.484375 32.71875 
Q 44.484375 40.625 41.703125 44.40625 
Q 38.921875 48.1875 33.109375 48.1875 
Q 26.21875 48.1875 22.15625 43.53125 
Q 18.109375 38.875 18.109375 30.90625 
L 18.109375 0 
L 9.078125 0 
L 9.078125 54.6875 
L 18.109375 54.6875 
L 18.109375 46.1875 
Q 21.1875 51.21875 25.484375 53.609375 
Q 29.78125 56 35.6875 56 
Q 41.65625 56 45.828125 52.96875 
Q 50 49.953125 52 44.1875 
z
" id="DejaVuSans-109"/>
      </defs>
      <use xlink:href="#DejaVuSans-85"/>
      <use x="73.193359" xlink:href="#DejaVuSans-110"/>
      <use x="136.572266" xlink:href="#DejaVuSans-105"/>
      <use x="164.355469" xlink:href="#DejaVuSans-116"/>
      <use x="203.564453" xlink:href="#DejaVuSans-58"/>
      <use x="237.255859" xlink:href="#DejaVuSans-32"/>
      <use x="269.042969" xlink:href="#DejaVuSans-49"/>
      <use x="332.666016" xlink:href="#DejaVuSans-48"/>
      <use x="396.289062" xlink:href="#DejaVuSans-48"/>
      <use x="459.912109" xlink:href="#DejaVuSans-48"/>
      <use x="523.535156" xlink:href="#DejaVuSans-32"/>
      <use x="555.322266" xlink:href="#DejaVuSans-107"/>
      <use x="613.232422" xlink:href="#DejaVuSans-109"/>
     </g>
    </g>
   </g>
   <g id="matplotlib.axis_2">
    <g id="ytick_1">
     <g id="line2d_11">
      <path clip-path="url(#pd24f167f57)" d="M 60.114062 1869.899143 
L 2754.498063 1869.899143 
" style="fill:none;stroke:#b0b0b0;stroke-linecap:square;stroke-width:0.8;"/>
     </g>
     <g id="line2d_12">
      <defs>
       <path d="M 0 0 
L -3.5 0 
" id="m93c7110f69" style="stroke:#000000;stroke-width:0.8;"/>
      </defs>
      <g>
       <use style="stroke:#000000;stroke-width:0.8;" x="60.114062" xlink:href="#m93c7110f69" y="1869.899143"/>
      </g>
     </g>
     <g id="text_7">
      <!-- -150.0 -->
      <g transform="translate(20.878125 1873.698362)scale(0.1 -0.1)">
       <defs>
        <path d="M 4.890625 31.390625 
L 31.203125 31.390625 
L 31.203125 23.390625 
L 4.890625 23.390625 
z
" id="DejaVuSans-45"/>
        <path d="M 10.796875 72.90625 
L 49.515625 72.90625 
L 49.515625 64.59375 
L 19.828125 64.59375 
L 19.828125 46.734375 
Q 21.96875 47.46875 24.109375 47.828125 
Q 26.265625 48.1875 28.421875 48.1875 
Q 40.625 48.1875 47.75 41.5 
Q 54.890625 34.8125 54.890625 23.390625 
Q 54.890625 11.625 47.5625 5.09375 
Q 40.234375 -1.421875 26.90625 -1.421875 
Q 22.3125 -1.421875 17.546875 -0.640625 
Q 12.796875 0.140625 7.71875 1.703125 
L 7.71875 11.625 
Q 12.109375 9.234375 16.796875 8.0625 
Q 21.484375 6.890625 26.703125 6.890625 
Q 35.15625 6.890625 40.078125 11.328125 
Q 45.015625 15.765625 45.015625 23.390625 
Q 45.015625 31 40.078125 35.4375 
Q 35.15625 39.890625 26.703125 39.890625 
Q 22.75 39.890625 18.8125 39.015625 
Q 14.890625 38.140625 10.796875 36.28125 
z
" id="DejaVuSans-53"/>
       </defs>
       <use xlink:href="#DejaVuSans-45"/>
       <use x="36.083984" xlink:href="#DejaVuSans-49"/>
       <use x="99.707031" xlink:href="#DejaVuSans-53"/>
       <use x="163.330078" xlink:href="#DejaVuSans-48"/>
       <use x="226.953125" xlink:href="#DejaVuSans-46"/>
       <use x="258.740234" xlink:href="#DejaVuSans-48"/>
      </g>
     </g>
    </g>
    <g id="ytick_2">
     <g id="line2d_13">
      <path clip-path="url(#pd24f167f57)" d="M 60.114062 1594.962 
L 2754.498063 1594.962 
" style="fill:none;stroke:#b0b0b0;stroke-linecap:square;stroke-width:0.8;"/>
     </g>
     <g id="line2d_14">
      <g>
       <use style="stroke:#000000;stroke-width:0.8;" x="60.114062" xlink:href="#m93c7110f69" y="1594.962"/>
      </g>
     </g>
     <g id="text_8">
      <!-- -100.0 -->
      <g transform="translate(20.878125 1598.761219)scale(0.1 -0.1)">
       <use xlink:href="#DejaVuSans-45"/>
       <use x="36.083984" xlink:href="#DejaVuSans-49"/>
       <use x="99.707031" xlink:href="#DejaVuSans-48"/>
       <use x="163.330078" xlink:href="#DejaVuSans-48"/>
       <use x="226.953125" xlink:href="#DejaVuSans-46"/>
       <use x="258.740234" xlink:href="#DejaVuSans-48"/>
      </g>
     </g>
    </g>
    <g id="ytick_3">
     <g id="line2d_15">
      <path clip-path="url(#pd24f167f57)" d="M 60.114062 1320.024857 
L 2754.498063 1320.024857 
" style="fill:none;stroke:#b0b0b0;stroke-linecap:square;stroke-width:0.8;"/>
     </g>
     <g id="line2d_16">
      <g>
       <use style="stroke:#000000;stroke-width:0.8;" x="60.114062" xlink:href="#m93c7110f69" y="1320.024857"/>
      </g>
     </g>
     <g id="text_9">
      <!-- -50.0 -->
      <g transform="translate(27.240625 1323.824076)scale(0.1 -0.1)">
       <use xlink:href="#DejaVuSans-45"/>
       <use x="36.083984" xlink:href="#DejaVuSans-53"/>
       <use x="99.707031" xlink:href="#DejaVuSans-48"/>
       <use x="163.330078" xlink:href="#DejaVuSans-46"/>
       <use x="195.117188" xlink:href="#DejaVuSans-48"/>
      </g>
     </g>
    </g>
    <g id="ytick_4">
     <g id="line2d_17">
      <path clip-path="url(#pd24f167f57)" d="M 60.114062 1045.087714 
L 2754.498063 1045.087714 
" style="fill:none;stroke:#b0b0b0;stroke-linecap:square;stroke-width:0.8;"/>
     </g>
     <g id="line2d_18">
      <g>
       <use style="stroke:#000000;stroke-width:0.8;" x="60.114062" xlink:href="#m93c7110f69" y="1045.087714"/>
      </g>
     </g>
     <g id="text_10">
      <!-- 0.0 -->
      <g transform="translate(37.210937 1048.886933)scale(0.1 -0.1)">
       <use xlink:href="#DejaVuSans-48"/>
       <use x="63.623047" xlink:href="#DejaVuSans-46"/>
       <use x="95.410156" xlink:href="#DejaVuSans-48"/>
      </g>
     </g>
    </g>
    <g id="ytick_5">
     <g id="line2d_19">
      <path clip-path="url(#pd24f167f57)" d="M 60.114062 770.150571 
L 2754.498063 770.150571 
" style="fill:none;stroke:#b0b0b0;stroke-linecap:square;stroke-width:0.8;"/>
     </g>
     <g id="line2d_20">
      <g>
       <use style="stroke:#000000;stroke-width:0.8;" x="60.114062" xlink:href="#m93c7110f69" y="770.150571"/>
      </g>
     </g>
     <g id="text_11">
      <!-- 50.0 -->
      <g transform="translate(30.848437 773.94979)scale(0.1 -0.1)">
       <use xlink:href="#DejaVuSans-53"/>
       <use x="63.623047" xlink:href="#DejaVuSans-48"/>
       <use x="127.246094" xlink:href="#DejaVuSans-46"/>
       <use x="159.033203" xlink:href="#DejaVuSans-48"/>
      </g>
     </g>
    </g>
    <g id="ytick_6">
     <g id="line2d_21">
      <path clip-path="url(#pd24f167f57)" d="M 60.114062 495.213429 
L 2754.498063 495.213429 
" style="fill:none;stroke:#b0b0b0;stroke-linecap:square;stroke-width:0.8;"/>
     </g>
     <g id="line2d_22">
      <g>
       <use style="stroke:#000000;stroke-width:0.8;" x="60.114062" xlink:href="#m93c7110f69" y="495.213429"/>
      </g>
     </g>
     <g id="text_12">
      <!-- 100.0 -->
      <g transform="translate(24.485937 499.012647)scale(0.1 -0.1)">
       <use xlink:href="#DejaVuSans-49"/>
       <use x="63.623047" xlink:href="#DejaVuSans-48"/>
       <use x="127.246094" xlink:href="#DejaVuSans-48"/>
       <use x="190.869141" xlink:href="#DejaVuSans-46"/>
       <use x="222.65625" xlink:href="#DejaVuSans-48"/>
      </g>
     </g>
    </g>
    <g id="ytick_7">
     <g id="line2d_23">
      <path clip-path="url(#pd24f167f57)" d="M 60.114062 220.276286 
L 2754.498063 220.276286 
" style="fill:none;stroke:#b0b0b0;stroke-linecap:square;stroke-width:0.8;"/>
     </g>
     <g id="line2d_24">
      <g>
       <use style="stroke:#000000;stroke-width:0.8;" x="60.114062" xlink:href="#m93c7110f69" y="220.276286"/>
      </g>
     </g>
     <g id="text_13">
      <!-- 150.0 -->
      <g transform="translate(24.485937 224.075504)scale(0.1 -0.1)">
       <use xlink:href="#DejaVuSans-49"/>
       <use x="63.623047" xlink:href="#DejaVuSans-53"/>
       <use x="127.246094" xlink:href="#DejaVuSans-48"/>
       <use x="190.869141" xlink:href="#DejaVuSans-46"/>
       <use x="222.65625" xlink:href="#DejaVuSans-48"/>
      </g>
     </g>
    </g>
    <g id="text_14">
     <!-- Unit: 1000 km -->
     <g transform="translate(14.798437 1053.124469)rotate(-90)scale(0.1 -0.1)">
      <use xlink:href="#DejaVuSans-85"/>
      <use x="73.193359" xlink:href="#DejaVuSans-110"/>
      <use x="136.572266" xlink:href="#DejaVuSans-105"/>
      <use x="164.355469" xlink:href="#DejaVuSans-116"/>
      <use x="203.564453" xlink:href="#DejaVuSans-58"/>
      <use x="237.255859" xlink:href="#DejaVuSans-32"/>
      <use x="269.042969" xlink:href="#DejaVuSans-49"/>
      <use x="332.666016" xlink:href="#DejaVuSans-48"/>
      <use x="396.289062" xlink:href="#DejaVuSans-48"/>
      <use x="459.912109" xlink:href="#DejaVuSans-48"/>
      <use x="523.535156" xlink:href="#DejaVuSans-32"/>
      <use x="555.322266" xlink:href="#DejaVuSans-107"/>
      <use x="613.232422" xlink:href="#DejaVuSans-109"/>
     </g>
    </g>
   </g>
   <g id="line2d_25">
    <path clip-path="url(#pd24f167f57)" d="M 2368.122446 1045.087159 
L 2367.809028 1044.976073 
L 2367.22791 1044.528646 
L 2366.549057 1043.709993 
L 2365.791094 1042.412873 
L 2365.067476 1040.702621 
L 2364.414379 1038.549528 
L 2364.256258 1037.888469 
L 2364.256258 1037.888469 
" style="fill:none;stroke:#c0c0c0;stroke-linecap:square;stroke-width:1.5;"/>
   </g>
   <g id="line2d_26">
    <path clip-path="url(#pd24f167f57)" d="M 234.376334 1075.11482 
L 236.908065 1076.723511 
L 239.500678 1078.222039 
L 242.144347 1079.606897 
L 244.828965 1080.876227 
L 247.54447 1082.029764 
L 253.029812 1083.995675 
L 258.530749 1085.52867 
L 263.991446 1086.666156 
L 269.370905 1087.45197 
L 274.641532 1087.930933 
L 279.786552 1088.145477 
L 284.797265 1088.133869 
L 289.670696 1087.929591 
L 294.407709 1087.561401 
L 301.265126 1086.754141 
L 307.840181 1085.699098 
L 314.152694 1084.448018 
L 320.223015 1083.040967 
L 327.973586 1080.975183 
L 335.370539 1078.742847 
L 342.451227 1076.385068 
L 350.906412 1073.307263 
L 358.971886 1070.12448 
L 368.198991 1066.210156 
L 376.993807 1062.228044 
L 386.777626 1057.532161 
L 396.112133 1052.810352 
L 406.300061 1047.408277 
L 417.227927 1041.347997 
L 428.795467 1034.657902 
L 440.915923 1027.370765 
L 453.515385 1019.521997 
L 466.531585 1011.148253 
L 480.845385 1001.65966 
L 495.396967 991.745015 
L 511.008563 980.84252 
L 528.352961 968.449508 
L 547.200513 954.698076 
L 568.080796 939.179375 
L 592.094977 921.043878 
L 621.381474 898.635027 
L 668.256085 862.442307 
L 720.849262 821.909914 
L 752.670465 797.672945 
L 779.672377 777.38271 
L 804.32907 759.131839 
L 827.34452 742.372913 
L 848.864592 726.972991 
L 869.45921 712.501487 
L 889.642692 698.589366 
L 909.014098 685.50349 
L 928.054991 672.907734 
L 946.790461 660.782979 
L 964.826206 649.37207 
L 982.609542 638.379291 
L 1000.156646 627.790786 
L 1017.481964 617.593736 
L 1034.598418 607.776231 
L 1051.517615 598.327191 
L 1068.250004 589.236251 
L 1084.805003 580.493734 
L 1101.191152 572.090555 
L 1117.416166 564.01817 
L 1133.487056 556.268533 
L 1149.410206 548.834051 
L 1165.191405 541.707548 
L 1180.835961 534.882223 
L 1196.348684 528.35163 
L 1212.090309 521.967853 
L 1227.702835 515.880003 
L 1243.190193 510.082139 
L 1258.555979 504.568577 
L 1273.803481 499.333912 
L 1288.935686 494.372951 
L 1303.955348 489.680747 
L 1318.864959 485.252538 
L 1333.66681 481.083765 
L 1348.695765 477.084024 
L 1363.616219 473.346545 
L 1378.430014 469.866984 
L 1393.138826 466.641163 
L 1407.744175 463.665046 
L 1422.247434 460.934738 
L 1436.649851 458.44648 
L 1450.952543 456.196631 
L 1465.471044 454.13953 
L 1479.88734 452.324219 
L 1494.202294 450.747163 
L 1508.416649 449.404941 
L 1522.531075 448.294212 
L 1536.546139 447.411752 
L 1550.462341 446.754404 
L 1564.579401 446.312091 
L 1578.59408 446.098415 
L 1592.506675 446.110271 
L 1606.317438 446.344649 
L 1620.026558 446.798592 
L 1633.634154 447.46923 
L 1647.14032 448.353752 
L 1660.829182 449.475006 
L 1674.412264 450.81362 
L 1687.889512 452.366801 
L 1701.260822 454.131815 
L 1714.526055 456.105984 
L 1727.685042 458.286692 
L 1740.737584 460.671354 
L 1753.952003 463.313467 
L 1767.054963 466.162877 
L 1780.046166 469.217011 
L 1792.925267 472.473339 
L 1805.691924 475.929381 
L 1818.345752 479.582713 
L 1830.886355 483.430937 
L 1843.565752 487.55616 
L 1856.126382 491.879431 
L 1868.567766 496.398347 
L 1880.889426 501.11055 
L 1893.090867 506.013724 
L 1905.171594 511.105609 
L 1917.131085 516.383973 
L 1929.204334 521.957752 
L 1941.150364 527.721001 
L 1952.968608 533.671493 
L 1964.658507 539.807045 
L 1976.219498 546.125541 
L 1987.651016 552.624884 
L 1998.9525 559.303042 
L 2010.123394 566.158038 
L 2021.378292 573.327519 
L 2032.496277 580.676842 
L 2043.476777 588.204088 
L 2054.319226 595.907398 
L 2065.023084 603.784979 
L 2075.587808 611.835117 
L 2086.012891 620.056172 
L 2096.297822 628.446599 
L 2106.442134 637.00493 
L 2116.44537 645.729818 
L 2126.495356 654.792582 
L 2136.397927 664.025868 
L 2146.152697 673.42863 
L 2155.759325 682.999984 
L 2165.217514 692.73922 
L 2174.527024 702.645832 
L 2183.687671 712.719546 
L 2192.699351 722.960355 
L 2201.562027 733.368557 
L 2210.275764 743.944795 
L 2218.840732 754.690125 
L 2227.257229 765.60608 
L 2235.525689 776.694763 
L 2243.646749 787.958965 
L 2251.621246 799.402294 
L 2259.450285 811.029342 
L 2267.135284 822.84597 
L 2274.53707 834.631002 
L 2281.804176 846.61444 
L 2288.939432 858.807418 
L 2295.946453 871.224157 
L 2302.6987 883.637091 
L 2309.337921 896.305369 
L 2315.871824 909.258835 
L 2322.185486 922.274233 
L 2328.297734 935.384457 
L 2334.23123 948.638285 
L 2339.891845 961.817645 
L 2345.440824 975.304747 
L 2350.681863 988.633661 
L 2355.550747 1001.629544 
L 2359.710084 1013.337275 
L 2363.16534 1023.705462 
L 2365.531916 1031.453026 
L 2366.909318 1036.579432 
L 2367.623446 1039.843998 
L 2367.938689 1041.976069 
L 2367.989728 1043.424174 
L 2366.488434 1044.789677 
L 2365.10501 1043.864915 
L 2363.462157 1042.303937 
L 2361.182548 1039.760796 
L 2357.80863 1035.591429 
L 2353.205088 1029.486681 
L 2347.526866 1021.566182 
L 2340.796828 1011.791364 
L 2333.392435 1000.640315 
L 2325.73052 988.696303 
L 2318.121849 976.428624 
L 2310.509785 963.734897 
L 2303.018749 950.808381 
L 2295.761294 937.84499 
L 2288.703762 924.791563 
L 2281.824999 911.609916 
L 2275.111843 898.271483 
L 2268.556511 884.754232 
L 2262.155028 871.040741 
L 2256.015528 857.365368 
L 2250.020584 843.467592 
L 2244.27354 829.586274 
L 2238.669507 815.466063 
L 2233.305819 801.3488 
L 2228.176234 787.229854 
L 2223.191569 772.857927 
L 2218.439253 758.478099 
L 2213.915371 744.088592 
L 2209.54442 729.439936 
L 2205.403405 714.779567 
L 2201.489779 700.107414 
L 2197.801349 685.423813 
L 2194.336267 670.729457 
L 2191.039869 655.776011 
L 2187.971389 640.813733 
L 2185.129623 625.844143 
L 2182.513574 610.868932 
L 2180.122401 595.889978 
L 2177.955424 580.909285 
L 2176.01208 565.928988 
L 2174.291947 550.951315 
L 2172.794689 535.97859 
L 2171.520075 521.013211 
L 2170.467951 506.057631 
L 2169.638245 491.11438 
L 2169.030953 476.186013 
L 2168.646118 461.275133 
L 2168.483856 446.384378 
L 2168.54432 431.516415 
L 2168.827698 416.673917 
L 2169.334225 401.859588 
L 2170.064167 387.076147 
L 2171.017808 372.326319 
L 2172.195474 357.612832 
L 2173.572288 343.182657 
L 2175.166368 328.792876 
L 2176.978061 314.446084 
L 2179.007718 300.144877 
L 2181.255698 285.89186 
L 2183.722362 271.689619 
L 2186.408069 257.540749 
L 2189.262104 243.686199 
L 2192.3285 229.88816 
L 2195.607587 216.149061 
L 2199.09969 202.471329 
L 2202.805112 188.857387 
L 2206.724159 175.309645 
L 2210.857108 161.8305 
L 2215.204238 148.422349 
L 2219.685334 135.316843 
L 2224.373749 122.284448 
L 2229.269698 109.32742 
L 2234.373361 96.447984 
L 2239.68491 83.648373 
L 2245.204483 70.930793 
L 2250.93221 58.297464 
L 2256.868185 45.750586 
L 2262.902896 33.510132 
L 2269.13874 21.357311 
L 2275.575733 9.29418 
L 2281.268613 -1 
L 2281.268613 -1 
" style="fill:none;stroke:#0000ff;stroke-linecap:square;stroke-width:1.5;"/>
   </g>
   <g id="line2d_27">
    <path clip-path="url(#pd24f167f57)" d="M 2368.122446 1045.087159 
L 2367.809028 1044.976073 
L 2367.22791 1044.528646 
L 2366.549057 1043.709993 
L 2365.791094 1042.412873 
L 2365.067476 1040.702621 
L 2364.414379 1038.549528 
L 2364.256258 1037.888469 
L 2364.256258 1037.888469 
" style="fill:none;stroke:#c0c0c0;stroke-linecap:square;stroke-width:1.5;"/>
   </g>
   <g id="line2d_28">
    <path clip-path="url(#pd24f167f57)" d="M 234.376334 1075.11482 
L 236.908527 1076.723813 
L 239.501591 1078.222649 
L 242.145711 1079.607816 
L 244.830774 1080.877448 
L 247.546713 1082.031293 
L 253.032908 1083.997842 
L 258.534653 1085.531512 
L 263.996131 1086.669752 
L 269.37636 1087.456391 
L 274.647763 1087.936278 
L 279.793574 1088.151839 
L 284.805112 1088.141337 
L 289.679417 1087.938246 
L 294.41736 1087.571321 
L 301.276288 1086.76609 
L 307.853005 1085.713191 
L 314.167337 1084.464366 
L 320.239627 1083.059641 
L 327.993069 1080.997051 
L 335.393134 1078.767976 
L 342.477181 1076.413502 
L 350.936881 1073.339859 
L 359.007188 1070.16125 
L 368.240479 1066.251908 
L 377.041855 1062.274728 
L 386.833774 1057.584515 
L 396.176798 1052.868276 
L 406.374932 1047.47242 
L 417.314812 1041.418948 
L 428.896292 1034.736171 
L 441.032727 1027.456782 
L 453.650313 1019.616124 
L 466.686881 1011.250766 
L 481.025018 1001.771345 
L 495.603461 991.865932 
L 511.246257 980.97317 
L 528.628251 968.590705 
L 547.520177 954.850325 
L 568.453929 939.343298 
L 592.53525 921.220349 
L 622.559068 898.329462 
L 672.497397 859.919275 
L 721.753277 822.134141 
L 753.194825 798.295958 
L 780.343257 777.990316 
L 804.649971 760.081873 
L 827.335606 743.635908 
L 849.006757 728.194641 
L 869.748174 713.683882 
L 890.077835 699.733571 
L 909.591884 686.611311 
L 928.775353 673.98005 
L 947.227716 662.091878 
L 965.409298 650.637958 
L 983.338488 639.603246 
L 1001.031617 628.97384 
L 1018.503262 618.736886 
L 1035.766461 608.880455 
L 1052.832925 599.393425 
L 1069.713186 590.265434 
L 1086.41675 581.486779 
L 1102.952207 573.04837 
L 1119.327348 564.941662 
L 1135.549228 557.158598 
L 1151.62428 549.691586 
L 1167.558345 542.53346 
L 1183.356744 535.677418 
L 1199.024351 529.117011 
L 1214.565591 522.846124 
L 1229.984533 516.858922 
L 1245.639316 511.020357 
L 1261.173556 505.467347 
L 1276.590574 500.194476 
L 1291.893394 495.196564 
L 1307.084782 490.468662 
L 1322.167278 486.00602 
L 1337.143176 481.804084 
L 1352.014592 477.858472 
L 1367.117917 474.083937 
L 1382.115832 470.568772 
L 1397.010029 467.308815 
L 1411.802055 464.300041 
L 1426.493293 461.538561 
L 1441.08501 459.020632 
L 1455.578333 456.742618 
L 1469.974278 454.701017 
L 1484.590437 452.854858 
L 1499.106656 451.248659 
L 1513.523706 449.87901 
L 1527.842256 448.742596 
L 1542.062885 447.8362 
L 1556.186109 447.156692 
L 1570.212352 446.701028 
L 1584.44372 446.463576 
L 1598.574537 446.453629 
L 1612.605058 446.668195 
L 1626.535474 447.10435 
L 1640.365912 447.759234 
L 1654.096466 448.630064 
L 1667.727157 449.714119 
L 1681.544794 451.038552 
L 1695.258207 452.579833 
L 1708.86731 454.335252 
L 1722.371958 456.302163 
L 1735.771982 458.477961 
L 1749.067173 460.86011 
L 1762.257299 463.446119 
L 1775.342096 466.233542 
L 1788.590542 469.28431 
L 1801.728584 472.539984 
L 1814.755864 475.998121 
L 1827.671993 479.656319 
L 1840.476586 483.512219 
L 1853.169213 487.563512 
L 1865.74944 491.807931 
L 1878.470084 496.335749 
L 1891.07274 501.060016 
L 1903.556899 505.978477 
L 1915.922054 511.088888 
L 1928.167678 516.389071 
L 1940.293247 521.876893 
L 1952.298218 527.550249 
L 1964.418486 533.526084 
L 1976.412146 539.690698 
L 1988.278615 546.041998 
L 2000.017309 552.577975 
L 2011.627652 559.296641 
L 2023.109054 566.196079 
L 2034.460945 573.274429 
L 2045.682752 580.529883 
L 2056.773914 587.960691 
L 2067.947448 595.716014 
L 2078.983991 603.650194 
L 2089.882978 611.761593 
L 2100.643842 620.048682 
L 2111.266044 628.510016 
L 2121.74905 637.144241 
L 2132.092362 645.95012 
L 2142.295477 654.926548 
L 2152.357945 664.072536 
L 2162.279327 673.387263 
L 2172.059204 682.870054 
L 2181.697208 692.520436 
L 2191.192998 702.338144 
L 2200.546272 712.323158 
L 2209.756782 722.475718 
L 2218.824319 732.796401 
L 2227.74874 743.28615 
L 2236.529968 753.946321 
L 2245.167993 764.7788 
L 2253.662891 775.786063 
L 2262.014838 786.971308 
L 2270.224103 798.338606 
L 2278.291106 809.893109 
L 2286.065305 821.413465 
L 2293.703851 833.12775 
L 2301.207578 845.04555 
L 2308.434285 856.938885 
L 2315.533569 869.053902 
L 2322.368545 881.159511 
L 2328.948021 893.263415 
L 2335.280577 905.377305 
L 2341.374366 917.518216 
L 2347.107603 929.435856 
L 2352.49272 941.139556 
L 2357.539708 952.645038 
L 2362.131945 963.672904 
L 2366.15642 973.902936 
L 2369.740869 983.618692 
L 2372.766783 992.458444 
L 2375.237225 1000.341397 
L 2377.262824 1007.545718 
L 2378.838814 1013.991994 
L 2379.972803 1019.566669 
L 2380.762692 1024.588945 
L 2381.223217 1028.958109 
L 2381.403988 1032.548491 
L 2381.379117 1035.774417 
L 2381.122167 1039.138943 
L 2380.671363 1042.034174 
L 2380.116985 1044.387427 
L 2379.363328 1046.741945 
L 2378.395923 1049.056927 
L 2377.217537 1051.286409 
L 2375.850417 1053.389034 
L 2374.331335 1055.337206 
L 2372.282234 1057.540712 
L 2370.133721 1059.497186 
L 2367.498679 1061.558748 
L 2364.415853 1063.64061 
L 2360.935479 1065.689777 
L 2357.105692 1067.680163 
L 2352.558567 1069.782107 
L 2347.363157 1071.928997 
L 2341.199127 1074.216441 
L 2334.151592 1076.574352 
L 2326.286195 1078.960058 
L 2317.650106 1081.346958 
L 2307.945644 1083.796175 
L 2297.220209 1086.265869 
L 2285.818797 1088.65812 
L 2273.741831 1090.961433 
L 2261.287866 1093.111524 
L 2248.438546 1095.107842 
L 2235.178317 1096.944945 
L 2221.493672 1098.613753 
L 2207.659517 1100.074368 
L 2193.658129 1101.327102 
L 2179.474776 1102.369752 
L 2165.378122 1103.184187 
L 2151.073538 1103.787795 
L 2136.830942 1104.16844 
L 2122.361836 1104.332314 
L 2107.936566 1104.274153 
L 2093.270638 1103.990083 
L 2078.634518 1103.482153 
L 2064.021857 1102.75291 
L 2049.427082 1101.804442 
L 2034.570244 1100.614405 
L 2019.722219 1099.200106 
L 2004.878814 1097.562789 
L 1990.036222 1095.703494 
L 1975.190931 1093.623066 
L 1960.064593 1091.277512 
L 1944.928863 1088.703864 
L 1929.780695 1085.902606 
L 1914.617192 1082.874107 
L 1899.435542 1079.618654 
L 1883.956416 1076.071063 
L 1868.452842 1072.288593 
L 1852.92205 1068.271354 
L 1837.361273 1064.019424 
L 1821.488959 1059.450596 
L 1805.579766 1054.63869 
L 1789.630695 1049.583701 
L 1773.357737 1044.190506 
L 1757.037051 1038.545623 
L 1740.665242 1032.649047 
L 1723.955113 1026.392582 
L 1707.184656 1019.875753 
L 1690.064001 1012.981523 
L 1672.872517 1005.818261 
L 1655.317225 998.260019 
L 1637.679051 990.424217 
L 1619.661397 982.175943 
L 1601.253948 973.501896 
L 1582.445427 964.388752 
L 1563.223494 954.823216 
L 1543.574638 944.792085 
L 1523.484057 934.282327 
L 1502.935552 923.281141 
L 1481.605318 911.60682 
L 1459.465279 899.232185 
L 1436.483915 886.130369 
L 1412.310116 872.090193 
L 1386.572602 856.879812 
L 1358.874527 840.246098 
L 1328.45641 821.712129 
L 1293.818064 800.337889 
L 1250.541231 773.35729 
L 1114.570253 688.393311 
L 1079.791552 667.037238 
L 1048.89836 648.322756 
L 1020.549113 631.405577 
L 994.089773 615.870314 
L 968.803276 601.278856 
L 944.764504 587.6593 
L 921.183982 574.555411 
L 898.534616 562.222242 
L 876.425628 550.434977 
L 854.892155 539.203932 
L 833.511602 528.305215 
L 812.765296 517.978109 
L 792.218974 507.998237 
L 771.890726 498.372654 
L 751.799046 489.1068 
L 731.962661 480.204522 
L 712.400405 471.66807 
L 693.131078 463.498142 
L 673.672028 455.490714 
L 654.533857 447.855517 
L 635.224966 440.395295 
L 616.265565 433.308955 
L 597.155569 426.406785 
L 578.423695 419.876082 
L 559.561934 413.535377 
L 540.577343 407.39183 
L 522.009524 401.614334 
L 503.340126 396.03526 
L 484.576914 390.659859 
L 465.728027 385.492866 
L 446.80192 380.538449 
L 427.807321 375.800227 
L 408.753204 371.281195 
L 389.64874 366.98374 
L 370.503234 362.909623 
L 351.326077 359.059947 
L 332.12671 355.435176 
L 312.914559 352.035144 
L 293.698993 348.859037 
L 274.489283 345.905442 
L 254.746415 343.09746 
L 235.029067 340.519908 
L 215.34668 338.169344 
L 195.163572 335.985793 
L 175.036556 334.032821 
L 154.433515 332.261302 
L 133.908616 330.720692 
L 112.934118 329.372317 
L 92.060202 328.251767 
L 70.764264 327.33031 
L 49.063503 326.615407 
L 26.975817 326.113146 
L 4.519694 325.82813 
L -1 325.792025 
L -1 325.792025 
" style="fill:none;stroke:#ffff00;stroke-linecap:square;stroke-width:1.5;"/>
   </g>
   <g id="line2d_29">
    <path clip-path="url(#pd24f167f57)" d="M 2368.122446 1045.087159 
L 2367.809028 1044.976073 
L 2367.22791 1044.528646 
L 2366.549057 1043.709993 
L 2365.791094 1042.412873 
L 2365.067476 1040.702621 
L 2364.414379 1038.549528 
L 2364.256258 1037.888469 
L 2364.256258 1037.888469 
" style="fill:none;stroke:#c0c0c0;stroke-linecap:square;stroke-width:1.5;"/>
   </g>
   <g id="line2d_30">
    <path clip-path="url(#pd24f167f57)" d="M 234.376334 1075.11482 
L 236.908983 1076.724121 
L 239.502504 1078.22326 
L 242.147074 1079.608728 
L 244.832583 1080.878669 
L 247.548962 1082.032822 
L 253.036004 1084.000003 
L 258.538563 1085.534355 
L 264.000822 1086.673343 
L 269.38182 1087.460812 
L 274.653993 1087.941622 
L 279.80059 1088.158196 
L 284.812959 1088.148799 
L 289.688138 1087.946901 
L 294.42701 1087.58124 
L 301.287451 1086.778033 
L 307.865828 1085.72729 
L 314.181981 1084.480708 
L 320.256244 1083.078314 
L 328.012545 1081.018914 
L 335.415728 1078.793105 
L 342.503135 1076.441931 
L 350.967339 1073.372456 
L 359.042473 1070.198009 
L 368.281945 1066.293649 
L 377.089886 1062.321401 
L 386.889894 1057.636863 
L 396.241436 1052.926194 
L 406.449758 1047.536557 
L 417.401643 1041.489887 
L 428.997057 1034.81443 
L 441.14946 1027.542798 
L 453.785158 1019.710252 
L 466.842066 1011.353279 
L 481.204524 1001.883047 
L 495.80979 991.986877 
L 511.483764 981.103864 
L 528.903303 968.731973 
L 547.839555 955.002679 
L 568.826717 939.507364 
L 592.975089 921.397029 
L 623.090967 898.520412 
L 674.975758 858.771 
L 722.108589 822.774921 
L 753.188336 799.313385 
L 779.994312 779.348159 
L 804.465846 761.392702 
L 827.307178 744.903297 
L 849.129126 729.420905 
L 870.017014 714.87111 
L 890.041714 701.18778 
L 909.705867 688.017961 
L 929.038738 675.340499 
L 947.636696 663.408398 
L 965.963676 651.911698 
L 984.038247 640.835294 
L 1001.876906 630.165242 
L 1019.494361 619.888652 
L 1036.903771 609.99356 
L 1054.116937 600.468836 
L 1071.144492 591.304086 
L 1087.996006 582.489602 
L 1104.680148 574.016275 
L 1121.204767 565.875557 
L 1137.576966 558.059402 
L 1153.803234 550.560205 
L 1169.889443 543.370803 
L 1185.840961 536.484392 
L 1201.662691 529.894544 
L 1217.359095 523.59514 
L 1232.934257 517.580362 
L 1248.39191 511.844668 
L 1264.090969 506.258962 
L 1279.673912 500.954534 
L 1295.143794 495.926209 
L 1310.5034 491.169043 
L 1325.75529 486.678302 
L 1340.901787 482.449439 
L 1355.945005 478.478093 
L 1370.886888 474.760068 
L 1385.729199 471.291324 
L 1400.807505 467.997538 
L 1415.784899 464.956415 
L 1430.662781 462.164081 
L 1445.442429 459.616794 
L 1460.124985 457.310951 
L 1474.711484 455.24305 
L 1489.202837 453.409703 
L 1503.918744 451.774641 
L 1518.536871 450.377845 
L 1533.057891 449.216027 
L 1547.482407 448.28598 
L 1561.810927 447.584594 
L 1576.04389 447.108848 
L 1590.181658 446.855796 
L 1604.224545 446.822567 
L 1618.474955 447.012752 
L 1632.626751 447.426598 
L 1646.68008 448.06128 
L 1660.635021 448.914025 
L 1674.491617 449.982134 
L 1688.249856 451.262967 
L 1701.90969 452.753945 
L 1715.758499 454.490921 
L 1729.504438 456.441831 
L 1743.147336 458.604091 
L 1756.68699 460.975182 
L 1770.123157 463.552651 
L 1783.455574 466.334075 
L 1796.683943 469.317094 
L 1810.080256 472.56778 
L 1823.367451 476.023718 
L 1836.545133 479.682526 
L 1849.612907 483.541885 
L 1862.570342 487.599523 
L 1875.417 491.853202 
L 1888.152419 496.300733 
L 1901.032591 501.03663 
L 1913.795932 505.96991 
L 1926.441919 511.098384 
L 1938.970019 516.419902 
L 1951.379686 521.932381 
L 1963.670366 527.633758 
L 1975.841498 533.522043 
L 1987.892532 539.595267 
L 2000.06026 545.978515 
L 2012.101841 552.550217 
L 2024.016666 559.308469 
L 2035.804134 566.251407 
L 2047.46363 573.377233 
L 2058.994571 580.684205 
L 2070.39634 588.170655 
L 2081.668356 595.834979 
L 2092.81003 603.675653 
L 2104.035362 611.850139 
L 2115.123978 620.205006 
L 2126.075285 628.738917 
L 2136.88869 637.450642 
L 2147.56363 646.339063 
L 2158.099535 655.403207 
L 2168.495865 664.642239 
L 2178.752093 674.055487 
L 2188.867706 683.642479 
L 2198.842217 693.402935 
L 2208.675146 703.336821 
L 2218.366042 713.444362 
L 2227.914477 723.726104 
L 2237.320033 734.182948 
L 2246.582325 744.816208 
L 2255.700972 755.627688 
L 2264.675619 766.619785 
L 2273.337459 777.578895 
L 2281.860114 788.718369 
L 2290.243234 800.042815 
L 2298.486432 811.557986 
L 2306.431725 823.039394 
L 2314.24154 834.719361 
L 2321.763012 846.36841 
L 2329.003207 857.986115 
L 2336.115583 869.822632 
L 2342.954001 881.642119 
L 2349.38212 893.191761 
L 2355.550747 904.729125 
L 2361.326159 915.994883 
L 2366.716917 926.98494 
L 2371.729329 937.696315 
L 2376.366931 948.126974 
L 2380.506318 957.972368 
L 2384.275492 967.51376 
L 2387.553722 976.421003 
L 2390.348491 984.648854 
L 2392.77309 992.488274 
L 2394.728619 999.54938 
L 2396.326455 1006.125882 
L 2397.577221 1012.167203 
L 2398.562271 1018.010535 
L 2399.273902 1023.625703 
L 2399.687121 1028.559225 
L 2399.883399 1033.592466 
L 2399.844039 1038.275971 
L 2399.571675 1043.001057 
L 2399.108769 1047.30621 
L 2398.436383 1051.592793 
L 2397.558618 1055.833682 
L 2396.370263 1060.416802 
L 2394.971993 1064.889496 
L 2393.241104 1069.623418 
L 2391.333162 1074.195953 
L 2389.107512 1078.966811 
L 2386.568699 1083.90086 
L 2383.534053 1089.300686 
L 2380.198763 1094.787304 
L 2376.37806 1100.651686 
L 2372.078918 1106.850166 
L 2367.102467 1113.62509 
L 2361.663562 1120.651444 
L 2355.5607 1128.166603 
L 2348.798043 1136.128778 
L 2341.589934 1144.268473 
L 2333.72429 1152.807949 
L 2325.410532 1161.50017 
L 2316.643748 1170.340652 
L 2307.416913 1179.323294 
L 2297.937256 1188.240644 
L 2288.197899 1197.100411 
L 2278.191606 1205.907077 
L 2267.910947 1214.662554 
L 2257.348368 1223.366668 
L 2246.496275 1232.0175 
L 2235.570779 1240.442019 
L 2224.56907 1248.648915 
L 2213.261741 1256.806223 
L 2201.870287 1264.75024 
L 2190.392761 1272.485839 
L 2178.827491 1280.016928 
L 2166.939011 1287.491221 
L 2154.956387 1294.758673 
L 2142.878448 1301.821346 
L 2130.704177 1308.68083 
L 2118.432693 1315.338279 
L 2106.063216 1321.794496 
L 2093.595064 1328.049975 
L 2081.027637 1334.104927 
L 2068.360398 1339.959345 
L 2055.592867 1345.612999 
L 2042.724626 1351.065475 
L 2029.755269 1356.316197 
L 2016.68445 1361.364428 
L 2003.771086 1366.116266 
L 1990.759576 1370.671705 
L 1977.649622 1375.0297 
L 1964.440943 1379.189114 
L 1951.133254 1383.148704 
L 1937.726274 1386.907144 
L 1924.219696 1390.463033 
L 1910.613216 1393.814885 
L 1896.906505 1396.961134 
L 1883.099222 1399.900146 
L 1869.190983 1402.630217 
L 1855.181396 1405.14957 
L 1841.35324 1407.412314 
L 1827.426876 1409.469124 
L 1813.40181 1411.318126 
L 1799.277508 1412.957411 
L 1785.053399 1414.384989 
L 1770.728832 1415.598815 
L 1756.303128 1416.596787 
L 1741.775521 1417.376729 
L 1727.145186 1417.936407 
L 1712.411222 1418.273524 
L 1697.876527 1418.385682 
L 1683.240446 1418.279699 
L 1668.501885 1417.953228 
L 1653.659662 1417.403832 
L 1638.712496 1416.629026 
L 1623.658983 1415.626237 
L 1608.497618 1414.392819 
L 1593.226768 1412.926052 
L 1577.844656 1411.223135 
L 1562.349364 1409.281177 
L 1546.738812 1407.097203 
L 1531.010758 1404.668133 
L 1515.494175 1402.049137 
L 1499.526199 1399.125549 
L 1483.769447 1396.015966 
L 1467.889622 1392.65878 
L 1451.883612 1389.050604 
L 1435.74804 1385.187946 
L 1419.479267 1381.067188 
L 1403.073345 1376.68458 
L 1386.526016 1372.036251 
L 1369.832658 1367.118175 
L 1352.988265 1361.926196 
L 1335.987412 1356.455986 
L 1318.824208 1350.703053 
L 1301.492247 1344.662739 
L 1283.610115 1338.192253 
L 1265.536638 1331.411599 
L 1247.262996 1324.315185 
L 1228.779538 1316.897183 
L 1210.075702 1309.151506 
L 1191.139885 1301.071829 
L 1171.557041 1292.472444 
L 1151.704199 1283.510758 
L 1131.150679 1273.984763 
L 1110.279249 1264.065042 
L 1088.640266 1253.532106 
L 1066.186254 1242.351194 
L 1042.862583 1230.485412 
L 1018.606006 1217.895634 
L 992.412777 1204.044422 
L 964.599273 1189.082744 
L 933.530732 1172.114409 
L 896.287021 1151.507761 
L 838.363995 1119.162517 
L 781.826147 1087.675351 
L 748.400322 1069.314131 
L 721.06275 1054.540147 
L 696.568336 1041.549048 
L 674.564864 1030.122149 
L 653.888717 1019.630773 
L 634.689762 1010.133014 
L 616.352505 1001.307812 
L 598.971161 993.188561 
L 582.648153 985.802375 
L 566.63726 978.801458 
L 551.857695 972.570332 
L 537.521648 966.753877 
L 523.675351 961.363306 
L 510.368955 956.406656 
L 496.663415 951.544695 
L 483.551943 947.138421 
L 471.095558 943.187013 
L 459.358343 939.684473 
L 447.295933 936.319875 
L 436.030339 933.403721 
L 424.462188 930.648274 
L 413.777999 928.329229 
L 402.822111 926.187644 
L 392.845187 924.455694 
L 382.634956 922.909002 
L 372.183408 921.57366 
L 362.834863 920.601939 
L 353.292592 919.837344 
L 343.554346 919.30511 
L 335.050958 919.055049 
L 326.404504 919.015727 
L 317.617925 919.2082 
L 308.696314 919.655149 
L 301.163943 920.239352 
L 293.54918 921.031621 
L 285.859826 922.046992 
L 278.105636 923.300722 
L 270.298504 924.807982 
L 262.452612 926.58351 
L 254.584549 928.641139 
L 248.286839 930.498796 
L 241.997872 932.55052 
L 235.729354 934.800831 
L 229.493752 937.253072 
L 223.304158 939.90924 
L 217.174083 942.769824 
L 211.117251 945.833707 
L 205.147326 949.098074 
L 199.277643 952.558416 
L 193.520949 956.208564 
L 187.889126 960.040787 
L 182.392967 964.045939 
L 177.041992 968.213689 
L 171.8443 972.532721 
L 166.806462 976.991013 
L 161.933514 981.576074 
L 157.228966 986.275223 
L 152.694851 991.075801 
L 148.33184 995.965382 
L 143.117729 1002.184257 
L 138.166529 1008.501229 
L 133.47256 1014.895673 
L 129.028394 1021.348795 
L 124.825281 1027.843679 
L 120.853561 1034.365287 
L 117.102967 1040.900416 
L 112.879257 1048.744345 
L 108.940342 1056.574401 
L 105.268089 1064.376628 
L 101.84488 1072.139632 
L 98.143495 1081.13474 
L 94.732982 1090.052628 
L 91.5899 1098.884759 
L 88.297583 1108.865719 
L 85.296848 1118.720302 
L 82.561075 1128.444658 
L 79.770265 1139.22656 
L 77.254007 1149.840663 
L 74.747394 1161.438705 
L 72.513755 1172.834228 
L 70.337996 1185.140794 
L 68.424769 1197.214856 
L 66.60325 1210.130546 
L 64.906376 1223.832956 
L 63.462621 1237.247365 
L 62.156208 1251.386816 
L 61.006541 1266.200924 
L 60.028145 1281.641009 
L 59.230959 1297.66053 
L 58.593204 1315.123349 
L 58.167183 1333.034421 
L 57.942543 1352.216928 
L 57.93501 1371.730306 
L 58.155564 1393.17228 
L 58.611723 1415.588224 
L 59.323783 1439.655215 
L 60.325099 1465.960382 
L 61.686862 1495.712221 
L 63.482972 1529.915523 
L 65.996722 1573.272341 
L 74.621682 1718.751178 
L 76.437026 1754.9373 
L 77.839062 1787.290105 
L 78.892638 1816.650131 
L 79.663584 1844.23916 
L 80.171277 1870.180959 
L 80.440391 1895.055391 
L 80.48095 1918.925967 
L 80.298309 1942.302921 
L 79.901421 1964.765484 
L 79.288349 1986.797192 
L 78.47778 2007.988258 
L 77.459935 2028.799532 
L 76.235486 2049.245711 
L 75.01819 2066.54425 
L 75.01819 2066.54425 
" style="fill:none;stroke:#008000;stroke-linecap:square;stroke-width:1.5;"/>
   </g>
   <g id="line2d_31">
    <path clip-path="url(#pd24f167f57)" d="M 2368.122446 1045.087159 
L 2367.809028 1044.976073 
L 2367.22791 1044.528646 
L 2366.549057 1043.709993 
L 2365.791094 1042.412873 
L 2365.067476 1040.702621 
L 2364.414379 1038.549528 
L 2364.256258 1037.888469 
L 2364.256258 1037.888469 
" style="fill:none;stroke:#c0c0c0;stroke-linecap:square;stroke-width:1.5;"/>
   </g>
   <g id="line2d_32">
    <path clip-path="url(#pd24f167f57)" d="M 234.376334 1075.11482 
L 236.909439 1076.724423 
L 239.503416 1078.22387 
L 242.148438 1079.609641 
L 244.834393 1080.879889 
L 247.551206 1082.03435 
L 253.039094 1084.002169 
L 258.542467 1085.537204 
L 264.005507 1086.676934 
L 269.387275 1087.465239 
L 274.660217 1087.946967 
L 279.807612 1088.164558 
L 284.820811 1088.156266 
L 289.696859 1087.955556 
L 294.43666 1087.59116 
L 301.298613 1086.789977 
L 307.878651 1085.741377 
L 314.196624 1084.497045 
L 320.272856 1083.096977 
L 328.032016 1081.040772 
L 335.438322 1078.818224 
L 342.529078 1076.470359 
L 350.997791 1073.405041 
L 359.077753 1070.234763 
L 368.323406 1066.335379 
L 377.137901 1062.368069 
L 386.945998 1057.6892 
L 396.306041 1052.984096 
L 406.524552 1047.600684 
L 417.48843 1041.560821 
L 429.097755 1034.892688 
L 441.266116 1027.628815 
L 453.919905 1019.804379 
L 466.997142 1011.455808 
L 481.383893 1001.99477 
L 496.01596 992.107855 
L 511.721073 981.234608 
L 529.178125 968.873307 
L 548.158652 955.155137 
L 569.199158 939.671573 
L 594.107165 921.052731 
L 624.922609 897.722643 
L 684.505112 852.25394 
L 726.301188 820.512881 
L 756.854442 797.583756 
L 783.190324 778.088485 
L 807.725044 760.200833 
L 830.635628 743.771705 
L 852.532474 728.344339 
L 873.499664 713.845001 
L 893.60706 700.208135 
L 913.358528 687.082234 
L 932.344912 674.728286 
L 951.042529 662.824624 
L 969.47216 651.354966 
L 987.652191 640.304352 
L 1005.598961 629.658978 
L 1023.32704 619.406072 
L 1040.849477 609.533783 
L 1057.777104 600.247951 
L 1074.926335 591.096305 
L 1091.901444 582.29455 
L 1108.711046 573.833657 
L 1125.362927 565.70514 
L 1141.864171 557.901011 
L 1158.22121 550.413735 
L 1174.439889 543.236204 
L 1190.525549 536.361671 
L 1206.483049 529.783755 
L 1222.316838 523.496383 
L 1238.03097 517.493796 
L 1253.62916 511.770495 
L 1269.114802 506.321241 
L 1284.491003 501.141018 
L 1300.11446 496.113831 
L 1315.629086 491.358414 
L 1331.037421 486.870071 
L 1346.341786 482.644281 
L 1361.544293 478.676718 
L 1376.646881 474.963225 
L 1391.651301 471.499781 
L 1406.559152 468.282544 
L 1421.707446 465.24296 
L 1436.757659 462.453156 
L 1451.711056 459.909432 
L 1466.56878 457.608192 
L 1481.33186 455.545976 
L 1496.001219 453.719431 
L 1510.577661 452.125302 
L 1525.061921 450.760431 
L 1539.773428 449.599003 
L 1554.389868 448.670771 
L 1568.911745 447.97264 
L 1583.339495 447.501623 
L 1597.673491 447.254796 
L 1611.91402 447.22932 
L 1626.061334 447.42243 
L 1640.420097 447.842699 
L 1654.681873 448.485541 
L 1668.846734 449.348216 
L 1682.914723 450.428054 
L 1696.885824 451.722447 
L 1710.759983 453.22885 
L 1724.537099 454.94476 
L 1738.507057 456.910896 
L 1752.37548 459.090477 
L 1766.142172 461.481011 
L 1779.806877 464.080074 
L 1793.369323 466.885286 
L 1806.829212 469.894308 
L 1820.186214 473.104859 
L 1833.715002 476.587845 
L 1847.135811 480.276182 
L 1860.448229 484.167587 
L 1873.651821 488.259817 
L 1886.746132 492.550684 
L 1899.730693 497.038038 
L 1912.605015 501.719772 
L 1925.368609 506.593836 
L 1938.278013 511.763534 
L 1951.071041 517.129295 
L 1963.747134 522.689068 
L 1976.305718 528.440863 
L 1988.746217 534.382723 
L 2001.068053 540.512749 
L 2013.270638 546.829089 
L 2025.353377 553.32995 
L 2037.553691 560.149106 
L 2049.628067 567.156627 
L 2061.575873 574.350791 
L 2073.396476 581.729928 
L 2085.08924 589.292448 
L 2096.653536 597.036839 
L 2108.088738 604.961661 
L 2119.394214 613.065565 
L 2130.569342 621.347298 
L 2141.613501 629.805701 
L 2152.526086 638.439723 
L 2163.306476 647.24845 
L 2173.954077 656.231092 
L 2184.468272 665.386999 
L 2194.848475 674.71571 
L 2205.094079 684.216927 
L 2215.204496 693.890574 
L 2225.179128 703.736816 
L 2235.017363 713.756086 
L 2244.718597 723.949128 
L 2254.282192 734.317051 
L 2263.707494 744.861375 
L 2272.993798 755.584121 
L 2282.140363 766.487881 
L 2290.971119 777.356723 
L 2299.665863 788.406552 
L 2308.223556 799.642116 
L 2316.475938 810.838822 
L 2324.594045 822.226306 
L 2332.414544 833.574358 
L 2340.102232 845.122999 
L 2347.49825 856.636702 
L 2354.607333 868.115597 
L 2361.433252 879.561302 
L 2367.978555 890.977104 
L 2374.099986 902.100489 
L 2379.806015 912.920866 
L 2385.241275 923.70709 
L 2390.266268 934.181062 
L 2394.754034 944.037493 
L 2398.844681 953.541267 
L 2402.539979 962.67447 
L 2405.841639 971.415431 
L 2408.752536 979.737949 
L 2411.278224 987.6109 
L 2413.522266 995.338212 
L 2415.389909 1002.554971 
L 2416.977858 1009.571565 
L 2418.285844 1016.361979 
L 2419.319723 1022.89707 
L 2420.092533 1029.146496 
L 2420.651331 1035.453235 
L 2420.98477 1041.795688 
L 2421.087448 1048.149651 
L 2420.960658 1054.490306 
L 2420.612169 1060.79429 
L 2420.016177 1067.406837 
L 2419.20635 1073.937116 
L 2418.144124 1080.726793 
L 2416.824333 1087.749788 
L 2415.167452 1095.323822 
L 2413.241088 1103.074339 
L 2410.959379 1111.311967 
L 2408.312966 1120.003654 
L 2405.296323 1129.121053 
L 2401.906051 1138.640477 
L 2398.139517 1148.542366 
L 2393.993794 1158.81052 
L 2389.465068 1169.431265 
L 2384.548219 1180.392712 
L 2379.236692 1191.684072 
L 2373.656903 1203.027665 
L 2367.671257 1214.690884 
L 2361.409492 1226.404982 
L 2354.868694 1238.172336 
L 2348.044831 1249.993874 
L 2340.932977 1261.869223 
L 2333.527512 1273.796865 
L 2325.97782 1285.536544 
L 2318.127623 1297.329846 
L 2310.131395 1308.941767 
L 2301.826401 1320.604557 
L 2293.372497 1332.088692 
L 2284.77089 1343.397825 
L 2276.022676 1354.534846 
L 2267.128823 1365.50205 
L 2257.911577 1376.511243 
L 2248.544776 1387.347066 
L 2239.029279 1398.01047 
L 2229.365909 1408.502049 
L 2219.555476 1418.822073 
L 2209.598759 1428.970559 
L 2199.496551 1438.947274 
L 2189.249616 1448.75178 
L 2178.858719 1458.38345 
L 2168.324634 1467.841496 
L 2157.648121 1477.124974 
L 2146.82996 1486.232823 
L 2135.870911 1495.163837 
L 2124.986512 1503.750085 
L 2113.968071 1512.163668 
L 2102.816329 1520.403171 
L 2091.532012 1528.46711 
L 2080.115874 1536.35393 
L 2068.568652 1544.061996 
L 2056.891087 1551.589615 
L 2045.083928 1558.935034 
L 2033.147922 1566.096437 
L 2021.083818 1573.071961 
L 2009.13263 1579.728409 
L 1997.059733 1586.202486 
L 1984.865831 1592.4923 
L 1972.551627 1598.595888 
L 1960.117804 1604.511271 
L 1947.565059 1610.236408 
L 1934.894075 1615.769221 
L 1922.105528 1621.107587 
L 1909.459343 1626.148456 
L 1896.701523 1630.998429 
L 1883.832672 1635.655386 
L 1870.853407 1640.117181 
L 1857.764315 1644.381616 
L 1844.565974 1648.446457 
L 1831.25895 1652.309418 
L 1817.843793 1655.968182 
L 1804.598092 1659.352009 
L 1791.249618 1662.535358 
L 1777.798841 1665.515913 
L 1764.246211 1668.291321 
L 1750.592139 1670.859185 
L 1736.837028 1673.217057 
L 1722.981252 1675.362435 
L 1709.316926 1677.254767 
L 1695.556696 1678.938487 
L 1681.700837 1680.411089 
L 1667.749569 1681.670037 
L 1653.703086 1682.712715 
L 1639.561545 1683.536459 
L 1625.628952 1684.128064 
L 1611.605475 1684.504722 
L 1597.491131 1684.663757 
L 1583.285893 1684.602413 
L 1568.98969 1684.317886 
L 1554.602378 1683.807283 
L 1540.12377 1683.067631 
L 1525.871325 1682.119499 
L 1511.530967 1680.946326 
L 1497.102309 1679.545087 
L 1482.584924 1677.912681 
L 1467.978278 1676.045907 
L 1453.281766 1673.941466 
L 1438.494701 1671.595961 
L 1423.947909 1669.066111 
L 1409.312933 1666.299039 
L 1394.588834 1663.291226 
L 1379.77455 1660.03905 
L 1364.868904 1656.538743 
L 1349.870583 1652.786406 
L 1334.778128 1648.777993 
L 1319.589935 1644.509297 
L 1304.652721 1640.08194 
L 1289.620549 1635.397561 
L 1274.491407 1630.451739 
L 1259.26309 1625.239843 
L 1243.933172 1619.757058 
L 1228.499004 1613.99834 
L 1212.95767 1607.958411 
L 1197.305971 1601.631728 
L 1181.908375 1595.169792 
L 1166.398572 1588.423054 
L 1150.772646 1581.385532 
L 1135.026297 1574.050919 
L 1119.154819 1566.412571 
L 1103.153043 1558.463445 
L 1087.015294 1550.196108 
L 1070.735309 1541.602656 
L 1054.306209 1532.674693 
L 1037.720395 1523.403291 
L 1020.969454 1513.778896 
L 1004.044081 1503.791298 
L 986.933929 1493.429544 
L 969.627494 1482.681861 
L 952.53149 1471.805672 
L 934.797879 1460.256965 
L 916.824958 1448.281346 
L 898.594541 1435.862611 
L 880.086009 1422.983054 
L 861.275909 1409.623248 
L 841.677466 1395.425439 
L 821.701567 1380.676315 
L 800.830049 1364.983799 
L 779.474246 1348.649982 
L 756.567171 1330.845811 
L 731.946258 1311.419808 
L 704.859533 1289.756455 
L 673.248333 1264.180032 
L 624.646259 1224.527525 
L 577.868344 1186.453905 
L 550.334021 1164.331054 
L 527.774785 1146.491087 
L 508.661265 1131.650502 
L 490.994228 1118.214225 
L 475.011169 1106.338161 
L 460.027095 1095.486645 
L 446.203668 1085.753821 
L 433.729819 1077.230445 
L 421.698977 1069.27052 
L 410.180705 1061.916188 
L 399.25869 1055.208761 
L 389.032254 1049.187066 
L 379.61712 1043.885233 
L 369.692433 1038.571435 
L 360.711842 1034.02878 
L 352.839149 1030.272776 
L 344.556937 1026.569389 
L 337.592455 1023.668351 
L 330.282366 1020.850422 
L 322.57635 1018.153261 
L 316.500696 1016.241601 
L 310.137776 1014.460145 
L 303.452921 1012.852681 
L 298.798593 1011.906683 
L 293.972116 1011.087948 
L 288.961678 1010.426031 
L 283.756809 1009.958171 
L 278.350314 1009.731117 
L 272.741574 1009.802985 
L 266.941692 1010.244364 
L 263.978546 1010.628902 
L 260.980978 1011.137239 
L 257.957296 1011.78046 
L 254.918136 1012.569265 
L 251.876605 1013.513295 
L 248.848227 1014.620395 
L 245.850637 1015.895796 
L 242.902981 1017.3413 
L 240.024989 1018.954724 
L 237.235861 1020.729642 
L 234.55308 1022.655516 
L 231.991375 1024.718342 
L 229.561948 1026.901546 
L 227.272139 1029.187132 
L 225.125479 1031.556765 
L 223.122062 1033.99273 
L 221.25917 1036.478635 
L 219.531905 1038.99982 
L 216.457712 1044.099123 
L 213.839777 1049.211639 
L 211.615778 1054.284708 
L 209.727834 1059.285551 
L 208.125286 1064.19523 
L 206.765139 1069.00399 
L 205.611486 1073.707951 
L 204.204413 1080.567561 
L 203.116024 1087.199056 
L 202.285505 1093.615203 
L 201.666204 1099.830493 
L 201.107543 1107.830196 
L 200.795406 1115.531075 
L 200.679168 1124.780967 
L 200.803352 1133.658407 
L 201.199383 1143.877716 
L 201.805729 1153.679792 
L 202.718377 1164.652945 
L 203.968626 1176.660061 
L 205.386477 1188.170095 
L 207.132004 1200.59996 
L 209.21032 1213.847294 
L 211.618681 1227.821486 
L 214.579408 1243.63509 
L 217.858467 1259.928931 
L 221.673017 1277.743649 
L 226.003304 1296.898635 
L 231.059508 1318.228676 
L 236.796374 1341.460507 
L 243.619709 1368.151779 
L 252.096802 1400.372053 
L 263.933204 1444.396699 
L 290.71956 1543.765102 
L 300.335277 1580.452693 
L 308.493724 1612.436565 
L 315.672926 1641.457522 
L 322.254608 1668.984515 
L 328.280785 1695.153032 
L 333.790646 1720.075567 
L 338.820654 1743.846786 
L 343.51002 1767.081845 
L 347.770435 1789.293852 
L 351.723036 1811.058971 
L 355.375675 1832.403694 
L 358.735814 1853.351628 
L 361.810541 1873.923893 
L 364.606602 1894.139482 
L 367.13042 1914.015518 
L 369.388133 1933.567497 
L 371.385584 1952.809496 
L 373.128361 1971.754314 
L 374.62182 1990.413649 
L 375.871084 2008.798196 
L 376.881066 2026.917774 
L 377.656493 2044.781403 
L 378.201903 2062.397379 
L 378.298088 2066.54425 
L 378.298088 2066.54425 
" style="fill:none;stroke:#800080;stroke-linecap:square;stroke-width:1.5;"/>
   </g>
   <g id="line2d_33">
    <path clip-path="url(#pd24f167f57)" d="M 2368.122446 1045.087159 
L 2367.809028 1044.976073 
L 2367.22791 1044.528646 
L 2366.549057 1043.709993 
L 2365.791094 1042.412873 
L 2365.067476 1040.702621 
L 2364.414379 1038.549528 
L 2364.256258 1037.888469 
L 2364.256258 1037.888469 
" style="fill:none;stroke:#c0c0c0;stroke-linecap:square;stroke-width:1.5;"/>
   </g>
   <g id="line2d_34">
    <path clip-path="url(#pd24f167f57)" d="M 234.376339 1075.11482 
L 236.909901 1076.724731 
L 239.504329 1078.22448 
L 242.149802 1079.61056 
L 244.836202 1080.88111 
L 247.553455 1082.035879 
L 253.04219 1084.00433 
L 258.546371 1085.540046 
L 264.010197 1086.68053 
L 269.392729 1087.46966 
L 274.666447 1087.952312 
L 279.814634 1088.170914 
L 284.828657 1088.163728 
L 289.705586 1087.964206 
L 294.446311 1087.60108 
L 301.309775 1086.801914 
L 307.891474 1085.755471 
L 314.211261 1084.513387 
L 320.289467 1083.115645 
L 328.051487 1081.062624 
L 335.460906 1078.843336 
L 342.555021 1076.498777 
L 351.028237 1073.437616 
L 359.113022 1070.271511 
L 368.364844 1066.377104 
L 377.185894 1062.41472 
L 387.002069 1057.741526 
L 396.370612 1053.041987 
L 406.599308 1047.664794 
L 417.575167 1041.631743 
L 429.198404 1034.970935 
L 441.3827 1027.714821 
L 454.054569 1019.898512 
L 467.152113 1011.558338 
L 481.56313 1002.106505 
L 496.221976 992.22886 
L 511.95819 981.365401 
L 529.452716 969.014713 
L 548.477464 955.307694 
L 570.305076 939.293276 
L 595.24177 920.70995 
L 626.758722 896.928553 
L 745.67051 806.91703 
L 773.569823 786.240327 
L 798.534396 768.00863 
L 821.825415 751.268075 
L 844.069755 735.551415 
L 865.357043 720.78227 
L 885.76141 706.89294 
L 905.796382 693.524721 
L 925.048674 680.942904 
L 944.002709 668.819458 
L 962.680547 657.137466 
L 981.101665 645.881419 
L 998.863122 635.284632 
L 1016.410512 625.068248 
L 1033.756681 615.220836 
L 1050.913193 605.731759 
L 1067.890441 596.591095 
L 1084.697816 587.789554 
L 1101.34383 579.318438 
L 1117.836188 571.169571 
L 1134.181888 563.335259 
L 1150.771496 555.632719 
L 1167.220287 548.244932 
L 1183.533925 541.164949 
L 1199.717588 534.386187 
L 1215.775985 527.902399 
L 1231.71342 521.707664 
L 1247.533826 515.796328 
L 1263.240809 510.163026 
L 1278.837652 504.802615 
L 1294.327369 499.710207 
L 1309.712714 494.881101 
L 1325.350445 490.207577 
L 1340.884004 485.800439 
L 1356.315632 481.655255 
L 1371.647397 477.767787 
L 1386.881158 474.133948 
L 1402.018625 470.749802 
L 1417.061344 467.611571 
L 1432.010715 464.715597 
L 1447.204622 462.000714 
L 1462.303455 459.531894 
L 1477.308314 457.305623 
L 1492.22019 455.318493 
L 1507.039973 453.567204 
L 1521.768438 452.048567 
L 1536.40629 450.759485 
L 1550.954121 449.696947 
L 1565.732762 448.841914 
L 1580.418381 448.217526 
L 1595.011396 447.820836 
L 1609.512142 447.648978 
L 1623.920899 447.699171 
L 1638.237888 447.968686 
L 1652.463268 448.45488 
L 1666.90339 449.172746 
L 1681.248054 450.111431 
L 1695.497282 451.268311 
L 1709.651029 452.640825 
L 1723.709236 454.226465 
L 1737.671782 456.022794 
L 1751.538522 458.02741 
L 1765.601227 460.28724 
L 1779.56358 462.759447 
L 1793.425333 465.441646 
L 1807.186185 468.331504 
L 1820.845821 471.426741 
L 1834.403906 474.725118 
L 1847.860067 478.224441 
L 1861.213918 481.922577 
L 1874.740023 485.900642 
L 1888.158638 490.081512 
L 1901.469285 494.463043 
L 1914.671492 499.043144 
L 1927.764741 503.819769 
L 1940.748532 508.790908 
L 1953.622326 513.954607 
L 1966.644916 519.420192 
L 1979.551835 525.082303 
L 1992.342494 530.939003 
L 2005.016299 536.988401 
L 2017.57264 543.228677 
L 2030.0109 549.658049 
L 2042.330465 556.27479 
L 2054.530713 563.077247 
L 2066.611017 570.063796 
L 2078.570744 577.232913 
L 2090.644801 584.731951 
L 2102.592079 592.417895 
L 2114.411907 600.289335 
L 2126.103604 608.344955 
L 2137.666498 616.583523 
L 2149.099896 625.003918 
L 2160.403129 633.605118 
L 2171.575491 642.386236 
L 2182.616307 651.34652 
L 2193.524867 660.485359 
L 2204.300467 669.802319 
L 2214.942382 679.297147 
L 2225.449886 688.969799 
L 2235.822203 698.820478 
L 2246.058558 708.84964 
L 2256.158116 719.058067 
L 2266.120001 729.446886 
L 2275.943263 740.017642 
L 2285.438333 750.559689 
L 2294.798079 761.280962 
L 2304.021247 772.184485 
L 2313.106418 783.273992 
L 2321.874373 794.326553 
L 2330.50625 805.56738 
L 2338.827778 816.767451 
L 2347.013745 828.1615 
L 2354.894483 839.514496 
L 2362.474478 850.823557 
L 2369.757425 862.086632 
L 2376.746058 873.302522 
L 2383.441949 884.470887 
L 2389.694421 895.324839 
L 2395.65971 906.122105 
L 2401.191253 916.585277 
L 2406.435712 926.981723 
L 2411.251417 937.021124 
L 2415.644055 946.683526 
L 2419.745567 956.248298 
L 2423.427086 965.400219 
L 2426.697699 974.110733 
L 2429.677056 982.66841 
L 2432.360844 991.056407 
L 2434.747298 999.254587 
L 2436.838404 1007.240087 
L 2438.640804 1014.988256 
L 2440.230815 1022.815788 
L 2441.542117 1030.36135 
L 2442.641788 1037.94637 
L 2443.527465 1045.552358 
L 2444.226801 1053.506493 
L 2444.701392 1061.443758 
L 2444.968691 1069.689645 
L 2445.015947 1078.222809 
L 2444.835264 1087.022398 
L 2444.422947 1096.069171 
L 2443.77856 1105.346287 
L 2442.870234 1115.164875 
L 2441.721816 1125.179873 
L 2440.292049 1135.699023 
L 2438.568732 1146.702904 
L 2436.541038 1158.174365 
L 2434.261314 1169.794622 
L 2431.666567 1181.862278 
L 2428.745734 1194.365111 
L 2425.563402 1206.999963 
L 2422.11999 1219.767279 
L 2418.329993 1232.952055 
L 2414.267505 1246.262285 
L 2409.929305 1259.697357 
L 2405.407293 1272.980825 
L 2400.60782 1286.392016 
L 2395.525051 1299.928162 
L 2390.259741 1313.319531 
L 2384.705186 1326.834264 
L 2378.96843 1340.206987 
L 2373.052558 1353.44086 
L 2366.839056 1366.793854 
L 2360.444672 1380.007179 
L 2353.871656 1393.082408 
L 2347.122043 1406.020675 
L 2340.062845 1419.067603 
L 2332.823959 1431.973505 
L 2325.407084 1444.738528 
L 2317.81382 1457.362564 
L 2310.045686 1469.845282 
L 2302.104137 1482.186122 
L 2293.990577 1494.384368 
L 2285.706353 1506.439135 
L 2277.252789 1518.349385 
L 2268.631189 1530.113978 
L 2259.842807 1541.731634 
L 2250.888912 1553.200989 
L 2241.770738 1564.520575 
L 2232.48952 1575.688846 
L 2223.046484 1586.704175 
L 2213.442848 1597.564879 
L 2203.67983 1608.269194 
L 2193.758657 1618.815305 
L 2183.680539 1629.201341 
L 2173.446708 1639.425385 
L 2163.058389 1649.485467 
L 2152.51681 1659.379575 
L 2142.026374 1668.923721 
L 2131.390772 1678.304153 
L 2120.611185 1687.518863 
L 2109.688801 1696.565807 
L 2098.624808 1705.442923 
L 2087.42041 1714.148109 
L 2076.076811 1722.679233 
L 2064.595227 1731.034138 
L 2052.976878 1739.210648 
L 2041.222991 1747.206551 
L 2029.564683 1754.871095 
L 2017.778359 1762.357628 
L 2005.8652 1769.664 
L 1993.82639 1776.788028 
L 1981.663116 1783.727508 
L 1969.376582 1790.480217 
L 1956.967976 1797.043907 
L 1944.438518 1803.416301 
L 1932.038573 1809.475833 
L 1919.52477 1815.347099 
L 1906.89826 1821.0279 
L 1894.160191 1826.515992 
L 1881.311719 1831.80912 
L 1868.354003 1836.905003 
L 1855.288192 1841.801331 
L 1842.115448 1846.495762 
L 1829.103536 1850.898149 
L 1815.991124 1855.102114 
L 1802.779311 1859.105375 
L 1789.469186 1862.905633 
L 1776.061821 1866.50054 
L 1762.558316 1869.887727 
L 1749.2382 1873.002078 
L 1735.827866 1875.912508 
L 1722.328315 1878.616701 
L 1708.740542 1881.112289 
L 1695.065548 1883.396896 
L 1681.304301 1885.468074 
L 1667.457784 1887.323367 
L 1653.818032 1888.9284 
L 1640.098338 1890.321644 
L 1626.299584 1891.500652 
L 1612.422637 1892.462943 
L 1598.468346 1893.205988 
L 1584.43755 1893.727203 
L 1570.631983 1894.020005 
L 1556.754668 1894.095272 
L 1542.806331 1893.950446 
L 1528.787682 1893.582899 
L 1514.699403 1892.989937 
L 1500.542158 1892.168826 
L 1486.31658 1891.116746 
L 1472.334707 1889.861279 
L 1458.288553 1888.379252 
L 1444.17862 1886.66784 
L 1430.005379 1884.724117 
L 1415.769255 1882.545102 
L 1401.470643 1880.127717 
L 1387.429691 1877.53054 
L 1373.329611 1874.699391 
L 1359.170639 1871.631148 
L 1344.952952 1868.322571 
L 1330.676682 1864.770322 
L 1316.341905 1860.97095 
L 1302.27639 1857.015748 
L 1288.154947 1852.817678 
L 1273.977434 1848.373181 
L 1259.743669 1843.678558 
L 1245.45336 1838.729975 
L 1231.106144 1833.523458 
L 1216.701555 1828.054859 
L 1202.576038 1822.456303 
L 1188.394626 1816.599427 
L 1174.156572 1810.479876 
L 1159.861034 1804.093097 
L 1145.507005 1797.43434 
L 1131.093371 1790.498638 
L 1116.618837 1783.280773 
L 1102.428804 1775.957377 
L 1088.177822 1768.354557 
L 1073.864176 1760.466704 
L 1059.485953 1752.287923 
L 1045.041014 1743.81199 
L 1030.526962 1735.03234 
L 1016.297771 1726.167492 
L 1001.997515 1717.000137 
L 987.623147 1707.523026 
L 973.171274 1697.728495 
L 958.638124 1687.608372 
L 944.019524 1677.153942 
L 929.310816 1666.355918 
L 914.878122 1655.48752 
L 900.349509 1644.273137 
L 885.719026 1632.702132 
L 870.980041 1620.763075 
L 856.125144 1608.443614 
L 841.146046 1595.730372 
L 826.033422 1582.60881 
L 810.776791 1569.063103 
L 795.364299 1555.075917 
L 779.782511 1540.628223 
L 764.016131 1525.699021 
L 748.047644 1510.265034 
L 731.856926 1494.300336 
L 715.420677 1477.775861 
L 698.711768 1460.65884 
L 681.69835 1442.912055 
L 663.892821 1424.011341 
L 645.678483 1404.350069 
L 626.522337 1383.342595 
L 606.306104 1360.842548 
L 583.857783 1335.516339 
L 558.284796 1306.31896 
L 521.998339 1264.511309 
L 476.590155 1212.244532 
L 454.370016 1187.02275 
L 436.364685 1166.921397 
L 421.044027 1150.14598 
L 407.204527 1135.323432 
L 395.160564 1122.734747 
L 384.267054 1111.642524 
L 373.665489 1101.158186 
L 363.410422 1091.351145 
L 354.84834 1083.449573 
L 347.001194 1076.465185 
L 338.569933 1069.267771 
L 330.984989 1063.096262 
L 324.457982 1058.041933 
L 317.418744 1052.886565 
L 311.720468 1048.961964 
L 305.571142 1045.003891 
L 301.163487 1042.361559 
L 296.454061 1039.735744 
L 291.377957 1037.156212 
L 285.847102 1034.675295 
L 282.874899 1033.499213 
L 279.740423 1032.389407 
L 276.421805 1031.372524 
L 272.89478 1030.48677 
L 269.134822 1029.787484 
L 265.122939 1029.354744 
L 260.859258 1029.301302 
L 256.38944 1029.773182 
L 251.841276 1030.92331 
L 247.438383 1032.838841 
L 243.435155 1035.45935 
L 239.997242 1038.586633 
L 237.150807 1041.991108 
L 234.829666 1045.49736 
L 232.939298 1048.999465 
L 231.391478 1052.442167 
L 230.114505 1055.800123 
L 229.053012 1059.064083 
L 227.417872 1065.309864 
L 226.254069 1071.206924 
L 225.421482 1076.797749 
L 224.831242 1082.122688 
L 224.276232 1089.685527 
L 224.008162 1096.819425 
L 223.947115 1103.594531 
L 224.099804 1112.160808 
L 224.447908 1120.279075 
L 225.079774 1129.903216 
L 226.042246 1140.81556 
L 227.358151 1152.826519 
L 229.031687 1165.777152 
L 231.054219 1179.53691 
L 233.409028 1193.999472 
L 236.319518 1210.411218 
L 239.769 1228.491145 
L 243.724708 1248.00256 
L 248.387031 1269.869795 
L 254.167117 1295.852713 
L 261.396656 1327.250865 
L 271.785529 1371.261098 
L 293.190893 1461.746915 
L 301.655641 1498.632119 
L 308.84225 1530.926561 
L 315.210625 1560.569706 
L 320.849723 1587.859334 
L 325.961256 1613.662763 
L 330.702997 1638.732527 
L 335.088998 1663.132643 
L 339.035226 1686.330068 
L 342.666706 1708.986159 
L 345.993731 1731.138669 
L 349.025881 1752.820647 
L 351.772074 1774.061218 
L 354.240652 1794.886173 
L 356.439418 1815.3185 
L 358.375712 1835.378761 
L 360.056436 1855.085425 
L 361.488105 1874.455165 
L 362.676878 1893.503074 
L 363.62859 1912.242856 
L 364.364245 1931.15615 
L 364.862024 1949.770747 
L 365.127344 1968.097892 
L 365.16534 1986.14789 
L 364.980951 2003.930192 
L 364.578866 2021.453519 
L 363.963606 2038.725901 
L 363.139499 2055.75476 
L 362.503389 2066.54425 
L 362.503389 2066.54425 
" style="fill:none;stroke:#000000;stroke-linecap:square;stroke-width:1.5;"/>
   </g>
   <g id="patch_13">
    <path d="M 60.114062 2027.988 
L 60.114062 7.2 
" style="fill:none;stroke:#000000;stroke-linecap:square;stroke-linejoin:miter;stroke-width:0.8;"/>
   </g>
   <g id="patch_14">
    <path d="M 2754.498063 2027.988 
L 2754.498063 7.2 
" style="fill:none;stroke:#000000;stroke-linecap:square;stroke-linejoin:miter;stroke-width:0.8;"/>
   </g>
   <g id="patch_15">
    <path d="M 60.114062 2027.988 
L 2754.498063 2027.988 
" style="fill:none;stroke:#000000;stroke-linecap:square;stroke-linejoin:miter;stroke-width:0.8;"/>
   </g>
   <g id="patch_16">
    <path d="M 60.114062 7.2 
L 2754.498063 7.2 
" style="fill:none;stroke:#000000;stroke-linecap:square;stroke-linejoin:miter;stroke-width:0.8;"/>
   </g>
  </g>
 </g>
 <defs>
  <clipPath id="pd24f167f57">
   <rect height="2020.788" width="2694.384" x="60.114062" y="7.2"/>
  </clipPath>
 </defs>
</svg>
