<?xml version="1.0" encoding="utf-8" standalone="no"?>
<!DOCTYPE svg PUBLIC "-//W3C//DTD SVG 1.1//EN"
  "http://www.w3.org/Graphics/SVG/1.1/DTD/svg11.dtd">
<!-- Created with matplotlib (https://matplotlib.org/) -->
<svg height="942.88425pt" version="1.1" viewBox="0 0 1264.818062 942.88425" width="1264.818062pt" xmlns="http://www.w3.org/2000/svg" xmlns:xlink="http://www.w3.org/1999/xlink">
 <metadata>
  <rdf:RDF xmlns:cc="http://creativecommons.org/ns#" xmlns:dc="http://purl.org/dc/elements/1.1/" xmlns:rdf="http://www.w3.org/1999/02/22-rdf-syntax-ns#">
   <cc:Work>
    <dc:type rdf:resource="http://purl.org/dc/dcmitype/StillImage"/>
    <dc:date>2021-08-06T14:46:03.852623</dc:date>
    <dc:format>image/svg+xml</dc:format>
    <dc:creator>
     <cc:Agent>
      <dc:title>Matplotlib v3.3.2, https://matplotlib.org/</dc:title>
     </cc:Agent>
    </dc:creator>
   </cc:Work>
  </rdf:RDF>
 </metadata>
 <defs>
  <style type="text/css">*{stroke-linecap:butt;stroke-linejoin:round;}</style>
 </defs>
 <g id="figure_1">
  <g id="patch_1">
   <path d="M 0 942.88425 
L 1264.818062 942.88425 
L 1264.818062 -0 
L 0 -0 
z
" style="fill:#ffffff;"/>
  </g>
  <g id="axes_1">
   <g id="patch_2">
    <path d="M 60.114063 905.328 
L 1257.618063 905.328 
L 1257.618063 7.2 
L 60.114063 7.2 
z
" style="fill:#ffffff;"/>
   </g>
   <g id="patch_3">
    <path clip-path="url(#p7303c00bec)" d="M 146.46101 484.070534 
C 150.594758 484.070534 154.559755 482.428179 157.482756 479.505177 
C 160.405757 476.582176 162.048113 472.617179 162.048113 468.483431 
C 162.048113 464.349683 160.405757 460.384686 157.482756 457.461685 
C 154.559755 454.538683 150.594758 452.896328 146.46101 452.896328 
C 142.327262 452.896328 138.362265 454.538683 135.439263 457.461685 
C 132.516262 460.384686 130.873907 464.349683 130.873907 468.483431 
C 130.873907 472.617179 132.516262 476.582176 135.439263 479.505177 
C 138.362265 482.428179 142.327262 484.070534 146.46101 484.070534 
z
" style="fill:#00008b;stroke:#00008b;stroke-linejoin:miter;"/>
   </g>
   <g id="patch_4">
    <path clip-path="url(#p7303c00bec)" d="M 1085.895566 472.728211 
C 1087.021361 472.728211 1088.101198 472.280928 1088.897255 471.484871 
C 1089.693313 470.688814 1090.140596 469.608977 1090.140596 468.483182 
C 1090.140596 467.357387 1089.693313 466.27755 1088.897255 465.481493 
C 1088.101198 464.685435 1087.021361 464.238152 1085.895566 464.238152 
C 1084.769771 464.238152 1083.689934 464.685435 1082.893877 465.481493 
C 1082.09782 466.27755 1081.650537 467.357387 1081.650537 468.483182 
C 1081.650537 469.608977 1082.09782 470.688814 1082.893877 471.484871 
C 1083.689934 472.280928 1084.769771 472.728211 1085.895566 472.728211 
z
" style="fill:#808080;stroke:#808080;stroke-linejoin:miter;"/>
   </g>
   <g id="patch_5">
    <path clip-path="url(#p7303c00bec)" d="M 146.46101 484.070534 
C 150.594758 484.070534 154.559755 482.428179 157.482756 479.505177 
C 160.405757 476.582176 162.048113 472.617179 162.048113 468.483431 
C 162.048113 464.349683 160.405757 460.384686 157.482756 457.461685 
C 154.559755 454.538683 150.594758 452.896328 146.46101 452.896328 
C 142.327262 452.896328 138.362265 454.538683 135.439263 457.461685 
C 132.516262 460.384686 130.873907 464.349683 130.873907 468.483431 
C 130.873907 472.617179 132.516262 476.582176 135.439263 479.505177 
C 138.362265 482.428179 142.327262 484.070534 146.46101 484.070534 
z
" style="fill:#00008b;stroke:#00008b;stroke-linejoin:miter;"/>
   </g>
   <g id="patch_6">
    <path clip-path="url(#p7303c00bec)" d="M 1085.895566 472.728211 
C 1087.021361 472.728211 1088.101198 472.280928 1088.897255 471.484871 
C 1089.693313 470.688814 1090.140596 469.608977 1090.140596 468.483182 
C 1090.140596 467.357387 1089.693313 466.27755 1088.897255 465.481493 
C 1088.101198 464.685435 1087.021361 464.238152 1085.895566 464.238152 
C 1084.769771 464.238152 1083.689934 464.685435 1082.893877 465.481493 
C 1082.09782 466.27755 1081.650537 467.357387 1081.650537 468.483182 
C 1081.650537 469.608977 1082.09782 470.688814 1082.893877 471.484871 
C 1083.689934 472.280928 1084.769771 472.728211 1085.895566 472.728211 
z
" style="fill:#808080;stroke:#808080;stroke-linejoin:miter;"/>
   </g>
   <g id="patch_7">
    <path clip-path="url(#p7303c00bec)" d="M 146.46101 484.070534 
C 150.594758 484.070534 154.559755 482.428179 157.482756 479.505177 
C 160.405757 476.582176 162.048113 472.617179 162.048113 468.483431 
C 162.048113 464.349683 160.405757 460.384686 157.482756 457.461685 
C 154.559755 454.538683 150.594758 452.896328 146.46101 452.896328 
C 142.327262 452.896328 138.362265 454.538683 135.439263 457.461685 
C 132.516262 460.384686 130.873907 464.349683 130.873907 468.483431 
C 130.873907 472.617179 132.516262 476.582176 135.439263 479.505177 
C 138.362265 482.428179 142.327262 484.070534 146.46101 484.070534 
z
" style="fill:#00008b;stroke:#00008b;stroke-linejoin:miter;"/>
   </g>
   <g id="patch_8">
    <path clip-path="url(#p7303c00bec)" d="M 1085.895566 472.728211 
C 1087.021361 472.728211 1088.101198 472.280928 1088.897255 471.484871 
C 1089.693313 470.688814 1090.140596 469.608977 1090.140596 468.483182 
C 1090.140596 467.357387 1089.693313 466.27755 1088.897255 465.481493 
C 1088.101198 464.685435 1087.021361 464.238152 1085.895566 464.238152 
C 1084.769771 464.238152 1083.689934 464.685435 1082.893877 465.481493 
C 1082.09782 466.27755 1081.650537 467.357387 1081.650537 468.483182 
C 1081.650537 469.608977 1082.09782 470.688814 1082.893877 471.484871 
C 1083.689934 472.280928 1084.769771 472.728211 1085.895566 472.728211 
z
" style="fill:#808080;stroke:#808080;stroke-linejoin:miter;"/>
   </g>
   <g id="matplotlib.axis_1">
    <g id="xtick_1">
     <g id="line2d_1">
      <path clip-path="url(#p7303c00bec)" d="M 157.869491 905.328 
L 157.869491 7.2 
" style="fill:none;stroke:#b0b0b0;stroke-linecap:square;stroke-width:0.8;"/>
     </g>
     <g id="line2d_2">
      <defs>
       <path d="M 0 0 
L 0 3.5 
" id="m329495a0c2" style="stroke:#000000;stroke-width:0.8;"/>
      </defs>
      <g>
       <use style="stroke:#000000;stroke-width:0.8;" x="157.869491" xlink:href="#m329495a0c2" y="905.328"/>
      </g>
     </g>
     <g id="text_1">
      <!-- 0.0 -->
      <g transform="translate(149.917929 919.926437)scale(0.1 -0.1)">
       <defs>
        <path d="M 31.78125 66.40625 
Q 24.171875 66.40625 20.328125 58.90625 
Q 16.5 51.421875 16.5 36.375 
Q 16.5 21.390625 20.328125 13.890625 
Q 24.171875 6.390625 31.78125 6.390625 
Q 39.453125 6.390625 43.28125 13.890625 
Q 47.125 21.390625 47.125 36.375 
Q 47.125 51.421875 43.28125 58.90625 
Q 39.453125 66.40625 31.78125 66.40625 
z
M 31.78125 74.21875 
Q 44.046875 74.21875 50.515625 64.515625 
Q 56.984375 54.828125 56.984375 36.375 
Q 56.984375 17.96875 50.515625 8.265625 
Q 44.046875 -1.421875 31.78125 -1.421875 
Q 19.53125 -1.421875 13.0625 8.265625 
Q 6.59375 17.96875 6.59375 36.375 
Q 6.59375 54.828125 13.0625 64.515625 
Q 19.53125 74.21875 31.78125 74.21875 
z
" id="DejaVuSans-48"/>
        <path d="M 10.6875 12.40625 
L 21 12.40625 
L 21 0 
L 10.6875 0 
z
" id="DejaVuSans-46"/>
       </defs>
       <use xlink:href="#DejaVuSans-48"/>
       <use x="63.623047" xlink:href="#DejaVuSans-46"/>
       <use x="95.410156" xlink:href="#DejaVuSans-48"/>
      </g>
     </g>
    </g>
    <g id="xtick_2">
     <g id="line2d_3">
      <path clip-path="url(#p7303c00bec)" d="M 402.258063 905.328 
L 402.258063 7.2 
" style="fill:none;stroke:#b0b0b0;stroke-linecap:square;stroke-width:0.8;"/>
     </g>
     <g id="line2d_4">
      <g>
       <use style="stroke:#000000;stroke-width:0.8;" x="402.258063" xlink:href="#m329495a0c2" y="905.328"/>
      </g>
     </g>
     <g id="text_2">
      <!-- 100.0 -->
      <g transform="translate(387.944 919.926437)scale(0.1 -0.1)">
       <defs>
        <path d="M 12.40625 8.296875 
L 28.515625 8.296875 
L 28.515625 63.921875 
L 10.984375 60.40625 
L 10.984375 69.390625 
L 28.421875 72.90625 
L 38.28125 72.90625 
L 38.28125 8.296875 
L 54.390625 8.296875 
L 54.390625 0 
L 12.40625 0 
z
" id="DejaVuSans-49"/>
       </defs>
       <use xlink:href="#DejaVuSans-49"/>
       <use x="63.623047" xlink:href="#DejaVuSans-48"/>
       <use x="127.246094" xlink:href="#DejaVuSans-48"/>
       <use x="190.869141" xlink:href="#DejaVuSans-46"/>
       <use x="222.65625" xlink:href="#DejaVuSans-48"/>
      </g>
     </g>
    </g>
    <g id="xtick_3">
     <g id="line2d_5">
      <path clip-path="url(#p7303c00bec)" d="M 646.646634 905.328 
L 646.646634 7.2 
" style="fill:none;stroke:#b0b0b0;stroke-linecap:square;stroke-width:0.8;"/>
     </g>
     <g id="line2d_6">
      <g>
       <use style="stroke:#000000;stroke-width:0.8;" x="646.646634" xlink:href="#m329495a0c2" y="905.328"/>
      </g>
     </g>
     <g id="text_3">
      <!-- 200.0 -->
      <g transform="translate(632.332571 919.926437)scale(0.1 -0.1)">
       <defs>
        <path d="M 19.1875 8.296875 
L 53.609375 8.296875 
L 53.609375 0 
L 7.328125 0 
L 7.328125 8.296875 
Q 12.9375 14.109375 22.625 23.890625 
Q 32.328125 33.6875 34.8125 36.53125 
Q 39.546875 41.84375 41.421875 45.53125 
Q 43.3125 49.21875 43.3125 52.78125 
Q 43.3125 58.59375 39.234375 62.25 
Q 35.15625 65.921875 28.609375 65.921875 
Q 23.96875 65.921875 18.8125 64.3125 
Q 13.671875 62.703125 7.8125 59.421875 
L 7.8125 69.390625 
Q 13.765625 71.78125 18.9375 73 
Q 24.125 74.21875 28.421875 74.21875 
Q 39.75 74.21875 46.484375 68.546875 
Q 53.21875 62.890625 53.21875 53.421875 
Q 53.21875 48.921875 51.53125 44.890625 
Q 49.859375 40.875 45.40625 35.40625 
Q 44.1875 33.984375 37.640625 27.21875 
Q 31.109375 20.453125 19.1875 8.296875 
z
" id="DejaVuSans-50"/>
       </defs>
       <use xlink:href="#DejaVuSans-50"/>
       <use x="63.623047" xlink:href="#DejaVuSans-48"/>
       <use x="127.246094" xlink:href="#DejaVuSans-48"/>
       <use x="190.869141" xlink:href="#DejaVuSans-46"/>
       <use x="222.65625" xlink:href="#DejaVuSans-48"/>
      </g>
     </g>
    </g>
    <g id="xtick_4">
     <g id="line2d_7">
      <path clip-path="url(#p7303c00bec)" d="M 891.035205 905.328 
L 891.035205 7.2 
" style="fill:none;stroke:#b0b0b0;stroke-linecap:square;stroke-width:0.8;"/>
     </g>
     <g id="line2d_8">
      <g>
       <use style="stroke:#000000;stroke-width:0.8;" x="891.035205" xlink:href="#m329495a0c2" y="905.328"/>
      </g>
     </g>
     <g id="text_4">
      <!-- 300.0 -->
      <g transform="translate(876.721143 919.926437)scale(0.1 -0.1)">
       <defs>
        <path d="M 40.578125 39.3125 
Q 47.65625 37.796875 51.625 33 
Q 55.609375 28.21875 55.609375 21.1875 
Q 55.609375 10.40625 48.1875 4.484375 
Q 40.765625 -1.421875 27.09375 -1.421875 
Q 22.515625 -1.421875 17.65625 -0.515625 
Q 12.796875 0.390625 7.625 2.203125 
L 7.625 11.71875 
Q 11.71875 9.328125 16.59375 8.109375 
Q 21.484375 6.890625 26.8125 6.890625 
Q 36.078125 6.890625 40.9375 10.546875 
Q 45.796875 14.203125 45.796875 21.1875 
Q 45.796875 27.640625 41.28125 31.265625 
Q 36.765625 34.90625 28.71875 34.90625 
L 20.21875 34.90625 
L 20.21875 43.015625 
L 29.109375 43.015625 
Q 36.375 43.015625 40.234375 45.921875 
Q 44.09375 48.828125 44.09375 54.296875 
Q 44.09375 59.90625 40.109375 62.90625 
Q 36.140625 65.921875 28.71875 65.921875 
Q 24.65625 65.921875 20.015625 65.03125 
Q 15.375 64.15625 9.8125 62.3125 
L 9.8125 71.09375 
Q 15.4375 72.65625 20.34375 73.4375 
Q 25.25 74.21875 29.59375 74.21875 
Q 40.828125 74.21875 47.359375 69.109375 
Q 53.90625 64.015625 53.90625 55.328125 
Q 53.90625 49.265625 50.4375 45.09375 
Q 46.96875 40.921875 40.578125 39.3125 
z
" id="DejaVuSans-51"/>
       </defs>
       <use xlink:href="#DejaVuSans-51"/>
       <use x="63.623047" xlink:href="#DejaVuSans-48"/>
       <use x="127.246094" xlink:href="#DejaVuSans-48"/>
       <use x="190.869141" xlink:href="#DejaVuSans-46"/>
       <use x="222.65625" xlink:href="#DejaVuSans-48"/>
      </g>
     </g>
    </g>
    <g id="xtick_5">
     <g id="line2d_9">
      <path clip-path="url(#p7303c00bec)" d="M 1135.423777 905.328 
L 1135.423777 7.2 
" style="fill:none;stroke:#b0b0b0;stroke-linecap:square;stroke-width:0.8;"/>
     </g>
     <g id="line2d_10">
      <g>
       <use style="stroke:#000000;stroke-width:0.8;" x="1135.423777" xlink:href="#m329495a0c2" y="905.328"/>
      </g>
     </g>
     <g id="text_5">
      <!-- 400.0 -->
      <g transform="translate(1121.109714 919.926437)scale(0.1 -0.1)">
       <defs>
        <path d="M 37.796875 64.3125 
L 12.890625 25.390625 
L 37.796875 25.390625 
z
M 35.203125 72.90625 
L 47.609375 72.90625 
L 47.609375 25.390625 
L 58.015625 25.390625 
L 58.015625 17.1875 
L 47.609375 17.1875 
L 47.609375 0 
L 37.796875 0 
L 37.796875 17.1875 
L 4.890625 17.1875 
L 4.890625 26.703125 
z
" id="DejaVuSans-52"/>
       </defs>
       <use xlink:href="#DejaVuSans-52"/>
       <use x="63.623047" xlink:href="#DejaVuSans-48"/>
       <use x="127.246094" xlink:href="#DejaVuSans-48"/>
       <use x="190.869141" xlink:href="#DejaVuSans-46"/>
       <use x="222.65625" xlink:href="#DejaVuSans-48"/>
      </g>
     </g>
    </g>
    <g id="text_6">
     <!-- Unit: 1000 km -->
     <g transform="translate(623.335594 933.604562)scale(0.1 -0.1)">
      <defs>
       <path d="M 8.6875 72.90625 
L 18.609375 72.90625 
L 18.609375 28.609375 
Q 18.609375 16.890625 22.84375 11.734375 
Q 27.09375 6.59375 36.625 6.59375 
Q 46.09375 6.59375 50.34375 11.734375 
Q 54.59375 16.890625 54.59375 28.609375 
L 54.59375 72.90625 
L 64.5 72.90625 
L 64.5 27.390625 
Q 64.5 13.140625 57.4375 5.859375 
Q 50.390625 -1.421875 36.625 -1.421875 
Q 22.796875 -1.421875 15.734375 5.859375 
Q 8.6875 13.140625 8.6875 27.390625 
z
" id="DejaVuSans-85"/>
       <path d="M 54.890625 33.015625 
L 54.890625 0 
L 45.90625 0 
L 45.90625 32.71875 
Q 45.90625 40.484375 42.875 44.328125 
Q 39.84375 48.1875 33.796875 48.1875 
Q 26.515625 48.1875 22.3125 43.546875 
Q 18.109375 38.921875 18.109375 30.90625 
L 18.109375 0 
L 9.078125 0 
L 9.078125 54.6875 
L 18.109375 54.6875 
L 18.109375 46.1875 
Q 21.34375 51.125 25.703125 53.5625 
Q 30.078125 56 35.796875 56 
Q 45.21875 56 50.046875 50.171875 
Q 54.890625 44.34375 54.890625 33.015625 
z
" id="DejaVuSans-110"/>
       <path d="M 9.421875 54.6875 
L 18.40625 54.6875 
L 18.40625 0 
L 9.421875 0 
z
M 9.421875 75.984375 
L 18.40625 75.984375 
L 18.40625 64.59375 
L 9.421875 64.59375 
z
" id="DejaVuSans-105"/>
       <path d="M 18.3125 70.21875 
L 18.3125 54.6875 
L 36.8125 54.6875 
L 36.8125 47.703125 
L 18.3125 47.703125 
L 18.3125 18.015625 
Q 18.3125 11.328125 20.140625 9.421875 
Q 21.96875 7.515625 27.59375 7.515625 
L 36.8125 7.515625 
L 36.8125 0 
L 27.59375 0 
Q 17.1875 0 13.234375 3.875 
Q 9.28125 7.765625 9.28125 18.015625 
L 9.28125 47.703125 
L 2.6875 47.703125 
L 2.6875 54.6875 
L 9.28125 54.6875 
L 9.28125 70.21875 
z
" id="DejaVuSans-116"/>
       <path d="M 11.71875 12.40625 
L 22.015625 12.40625 
L 22.015625 0 
L 11.71875 0 
z
M 11.71875 51.703125 
L 22.015625 51.703125 
L 22.015625 39.3125 
L 11.71875 39.3125 
z
" id="DejaVuSans-58"/>
       <path id="DejaVuSans-32"/>
       <path d="M 9.078125 75.984375 
L 18.109375 75.984375 
L 18.109375 31.109375 
L 44.921875 54.6875 
L 56.390625 54.6875 
L 27.390625 29.109375 
L 57.625 0 
L 45.90625 0 
L 18.109375 26.703125 
L 18.109375 0 
L 9.078125 0 
z
" id="DejaVuSans-107"/>
       <path d="M 52 44.1875 
Q 55.375 50.25 60.0625 53.125 
Q 64.75 56 71.09375 56 
Q 79.640625 56 84.28125 50.015625 
Q 88.921875 44.046875 88.921875 33.015625 
L 88.921875 0 
L 79.890625 0 
L 79.890625 32.71875 
Q 79.890625 40.578125 77.09375 44.375 
Q 74.3125 48.1875 68.609375 48.1875 
Q 61.625 48.1875 57.5625 43.546875 
Q 53.515625 38.921875 53.515625 30.90625 
L 53.515625 0 
L 44.484375 0 
L 44.484375 32.71875 
Q 44.484375 40.625 41.703125 44.40625 
Q 38.921875 48.1875 33.109375 48.1875 
Q 26.21875 48.1875 22.15625 43.53125 
Q 18.109375 38.875 18.109375 30.90625 
L 18.109375 0 
L 9.078125 0 
L 9.078125 54.6875 
L 18.109375 54.6875 
L 18.109375 46.1875 
Q 21.1875 51.21875 25.484375 53.609375 
Q 29.78125 56 35.6875 56 
Q 41.65625 56 45.828125 52.96875 
Q 50 49.953125 52 44.1875 
z
" id="DejaVuSans-109"/>
      </defs>
      <use xlink:href="#DejaVuSans-85"/>
      <use x="73.193359" xlink:href="#DejaVuSans-110"/>
      <use x="136.572266" xlink:href="#DejaVuSans-105"/>
      <use x="164.355469" xlink:href="#DejaVuSans-116"/>
      <use x="203.564453" xlink:href="#DejaVuSans-58"/>
      <use x="237.255859" xlink:href="#DejaVuSans-32"/>
      <use x="269.042969" xlink:href="#DejaVuSans-49"/>
      <use x="332.666016" xlink:href="#DejaVuSans-48"/>
      <use x="396.289062" xlink:href="#DejaVuSans-48"/>
      <use x="459.912109" xlink:href="#DejaVuSans-48"/>
      <use x="523.535156" xlink:href="#DejaVuSans-32"/>
      <use x="555.322266" xlink:href="#DejaVuSans-107"/>
      <use x="613.232422" xlink:href="#DejaVuSans-109"/>
     </g>
    </g>
   </g>
   <g id="matplotlib.axis_2">
    <g id="ytick_1">
     <g id="line2d_11">
      <path clip-path="url(#p7303c00bec)" d="M 60.114063 835.066286 
L 1257.618063 835.066286 
" style="fill:none;stroke:#b0b0b0;stroke-linecap:square;stroke-width:0.8;"/>
     </g>
     <g id="line2d_12">
      <defs>
       <path d="M 0 0 
L -3.5 0 
" id="m93c7110f69" style="stroke:#000000;stroke-width:0.8;"/>
      </defs>
      <g>
       <use style="stroke:#000000;stroke-width:0.8;" x="60.114063" xlink:href="#m93c7110f69" y="835.066286"/>
      </g>
     </g>
     <g id="text_7">
      <!-- -150.0 -->
      <g transform="translate(20.878125 838.865504)scale(0.1 -0.1)">
       <defs>
        <path d="M 4.890625 31.390625 
L 31.203125 31.390625 
L 31.203125 23.390625 
L 4.890625 23.390625 
z
" id="DejaVuSans-45"/>
        <path d="M 10.796875 72.90625 
L 49.515625 72.90625 
L 49.515625 64.59375 
L 19.828125 64.59375 
L 19.828125 46.734375 
Q 21.96875 47.46875 24.109375 47.828125 
Q 26.265625 48.1875 28.421875 48.1875 
Q 40.625 48.1875 47.75 41.5 
Q 54.890625 34.8125 54.890625 23.390625 
Q 54.890625 11.625 47.5625 5.09375 
Q 40.234375 -1.421875 26.90625 -1.421875 
Q 22.3125 -1.421875 17.546875 -0.640625 
Q 12.796875 0.140625 7.71875 1.703125 
L 7.71875 11.625 
Q 12.109375 9.234375 16.796875 8.0625 
Q 21.484375 6.890625 26.703125 6.890625 
Q 35.15625 6.890625 40.078125 11.328125 
Q 45.015625 15.765625 45.015625 23.390625 
Q 45.015625 31 40.078125 35.4375 
Q 35.15625 39.890625 26.703125 39.890625 
Q 22.75 39.890625 18.8125 39.015625 
Q 14.890625 38.140625 10.796875 36.28125 
z
" id="DejaVuSans-53"/>
       </defs>
       <use xlink:href="#DejaVuSans-45"/>
       <use x="36.083984" xlink:href="#DejaVuSans-49"/>
       <use x="99.707031" xlink:href="#DejaVuSans-53"/>
       <use x="163.330078" xlink:href="#DejaVuSans-48"/>
       <use x="226.953125" xlink:href="#DejaVuSans-46"/>
       <use x="258.740234" xlink:href="#DejaVuSans-48"/>
      </g>
     </g>
    </g>
    <g id="ytick_2">
     <g id="line2d_13">
      <path clip-path="url(#p7303c00bec)" d="M 60.114063 712.872 
L 1257.618063 712.872 
" style="fill:none;stroke:#b0b0b0;stroke-linecap:square;stroke-width:0.8;"/>
     </g>
     <g id="line2d_14">
      <g>
       <use style="stroke:#000000;stroke-width:0.8;" x="60.114063" xlink:href="#m93c7110f69" y="712.872"/>
      </g>
     </g>
     <g id="text_8">
      <!-- -100.0 -->
      <g transform="translate(20.878125 716.671219)scale(0.1 -0.1)">
       <use xlink:href="#DejaVuSans-45"/>
       <use x="36.083984" xlink:href="#DejaVuSans-49"/>
       <use x="99.707031" xlink:href="#DejaVuSans-48"/>
       <use x="163.330078" xlink:href="#DejaVuSans-48"/>
       <use x="226.953125" xlink:href="#DejaVuSans-46"/>
       <use x="258.740234" xlink:href="#DejaVuSans-48"/>
      </g>
     </g>
    </g>
    <g id="ytick_3">
     <g id="line2d_15">
      <path clip-path="url(#p7303c00bec)" d="M 60.114063 590.677714 
L 1257.618063 590.677714 
" style="fill:none;stroke:#b0b0b0;stroke-linecap:square;stroke-width:0.8;"/>
     </g>
     <g id="line2d_16">
      <g>
       <use style="stroke:#000000;stroke-width:0.8;" x="60.114063" xlink:href="#m93c7110f69" y="590.677714"/>
      </g>
     </g>
     <g id="text_9">
      <!-- -50.0 -->
      <g transform="translate(27.240625 594.476933)scale(0.1 -0.1)">
       <use xlink:href="#DejaVuSans-45"/>
       <use x="36.083984" xlink:href="#DejaVuSans-53"/>
       <use x="99.707031" xlink:href="#DejaVuSans-48"/>
       <use x="163.330078" xlink:href="#DejaVuSans-46"/>
       <use x="195.117188" xlink:href="#DejaVuSans-48"/>
      </g>
     </g>
    </g>
    <g id="ytick_4">
     <g id="line2d_17">
      <path clip-path="url(#p7303c00bec)" d="M 60.114063 468.483429 
L 1257.618063 468.483429 
" style="fill:none;stroke:#b0b0b0;stroke-linecap:square;stroke-width:0.8;"/>
     </g>
     <g id="line2d_18">
      <g>
       <use style="stroke:#000000;stroke-width:0.8;" x="60.114063" xlink:href="#m93c7110f69" y="468.483429"/>
      </g>
     </g>
     <g id="text_10">
      <!-- 0.0 -->
      <g transform="translate(37.210938 472.282647)scale(0.1 -0.1)">
       <use xlink:href="#DejaVuSans-48"/>
       <use x="63.623047" xlink:href="#DejaVuSans-46"/>
       <use x="95.410156" xlink:href="#DejaVuSans-48"/>
      </g>
     </g>
    </g>
    <g id="ytick_5">
     <g id="line2d_19">
      <path clip-path="url(#p7303c00bec)" d="M 60.114063 346.289143 
L 1257.618063 346.289143 
" style="fill:none;stroke:#b0b0b0;stroke-linecap:square;stroke-width:0.8;"/>
     </g>
     <g id="line2d_20">
      <g>
       <use style="stroke:#000000;stroke-width:0.8;" x="60.114063" xlink:href="#m93c7110f69" y="346.289143"/>
      </g>
     </g>
     <g id="text_11">
      <!-- 50.0 -->
      <g transform="translate(30.848438 350.088362)scale(0.1 -0.1)">
       <use xlink:href="#DejaVuSans-53"/>
       <use x="63.623047" xlink:href="#DejaVuSans-48"/>
       <use x="127.246094" xlink:href="#DejaVuSans-46"/>
       <use x="159.033203" xlink:href="#DejaVuSans-48"/>
      </g>
     </g>
    </g>
    <g id="ytick_6">
     <g id="line2d_21">
      <path clip-path="url(#p7303c00bec)" d="M 60.114063 224.094857 
L 1257.618063 224.094857 
" style="fill:none;stroke:#b0b0b0;stroke-linecap:square;stroke-width:0.8;"/>
     </g>
     <g id="line2d_22">
      <g>
       <use style="stroke:#000000;stroke-width:0.8;" x="60.114063" xlink:href="#m93c7110f69" y="224.094857"/>
      </g>
     </g>
     <g id="text_12">
      <!-- 100.0 -->
      <g transform="translate(24.485938 227.894076)scale(0.1 -0.1)">
       <use xlink:href="#DejaVuSans-49"/>
       <use x="63.623047" xlink:href="#DejaVuSans-48"/>
       <use x="127.246094" xlink:href="#DejaVuSans-48"/>
       <use x="190.869141" xlink:href="#DejaVuSans-46"/>
       <use x="222.65625" xlink:href="#DejaVuSans-48"/>
      </g>
     </g>
    </g>
    <g id="ytick_7">
     <g id="line2d_23">
      <path clip-path="url(#p7303c00bec)" d="M 60.114063 101.900571 
L 1257.618063 101.900571 
" style="fill:none;stroke:#b0b0b0;stroke-linecap:square;stroke-width:0.8;"/>
     </g>
     <g id="line2d_24">
      <g>
       <use style="stroke:#000000;stroke-width:0.8;" x="60.114063" xlink:href="#m93c7110f69" y="101.900571"/>
      </g>
     </g>
     <g id="text_13">
      <!-- 150.0 -->
      <g transform="translate(24.485938 105.69979)scale(0.1 -0.1)">
       <use xlink:href="#DejaVuSans-49"/>
       <use x="63.623047" xlink:href="#DejaVuSans-53"/>
       <use x="127.246094" xlink:href="#DejaVuSans-48"/>
       <use x="190.869141" xlink:href="#DejaVuSans-46"/>
       <use x="222.65625" xlink:href="#DejaVuSans-48"/>
      </g>
     </g>
    </g>
    <g id="text_14">
     <!-- Unit: 1000 km -->
     <g transform="translate(14.798438 491.794469)rotate(-90)scale(0.1 -0.1)">
      <use xlink:href="#DejaVuSans-85"/>
      <use x="73.193359" xlink:href="#DejaVuSans-110"/>
      <use x="136.572266" xlink:href="#DejaVuSans-105"/>
      <use x="164.355469" xlink:href="#DejaVuSans-116"/>
      <use x="203.564453" xlink:href="#DejaVuSans-58"/>
      <use x="237.255859" xlink:href="#DejaVuSans-32"/>
      <use x="269.042969" xlink:href="#DejaVuSans-49"/>
      <use x="332.666016" xlink:href="#DejaVuSans-48"/>
      <use x="396.289062" xlink:href="#DejaVuSans-48"/>
      <use x="459.912109" xlink:href="#DejaVuSans-48"/>
      <use x="523.535156" xlink:href="#DejaVuSans-32"/>
      <use x="555.322266" xlink:href="#DejaVuSans-107"/>
      <use x="613.232422" xlink:href="#DejaVuSans-109"/>
     </g>
    </g>
   </g>
   <g id="line2d_25">
    <path clip-path="url(#p7303c00bec)" d="M 1085.895566 468.483182 
L 1085.6588 468.372092 
L 1085.246316 467.940945 
L 1084.764878 467.095649 
L 1084.320213 465.85085 
L 1084.17726 465.283764 
L 1084.17726 465.283764 
" style="fill:none;stroke:#c0c0c0;stroke-linecap:square;stroke-width:1.5;"/>
   </g>
   <g id="line2d_26">
    <path clip-path="url(#p7303c00bec)" d="M 137.563961 481.828809 
L 139.841447 483.209795 
L 142.209575 484.389434 
L 144.632758 485.363885 
L 147.077668 486.139633 
L 149.51627 486.73075 
L 153.117104 487.311987 
L 156.610235 487.586115 
L 159.973264 487.615053 
L 163.19941 487.450829 
L 167.292313 487.001841 
L 171.162262 486.356296 
L 175.718041 485.351541 
L 179.998671 484.191509 
L 184.822857 482.659757 
L 190.085201 480.745755 
L 195.696357 478.455147 
L 201.583996 475.804355 
L 207.691308 472.815854 
L 214.52594 469.21495 
L 221.945892 465.034343 
L 229.836449 460.316676 
L 238.107831 455.109306 
L 247.105761 449.182071 
L 257.08379 442.338162 
L 268.22024 434.422004 
L 280.966284 425.077679 
L 296.244382 413.585207 
L 316.903963 397.739047 
L 366.53078 359.570816 
L 384.340768 346.214196 
L 400.05217 334.704501 
L 414.557919 324.352387 
L 428.200782 314.888867 
L 441.074615 306.224645 
L 453.628826 298.042254 
L 465.714071 290.428482 
L 477.550269 283.233111 
L 489.160415 276.435971 
L 500.563949 270.019035 
L 511.777421 263.966088 
L 522.814991 258.262469 
L 533.688843 252.894845 
L 544.4095 247.851044 
L 554.98608 243.119887 
L 565.426512 238.691089 
L 575.737701 234.555128 
L 586.081481 230.646086 
L 596.303734 227.021254 
L 606.409273 223.672598 
L 616.402295 220.592608 
L 626.435408 217.733498 
L 636.359691 215.137041 
L 646.178041 212.796693 
L 655.892975 210.706261 
L 665.649405 208.834147 
L 675.303501 207.207609 
L 684.856934 205.821115 
L 694.449415 204.654179 
L 703.940944 203.723708 
L 713.332543 203.024674 
L 722.758994 202.547058 
L 732.084143 202.297853 
L 741.308514 202.272424 
L 750.562109 202.470648 
L 759.712679 202.890014 
L 768.760367 203.526199 
L 777.83045 204.388475 
L 786.794684 205.465212 
L 795.65291 206.75233 
L 804.404877 208.245879 
L 813.16959 209.966991 
L 821.824342 211.892492 
L 830.368673 214.018614 
L 838.916823 216.374876 
L 847.350394 218.929827 
L 855.66876 221.679865 
L 863.981312 224.662535 
L 872.174129 227.83845 
L 880.246467 231.20416 
L 888.302755 234.804915 
L 896.233734 238.593725 
L 904.038584 242.567305 
L 911.816653 246.778332 
L 919.46354 251.172546 
L 926.978391 255.746863 
L 934.360355 260.498307 
L 941.701851 265.489144 
L 948.905292 270.656017 
L 955.969862 275.996269 
L 962.894776 281.507419 
L 969.765362 287.261082 
L 976.491217 293.185552 
L 983.071687 299.278941 
L 989.506201 305.539663 
L 995.794275 311.966484 
L 1001.935535 318.558599 
L 1007.929746 325.315713 
L 1013.849903 332.326843 
L 1019.619328 339.508665 
L 1025.169112 346.770351 
L 1030.573034 354.203984 
L 1035.832259 361.814596 
L 1040.948527 369.609429 
L 1045.92439 377.598794 
L 1050.703116 385.692186 
L 1055.353723 394.009758 
L 1059.826486 402.469557 
L 1064.080834 410.988664 
L 1068.195694 419.726425 
L 1072.091251 428.51639 
L 1075.814845 437.468776 
L 1079.216514 446.218359 
L 1082.156739 454.372122 
L 1084.311136 460.961324 
L 1085.435839 465.033473 
L 1085.813896 467.100475 
L 1085.83658 467.744077 
L 1085.169339 468.350968 
L 1084.152408 467.575574 
L 1082.597584 465.862327 
L 1080.231934 462.850888 
L 1076.631291 457.871686 
L 1072.061267 451.162332 
L 1066.975074 443.294269 
L 1061.847824 434.94836 
L 1056.828432 426.349314 
L 1051.995059 417.626932 
L 1047.368808 408.823374 
L 1042.923761 399.890795 
L 1038.647154 390.797314 
L 1034.581449 381.630836 
L 1030.717805 372.374641 
L 1027.051378 363.016986 
L 1023.580095 353.549614 
L 1020.303873 343.966816 
L 1017.257824 334.375119 
L 1014.405628 324.66223 
L 1011.75084 314.827137 
L 1009.323739 304.980536 
L 1007.12161 295.123597 
L 1005.121338 285.147226 
L 1003.347226 275.164471 
L 1001.797971 265.178079 
L 1000.472603 255.19112 
L 999.37043 245.206911 
L 998.491005 235.228968 
L 997.834074 225.260957 
L 997.399559 215.306681 
L 997.187512 205.370027 
L 997.198119 195.45496 
L 997.431659 185.565501 
L 997.888492 175.705705 
L 998.560258 165.988634 
L 999.451264 156.30853 
L 1000.562013 146.669361 
L 1001.893036 137.075096 
L 1003.426208 127.63666 
L 1005.17579 118.249817 
L 1007.142312 108.918375 
L 1009.300251 99.75114 
L 1011.671218 90.6454 
L 1014.255671 81.604775 
L 1017.020664 72.735596 
L 1019.995069 63.937028 
L 1023.179237 55.212513 
L 1026.573471 46.565473 
L 1030.134912 38.098433 
L 1033.90202 29.713667 
L 1037.874949 21.414412 
L 1042.053803 13.203901 
L 1046.385845 5.180309 
L 1049.896483 -1 
L 1049.896483 -1 
" style="fill:none;stroke:#0000ff;stroke-linecap:square;stroke-width:1.5;"/>
   </g>
   <g id="line2d_27">
    <path clip-path="url(#p7303c00bec)" d="M 1085.895566 468.483182 
L 1085.6588 468.372092 
L 1085.246316 467.940945 
L 1084.764878 467.095649 
L 1084.320213 465.85085 
L 1084.17726 465.283764 
L 1084.17726 465.283764 
" style="fill:none;stroke:#c0c0c0;stroke-linecap:square;stroke-width:1.5;"/>
   </g>
   <g id="line2d_28">
    <path clip-path="url(#p7303c00bec)" d="M 137.563961 481.828809 
L 139.841853 483.210066 
L 142.210379 484.389977 
L 144.633946 485.364704 
L 147.079225 486.140742 
L 149.518181 486.732177 
L 153.119528 487.313952 
L 156.613177 487.58871 
L 159.976751 487.618372 
L 163.203489 487.454952 
L 167.297274 487.007151 
L 171.168223 486.362889 
L 175.725424 485.35984 
L 180.007664 484.201587 
L 184.834009 482.672025 
L 190.09916 480.760616 
L 195.713861 478.472968 
L 201.605854 475.825465 
L 207.718403 472.840544 
L 214.559797 469.243797 
L 221.988193 465.067842 
L 229.889024 460.355214 
L 238.172636 455.153168 
L 247.185598 449.231709 
L 257.182442 442.394103 
L 268.342591 434.484758 
L 281.119293 425.147826 
L 296.439167 413.663487 
L 317.442503 397.612693 
L 365.590683 360.728289 
L 383.556762 347.298925 
L 399.403213 335.727312 
L 413.827254 325.463915 
L 427.592694 315.941263 
L 440.582257 307.222684 
L 453.060175 299.109846 
L 465.259572 291.440784 
L 477.208442 284.192519 
L 488.751526 277.447094 
L 500.093421 271.072485 
L 511.250267 265.053052 
L 522.235905 259.374642 
L 533.062255 254.024385 
L 543.905331 248.914313 
L 554.604106 244.119294 
L 565.166717 239.628933 
L 575.600251 235.433614 
L 585.910895 231.524433 
L 596.259977 227.839364 
L 606.492868 224.432668 
L 616.613881 221.296774 
L 626.626784 218.424585 
L 636.68419 215.771747 
L 646.636555 213.377206 
L 656.486473 211.234744 
L 666.236179 209.338482 
L 676.030924 207.659916 
L 685.726153 206.22365 
L 695.323336 205.024401 
L 704.962696 204.044608 
L 714.503435 203.298629 
L 723.946424 202.781647 
L 733.427092 202.486428 
L 742.808427 202.417505 
L 752.090837 202.570427 
L 761.40508 202.94775 
L 770.617996 203.544579 
L 779.72963 204.356748 
L 788.866109 205.39614 
L 797.898232 206.648786 
L 806.825754 208.110757 
L 815.770165 209.80284 
L 824.606337 211.70234 
L 833.33381 213.805529 
L 841.95207 216.108776 
L 850.576347 218.644159 
L 859.087194 221.377941 
L 867.483941 224.306654 
L 875.877019 227.470403 
L 884.15142 230.827535 
L 892.306366 234.374747 
L 900.447372 238.159874 
L 908.464052 242.133669 
L 916.355562 246.293011 
L 924.121041 250.634891 
L 931.859292 255.217097 
L 939.466414 259.980816 
L 946.941533 264.923304 
L 954.283786 270.041952 
L 961.585073 275.404182 
L 968.748317 280.94231 
L 975.772702 286.654184 
L 982.657458 292.53789 
L 989.401855 298.591779 
L 996.005222 304.81452 
L 1002.548872 311.288173 
L 1008.946682 317.933514 
L 1015.198193 324.750574 
L 1021.303063 331.740078 
L 1027.26109 338.90362 
L 1032.999586 346.149858 
L 1038.595033 353.572343 
L 1044.047806 361.176816 
L 1049.291366 368.870263 
L 1054.332042 376.656263 
L 1059.240112 384.648446 
L 1063.893246 392.648592 
L 1068.36388 400.77951 
L 1072.541248 408.836698 
L 1076.440715 416.838656 
L 1079.962909 424.564119 
L 1083.123699 432.029254 
L 1085.769745 438.835959 
L 1087.908798 444.93768 
L 1089.491211 450.089405 
L 1090.616784 454.4786 
L 1091.332789 458.137994 
L 1091.700271 461.09314 
L 1091.80387 463.61949 
L 1091.67322 465.83953 
L 1091.360117 467.648218 
L 1090.891514 469.218642 
L 1090.210987 470.748967 
L 1089.33022 472.172904 
L 1088.298004 473.444211 
L 1086.982699 474.721977 
L 1085.226227 476.082545 
L 1083.085359 477.424656 
L 1080.441617 478.793322 
L 1077.194961 480.204505 
L 1073.260191 481.662647 
L 1068.400587 483.215216 
L 1062.559943 484.835035 
L 1055.814231 486.465943 
L 1048.34428 488.040898 
L 1040.158089 489.536624 
L 1031.517811 490.886683 
L 1022.531949 492.063169 
L 1013.30467 493.044065 
L 1003.938891 493.81392 
L 994.537964 494.364623 
L 984.958555 494.701914 
L 975.310913 494.817065 
L 965.705426 494.710914 
L 956.008165 494.382859 
L 946.210688 493.828339 
L 936.427846 493.053056 
L 926.53069 492.045434 
L 916.635544 490.815507 
L 906.614862 489.34528 
L 896.585886 487.649539 
L 886.421547 485.704191 
L 876.239723 483.529045 
L 865.913162 481.094072 
L 855.560222 478.424298 
L 845.052938 475.483854 
L 834.510067 472.303154 
L 823.802443 468.840529 
L 812.92385 465.087398 
L 801.867515 461.035083 
L 790.626025 456.674861 
L 779.19122 451.99799 
L 767.554094 446.995764 
L 755.704677 441.659574 
L 743.501552 435.918353 
L 730.928833 429.754539 
L 717.968428 423.150729 
L 704.46525 416.01765 
L 690.390609 408.328993 
L 675.43473 399.901201 
L 659.545111 390.689302 
L 642.085576 380.305344 
L 622.354574 368.304978 
L 598.190725 353.336825 
L 509.68316 298.256123 
L 489.835489 286.321762 
L 472.102322 275.912793 
L 455.556153 266.455156 
L 439.923904 257.773875 
L 424.896069 249.682602 
L 410.531886 242.198454 
L 396.479439 235.126354 
L 382.774088 228.477426 
L 369.451795 222.257925 
L 356.331614 216.374146 
L 343.218642 210.738286 
L 330.352209 205.450275 
L 317.531773 200.422591 
L 304.77433 195.661036 
L 292.097319 191.169463 
L 279.518382 186.949752 
L 267.055127 183.001838 
L 254.486856 179.254965 
L 242.065262 175.781947 
L 229.566253 172.516652 
L 217.002571 169.464292 
L 204.387438 166.628766 
L 191.734411 164.012618 
L 179.05721 161.616992 
L 166.125568 159.401969 
L 153.197456 157.414078 
L 140.043586 155.619054 
L 126.92231 154.051873 
L 113.605694 152.683651 
L 100.110339 151.519111 
L 86.453368 150.561134 
L 72.415178 149.799693 
L 58.019408 149.244977 
L 43.523651 148.907968 
L 28.486046 148.782198 
L 13.168162 148.876019 
L -1 149.150665 
L -1 149.150665 
" style="fill:none;stroke:#ffff00;stroke-linecap:square;stroke-width:1.5;"/>
   </g>
   <g id="line2d_29">
    <path clip-path="url(#p7303c00bec)" d="M 1085.895566 468.483182 
L 1085.6588 468.372092 
L 1085.246316 467.940945 
L 1084.764878 467.095649 
L 1084.320213 465.85085 
L 1084.17726 465.283764 
L 1084.17726 465.283764 
" style="fill:none;stroke:#c0c0c0;stroke-linecap:square;stroke-width:1.5;"/>
   </g>
   <g id="line2d_30">
    <path clip-path="url(#p7303c00bec)" d="M 137.563961 481.828809 
L 139.842259 483.210338 
L 142.211183 484.390519 
L 144.635136 485.365522 
L 147.080782 486.141852 
L 149.520092 486.733602 
L 153.121955 487.315917 
L 156.61612 487.591306 
L 159.980239 487.621688 
L 163.207568 487.459075 
L 167.302235 487.012459 
L 171.174186 486.369483 
L 175.73281 485.36814 
L 180.016655 484.211664 
L 184.84516 482.684294 
L 190.113117 480.775472 
L 195.731356 478.490784 
L 201.627702 475.846573 
L 207.745489 472.86523 
L 214.593635 469.272642 
L 222.03047 465.101338 
L 229.941563 460.393751 
L 238.237394 455.197034 
L 247.265379 449.281354 
L 257.281019 442.450061 
L 268.464836 434.547544 
L 281.272163 425.218025 
L 296.633762 413.741855 
L 317.703234 397.700722 
L 365.102238 361.537384 
L 383.200977 348.060266 
L 399.164614 336.447664 
L 413.696332 326.147785 
L 427.364968 316.727474 
L 440.45976 307.969675 
L 453.040133 299.819949 
L 465.341276 292.115548 
L 477.207924 284.942313 
L 488.854056 278.158846 
L 500.298871 271.747671 
L 511.558727 265.693064 
L 522.647646 259.980814 
L 533.577698 254.597997 
L 544.359315 249.532816 
L 555.166781 244.702481 
L 565.838729 240.178191 
L 576.382336 235.950315 
L 586.803874 232.009926 
L 597.108809 228.348724 
L 607.457898 224.908898 
L 617.696075 221.741363 
L 627.827165 218.839012 
L 637.854496 216.195173 
L 647.930607 213.769222 
L 657.905417 211.596984 
L 667.781199 209.672574 
L 677.705137 207.96712 
L 687.530845 206.505672 
L 697.259808 205.282956 
L 706.893278 204.293953 
L 716.571876 203.524368 
L 726.154113 202.985677 
L 735.640693 202.673282 
L 745.16758 202.583066 
L 754.597005 202.716786 
L 763.929257 203.070172 
L 773.295725 203.648794 
L 782.562441 204.445046 
L 791.729361 205.454938 
L 800.92333 206.693272 
L 810.014292 208.143439 
L 819.001933 209.801674 
L 828.008527 211.691614 
L 836.908056 213.787989 
L 845.700004 216.087216 
L 854.383797 218.585818 
L 863.075535 221.318681 
L 871.654828 224.249536 
L 880.120966 227.375072 
L 888.585291 230.738199 
L 896.931823 234.294764 
L 905.159745 238.041627 
L 913.375525 242.029459 
L 921.46778 246.206536 
L 929.43562 250.569928 
L 937.278157 255.116819 
L 945.095187 259.90793 
L 952.781764 264.882002 
L 960.336978 270.036541 
L 967.759934 275.369222 
L 975.049745 280.877914 
L 982.205557 286.560691 
L 989.316825 292.493047 
L 996.288896 298.600868 
L 1003.120964 304.883042 
L 1009.812267 311.338872 
L 1016.362083 317.968141 
L 1022.769734 324.771235 
L 1029.034589 331.749269 
L 1035.078489 338.81141 
L 1040.982133 346.049082 
L 1046.745006 353.466784 
L 1052.294489 360.970923 
L 1057.635449 368.562707 
L 1062.772551 376.245869 
L 1067.71007 384.027465 
L 1072.386616 391.807912 
L 1076.809839 399.59478 
L 1080.92385 407.283508 
L 1084.676595 414.760721 
L 1088.076297 422.028529 
L 1091.013713 428.826172 
L 1093.497048 435.123778 
L 1095.530632 440.88015 
L 1097.119681 446.036094 
L 1098.317945 450.672964 
L 1099.142497 454.708995 
L 1099.68145 458.404184 
L 1099.964855 461.878539 
L 1100.004676 465.075782 
L 1099.821018 468.130184 
L 1099.435609 470.994795 
L 1098.844187 473.81923 
L 1098.006726 476.74744 
L 1096.923099 479.731928 
L 1095.533398 482.897232 
L 1093.845243 486.192022 
L 1091.703074 489.866028 
L 1089.11249 493.845693 
L 1085.997315 498.204161 
L 1082.371517 502.886387 
L 1078.153336 507.964952 
L 1073.348285 513.396112 
L 1068.050547 519.047456 
L 1062.254364 524.903661 
L 1056.044683 530.858538 
L 1049.505274 536.818992 
L 1042.720926 542.701884 
L 1035.680909 548.511563 
L 1028.473719 554.171807 
L 1021.091914 559.68787 
L 1013.528557 565.061833 
L 1005.879713 570.225912 
L 998.039075 575.250879 
L 990.105906 580.07093 
L 982.078472 584.68917 
L 973.955361 589.107652 
L 965.735419 593.3276 
L 957.417693 597.349569 
L 949.001384 601.173573 
L 940.485818 604.799165 
L 931.870412 608.225527 
L 923.154653 611.4515 
L 914.338066 614.475645 
L 905.538201 617.260492 
L 896.639282 619.845302 
L 887.64087 622.228037 
L 878.542504 624.40648 
L 869.343679 626.378241 
L 860.168501 628.118662 
L 850.894383 629.652799 
L 841.520639 630.97791 
L 832.046498 632.09111 
L 822.601146 632.978683 
L 813.056262 633.654046 
L 803.410739 634.114022 
L 793.66332 634.355285 
L 783.812577 634.374369 
L 773.993982 634.172022 
L 764.071532 633.74639 
L 754.043238 633.093685 
L 743.906846 632.209954 
L 733.659821 631.091065 
L 723.443998 629.75322 
L 713.114731 628.17817 
L 702.668559 626.361371 
L 692.101593 624.298064 
L 681.409452 621.98326 
L 670.587222 619.411705 
L 659.629366 616.577886 
L 648.529655 613.475984 
L 637.281063 610.099865 
L 625.875658 606.443048 
L 614.304465 602.498672 
L 602.557318 598.259481 
L 590.622653 593.717766 
L 578.314873 588.794737 
L 565.784978 583.543108 
L 552.835732 577.873139 
L 539.434704 571.759568 
L 525.543665 565.175273 
L 510.924788 557.995054 
L 495.506545 550.169844 
L 478.99568 541.537717 
L 460.618264 531.67318 
L 438.987226 519.800278 
L 405.758152 501.268696 
L 372.31906 482.696396 
L 353.001961 472.220518 
L 337.219536 463.904225 
L 323.367794 456.845777 
L 310.76057 450.662396 
L 298.890927 445.088807 
L 287.883808 440.167779 
L 277.48656 435.766915 
L 267.800226 431.908294 
L 258.50565 428.447456 
L 249.668716 425.397616 
L 241.363637 422.764212 
L 233.180796 420.408976 
L 225.660004 418.470669 
L 218.363498 416.813399 
L 211.329718 415.439373 
L 204.601075 414.345306 
L 198.223208 413.521353 
L 191.636205 412.903666 
L 185.462087 412.555397 
L 179.753327 412.44629 
L 173.903454 412.561949 
L 168.590994 412.880681 
L 163.182032 413.429492 
L 158.380872 414.119846 
L 153.52937 415.02577 
L 148.644272 416.165322 
L 143.746407 417.55502 
L 139.556832 418.955829 
L 135.393925 420.556921 
L 131.277067 422.361782 
L 127.226591 424.370536 
L 123.262987 426.579599 
L 119.406012 428.981584 
L 115.673795 431.565495 
L 112.082031 434.317195 
L 108.643389 437.220104 
L 105.367152 440.256033 
L 102.25916 443.406053 
L 98.84905 447.200117 
L 95.670381 451.095123 
L 92.717839 455.064744 
L 89.982811 459.08561 
L 87.109395 463.717905 
L 84.487529 468.365836 
L 81.814631 473.588623 
L 79.408445 478.783847 
L 77.016032 484.504329 
L 74.887591 490.154996 
L 72.815633 496.277738 
L 70.837246 502.836592 
L 68.981709 509.794162 
L 67.27075 517.113079 
L 65.719227 524.757187 
L 64.336036 532.692383 
L 63.061252 541.361865 
L 61.984652 550.233642 
L 61.059668 559.727588 
L 60.307411 569.778068 
L 59.739625 580.323902 
L 59.349999 591.708401 
L 59.15658 603.836353 
L 59.168386 616.98848 
L 59.403752 631.392997 
L 59.893944 647.563492 
L 60.689441 666.218598 
L 61.899807 689.095964 
L 64.067622 725.18151 
L 66.455355 765.90042 
L 67.638897 789.919168 
L 68.42357 810.269663 
L 68.913403 828.698759 
L 69.143854 845.615695 
L 69.141725 861.568059 
L 68.917342 876.833502 
L 68.48563 891.270899 
L 67.843601 905.31437 
L 67.005046 918.804668 
L 65.964116 931.953683 
L 64.816788 943.88425 
L 64.816788 943.88425 
" style="fill:none;stroke:#008000;stroke-linecap:square;stroke-width:1.5;"/>
   </g>
   <g id="patch_9">
    <path d="M 60.114063 905.328 
L 60.114063 7.2 
" style="fill:none;stroke:#000000;stroke-linecap:square;stroke-linejoin:miter;stroke-width:0.8;"/>
   </g>
   <g id="patch_10">
    <path d="M 1257.618063 905.328 
L 1257.618063 7.2 
" style="fill:none;stroke:#000000;stroke-linecap:square;stroke-linejoin:miter;stroke-width:0.8;"/>
   </g>
   <g id="patch_11">
    <path d="M 60.114063 905.328 
L 1257.618063 905.328 
" style="fill:none;stroke:#000000;stroke-linecap:square;stroke-linejoin:miter;stroke-width:0.8;"/>
   </g>
   <g id="patch_12">
    <path d="M 60.114063 7.2 
L 1257.618063 7.2 
" style="fill:none;stroke:#000000;stroke-linecap:square;stroke-linejoin:miter;stroke-width:0.8;"/>
   </g>
  </g>
 </g>
 <defs>
  <clipPath id="p7303c00bec">
   <rect height="898.128" width="1197.504" x="60.114063" y="7.2"/>
  </clipPath>
 </defs>
</svg>
