<?xml version="1.0" encoding="utf-8" standalone="no"?>
<!DOCTYPE svg PUBLIC "-//W3C//DTD SVG 1.1//EN"
  "http://www.w3.org/Graphics/SVG/1.1/DTD/svg11.dtd">
<!-- Created with matplotlib (https://matplotlib.org/) -->
<svg height="643.50825pt" version="1.1" viewBox="0 0 865.650062 643.50825" width="865.650062pt" xmlns="http://www.w3.org/2000/svg" xmlns:xlink="http://www.w3.org/1999/xlink">
 <metadata>
  <rdf:RDF xmlns:cc="http://creativecommons.org/ns#" xmlns:dc="http://purl.org/dc/elements/1.1/" xmlns:rdf="http://www.w3.org/1999/02/22-rdf-syntax-ns#">
   <cc:Work>
    <dc:type rdf:resource="http://purl.org/dc/dcmitype/StillImage"/>
    <dc:date>2021-08-06T14:46:03.656444</dc:date>
    <dc:format>image/svg+xml</dc:format>
    <dc:creator>
     <cc:Agent>
      <dc:title>Matplotlib v3.3.2, https://matplotlib.org/</dc:title>
     </cc:Agent>
    </dc:creator>
   </cc:Work>
  </rdf:RDF>
 </metadata>
 <defs>
  <style type="text/css">*{stroke-linecap:butt;stroke-linejoin:round;}</style>
 </defs>
 <g id="figure_1">
  <g id="patch_1">
   <path d="M 0 643.50825 
L 865.650062 643.50825 
L 865.650062 0 
L 0 0 
z
" style="fill:#ffffff;"/>
  </g>
  <g id="axes_1">
   <g id="patch_2">
    <path d="M 60.114063 605.952 
L 858.450063 605.952 
L 858.450063 7.2 
L 60.114063 7.2 
z
" style="fill:#ffffff;"/>
   </g>
   <g id="patch_3">
    <path clip-path="url(#p48b577e58a)" d="M 117.678694 325.113689 
C 120.434526 325.113689 123.077857 324.018786 125.026525 322.070118 
C 126.975192 320.121451 128.070096 317.478119 128.070096 314.722287 
C 128.070096 311.966455 126.975192 309.323124 125.026525 307.374456 
C 123.077857 305.425789 120.434526 304.330885 117.678694 304.330885 
C 114.922862 304.330885 112.279531 305.425789 110.330863 307.374456 
C 108.382196 309.323124 107.287292 311.966455 107.287292 314.722287 
C 107.287292 317.478119 108.382196 320.121451 110.330863 322.070118 
C 112.279531 324.018786 114.922862 325.113689 117.678694 325.113689 
z
" style="fill:#00008b;stroke:#00008b;stroke-linejoin:miter;"/>
   </g>
   <g id="patch_4">
    <path clip-path="url(#p48b577e58a)" d="M 743.968398 317.552141 
C 744.718928 317.552141 745.438819 317.253952 745.969524 316.723247 
C 746.500229 316.192542 746.798418 315.472651 746.798418 314.722121 
C 746.798418 313.971591 746.500229 313.2517 745.969524 312.720995 
C 745.438819 312.19029 744.718928 311.892102 743.968398 311.892102 
C 743.217868 311.892102 742.497977 312.19029 741.967272 312.720995 
C 741.436567 313.2517 741.138379 313.971591 741.138379 314.722121 
C 741.138379 315.472651 741.436567 316.192542 741.967272 316.723247 
C 742.497977 317.253952 743.217868 317.552141 743.968398 317.552141 
z
" style="fill:#808080;stroke:#808080;stroke-linejoin:miter;"/>
   </g>
   <g id="patch_5">
    <path clip-path="url(#p48b577e58a)" d="M 117.678694 325.113689 
C 120.434526 325.113689 123.077857 324.018786 125.026525 322.070118 
C 126.975192 320.121451 128.070096 317.478119 128.070096 314.722287 
C 128.070096 311.966455 126.975192 309.323124 125.026525 307.374456 
C 123.077857 305.425789 120.434526 304.330885 117.678694 304.330885 
C 114.922862 304.330885 112.279531 305.425789 110.330863 307.374456 
C 108.382196 309.323124 107.287292 311.966455 107.287292 314.722287 
C 107.287292 317.478119 108.382196 320.121451 110.330863 322.070118 
C 112.279531 324.018786 114.922862 325.113689 117.678694 325.113689 
z
" style="fill:#00008b;stroke:#00008b;stroke-linejoin:miter;"/>
   </g>
   <g id="patch_6">
    <path clip-path="url(#p48b577e58a)" d="M 743.968398 317.552141 
C 744.718928 317.552141 745.438819 317.253952 745.969524 316.723247 
C 746.500229 316.192542 746.798418 315.472651 746.798418 314.722121 
C 746.798418 313.971591 746.500229 313.2517 745.969524 312.720995 
C 745.438819 312.19029 744.718928 311.892102 743.968398 311.892102 
C 743.217868 311.892102 742.497977 312.19029 741.967272 312.720995 
C 741.436567 313.2517 741.138379 313.971591 741.138379 314.722121 
C 741.138379 315.472651 741.436567 316.192542 741.967272 316.723247 
C 742.497977 317.253952 743.217868 317.552141 743.968398 317.552141 
z
" style="fill:#808080;stroke:#808080;stroke-linejoin:miter;"/>
   </g>
   <g id="matplotlib.axis_1">
    <g id="xtick_1">
     <g id="line2d_1">
      <path clip-path="url(#p48b577e58a)" d="M 125.284348 605.952 
L 125.284348 7.2 
" style="fill:none;stroke:#b0b0b0;stroke-linecap:square;stroke-width:0.8;"/>
     </g>
     <g id="line2d_2">
      <defs>
       <path d="M 0 0 
L 0 3.5 
" id="m329495a0c2" style="stroke:#000000;stroke-width:0.8;"/>
      </defs>
      <g>
       <use style="stroke:#000000;stroke-width:0.8;" x="125.284348" xlink:href="#m329495a0c2" y="605.952"/>
      </g>
     </g>
     <g id="text_1">
      <!-- 0.0 -->
      <g transform="translate(117.332786 620.550437)scale(0.1 -0.1)">
       <defs>
        <path d="M 31.78125 66.40625 
Q 24.171875 66.40625 20.328125 58.90625 
Q 16.5 51.421875 16.5 36.375 
Q 16.5 21.390625 20.328125 13.890625 
Q 24.171875 6.390625 31.78125 6.390625 
Q 39.453125 6.390625 43.28125 13.890625 
Q 47.125 21.390625 47.125 36.375 
Q 47.125 51.421875 43.28125 58.90625 
Q 39.453125 66.40625 31.78125 66.40625 
z
M 31.78125 74.21875 
Q 44.046875 74.21875 50.515625 64.515625 
Q 56.984375 54.828125 56.984375 36.375 
Q 56.984375 17.96875 50.515625 8.265625 
Q 44.046875 -1.421875 31.78125 -1.421875 
Q 19.53125 -1.421875 13.0625 8.265625 
Q 6.59375 17.96875 6.59375 36.375 
Q 6.59375 54.828125 13.0625 64.515625 
Q 19.53125 74.21875 31.78125 74.21875 
z
" id="DejaVuSans-48"/>
        <path d="M 10.6875 12.40625 
L 21 12.40625 
L 21 0 
L 10.6875 0 
z
" id="DejaVuSans-46"/>
       </defs>
       <use xlink:href="#DejaVuSans-48"/>
       <use x="63.623047" xlink:href="#DejaVuSans-46"/>
       <use x="95.410156" xlink:href="#DejaVuSans-48"/>
      </g>
     </g>
    </g>
    <g id="xtick_2">
     <g id="line2d_3">
      <path clip-path="url(#p48b577e58a)" d="M 288.210063 605.952 
L 288.210063 7.2 
" style="fill:none;stroke:#b0b0b0;stroke-linecap:square;stroke-width:0.8;"/>
     </g>
     <g id="line2d_4">
      <g>
       <use style="stroke:#000000;stroke-width:0.8;" x="288.210063" xlink:href="#m329495a0c2" y="605.952"/>
      </g>
     </g>
     <g id="text_2">
      <!-- 100.0 -->
      <g transform="translate(273.896 620.550437)scale(0.1 -0.1)">
       <defs>
        <path d="M 12.40625 8.296875 
L 28.515625 8.296875 
L 28.515625 63.921875 
L 10.984375 60.40625 
L 10.984375 69.390625 
L 28.421875 72.90625 
L 38.28125 72.90625 
L 38.28125 8.296875 
L 54.390625 8.296875 
L 54.390625 0 
L 12.40625 0 
z
" id="DejaVuSans-49"/>
       </defs>
       <use xlink:href="#DejaVuSans-49"/>
       <use x="63.623047" xlink:href="#DejaVuSans-48"/>
       <use x="127.246094" xlink:href="#DejaVuSans-48"/>
       <use x="190.869141" xlink:href="#DejaVuSans-46"/>
       <use x="222.65625" xlink:href="#DejaVuSans-48"/>
      </g>
     </g>
    </g>
    <g id="xtick_3">
     <g id="line2d_5">
      <path clip-path="url(#p48b577e58a)" d="M 451.135777 605.952 
L 451.135777 7.2 
" style="fill:none;stroke:#b0b0b0;stroke-linecap:square;stroke-width:0.8;"/>
     </g>
     <g id="line2d_6">
      <g>
       <use style="stroke:#000000;stroke-width:0.8;" x="451.135777" xlink:href="#m329495a0c2" y="605.952"/>
      </g>
     </g>
     <g id="text_3">
      <!-- 200.0 -->
      <g transform="translate(436.821714 620.550437)scale(0.1 -0.1)">
       <defs>
        <path d="M 19.1875 8.296875 
L 53.609375 8.296875 
L 53.609375 0 
L 7.328125 0 
L 7.328125 8.296875 
Q 12.9375 14.109375 22.625 23.890625 
Q 32.328125 33.6875 34.8125 36.53125 
Q 39.546875 41.84375 41.421875 45.53125 
Q 43.3125 49.21875 43.3125 52.78125 
Q 43.3125 58.59375 39.234375 62.25 
Q 35.15625 65.921875 28.609375 65.921875 
Q 23.96875 65.921875 18.8125 64.3125 
Q 13.671875 62.703125 7.8125 59.421875 
L 7.8125 69.390625 
Q 13.765625 71.78125 18.9375 73 
Q 24.125 74.21875 28.421875 74.21875 
Q 39.75 74.21875 46.484375 68.546875 
Q 53.21875 62.890625 53.21875 53.421875 
Q 53.21875 48.921875 51.53125 44.890625 
Q 49.859375 40.875 45.40625 35.40625 
Q 44.1875 33.984375 37.640625 27.21875 
Q 31.109375 20.453125 19.1875 8.296875 
z
" id="DejaVuSans-50"/>
       </defs>
       <use xlink:href="#DejaVuSans-50"/>
       <use x="63.623047" xlink:href="#DejaVuSans-48"/>
       <use x="127.246094" xlink:href="#DejaVuSans-48"/>
       <use x="190.869141" xlink:href="#DejaVuSans-46"/>
       <use x="222.65625" xlink:href="#DejaVuSans-48"/>
      </g>
     </g>
    </g>
    <g id="xtick_4">
     <g id="line2d_7">
      <path clip-path="url(#p48b577e58a)" d="M 614.061491 605.952 
L 614.061491 7.2 
" style="fill:none;stroke:#b0b0b0;stroke-linecap:square;stroke-width:0.8;"/>
     </g>
     <g id="line2d_8">
      <g>
       <use style="stroke:#000000;stroke-width:0.8;" x="614.061491" xlink:href="#m329495a0c2" y="605.952"/>
      </g>
     </g>
     <g id="text_4">
      <!-- 300.0 -->
      <g transform="translate(599.747429 620.550437)scale(0.1 -0.1)">
       <defs>
        <path d="M 40.578125 39.3125 
Q 47.65625 37.796875 51.625 33 
Q 55.609375 28.21875 55.609375 21.1875 
Q 55.609375 10.40625 48.1875 4.484375 
Q 40.765625 -1.421875 27.09375 -1.421875 
Q 22.515625 -1.421875 17.65625 -0.515625 
Q 12.796875 0.390625 7.625 2.203125 
L 7.625 11.71875 
Q 11.71875 9.328125 16.59375 8.109375 
Q 21.484375 6.890625 26.8125 6.890625 
Q 36.078125 6.890625 40.9375 10.546875 
Q 45.796875 14.203125 45.796875 21.1875 
Q 45.796875 27.640625 41.28125 31.265625 
Q 36.765625 34.90625 28.71875 34.90625 
L 20.21875 34.90625 
L 20.21875 43.015625 
L 29.109375 43.015625 
Q 36.375 43.015625 40.234375 45.921875 
Q 44.09375 48.828125 44.09375 54.296875 
Q 44.09375 59.90625 40.109375 62.90625 
Q 36.140625 65.921875 28.71875 65.921875 
Q 24.65625 65.921875 20.015625 65.03125 
Q 15.375 64.15625 9.8125 62.3125 
L 9.8125 71.09375 
Q 15.4375 72.65625 20.34375 73.4375 
Q 25.25 74.21875 29.59375 74.21875 
Q 40.828125 74.21875 47.359375 69.109375 
Q 53.90625 64.015625 53.90625 55.328125 
Q 53.90625 49.265625 50.4375 45.09375 
Q 46.96875 40.921875 40.578125 39.3125 
z
" id="DejaVuSans-51"/>
       </defs>
       <use xlink:href="#DejaVuSans-51"/>
       <use x="63.623047" xlink:href="#DejaVuSans-48"/>
       <use x="127.246094" xlink:href="#DejaVuSans-48"/>
       <use x="190.869141" xlink:href="#DejaVuSans-46"/>
       <use x="222.65625" xlink:href="#DejaVuSans-48"/>
      </g>
     </g>
    </g>
    <g id="xtick_5">
     <g id="line2d_9">
      <path clip-path="url(#p48b577e58a)" d="M 776.987205 605.952 
L 776.987205 7.2 
" style="fill:none;stroke:#b0b0b0;stroke-linecap:square;stroke-width:0.8;"/>
     </g>
     <g id="line2d_10">
      <g>
       <use style="stroke:#000000;stroke-width:0.8;" x="776.987205" xlink:href="#m329495a0c2" y="605.952"/>
      </g>
     </g>
     <g id="text_5">
      <!-- 400.0 -->
      <g transform="translate(762.673143 620.550437)scale(0.1 -0.1)">
       <defs>
        <path d="M 37.796875 64.3125 
L 12.890625 25.390625 
L 37.796875 25.390625 
z
M 35.203125 72.90625 
L 47.609375 72.90625 
L 47.609375 25.390625 
L 58.015625 25.390625 
L 58.015625 17.1875 
L 47.609375 17.1875 
L 47.609375 0 
L 37.796875 0 
L 37.796875 17.1875 
L 4.890625 17.1875 
L 4.890625 26.703125 
z
" id="DejaVuSans-52"/>
       </defs>
       <use xlink:href="#DejaVuSans-52"/>
       <use x="63.623047" xlink:href="#DejaVuSans-48"/>
       <use x="127.246094" xlink:href="#DejaVuSans-48"/>
       <use x="190.869141" xlink:href="#DejaVuSans-46"/>
       <use x="222.65625" xlink:href="#DejaVuSans-48"/>
      </g>
     </g>
    </g>
    <g id="text_6">
     <!-- Unit: 1000 km -->
     <g transform="translate(423.751594 634.228562)scale(0.1 -0.1)">
      <defs>
       <path d="M 8.6875 72.90625 
L 18.609375 72.90625 
L 18.609375 28.609375 
Q 18.609375 16.890625 22.84375 11.734375 
Q 27.09375 6.59375 36.625 6.59375 
Q 46.09375 6.59375 50.34375 11.734375 
Q 54.59375 16.890625 54.59375 28.609375 
L 54.59375 72.90625 
L 64.5 72.90625 
L 64.5 27.390625 
Q 64.5 13.140625 57.4375 5.859375 
Q 50.390625 -1.421875 36.625 -1.421875 
Q 22.796875 -1.421875 15.734375 5.859375 
Q 8.6875 13.140625 8.6875 27.390625 
z
" id="DejaVuSans-85"/>
       <path d="M 54.890625 33.015625 
L 54.890625 0 
L 45.90625 0 
L 45.90625 32.71875 
Q 45.90625 40.484375 42.875 44.328125 
Q 39.84375 48.1875 33.796875 48.1875 
Q 26.515625 48.1875 22.3125 43.546875 
Q 18.109375 38.921875 18.109375 30.90625 
L 18.109375 0 
L 9.078125 0 
L 9.078125 54.6875 
L 18.109375 54.6875 
L 18.109375 46.1875 
Q 21.34375 51.125 25.703125 53.5625 
Q 30.078125 56 35.796875 56 
Q 45.21875 56 50.046875 50.171875 
Q 54.890625 44.34375 54.890625 33.015625 
z
" id="DejaVuSans-110"/>
       <path d="M 9.421875 54.6875 
L 18.40625 54.6875 
L 18.40625 0 
L 9.421875 0 
z
M 9.421875 75.984375 
L 18.40625 75.984375 
L 18.40625 64.59375 
L 9.421875 64.59375 
z
" id="DejaVuSans-105"/>
       <path d="M 18.3125 70.21875 
L 18.3125 54.6875 
L 36.8125 54.6875 
L 36.8125 47.703125 
L 18.3125 47.703125 
L 18.3125 18.015625 
Q 18.3125 11.328125 20.140625 9.421875 
Q 21.96875 7.515625 27.59375 7.515625 
L 36.8125 7.515625 
L 36.8125 0 
L 27.59375 0 
Q 17.1875 0 13.234375 3.875 
Q 9.28125 7.765625 9.28125 18.015625 
L 9.28125 47.703125 
L 2.6875 47.703125 
L 2.6875 54.6875 
L 9.28125 54.6875 
L 9.28125 70.21875 
z
" id="DejaVuSans-116"/>
       <path d="M 11.71875 12.40625 
L 22.015625 12.40625 
L 22.015625 0 
L 11.71875 0 
z
M 11.71875 51.703125 
L 22.015625 51.703125 
L 22.015625 39.3125 
L 11.71875 39.3125 
z
" id="DejaVuSans-58"/>
       <path id="DejaVuSans-32"/>
       <path d="M 9.078125 75.984375 
L 18.109375 75.984375 
L 18.109375 31.109375 
L 44.921875 54.6875 
L 56.390625 54.6875 
L 27.390625 29.109375 
L 57.625 0 
L 45.90625 0 
L 18.109375 26.703125 
L 18.109375 0 
L 9.078125 0 
z
" id="DejaVuSans-107"/>
       <path d="M 52 44.1875 
Q 55.375 50.25 60.0625 53.125 
Q 64.75 56 71.09375 56 
Q 79.640625 56 84.28125 50.015625 
Q 88.921875 44.046875 88.921875 33.015625 
L 88.921875 0 
L 79.890625 0 
L 79.890625 32.71875 
Q 79.890625 40.578125 77.09375 44.375 
Q 74.3125 48.1875 68.609375 48.1875 
Q 61.625 48.1875 57.5625 43.546875 
Q 53.515625 38.921875 53.515625 30.90625 
L 53.515625 0 
L 44.484375 0 
L 44.484375 32.71875 
Q 44.484375 40.625 41.703125 44.40625 
Q 38.921875 48.1875 33.109375 48.1875 
Q 26.21875 48.1875 22.15625 43.53125 
Q 18.109375 38.875 18.109375 30.90625 
L 18.109375 0 
L 9.078125 0 
L 9.078125 54.6875 
L 18.109375 54.6875 
L 18.109375 46.1875 
Q 21.1875 51.21875 25.484375 53.609375 
Q 29.78125 56 35.6875 56 
Q 41.65625 56 45.828125 52.96875 
Q 50 49.953125 52 44.1875 
z
" id="DejaVuSans-109"/>
      </defs>
      <use xlink:href="#DejaVuSans-85"/>
      <use x="73.193359" xlink:href="#DejaVuSans-110"/>
      <use x="136.572266" xlink:href="#DejaVuSans-105"/>
      <use x="164.355469" xlink:href="#DejaVuSans-116"/>
      <use x="203.564453" xlink:href="#DejaVuSans-58"/>
      <use x="237.255859" xlink:href="#DejaVuSans-32"/>
      <use x="269.042969" xlink:href="#DejaVuSans-49"/>
      <use x="332.666016" xlink:href="#DejaVuSans-48"/>
      <use x="396.289062" xlink:href="#DejaVuSans-48"/>
      <use x="459.912109" xlink:href="#DejaVuSans-48"/>
      <use x="523.535156" xlink:href="#DejaVuSans-32"/>
      <use x="555.322266" xlink:href="#DejaVuSans-107"/>
      <use x="613.232422" xlink:href="#DejaVuSans-109"/>
     </g>
    </g>
   </g>
   <g id="matplotlib.axis_2">
    <g id="ytick_1">
     <g id="line2d_11">
      <path clip-path="url(#p48b577e58a)" d="M 60.114063 559.110857 
L 858.450063 559.110857 
" style="fill:none;stroke:#b0b0b0;stroke-linecap:square;stroke-width:0.8;"/>
     </g>
     <g id="line2d_12">
      <defs>
       <path d="M 0 0 
L -3.5 0 
" id="m93c7110f69" style="stroke:#000000;stroke-width:0.8;"/>
      </defs>
      <g>
       <use style="stroke:#000000;stroke-width:0.8;" x="60.114063" xlink:href="#m93c7110f69" y="559.110857"/>
      </g>
     </g>
     <g id="text_7">
      <!-- -150.0 -->
      <g transform="translate(20.878125 562.910076)scale(0.1 -0.1)">
       <defs>
        <path d="M 4.890625 31.390625 
L 31.203125 31.390625 
L 31.203125 23.390625 
L 4.890625 23.390625 
z
" id="DejaVuSans-45"/>
        <path d="M 10.796875 72.90625 
L 49.515625 72.90625 
L 49.515625 64.59375 
L 19.828125 64.59375 
L 19.828125 46.734375 
Q 21.96875 47.46875 24.109375 47.828125 
Q 26.265625 48.1875 28.421875 48.1875 
Q 40.625 48.1875 47.75 41.5 
Q 54.890625 34.8125 54.890625 23.390625 
Q 54.890625 11.625 47.5625 5.09375 
Q 40.234375 -1.421875 26.90625 -1.421875 
Q 22.3125 -1.421875 17.546875 -0.640625 
Q 12.796875 0.140625 7.71875 1.703125 
L 7.71875 11.625 
Q 12.109375 9.234375 16.796875 8.0625 
Q 21.484375 6.890625 26.703125 6.890625 
Q 35.15625 6.890625 40.078125 11.328125 
Q 45.015625 15.765625 45.015625 23.390625 
Q 45.015625 31 40.078125 35.4375 
Q 35.15625 39.890625 26.703125 39.890625 
Q 22.75 39.890625 18.8125 39.015625 
Q 14.890625 38.140625 10.796875 36.28125 
z
" id="DejaVuSans-53"/>
       </defs>
       <use xlink:href="#DejaVuSans-45"/>
       <use x="36.083984" xlink:href="#DejaVuSans-49"/>
       <use x="99.707031" xlink:href="#DejaVuSans-53"/>
       <use x="163.330078" xlink:href="#DejaVuSans-48"/>
       <use x="226.953125" xlink:href="#DejaVuSans-46"/>
       <use x="258.740234" xlink:href="#DejaVuSans-48"/>
      </g>
     </g>
    </g>
    <g id="ytick_2">
     <g id="line2d_13">
      <path clip-path="url(#p48b577e58a)" d="M 60.114063 477.648 
L 858.450063 477.648 
" style="fill:none;stroke:#b0b0b0;stroke-linecap:square;stroke-width:0.8;"/>
     </g>
     <g id="line2d_14">
      <g>
       <use style="stroke:#000000;stroke-width:0.8;" x="60.114063" xlink:href="#m93c7110f69" y="477.648"/>
      </g>
     </g>
     <g id="text_8">
      <!-- -100.0 -->
      <g transform="translate(20.878125 481.447219)scale(0.1 -0.1)">
       <use xlink:href="#DejaVuSans-45"/>
       <use x="36.083984" xlink:href="#DejaVuSans-49"/>
       <use x="99.707031" xlink:href="#DejaVuSans-48"/>
       <use x="163.330078" xlink:href="#DejaVuSans-48"/>
       <use x="226.953125" xlink:href="#DejaVuSans-46"/>
       <use x="258.740234" xlink:href="#DejaVuSans-48"/>
      </g>
     </g>
    </g>
    <g id="ytick_3">
     <g id="line2d_15">
      <path clip-path="url(#p48b577e58a)" d="M 60.114063 396.185143 
L 858.450063 396.185143 
" style="fill:none;stroke:#b0b0b0;stroke-linecap:square;stroke-width:0.8;"/>
     </g>
     <g id="line2d_16">
      <g>
       <use style="stroke:#000000;stroke-width:0.8;" x="60.114063" xlink:href="#m93c7110f69" y="396.185143"/>
      </g>
     </g>
     <g id="text_9">
      <!-- -50.0 -->
      <g transform="translate(27.240625 399.984362)scale(0.1 -0.1)">
       <use xlink:href="#DejaVuSans-45"/>
       <use x="36.083984" xlink:href="#DejaVuSans-53"/>
       <use x="99.707031" xlink:href="#DejaVuSans-48"/>
       <use x="163.330078" xlink:href="#DejaVuSans-46"/>
       <use x="195.117188" xlink:href="#DejaVuSans-48"/>
      </g>
     </g>
    </g>
    <g id="ytick_4">
     <g id="line2d_17">
      <path clip-path="url(#p48b577e58a)" d="M 60.114063 314.722286 
L 858.450063 314.722286 
" style="fill:none;stroke:#b0b0b0;stroke-linecap:square;stroke-width:0.8;"/>
     </g>
     <g id="line2d_18">
      <g>
       <use style="stroke:#000000;stroke-width:0.8;" x="60.114063" xlink:href="#m93c7110f69" y="314.722286"/>
      </g>
     </g>
     <g id="text_10">
      <!-- 0.0 -->
      <g transform="translate(37.210938 318.521504)scale(0.1 -0.1)">
       <use xlink:href="#DejaVuSans-48"/>
       <use x="63.623047" xlink:href="#DejaVuSans-46"/>
       <use x="95.410156" xlink:href="#DejaVuSans-48"/>
      </g>
     </g>
    </g>
    <g id="ytick_5">
     <g id="line2d_19">
      <path clip-path="url(#p48b577e58a)" d="M 60.114063 233.259429 
L 858.450063 233.259429 
" style="fill:none;stroke:#b0b0b0;stroke-linecap:square;stroke-width:0.8;"/>
     </g>
     <g id="line2d_20">
      <g>
       <use style="stroke:#000000;stroke-width:0.8;" x="60.114063" xlink:href="#m93c7110f69" y="233.259429"/>
      </g>
     </g>
     <g id="text_11">
      <!-- 50.0 -->
      <g transform="translate(30.848438 237.058647)scale(0.1 -0.1)">
       <use xlink:href="#DejaVuSans-53"/>
       <use x="63.623047" xlink:href="#DejaVuSans-48"/>
       <use x="127.246094" xlink:href="#DejaVuSans-46"/>
       <use x="159.033203" xlink:href="#DejaVuSans-48"/>
      </g>
     </g>
    </g>
    <g id="ytick_6">
     <g id="line2d_21">
      <path clip-path="url(#p48b577e58a)" d="M 60.114063 151.796571 
L 858.450063 151.796571 
" style="fill:none;stroke:#b0b0b0;stroke-linecap:square;stroke-width:0.8;"/>
     </g>
     <g id="line2d_22">
      <g>
       <use style="stroke:#000000;stroke-width:0.8;" x="60.114063" xlink:href="#m93c7110f69" y="151.796571"/>
      </g>
     </g>
     <g id="text_12">
      <!-- 100.0 -->
      <g transform="translate(24.485938 155.59579)scale(0.1 -0.1)">
       <use xlink:href="#DejaVuSans-49"/>
       <use x="63.623047" xlink:href="#DejaVuSans-48"/>
       <use x="127.246094" xlink:href="#DejaVuSans-48"/>
       <use x="190.869141" xlink:href="#DejaVuSans-46"/>
       <use x="222.65625" xlink:href="#DejaVuSans-48"/>
      </g>
     </g>
    </g>
    <g id="ytick_7">
     <g id="line2d_23">
      <path clip-path="url(#p48b577e58a)" d="M 60.114063 70.333714 
L 858.450063 70.333714 
" style="fill:none;stroke:#b0b0b0;stroke-linecap:square;stroke-width:0.8;"/>
     </g>
     <g id="line2d_24">
      <g>
       <use style="stroke:#000000;stroke-width:0.8;" x="60.114063" xlink:href="#m93c7110f69" y="70.333714"/>
      </g>
     </g>
     <g id="text_13">
      <!-- 150.0 -->
      <g transform="translate(24.485938 74.132933)scale(0.1 -0.1)">
       <use xlink:href="#DejaVuSans-49"/>
       <use x="63.623047" xlink:href="#DejaVuSans-53"/>
       <use x="127.246094" xlink:href="#DejaVuSans-48"/>
       <use x="190.869141" xlink:href="#DejaVuSans-46"/>
       <use x="222.65625" xlink:href="#DejaVuSans-48"/>
      </g>
     </g>
    </g>
    <g id="text_14">
     <!-- Unit: 1000 km -->
     <g transform="translate(14.798438 342.106469)rotate(-90)scale(0.1 -0.1)">
      <use xlink:href="#DejaVuSans-85"/>
      <use x="73.193359" xlink:href="#DejaVuSans-110"/>
      <use x="136.572266" xlink:href="#DejaVuSans-105"/>
      <use x="164.355469" xlink:href="#DejaVuSans-116"/>
      <use x="203.564453" xlink:href="#DejaVuSans-58"/>
      <use x="237.255859" xlink:href="#DejaVuSans-32"/>
      <use x="269.042969" xlink:href="#DejaVuSans-49"/>
      <use x="332.666016" xlink:href="#DejaVuSans-48"/>
      <use x="396.289062" xlink:href="#DejaVuSans-48"/>
      <use x="459.912109" xlink:href="#DejaVuSans-48"/>
      <use x="523.535156" xlink:href="#DejaVuSans-32"/>
      <use x="555.322266" xlink:href="#DejaVuSans-107"/>
      <use x="613.232422" xlink:href="#DejaVuSans-109"/>
     </g>
    </g>
   </g>
   <g id="line2d_25">
    <path clip-path="url(#p48b577e58a)" d="M 743.968398 314.722121 
L 743.763122 314.611012 
L 743.401824 314.158118 
L 743.016374 313.288145 
L 742.822861 312.589176 
L 742.822861 312.589176 
" style="fill:none;stroke:#c0c0c0;stroke-linecap:square;stroke-width:1.5;"/>
   </g>
   <g id="line2d_26">
    <path clip-path="url(#p48b577e58a)" d="M 111.747328 323.619206 
L 114.048962 324.950192 
L 116.45986 325.975923 
L 118.904192 326.704791 
L 121.322738 327.170428 
L 123.677757 327.416573 
L 126.686863 327.476702 
L 129.534402 327.307082 
L 132.873948 326.86662 
L 136.591453 326.111181 
L 140.588063 325.030214 
L 144.786431 323.635262 
L 149.129843 321.949115 
L 154.004357 319.800902 
L 159.281433 317.210556 
L 164.863496 314.211795 
L 171.007034 310.647502 
L 177.583729 306.571086 
L 185.050753 301.669261 
L 193.209167 296.041766 
L 202.60573 289.284275 
L 213.811062 280.943974 
L 228.881392 269.430433 
L 269.72855 238.087779 
L 283.343015 228.003375 
L 295.321426 219.402197 
L 306.426373 211.697468 
L 316.900033 204.696702 
L 326.941008 198.248275 
L 336.718528 192.232386 
L 346.144964 186.690647 
L 355.36782 181.523394 
L 364.406607 176.711416 
L 373.277485 172.237689 
L 382.103342 168.036487 
L 390.782585 164.152392 
L 399.32509 160.572596 
L 407.739195 157.285464 
L 416.134876 154.244543 
L 424.412362 151.48263 
L 432.576904 148.990399 
L 440.731743 146.733272 
L 448.779278 144.735373 
L 456.819022 142.969176 
L 464.755019 141.453123 
L 472.58963 140.180167 
L 480.417387 139.132611 
L 488.144923 138.32078 
L 495.863768 137.732972 
L 503.482382 137.374234 
L 511.089429 137.238554 
L 518.595267 137.325858 
L 526.085783 137.635557 
L 533.473301 138.162592 
L 540.840986 138.911562 
L 548.103207 139.872574 
L 555.340426 141.055189 
L 562.469138 142.444826 
L 569.567112 144.055816 
L 576.553046 145.869028 
L 583.50201 147.90338 
L 590.334994 150.135337 
L 597.124338 152.588247 
L 603.793425 155.234312 
L 610.411831 158.101164 
L 616.905426 161.156895 
L 623.273205 164.397461 
L 629.580574 167.856729 
L 635.757336 171.496996 
L 641.86605 175.356132 
L 647.839255 179.392763 
L 653.675934 183.603487 
L 659.434364 188.03215 
L 665.051422 192.632343 
L 670.526224 197.401369 
L 675.912762 202.38918 
L 681.152544 207.545024 
L 686.245005 212.867504 
L 691.189762 218.355903 
L 695.986655 224.010374 
L 700.635828 229.8322 
L 705.137814 235.824164 
L 709.49369 241.991097 
L 713.705287 248.340714 
L 717.73429 254.816438 
L 721.629336 261.500591 
L 725.358906 268.347601 
L 728.900486 275.316675 
L 732.27876 282.459267 
L 735.457982 289.703648 
L 738.391182 296.935303 
L 740.990181 303.923982 
L 742.865178 309.55366 
L 743.715091 312.654894 
L 743.913952 313.800317 
L 743.929074 314.229385 
L 743.484247 314.633978 
L 742.806293 314.117049 
L 741.503608 312.65194 
L 739.288597 309.744348 
L 735.936566 304.952266 
L 731.890058 298.775563 
L 727.7456 292.046254 
L 723.676014 285.013699 
L 719.80018 277.873709 
L 716.080244 270.552338 
L 712.570645 263.152812 
L 709.255698 255.644392 
L 706.128535 248.007261 
L 703.214253 240.301697 
L 700.508203 232.519247 
L 698.008444 224.654854 
L 695.714942 216.705896 
L 693.629081 208.67156 
L 691.769349 200.626304 
L 690.118913 192.49815 
L 688.693723 184.363656 
L 687.492238 176.226207 
L 686.505511 168.015689 
L 685.744797 159.810366 
L 685.209733 151.614785 
L 684.902001 143.507325 
L 684.815881 135.418857 
L 684.951655 127.354241 
L 685.309735 119.318402 
L 685.884347 111.388889 
L 686.678321 103.497366 
L 687.692281 95.648691 
L 688.914558 87.919062 
L 690.354101 80.240978 
L 691.995218 72.689428 
L 693.85085 65.197608 
L 695.901238 57.839134 
L 698.163259 50.548056 
L 700.613061 43.396455 
L 703.271407 36.319397 
L 706.138647 29.321022 
L 709.184773 22.4709 
L 712.436306 15.705972 
L 715.893365 9.030177 
L 719.519788 2.51027 
L 721.57909 -1 
L 721.57909 -1 
" style="fill:none;stroke:#0000ff;stroke-linecap:square;stroke-width:1.5;"/>
   </g>
   <g id="line2d_27">
    <path clip-path="url(#p48b577e58a)" d="M 743.968398 314.722121 
L 743.763122 314.611012 
L 743.401824 314.158118 
L 743.016374 313.288145 
L 742.822861 312.589176 
L 742.822861 312.589176 
" style="fill:none;stroke:#c0c0c0;stroke-linecap:square;stroke-width:1.5;"/>
   </g>
   <g id="line2d_28">
    <path clip-path="url(#p48b577e58a)" d="M 111.747328 323.619206 
L 114.049366 324.950464 
L 116.460652 325.976469 
L 118.905349 326.705633 
L 121.32424 327.171612 
L 123.679603 327.418156 
L 126.689188 327.478915 
L 129.537262 327.310021 
L 132.877578 326.870581 
L 136.596176 326.116481 
L 140.594287 325.037176 
L 144.794644 323.644179 
L 149.140599 321.960256 
L 154.018594 319.814734 
L 159.300225 317.227485 
L 164.888036 314.232153 
L 171.039037 310.671747 
L 177.625083 306.599559 
L 185.10447 301.702529 
L 193.278554 296.080166 
L 202.696015 289.328327 
L 214.140593 280.836047 
L 229.611775 269.053968 
L 268.692517 239.179173 
L 282.449944 229.012307 
L 294.549282 220.341875 
L 305.763977 212.575419 
L 316.34014 205.518439 
L 326.479213 199.017825 
L 336.230745 193.025873 
L 345.753193 187.433065 
L 355.070874 182.217266 
L 364.203748 177.359046 
L 373.168339 172.841213 
L 381.978427 168.648431 
L 390.645563 164.76693 
L 399.286688 161.140786 
L 407.799735 157.809366 
L 416.191926 154.761966 
L 424.572147 151.955799 
L 432.840128 149.421352 
L 441.000424 147.149951 
L 449.155713 145.110217 
L 457.207948 143.32404 
L 465.256314 141.766863 
L 473.204412 140.454959 
L 481.148235 139.370183 
L 488.9931 138.523341 
L 496.832011 137.902351 
L 504.572078 137.512698 
L 512.214125 137.348668 
L 519.846929 137.40677 
L 527.380402 137.684891 
L 534.900619 138.184868 
L 542.319448 138.899657 
L 549.720307 139.836203 
L 557.017093 140.982672 
L 564.290581 142.350912 
L 571.45678 143.924439 
L 578.593814 145.719827 
L 585.61989 147.716074 
L 592.610465 149.934317 
L 599.48603 152.349181 
L 606.319347 154.986215 
L 613.033283 157.815816 
L 619.626867 160.833989 
L 626.168788 164.072703 
L 632.585671 167.496367 
L 638.943426 171.141069 
L 645.171299 174.967407 
L 651.332376 179.015536 
L 657.358627 183.242438 
L 663.249002 187.645077 
L 669.002499 192.220696 
L 674.676538 197.017716 
L 680.208911 201.98677 
L 685.598782 207.126209 
L 690.845421 212.434974 
L 695.948222 217.912726 
L 700.90673 223.560052 
L 705.720681 229.378755 
L 710.390047 235.372244 
L 714.868711 241.480883 
L 719.206686 247.774682 
L 723.361611 254.197136 
L 727.297381 260.689007 
L 731.024532 267.263622 
L 734.514194 273.868357 
L 737.703479 280.373726 
L 740.572839 286.726803 
L 742.990873 292.606086 
L 744.934085 297.903 
L 746.33376 302.34768 
L 747.225417 305.881006 
L 747.713656 308.648576 
L 747.899617 310.851681 
L 747.854594 312.623022 
L 747.611432 314.165479 
L 747.163714 315.557699 
L 746.566842 316.718613 
L 745.689967 317.895862 
L 744.564332 318.991759 
L 743.13051 320.052379 
L 741.331019 321.099245 
L 738.996771 322.19431 
L 735.991119 323.35302 
L 732.094965 324.605786 
L 727.317459 325.901799 
L 721.636816 327.20887 
L 715.188034 328.460962 
L 708.242942 329.58164 
L 700.952108 330.532664 
L 693.457271 331.286809 
L 685.814437 331.83329 
L 678.083478 332.164552 
L 670.245296 332.278043 
L 662.367031 332.170359 
L 654.436026 331.840543 
L 646.442089 331.28606 
L 638.376692 330.503248 
L 630.23243 329.487608 
L 622.084165 328.247533 
L 613.84442 326.768376 
L 605.507381 325.044141 
L 597.149344 323.088823 
L 588.68294 320.880122 
L 580.102212 318.41132 
L 571.400838 315.675538 
L 562.572011 312.66579 
L 553.608307 309.375031 
L 544.416933 305.761867 
L 535.072125 301.848808 
L 525.477475 297.589712 
L 515.53188 292.928689 
L 505.303987 287.888577 
L 494.596482 282.362006 
L 483.379346 276.320478 
L 471.432792 269.631583 
L 458.421354 262.086954 
L 443.873638 253.387607 
L 426.552273 242.759661 
L 400.499309 226.477983 
L 369.062981 206.887743 
L 351.444115 196.175719 
L 336.482223 187.334145 
L 322.862281 179.54156 
L 310.222382 172.562739 
L 298.140175 166.144724 
L 286.546739 160.237448 
L 275.360467 154.784805 
L 264.487215 149.727956 
L 253.820913 145.008276 
L 243.244468 140.569947 
L 232.781583 136.420319 
L 222.456532 132.563297 
L 212.138652 128.946786 
L 201.846397 125.576793 
L 191.598749 122.456847 
L 181.414862 119.587965 
L 171.152825 116.928799 
L 160.828541 114.485638 
L 150.458597 112.26275 
L 140.05997 110.262292 
L 129.649736 108.484302 
L 119.082296 106.904128 
L 108.375435 105.527919 
L 97.547694 104.35949 
L 86.457831 103.387783 
L 75.12869 102.621345 
L 63.584328 102.065495 
L 51.694003 101.719035 
L 39.48891 101.588766 
L 26.850249 101.679136 
L 13.669973 101.999374 
L -0.14753 102.561022 
L -1 102.602715 
L -1 102.602715 
" style="fill:none;stroke:#ffff00;stroke-linecap:square;stroke-width:1.5;"/>
   </g>
   <g id="patch_7">
    <path d="M 60.114063 605.952 
L 60.114063 7.2 
" style="fill:none;stroke:#000000;stroke-linecap:square;stroke-linejoin:miter;stroke-width:0.8;"/>
   </g>
   <g id="patch_8">
    <path d="M 858.450063 605.952 
L 858.450063 7.2 
" style="fill:none;stroke:#000000;stroke-linecap:square;stroke-linejoin:miter;stroke-width:0.8;"/>
   </g>
   <g id="patch_9">
    <path d="M 60.114063 605.952 
L 858.450063 605.952 
" style="fill:none;stroke:#000000;stroke-linecap:square;stroke-linejoin:miter;stroke-width:0.8;"/>
   </g>
   <g id="patch_10">
    <path d="M 60.114063 7.2 
L 858.450063 7.2 
" style="fill:none;stroke:#000000;stroke-linecap:square;stroke-linejoin:miter;stroke-width:0.8;"/>
   </g>
  </g>
 </g>
 <defs>
  <clipPath id="p48b577e58a">
   <rect height="598.752" width="798.336" x="60.114063" y="7.2"/>
  </clipPath>
 </defs>
</svg>
