<?xml version="1.0" encoding="utf-8" standalone="no"?>
<!DOCTYPE svg PUBLIC "-//W3C//DTD SVG 1.1//EN"
  "http://www.w3.org/Graphics/SVG/1.1/DTD/svg11.dtd">
<!-- Created with matplotlib (https://matplotlib.org/) -->
<svg height="2065.54425pt" version="1.1" viewBox="0 0 2761.698063 2065.54425" width="2761.698063pt" xmlns="http://www.w3.org/2000/svg" xmlns:xlink="http://www.w3.org/1999/xlink">
 <metadata>
  <rdf:RDF xmlns:cc="http://creativecommons.org/ns#" xmlns:dc="http://purl.org/dc/elements/1.1/" xmlns:rdf="http://www.w3.org/1999/02/22-rdf-syntax-ns#">
   <cc:Work>
    <dc:type rdf:resource="http://purl.org/dc/dcmitype/StillImage"/>
    <dc:date>2021-08-06T14:46:14.673253</dc:date>
    <dc:format>image/svg+xml</dc:format>
    <dc:creator>
     <cc:Agent>
      <dc:title>Matplotlib v3.3.2, https://matplotlib.org/</dc:title>
     </cc:Agent>
    </dc:creator>
   </cc:Work>
  </rdf:RDF>
 </metadata>
 <defs>
  <style type="text/css">*{stroke-linecap:butt;stroke-linejoin:round;}</style>
 </defs>
 <g id="figure_1">
  <g id="patch_1">
   <path d="M 0 2065.54425 
L 2761.698063 2065.54425 
L 2761.698063 0 
L 0 0 
z
" style="fill:#ffffff;"/>
  </g>
  <g id="axes_1">
   <g id="patch_2">
    <path d="M 60.114062 2027.988 
L 2754.498063 2027.988 
L 2754.498063 7.2 
L 60.114062 7.2 
z
" style="fill:#ffffff;"/>
   </g>
   <g id="patch_3">
    <path clip-path="url(#pd24f167f57)" d="M 254.394694 1080.158702 
C 263.695627 1080.158702 272.61687 1076.463402 279.193623 1069.886649 
C 285.770376 1063.309896 289.465676 1054.388653 289.465676 1045.08772 
C 289.465676 1035.786787 285.770376 1026.865544 279.193623 1020.288791 
C 272.61687 1013.712038 263.695627 1010.016738 254.394694 1010.016738 
C 245.093761 1010.016738 236.172518 1013.712038 229.595765 1020.288791 
C 223.019012 1026.865544 219.323712 1035.786787 219.323712 1045.08772 
C 219.323712 1054.388653 223.019012 1063.309896 229.595765 1069.886649 
C 236.172518 1076.463402 245.093761 1080.158702 254.394694 1080.158702 
z
" style="fill:#00008b;stroke:#00008b;stroke-linejoin:miter;"/>
   </g>
   <g id="patch_4">
    <path clip-path="url(#pd24f167f57)" d="M 2368.122446 1054.638475 
C 2370.655484 1054.638475 2373.085117 1053.632088 2374.876246 1051.840959 
C 2376.667375 1050.049831 2377.673762 1047.620198 2377.673762 1045.087159 
C 2377.673762 1042.55412 2376.667375 1040.124487 2374.876246 1038.333358 
C 2373.085117 1036.54223 2370.655484 1035.535843 2368.122446 1035.535843 
C 2365.589407 1035.535843 2363.159774 1036.54223 2361.368645 1038.333358 
C 2359.577516 1040.124487 2358.571129 1042.55412 2358.571129 1045.087159 
C 2358.571129 1047.620198 2359.577516 1050.049831 2361.368645 1051.840959 
C 2363.159774 1053.632088 2365.589407 1054.638475 2368.122446 1054.638475 
z
" style="fill:#808080;stroke:#808080;stroke-linejoin:miter;"/>
   </g>
   <g id="patch_5">
    <path clip-path="url(#pd24f167f57)" d="M 254.394694 1080.158702 
C 263.695627 1080.158702 272.61687 1076.463402 279.193623 1069.886649 
C 285.770376 1063.309896 289.465676 1054.388653 289.465676 1045.08772 
C 289.465676 1035.786787 285.770376 1026.865544 279.193623 1020.288791 
C 272.61687 1013.712038 263.695627 1010.016738 254.394694 1010.016738 
C 245.093761 1010.016738 236.172518 1013.712038 229.595765 1020.288791 
C 223.019012 1026.865544 219.323712 1035.786787 219.323712 1045.08772 
C 219.323712 1054.388653 223.019012 1063.309896 229.595765 1069.886649 
C 236.172518 1076.463402 245.093761 1080.158702 254.394694 1080.158702 
z
" style="fill:#00008b;stroke:#00008b;stroke-linejoin:miter;"/>
   </g>
   <g id="patch_6">
    <path clip-path="url(#pd24f167f57)" d="M 2368.122446 1054.638475 
C 2370.655484 1054.638475 2373.085117 1053.632088 2374.876246 1051.840959 
C 2376.667375 1050.049831 2377.673762 1047.620198 2377.673762 1045.087159 
C 2377.673762 1042.55412 2376.667375 1040.124487 2374.876246 1038.333358 
C 2373.085117 1036.54223 2370.655484 1035.535843 2368.122446 1035.535843 
C 2365.589407 1035.535843 2363.159774 1036.54223 2361.368645 1038.333358 
C 2359.577516 1040.124487 2358.571129 1042.55412 2358.571129 1045.087159 
C 2358.571129 1047.620198 2359.577516 1050.049831 2361.368645 1051.840959 
C 2363.159774 1053.632088 2365.589407 1054.638475 2368.122446 1054.638475 
z
" style="fill:#808080;stroke:#808080;stroke-linejoin:miter;"/>
   </g>
   <g id="patch_7">
    <path clip-path="url(#pd24f167f57)" d="M 254.394694 1080.158702 
C 263.695627 1080.158702 272.61687 1076.463402 279.193623 1069.886649 
C 285.770376 1063.309896 289.465676 1054.388653 289.465676 1045.08772 
C 289.465676 1035.786787 285.770376 1026.865544 279.193623 1020.288791 
C 272.61687 1013.712038 263.695627 1010.016738 254.394694 1010.016738 
C 245.093761 1010.016738 236.172518 1013.712038 229.595765 1020.288791 
C 223.019012 1026.865544 219.323712 1035.786787 219.323712 1045.08772 
C 219.323712 1054.388653 223.019012 1063.309896 229.595765 1069.886649 
C 236.172518 1076.463402 245.093761 1080.158702 254.394694 1080.158702 
z
" style="fill:#00008b;stroke:#00008b;stroke-linejoin:miter;"/>
   </g>
   <g id="patch_8">
    <path clip-path="url(#pd24f167f57)" d="M 2368.122446 1054.638475 
C 2370.655484 1054.638475 2373.085117 1053.632088 2374.876246 1051.840959 
C 2376.667375 1050.049831 2377.673762 1047.620198 2377.673762 1045.087159 
C 2377.673762 1042.55412 2376.667375 1040.124487 2374.876246 1038.333358 
C 2373.085117 1036.54223 2370.655484 1035.535843 2368.122446 1035.535843 
C 2365.589407 1035.535843 2363.159774 1036.54223 2361.368645 1038.333358 
C 2359.577516 1040.124487 2358.571129 1042.55412 2358.571129 1045.087159 
C 2358.571129 1047.620198 2359.577516 1050.049831 2361.368645 1051.840959 
C 2363.159774 1053.632088 2365.589407 1054.638475 2368.122446 1054.638475 
z
" style="fill:#808080;stroke:#808080;stroke-linejoin:miter;"/>
   </g>
   <g id="patch_9">
    <path clip-path="url(#pd24f167f57)" d="M 254.394694 1080.158702 
C 263.695627 1080.158702 272.61687 1076.463402 279.193623 1069.886649 
C 285.770376 1063.309896 289.465676 1054.388653 289.465676 1045.08772 
C 289.465676 1035.786787 285.770376 1026.865544 279.193623 1020.288791 
C 272.61687 1013.712038 263.695627 1010.016738 254.394694 1010.016738 
C 245.093761 1010.016738 236.172518 1013.712038 229.595765 1020.288791 
C 223.019012 1026.865544 219.323712 1035.786787 219.323712 1045.08772 
C 219.323712 1054.388653 223.019012 1063.309896 229.595765 1069.886649 
C 236.172518 1076.463402 245.093761 1080.158702 254.394694 1080.158702 
z
" style="fill:#00008b;stroke:#00008b;stroke-linejoin:miter;"/>
   </g>
   <g id="patch_10">
    <path clip-path="url(#pd24f167f57)" d="M 2368.122446 1054.638475 
C 2370.655484 1054.638475 2373.085117 1053.632088 2374.876246 1051.840959 
C 2376.667375 1050.049831 2377.673762 1047.620198 2377.673762 1045.087159 
C 2377.673762 1042.55412 2376.667375 1040.124487 2374.876246 1038.333358 
C 2373.085117 1036.54223 2370.655484 1035.535843 2368.122446 1035.535843 
C 2365.589407 1035.535843 2363.159774 1036.54223 2361.368645 1038.333358 
C 2359.577516 1040.124487 2358.571129 1042.55412 2358.571129 1045.087159 
C 2358.571129 1047.620198 2359.577516 1050.049831 2361.368645 1051.840959 
C 2363.159774 1053.632088 2365.589407 1054.638475 2368.122446 1054.638475 
z
" style="fill:#808080;stroke:#808080;stroke-linejoin:miter;"/>
   </g>
   <g id="patch_11">
    <path clip-path="url(#pd24f167f57)" d="M 254.394694 1080.158702 
C 263.695627 1080.158702 272.61687 1076.463402 279.193623 1069.886649 
C 285.770376 1063.309896 289.465676 1054.388653 289.465676 1045.08772 
C 289.465676 1035.786787 285.770376 1026.865544 279.193623 1020.288791 
C 272.61687 1013.712038 263.695627 1010.016738 254.394694 1010.016738 
C 245.093761 1010.016738 236.172518 1013.712038 229.595765 1020.288791 
C 223.019012 1026.865544 219.323712 1035.786787 219.323712 1045.08772 
C 219.323712 1054.388653 223.019012 1063.309896 229.595765 1069.886649 
C 236.172518 1076.463402 245.093761 1080.158702 254.394694 1080.158702 
z
" style="fill:#00008b;stroke:#00008b;stroke-linejoin:miter;"/>
   </g>
   <g id="patch_12">
    <path clip-path="url(#pd24f167f57)" d="M 2368.122446 1054.638475 
C 2370.655484 1054.638475 2373.085117 1053.632088 2374.876246 1051.840959 
C 2376.667375 1050.049831 2377.673762 1047.620198 2377.673762 1045.087159 
C 2377.673762 1042.55412 2376.667375 1040.124487 2374.876246 1038.333358 
C 2373.085117 1036.54223 2370.655484 1035.535843 2368.122446 1035.535843 
C 2365.589407 1035.535843 2363.159774 1036.54223 2361.368645 1038.333358 
C 2359.577516 1040.124487 2358.571129 1042.55412 2358.571129 1045.087159 
C 2358.571129 1047.620198 2359.577516 1050.049831 2361.368645 1051.840959 
C 2363.159774 1053.632088 2365.589407 1054.638475 2368.122446 1054.638475 
z
" style="fill:#808080;stroke:#808080;stroke-linejoin:miter;"/>
   </g>
   <g id="matplotlib.axis_1">
    <g id="xtick_1">
     <g id="line2d_1">
      <path clip-path="url(#pd24f167f57)" d="M 280.063777 2027.988 
L 280.063777 7.2 
" style="fill:none;stroke:#b0b0b0;stroke-linecap:square;stroke-width:0.8;"/>
     </g>
     <g id="line2d_2">
      <defs>
       <path d="M 0 0 
L 0 3.5 
" id="m329495a0c2" style="stroke:#000000;stroke-width:0.8;"/>
      </defs>
      <g>
       <use style="stroke:#000000;stroke-width:0.8;" x="280.063777" xlink:href="#m329495a0c2" y="2027.988"/>
      </g>
     </g>
     <g id="text_1">
      <!-- 0.0 -->
      <g transform="translate(272.112214 2042.586437)scale(0.1 -0.1)">
       <defs>
        <path d="M 31.78125 66.40625 
Q 24.171875 66.40625 20.328125 58.90625 
Q 16.5 51.421875 16.5 36.375 
Q 16.5 21.390625 20.328125 13.890625 
Q 24.171875 6.390625 31.78125 6.390625 
Q 39.453125 6.390625 43.28125 13.890625 
Q 47.125 21.390625 47.125 36.375 
Q 47.125 51.421875 43.28125 58.90625 
Q 39.453125 66.40625 31.78125 66.40625 
z
M 31.78125 74.21875 
Q 44.046875 74.21875 50.515625 64.515625 
Q 56.984375 54.828125 56.984375 36.375 
Q 56.984375 17.96875 50.515625 8.265625 
Q 44.046875 -1.421875 31.78125 -1.421875 
Q 19.53125 -1.421875 13.0625 8.265625 
Q 6.59375 17.96875 6.59375 36.375 
Q 6.59375 54.828125 13.0625 64.515625 
Q 19.53125 74.21875 31.78125 74.21875 
z
" id="DejaVuSans-48"/>
        <path d="M 10.6875 12.40625 
L 21 12.40625 
L 21 0 
L 10.6875 0 
z
" id="DejaVuSans-46"/>
       </defs>
       <use xlink:href="#DejaVuSans-48"/>
       <use x="63.623047" xlink:href="#DejaVuSans-46"/>
       <use x="95.410156" xlink:href="#DejaVuSans-48"/>
      </g>
     </g>
    </g>
    <g id="xtick_2">
     <g id="line2d_3">
      <path clip-path="url(#pd24f167f57)" d="M 829.938063 2027.988 
L 829.938063 7.2 
" style="fill:none;stroke:#b0b0b0;stroke-linecap:square;stroke-width:0.8;"/>
     </g>
     <g id="line2d_4">
      <g>
       <use style="stroke:#000000;stroke-width:0.8;" x="829.938063" xlink:href="#m329495a0c2" y="2027.988"/>
      </g>
     </g>
     <g id="text_2">
      <!-- 100.0 -->
      <g transform="translate(815.624 2042.586437)scale(0.1 -0.1)">
       <defs>
        <path d="M 12.40625 8.296875 
L 28.515625 8.296875 
L 28.515625 63.921875 
L 10.984375 60.40625 
L 10.984375 69.390625 
L 28.421875 72.90625 
L 38.28125 72.90625 
L 38.28125 8.296875 
L 54.390625 8.296875 
L 54.390625 0 
L 12.40625 0 
z
" id="DejaVuSans-49"/>
       </defs>
       <use xlink:href="#DejaVuSans-49"/>
       <use x="63.623047" xlink:href="#DejaVuSans-48"/>
       <use x="127.246094" xlink:href="#DejaVuSans-48"/>
       <use x="190.869141" xlink:href="#DejaVuSans-46"/>
       <use x="222.65625" xlink:href="#DejaVuSans-48"/>
      </g>
     </g>
    </g>
    <g id="xtick_3">
     <g id="line2d_5">
      <path clip-path="url(#pd24f167f57)" d="M 1379.812348 2027.988 
L 1379.812348 7.2 
" style="fill:none;stroke:#b0b0b0;stroke-linecap:square;stroke-width:0.8;"/>
     </g>
     <g id="line2d_6">
      <g>
       <use style="stroke:#000000;stroke-width:0.8;" x="1379.812348" xlink:href="#m329495a0c2" y="2027.988"/>
      </g>
     </g>
     <g id="text_3">
      <!-- 200.0 -->
      <g transform="translate(1365.498286 2042.586437)scale(0.1 -0.1)">
       <defs>
        <path d="M 19.1875 8.296875 
L 53.609375 8.296875 
L 53.609375 0 
L 7.328125 0 
L 7.328125 8.296875 
Q 12.9375 14.109375 22.625 23.890625 
Q 32.328125 33.6875 34.8125 36.53125 
Q 39.546875 41.84375 41.421875 45.53125 
Q 43.3125 49.21875 43.3125 52.78125 
Q 43.3125 58.59375 39.234375 62.25 
Q 35.15625 65.921875 28.609375 65.921875 
Q 23.96875 65.921875 18.8125 64.3125 
Q 13.671875 62.703125 7.8125 59.421875 
L 7.8125 69.390625 
Q 13.765625 71.78125 18.9375 73 
Q 24.125 74.21875 28.421875 74.21875 
Q 39.75 74.21875 46.484375 68.546875 
Q 53.21875 62.890625 53.21875 53.421875 
Q 53.21875 48.921875 51.53125 44.890625 
Q 49.859375 40.875 45.40625 35.40625 
Q 44.1875 33.984375 37.640625 27.21875 
Q 31.109375 20.453125 19.1875 8.296875 
z
" id="DejaVuSans-50"/>
       </defs>
       <use xlink:href="#DejaVuSans-50"/>
       <use x="63.623047" xlink:href="#DejaVuSans-48"/>
       <use x="127.246094" xlink:href="#DejaVuSans-48"/>
       <use x="190.869141" xlink:href="#DejaVuSans-46"/>
       <use x="222.65625" xlink:href="#DejaVuSans-48"/>
      </g>
     </g>
    </g>
    <g id="xtick_4">
     <g id="line2d_7">
      <path clip-path="url(#pd24f167f57)" d="M 1929.686634 2027.988 
L 1929.686634 7.2 
" style="fill:none;stroke:#b0b0b0;stroke-linecap:square;stroke-width:0.8;"/>
     </g>
     <g id="line2d_8">
      <g>
       <use style="stroke:#000000;stroke-width:0.8;" x="1929.686634" xlink:href="#m329495a0c2" y="2027.988"/>
      </g>
     </g>
     <g id="text_4">
      <!-- 300.0 -->
      <g transform="translate(1915.372571 2042.586437)scale(0.1 -0.1)">
       <defs>
        <path d="M 40.578125 39.3125 
Q 47.65625 37.796875 51.625 33 
Q 55.609375 28.21875 55.609375 21.1875 
Q 55.609375 10.40625 48.1875 4.484375 
Q 40.765625 -1.421875 27.09375 -1.421875 
Q 22.515625 -1.421875 17.65625 -0.515625 
Q 12.796875 0.390625 7.625 2.203125 
L 7.625 11.71875 
Q 11.71875 9.328125 16.59375 8.109375 
Q 21.484375 6.890625 26.8125 6.890625 
Q 36.078125 6.890625 40.9375 10.546875 
Q 45.796875 14.203125 45.796875 21.1875 
Q 45.796875 27.640625 41.28125 31.265625 
Q 36.765625 34.90625 28.71875 34.90625 
L 20.21875 34.90625 
L 20.21875 43.015625 
L 29.109375 43.015625 
Q 36.375 43.015625 40.234375 45.921875 
Q 44.09375 48.828125 44.09375 54.296875 
Q 44.09375 59.90625 40.109375 62.90625 
Q 36.140625 65.921875 28.71875 65.921875 
Q 24.65625 65.921875 20.015625 65.03125 
Q 15.375 64.15625 9.8125 62.3125 
L 9.8125 71.09375 
Q 15.4375 72.65625 20.34375 73.4375 
Q 25.25 74.21875 29.59375 74.21875 
Q 40.828125 74.21875 47.359375 69.109375 
Q 53.90625 64.015625 53.90625 55.328125 
Q 53.90625 49.265625 50.4375 45.09375 
Q 46.96875 40.921875 40.578125 39.3125 
z
" id="DejaVuSans-51"/>
       </defs>
       <use xlink:href="#DejaVuSans-51"/>
       <use x="63.623047" xlink:href="#DejaVuSans-48"/>
       <use x="127.246094" xlink:href="#DejaVuSans-48"/>
       <use x="190.869141" xlink:href="#DejaVuSans-46"/>
       <use x="222.65625" xlink:href="#DejaVuSans-48"/>
      </g>
     </g>
    </g>
    <g id="xtick_5">
     <g id="line2d_9">
      <path clip-path="url(#pd24f167f57)" d="M 2479.56092 2027.988 
L 2479.56092 7.2 
" style="fill:none;stroke:#b0b0b0;stroke-linecap:square;stroke-width:0.8;"/>
     </g>
     <g id="line2d_10">
      <g>
       <use style="stroke:#000000;stroke-width:0.8;" x="2479.56092" xlink:href="#m329495a0c2" y="2027.988"/>
      </g>
     </g>
     <g id="text_5">
      <!-- 400.0 -->
      <g transform="translate(2465.246857 2042.586437)scale(0.1 -0.1)">
       <defs>
        <path d="M 37.796875 64.3125 
L 12.890625 25.390625 
L 37.796875 25.390625 
z
M 35.203125 72.90625 
L 47.609375 72.90625 
L 47.609375 25.390625 
L 58.015625 25.390625 
L 58.015625 17.1875 
L 47.609375 17.1875 
L 47.609375 0 
L 37.796875 0 
L 37.796875 17.1875 
L 4.890625 17.1875 
L 4.890625 26.703125 
z
" id="DejaVuSans-52"/>
       </defs>
       <use xlink:href="#DejaVuSans-52"/>
       <use x="63.623047" xlink:href="#DejaVuSans-48"/>
       <use x="127.246094" xlink:href="#DejaVuSans-48"/>
       <use x="190.869141" xlink:href="#DejaVuSans-46"/>
       <use x="222.65625" xlink:href="#DejaVuSans-48"/>
      </g>
     </g>
    </g>
    <g id="text_6">
     <!-- Unit: 1000 km -->
     <g transform="translate(1371.775594 2056.264563)scale(0.1 -0.1)">
      <defs>
       <path d="M 8.6875 72.90625 
L 18.609375 72.90625 
L 18.609375 28.609375 
Q 18.609375 16.890625 22.84375 11.734375 
Q 27.09375 6.59375 36.625 6.59375 
Q 46.09375 6.59375 50.34375 11.734375 
Q 54.59375 16.890625 54.59375 28.609375 
L 54.59375 72.90625 
L 64.5 72.90625 
L 64.5 27.390625 
Q 64.5 13.140625 57.4375 5.859375 
Q 50.390625 -1.421875 36.625 -1.421875 
Q 22.796875 -1.421875 15.734375 5.859375 
Q 8.6875 13.140625 8.6875 27.390625 
z
" id="DejaVuSans-85"/>
       <path d="M 54.890625 33.015625 
L 54.890625 0 
L 45.90625 0 
L 45.90625 32.71875 
Q 45.90625 40.484375 42.875 44.328125 
Q 39.84375 48.1875 33.796875 48.1875 
Q 26.515625 48.1875 22.3125 43.546875 
Q 18.109375 38.921875 18.109375 30.90625 
L 18.109375 0 
L 9.078125 0 
L 9.078125 54.6875 
L 18.109375 54.6875 
L 18.109375 46.1875 
Q 21.34375 51.125 25.703125 53.5625 
Q 30.078125 56 35.796875 56 
Q 45.21875 56 50.046875 50.171875 
Q 54.890625 44.34375 54.890625 33.015625 
z
" id="DejaVuSans-110"/>
       <path d="M 9.421875 54.6875 
L 18.40625 54.6875 
L 18.40625 0 
L 9.421875 0 
z
M 9.421875 75.984375 
L 18.40625 75.984375 
L 18.40625 64.59375 
L 9.421875 64.59375 
z
" id="DejaVuSans-105"/>
       <path d="M 18.3125 70.21875 
L 18.3125 54.6875 
L 36.8125 54.6875 
L 36.8125 47.703125 
L 18.3125 47.703125 
L 18.3125 18.015625 
Q 18.3125 11.328125 20.140625 9.421875 
Q 21.96875 7.515625 27.59375 7.515625 
L 36.8125 7.515625 
L 36.8125 0 
L 27.59375 0 
Q 17.1875 0 13.234375 3.875 
Q 9.28125 7.765625 9.28125 18.015625 
L 9.28125 47.703125 
L 2.6875 47.703125 
L 2.6875 54.6875 
L 9.28125 54.6875 
L 9.28125 70.21875 
z
" id="DejaVuSans-116"/>
       <path d="M 11.71875 12.40625 
L 22.015625 12.40625 
L 22.015625 0 
L 11.71875 0 
z
M 11.71875 51.703125 
L 22.015625 51.703125 
L 22.015625 39.3125 
L 11.71875 39.3125 
z
" id="DejaVuSans-58"/>
       <path id="DejaVuSans-32"/>
       <path d="M 9.078125 75.984375 
L 18.109375 75.984375 
L 18.109375 31.109375 
L 44.921875 54.6875 
L 56.390625 54.6875 
L 27.390625 29.109375 
L 57.625 0 
L 45.90625 0 
L 18.109375 26.703125 
L 18.109375 0 
L 9.078125 0 
z
" id="DejaVuSans-107"/>
       <path d="M 52 44.1875 
Q 55.375 50.25 60.0625 53.125 
Q 64.75 56 71.09375 56 
Q 79.640625 56 84.28125 50.015625 
Q 88.921875 44.046875 88.921875 33.015625 
L 88.921875 0 
L 79.890625 0 
L 79.890625 32.71875 
Q 79.890625 40.578125 77.09375 44.375 
Q 74.3125 48.1875 68.609375 48.1875 
Q 61.625 48.1875 57.5625 43.546875 
Q 53.515625 38.921875 53.515625 30.90625 
L 53.515625 0 
L 44.484375 0 
L 44.484375 32.71875 
Q 44.484375 40.625 41.703125 44.40625 
Q 38.921875 48.1875 33.109375 48.1875 
Q 26.21875 48.1875 22.15625 43.53125 
Q 18.109375 38.875 18.109375 30.90625 
L 18.109375 0 
L 9.078125 0 
L 9.078125 54.6875 
L 18.109375 54.6875 
L 18.109375 46.1875 
Q 21.1875 51.21875 25.484375 53.609375 
Q 29.78125 56 35.6875 56 
Q 41.65625 56 45.828125 52.96875 
Q 50 49.953125 52 44.1875 
z
" id="DejaVuSans-109"/>
      </defs>
      <use xlink:href="#DejaVuSans-85"/>
      <use x="73.193359" xlink:href="#DejaVuSans-110"/>
      <use x="136.572266" xlink:href="#DejaVuSans-105"/>
      <use x="164.355469" xlink:href="#DejaVuSans-116"/>
      <use x="203.564453" xlink:href="#DejaVuSans-58"/>
      <use x="237.255859" xlink:href="#DejaVuSans-32"/>
      <use x="269.042969" xlink:href="#DejaVuSans-49"/>
      <use x="332.666016" xlink:href="#DejaVuSans-48"/>
      <use x="396.289062" xlink:href="#DejaVuSans-48"/>
      <use x="459.912109" xlink:href="#DejaVuSans-48"/>
      <use x="523.535156" xlink:href="#DejaVuSans-32"/>
      <use x="555.322266" xlink:href="#DejaVuSans-107"/>
      <use x="613.232422" xlink:href="#DejaVuSans-109"/>
     </g>
    </g>
   </g>
   <g id="matplotlib.axis_2">
    <g id="ytick_1">
     <g id="line2d_11">
      <path clip-path="url(#pd24f167f57)" d="M 60.114062 1869.899143 
L 2754.498063 1869.899143 
" style="fill:none;stroke:#b0b0b0;stroke-linecap:square;stroke-width:0.8;"/>
     </g>
     <g id="line2d_12">
      <defs>
       <path d="M 0 0 
L -3.5 0 
" id="m93c7110f69" style="stroke:#000000;stroke-width:0.8;"/>
      </defs>
      <g>
       <use style="stroke:#000000;stroke-width:0.8;" x="60.114062" xlink:href="#m93c7110f69" y="1869.899143"/>
      </g>
     </g>
     <g id="text_7">
      <!-- -150.0 -->
      <g transform="translate(20.878125 1873.698362)scale(0.1 -0.1)">
       <defs>
        <path d="M 4.890625 31.390625 
L 31.203125 31.390625 
L 31.203125 23.390625 
L 4.890625 23.390625 
z
" id="DejaVuSans-45"/>
        <path d="M 10.796875 72.90625 
L 49.515625 72.90625 
L 49.515625 64.59375 
L 19.828125 64.59375 
L 19.828125 46.734375 
Q 21.96875 47.46875 24.109375 47.828125 
Q 26.265625 48.1875 28.421875 48.1875 
Q 40.625 48.1875 47.75 41.5 
Q 54.890625 34.8125 54.890625 23.390625 
Q 54.890625 11.625 47.5625 5.09375 
Q 40.234375 -1.421875 26.90625 -1.421875 
Q 22.3125 -1.421875 17.546875 -0.640625 
Q 12.796875 0.140625 7.71875 1.703125 
L 7.71875 11.625 
Q 12.109375 9.234375 16.796875 8.0625 
Q 21.484375 6.890625 26.703125 6.890625 
Q 35.15625 6.890625 40.078125 11.328125 
Q 45.015625 15.765625 45.015625 23.390625 
Q 45.015625 31 40.078125 35.4375 
Q 35.15625 39.890625 26.703125 39.890625 
Q 22.75 39.890625 18.8125 39.015625 
Q 14.890625 38.140625 10.796875 36.28125 
z
" id="DejaVuSans-53"/>
       </defs>
       <use xlink:href="#DejaVuSans-45"/>
       <use x="36.083984" xlink:href="#DejaVuSans-49"/>
       <use x="99.707031" xlink:href="#DejaVuSans-53"/>
       <use x="163.330078" xlink:href="#DejaVuSans-48"/>
       <use x="226.953125" xlink:href="#DejaVuSans-46"/>
       <use x="258.740234" xlink:href="#DejaVuSans-48"/>
      </g>
     </g>
    </g>
    <g id="ytick_2">
     <g id="line2d_13">
      <path clip-path="url(#pd24f167f57)" d="M 60.114062 1594.962 
L 2754.498063 1594.962 
" style="fill:none;stroke:#b0b0b0;stroke-linecap:square;stroke-width:0.8;"/>
     </g>
     <g id="line2d_14">
      <g>
       <use style="stroke:#000000;stroke-width:0.8;" x="60.114062" xlink:href="#m93c7110f69" y="1594.962"/>
      </g>
     </g>
     <g id="text_8">
      <!-- -100.0 -->
      <g transform="translate(20.878125 1598.761219)scale(0.1 -0.1)">
       <use xlink:href="#DejaVuSans-45"/>
       <use x="36.083984" xlink:href="#DejaVuSans-49"/>
       <use x="99.707031" xlink:href="#DejaVuSans-48"/>
       <use x="163.330078" xlink:href="#DejaVuSans-48"/>
       <use x="226.953125" xlink:href="#DejaVuSans-46"/>
       <use x="258.740234" xlink:href="#DejaVuSans-48"/>
      </g>
     </g>
    </g>
    <g id="ytick_3">
     <g id="line2d_15">
      <path clip-path="url(#pd24f167f57)" d="M 60.114062 1320.024857 
L 2754.498063 1320.024857 
" style="fill:none;stroke:#b0b0b0;stroke-linecap:square;stroke-width:0.8;"/>
     </g>
     <g id="line2d_16">
      <g>
       <use style="stroke:#000000;stroke-width:0.8;" x="60.114062" xlink:href="#m93c7110f69" y="1320.024857"/>
      </g>
     </g>
     <g id="text_9">
      <!-- -50.0 -->
      <g transform="translate(27.240625 1323.824076)scale(0.1 -0.1)">
       <use xlink:href="#DejaVuSans-45"/>
       <use x="36.083984" xlink:href="#DejaVuSans-53"/>
       <use x="99.707031" xlink:href="#DejaVuSans-48"/>
       <use x="163.330078" xlink:href="#DejaVuSans-46"/>
       <use x="195.117188" xlink:href="#DejaVuSans-48"/>
      </g>
     </g>
    </g>
    <g id="ytick_4">
     <g id="line2d_17">
      <path clip-path="url(#pd24f167f57)" d="M 60.114062 1045.087714 
L 2754.498063 1045.087714 
" style="fill:none;stroke:#b0b0b0;stroke-linecap:square;stroke-width:0.8;"/>
     </g>
     <g id="line2d_18">
      <g>
       <use style="stroke:#000000;stroke-width:0.8;" x="60.114062" xlink:href="#m93c7110f69" y="1045.087714"/>
      </g>
     </g>
     <g id="text_10">
      <!-- 0.0 -->
      <g transform="translate(37.210937 1048.886933)scale(0.1 -0.1)">
       <use xlink:href="#DejaVuSans-48"/>
       <use x="63.623047" xlink:href="#DejaVuSans-46"/>
       <use x="95.410156" xlink:href="#DejaVuSans-48"/>
      </g>
     </g>
    </g>
    <g id="ytick_5">
     <g id="line2d_19">
      <path clip-path="url(#pd24f167f57)" d="M 60.114062 770.150571 
L 2754.498063 770.150571 
" style="fill:none;stroke:#b0b0b0;stroke-linecap:square;stroke-width:0.8;"/>
     </g>
     <g id="line2d_20">
      <g>
       <use style="stroke:#000000;stroke-width:0.8;" x="60.114062" xlink:href="#m93c7110f69" y="770.150571"/>
      </g>
     </g>
     <g id="text_11">
      <!-- 50.0 -->
      <g transform="translate(30.848437 773.94979)scale(0.1 -0.1)">
       <use xlink:href="#DejaVuSans-53"/>
       <use x="63.623047" xlink:href="#DejaVuSans-48"/>
       <use x="127.246094" xlink:href="#DejaVuSans-46"/>
       <use x="159.033203" xlink:href="#DejaVuSans-48"/>
      </g>
     </g>
    </g>
    <g id="ytick_6">
     <g id="line2d_21">
      <path clip-path="url(#pd24f167f57)" d="M 60.114062 495.213429 
L 2754.498063 495.213429 
" style="fill:none;stroke:#b0b0b0;stroke-linecap:square;stroke-width:0.8;"/>
     </g>
     <g id="line2d_22">
      <g>
       <use style="stroke:#000000;stroke-width:0.8;" x="60.114062" xlink:href="#m93c7110f69" y="495.213429"/>
      </g>
     </g>
     <g id="text_12">
      <!-- 100.0 -->
      <g transform="translate(24.485937 499.012647)scale(0.1 -0.1)">
       <use xlink:href="#DejaVuSans-49"/>
       <use x="63.623047" xlink:href="#DejaVuSans-48"/>
       <use x="127.246094" xlink:href="#DejaVuSans-48"/>
       <use x="190.869141" xlink:href="#DejaVuSans-46"/>
       <use x="222.65625" xlink:href="#DejaVuSans-48"/>
      </g>
     </g>
    </g>
    <g id="ytick_7">
     <g id="line2d_23">
      <path clip-path="url(#pd24f167f57)" d="M 60.114062 220.276286 
L 2754.498063 220.276286 
" style="fill:none;stroke:#b0b0b0;stroke-linecap:square;stroke-width:0.8;"/>
     </g>
     <g id="line2d_24">
      <g>
       <use style="stroke:#000000;stroke-width:0.8;" x="60.114062" xlink:href="#m93c7110f69" y="220.276286"/>
      </g>
     </g>
     <g id="text_13">
      <!-- 150.0 -->
      <g transform="translate(24.485937 224.075504)scale(0.1 -0.1)">
       <use xlink:href="#DejaVuSans-49"/>
       <use x="63.623047" xlink:href="#DejaVuSans-53"/>
       <use x="127.246094" xlink:href="#DejaVuSans-48"/>
       <use x="190.869141" xlink:href="#DejaVuSans-46"/>
       <use x="222.65625" xlink:href="#DejaVuSans-48"/>
      </g>
     </g>
    </g>
    <g id="text_14">
     <!-- Unit: 1000 km -->
     <g transform="translate(14.798437 1053.124469)rotate(-90)scale(0.1 -0.1)">
      <use xlink:href="#DejaVuSans-85"/>
      <use x="73.193359" xlink:href="#DejaVuSans-110"/>
      <use x="136.572266" xlink:href="#DejaVuSans-105"/>
      <use x="164.355469" xlink:href="#DejaVuSans-116"/>
      <use x="203.564453" xlink:href="#DejaVuSans-58"/>
      <use x="237.255859" xlink:href="#DejaVuSans-32"/>
      <use x="269.042969" xlink:href="#DejaVuSans-49"/>
      <use x="332.666016" xlink:href="#DejaVuSans-48"/>
      <use x="396.289062" xlink:href="#DejaVuSans-48"/>
      <use x="459.912109" xlink:href="#DejaVuSans-48"/>
      <use x="523.535156" xlink:href="#DejaVuSans-32"/>
      <use x="555.322266" xlink:href="#DejaVuSans-107"/>
      <use x="613.232422" xlink:href="#DejaVuSans-109"/>
     </g>
    </g>
   </g>
   <g id="line2d_25">
    <path clip-path="url(#pd24f167f57)" d="M 2368.122446 1045.087159 
L 2367.809028 1044.976073 
L 2367.22791 1044.528646 
L 2366.549057 1043.709993 
L 2365.791094 1042.412873 
L 2365.067476 1040.702621 
L 2364.414379 1038.549528 
L 2364.256258 1037.888469 
L 2364.256258 1037.888469 
" style="fill:none;stroke:#c0c0c0;stroke-linecap:square;stroke-width:1.5;"/>
   </g>
   <g id="line2d_26">
    <path clip-path="url(#pd24f167f57)" d="M 241.056773 1078.620709 
L 243.869633 1079.668296 
L 246.719131 1080.595478 
L 249.594924 1081.400857 
L 252.486735 1082.084713 
L 255.384649 1082.648895 
L 261.162607 1083.432318 
L 266.865694 1083.789181 
L 272.4471 1083.767769 
L 277.875904 1083.419528 
L 283.134495 1082.794073 
L 288.215339 1081.93639 
L 293.117935 1080.885702 
L 297.846387 1079.675368 
L 302.407528 1078.333295 
L 308.954007 1076.122745 
L 315.173332 1073.72889 
L 321.095676 1071.198132 
L 326.749253 1068.565367 
L 333.913065 1064.940986 
L 340.697265 1061.227333 
L 347.146878 1057.456757 
L 354.795816 1052.698029 
L 362.042846 1047.917499 
L 370.279259 1042.181535 
L 378.080039 1036.468776 
L 386.705631 1029.853502 
L 394.887761 1023.305693 
L 403.769534 1015.915943 
L 413.244951 1007.729112 
L 423.222205 998.79349 
L 433.623605 989.158829 
L 444.384541 978.874795 
L 455.452003 967.989852 
L 467.571398 955.744228 
L 479.843695 943.030711 
L 492.963069 929.128889 
L 507.490473 913.406652 
L 523.229931 896.039643 
L 540.622664 876.516389 
L 561.155729 853.120377 
L 586.502409 823.884578 
L 639.27523 762.560206 
L 671.635992 725.16953 
L 696.331577 696.965851 
L 718.07221 672.467401 
L 737.981085 650.35993 
L 757.026574 629.542751 
L 774.897406 610.332519 
L 792.453325 591.787327 
L 809.347734 574.263504 
L 826.001622 557.312535 
L 842.067437 541.275039 
L 857.945513 525.737319 
L 873.652711 510.679215 
L 889.20381 496.082345 
L 904.611859 481.929885 
L 919.534529 468.520755 
L 934.341269 455.507562 
L 949.040591 442.877994 
L 963.640089 430.620637 
L 978.146581 418.724843 
L 992.566159 407.1807 
L 1007.24474 395.716321 
L 1021.843242 384.601487 
L 1036.366407 373.827465 
L 1050.818483 363.386045 
L 1065.203293 353.269491 
L 1079.524269 343.470517 
L 1093.784483 333.982243 
L 1107.986702 324.798161 
L 1122.133406 315.912088 
L 1136.226805 307.318185 
L 1150.268889 299.010871 
L 1164.586252 290.801517 
L 1178.853411 282.881293 
L 1193.071852 275.245046 
L 1207.242876 267.88786 
L 1221.367634 260.805034 
L 1235.447116 253.992075 
L 1249.482173 247.444672 
L 1263.473538 241.158691 
L 1277.738332 234.996112 
L 1291.958604 229.098755 
L 1306.134781 223.462692 
L 1320.267199 218.084146 
L 1334.3561 212.959483 
L 1348.401632 208.085204 
L 1362.403884 203.457919 
L 1376.362849 199.074354 
L 1390.587212 194.841994 
L 1404.766155 190.857731 
L 1418.899474 187.118399 
L 1432.986918 183.620934 
L 1447.028178 180.362357 
L 1461.022902 177.339776 
L 1474.970678 174.550373 
L 1489.172721 171.938338 
L 1503.324769 169.564047 
L 1517.426268 167.424739 
L 1531.476623 165.517726 
L 1545.475201 163.840384 
L 1559.421338 162.390145 
L 1573.314347 161.164525 
L 1587.447369 160.142111 
L 1601.523436 159.348868 
L 1615.541728 158.782316 
L 1629.501403 158.440002 
L 1643.401603 158.319552 
L 1657.241444 158.418618 
L 1671.30642 158.743791 
L 1685.306582 159.292929 
L 1699.240941 160.063682 
L 1713.108479 161.053742 
L 1726.90819 162.260831 
L 1740.63903 163.682713 
L 1754.299958 165.317192 
L 1768.166517 167.20193 
L 1781.958057 169.303506 
L 1795.673429 171.619686 
L 1809.311488 174.148278 
L 1822.871085 176.887097 
L 1836.35105 179.834011 
L 1849.750227 182.986902 
L 1863.332941 186.412877 
L 1876.829138 190.048789 
L 1890.237564 193.892471 
L 1903.556971 197.941789 
L 1916.786105 202.194616 
L 1929.923707 206.648872 
L 1942.968523 211.30248 
L 1956.172286 216.250469 
L 1969.276956 221.401422 
L 1982.281191 226.753216 
L 1995.183667 232.303741 
L 2007.983058 238.050906 
L 2020.678033 243.992644 
L 2033.267267 250.126904 
L 2045.988422 256.575137 
L 2058.596962 263.219125 
L 2071.091491 270.056757 
L 2083.470613 277.085932 
L 2095.732947 284.304582 
L 2107.877102 291.710641 
L 2119.901704 299.302074 
L 2131.805366 307.076862 
L 2143.586714 315.033004 
L 2155.244384 323.168504 
L 2166.993383 331.639949 
L 2178.611121 340.293491 
L 2190.096159 349.127095 
L 2201.447049 358.138743 
L 2212.66235 367.326439 
L 2223.740629 376.688208 
L 2234.680439 386.222104 
L 2245.480349 395.926197 
L 2256.138909 405.798591 
L 2266.654677 415.837409 
L 2277.026202 426.040811 
L 2287.440008 436.600459 
L 2297.701118 447.32706 
L 2307.807978 458.218766 
L 2317.759014 469.273758 
L 2327.552633 480.490259 
L 2337.187228 491.866525 
L 2346.661171 503.400875 
L 2355.972797 515.091659 
L 2365.120423 526.937282 
L 2374.102312 538.936199 
L 2382.916687 551.08693 
L 2391.561733 563.388058 
L 2400.035555 575.838218 
L 2408.336193 588.436124 
L 2416.315463 600.947551 
L 2424.123815 613.599157 
L 2431.759133 626.389959 
L 2439.219195 639.319032 
L 2446.501636 652.385557 
L 2453.603939 665.588792 
L 2460.52342 678.928099 
L 2467.134195 692.152169 
L 2473.563127 705.506355 
L 2479.807021 718.990317 
L 2485.862402 732.603786 
L 2491.616666 746.086082 
L 2497.1819 759.692738 
L 2502.452335 773.158428 
L 2507.532343 786.743567 
L 2512.417008 800.448045 
L 2517.011054 813.999483 
L 2521.406567 827.665156 
L 2525.515624 841.16788 
L 2529.344151 854.500264 
L 2532.971529 867.935782 
L 2536.32172 881.189952 
L 2539.465352 894.539778 
L 2542.334926 907.695806 
L 2544.936744 920.649299 
L 2547.328323 933.681721 
L 2549.456606 946.496613 
L 2551.370416 959.377732 
L 2553.027357 972.024433 
L 2554.467737 984.722378 
L 2555.686511 997.464378 
L 2556.658898 1009.944979 
L 2557.412643 1022.45204 
L 2557.945582 1034.97711 
L 2558.256612 1047.511472 
L 2558.345758 1060.046318 
L 2558.214135 1072.572955 
L 2557.863925 1085.082985 
L 2557.282175 1097.865374 
L 2556.478803 1110.614154 
L 2555.458759 1123.3222 
L 2554.196412 1136.277024 
L 2552.719175 1149.176695 
L 2550.992812 1162.307292 
L 2549.009954 1175.66001 
L 2546.8138 1188.938429 
L 2544.356956 1202.425531 
L 2541.691996 1215.829212 
L 2538.762557 1229.429885 
L 2535.56247 1243.220314 
L 2532.15717 1256.914911 
L 2528.47717 1270.789235 
L 2524.595783 1284.562068 
L 2520.434912 1298.505258 
L 2516.075399 1312.341871 
L 2511.430808 1326.339696 
L 2506.58927 1340.226034 
L 2501.554967 1354.00055 
L 2496.229457 1367.924544 
L 2490.711391 1381.731607 
L 2485.004169 1395.421271 
L 2478.997969 1409.247943 
L 2472.801727 1422.951552 
L 2466.418297 1436.531379 
L 2459.850324 1449.986622 
L 2453.100293 1463.316399 
L 2446.040528 1476.763064 
L 2438.796655 1490.077478 
L 2431.370878 1503.258476 
L 2423.765313 1516.304804 
L 2415.981969 1529.215159 
L 2408.022797 1541.988145 
L 2399.889667 1554.622332 
L 2391.584388 1567.116207 
L 2383.108725 1579.468225 
L 2374.464404 1591.676782 
L 2365.653109 1603.740215 
L 2356.676488 1615.656832 
L 2347.53617 1627.424895 
L 2338.233765 1639.042623 
L 2328.770857 1650.508211 
L 2319.149009 1661.819801 
L 2309.369791 1672.975524 
L 2299.434745 1683.973466 
L 2289.34541 1694.811686 
L 2279.10333 1705.488222 
L 2268.710036 1716.001087 
L 2258.167049 1726.348258 
L 2247.475914 1736.527712 
L 2236.638145 1746.537387 
L 2225.655286 1756.375199 
L 2214.528871 1766.039058 
L 2203.466572 1775.355919 
L 2192.268827 1784.501032 
L 2180.937101 1793.472352 
L 2169.472865 1802.267828 
L 2157.877589 1810.885397 
L 2146.152752 1819.322965 
L 2134.299843 1827.578431 
L 2122.320353 1835.649684 
L 2110.215778 1843.534595 
L 2097.987624 1851.23101 
L 2085.867207 1858.599523 
L 2073.630635 1865.782322 
L 2061.279348 1872.777333 
L 2048.814786 1879.582473 
L 2036.238408 1886.195641 
L 2023.55167 1892.614719 
L 2010.75603 1898.837569 
L 1997.85296 1904.862058 
L 1985.090361 1910.577996 
L 1972.227163 1916.098838 
L 1959.264762 1921.422506 
L 1946.204561 1926.546911 
L 1933.047977 1931.469941 
L 1919.796414 1936.189474 
L 1906.451284 1940.703359 
L 1893.273271 1944.928598 
L 1880.007961 1948.951869 
L 1866.656684 1952.771103 
L 1853.22078 1956.38419 
L 1839.701593 1959.789006 
L 1826.100453 1962.983396 
L 1812.418712 1965.965199 
L 1798.928266 1968.680039 
L 1785.362884 1971.186333 
L 1771.723819 1973.481959 
L 1758.012313 1975.564773 
L 1744.229626 1977.432602 
L 1730.376984 1979.083231 
L 1716.45563 1980.514428 
L 1702.747215 1981.701925 
L 1688.975135 1982.674323 
L 1675.140529 1983.429427 
L 1661.244524 1983.964993 
L 1647.288241 1984.278746 
L 1633.272782 1984.368375 
L 1619.487037 1984.236582 
L 1605.646581 1983.885201 
L 1591.752407 1983.311919 
L 1577.8055 1982.514397 
L 1563.806833 1981.49024 
L 1549.757358 1980.237005 
L 1535.657993 1978.75219 
L 1521.8049 1977.071461 
L 1507.905679 1975.163804 
L 1493.961125 1973.026707 
L 1479.972015 1970.657601 
L 1465.939097 1968.053847 
L 1451.863091 1965.21274 
L 1438.045503 1962.199583 
L 1424.187901 1958.953736 
L 1410.290846 1955.472443 
L 1396.354882 1951.752879 
L 1382.380487 1947.792135 
L 1368.368101 1943.587208 
L 1354.318125 1939.135007 
L 1340.537533 1934.537245 
L 1326.721552 1929.696696 
L 1312.870394 1924.610166 
L 1298.984199 1919.274346 
L 1285.063048 1913.685814 
L 1271.106947 1907.841029 
L 1257.11582 1901.736314 
L 1243.401586 1895.512254 
L 1229.653487 1889.032316 
L 1215.871185 1882.292644 
L 1202.054268 1875.289214 
L 1188.202198 1868.017836 
L 1174.31432 1860.474144 
L 1160.389859 1852.653562 
L 1146.427891 1844.551318 
L 1132.745979 1836.356295 
L 1119.026077 1827.882594 
L 1105.266848 1819.125093 
L 1091.466796 1810.078402 
L 1077.624217 1800.736857 
L 1063.73718 1791.094487 
L 1049.803514 1781.145007 
L 1035.820788 1770.881763 
L 1022.113264 1760.547574 
L 1008.353468 1749.900407 
L 994.538229 1738.932912 
L 980.663987 1727.637273 
L 966.726786 1716.005194 
L 952.722197 1704.027821 
L 938.645289 1691.695697 
L 924.490541 1678.998699 
L 910.251782 1665.925982 
L 895.922102 1652.465873 
L 881.493742 1638.605786 
L 866.957986 1624.332127 
L 852.305007 1609.630155 
L 837.523705 1594.483835 
L 822.601513 1578.875681 
L 807.52412 1562.786541 
L 791.909906 1545.794028 
L 776.095775 1528.250322 
L 760.058477 1510.127643 
L 743.388939 1490.951805 
L 726.034037 1470.640455 
L 707.92836 1449.099317 
L 688.990332 1426.21923 
L 668.275605 1400.835125 
L 645.121383 1372.099129 
L 616.381797 1336.05758 
L 544.667677 1245.951935 
L 524.161908 1220.651813 
L 507.200046 1200.061594 
L 491.790396 1181.698839 
L 478.204608 1165.837886 
L 465.282106 1151.08499 
L 453.1354 1137.555971 
L 441.901028 1125.370218 
L 430.868196 1113.7419 
L 420.999086 1103.651723 
L 411.527573 1094.268624 
L 402.526988 1085.646112 
L 394.084356 1077.837369 
L 385.155101 1069.893143 
L 376.874973 1062.834775 
L 369.372373 1056.711848 
L 361.433607 1050.53258 
L 354.431503 1045.353029 
L 347.020984 1040.163931 
L 340.753886 1036.02324 
L 334.14057 1031.913546 
L 327.130156 1027.864398 
L 323.457277 1025.875393 
L 323.457277 1025.875393 
" style="fill:none;stroke:#0000ff;stroke-linecap:square;stroke-width:1.5;"/>
   </g>
   <g id="line2d_27">
    <path clip-path="url(#pd24f167f57)" d="M 2368.122446 1045.087159 
L 2367.809028 1044.976073 
L 2367.22791 1044.528646 
L 2366.549057 1043.709993 
L 2365.791094 1042.412873 
L 2365.067476 1040.702621 
L 2364.414379 1038.549528 
L 2364.256258 1037.888469 
L 2364.256258 1037.888469 
" style="fill:none;stroke:#c0c0c0;stroke-linecap:square;stroke-width:1.5;"/>
   </g>
   <g id="line2d_28">
    <path clip-path="url(#pd24f167f57)" d="M 239.894613 1078.13479 
L 242.669081 1079.279909 
L 245.48436 1080.305975 
L 248.33018 1081.211222 
L 251.196246 1081.995584 
L 254.072588 1082.660558 
L 259.819462 1083.645147 
L 265.506405 1084.200822 
L 271.084951 1084.374203 
L 276.522394 1084.215608 
L 281.799405 1083.774015 
L 286.906885 1083.094118 
L 291.842958 1082.215105 
L 296.610555 1081.170437 
L 301.215538 1079.988268 
L 307.834826 1078.007363 
L 314.133537 1075.831829 
L 320.140193 1073.509094 
L 325.881782 1071.075009 
L 333.167111 1067.702537 
L 340.076127 1064.227584 
L 346.652706 1060.684057 
L 354.462136 1056.194746 
L 361.870603 1051.669622 
L 370.300935 1046.22409 
L 378.295013 1040.786559 
L 387.144602 1034.475784 
L 395.548561 1028.216977 
L 404.680796 1021.141107 
L 414.433779 1013.289331 
L 424.714053 1004.706717 
L 435.442216 995.440291 
L 446.551942 985.537445 
L 457.988557 975.044788 
L 470.523178 963.229007 
L 483.226461 950.951024 
L 496.81694 937.515104 
L 511.876891 922.309111 
L 528.20427 905.501819 
L 546.257429 886.59752 
L 567.581174 863.932797 
L 593.914599 835.600524 
L 647.265822 777.768827 
L 681.900176 740.426215 
L 707.557591 713.080615 
L 730.1301 689.339067 
L 750.786903 667.925818 
L 770.534319 647.773635 
L 789.458369 628.782643 
L 807.628711 610.865864 
L 825.102507 593.94681 
L 842.315645 577.591998 
L 858.909426 562.129593 
L 875.297891 547.160206 
L 891.498595 532.664277 
L 907.526963 518.623941 
L 923.396621 505.022812 
L 938.755572 492.147571 
L 953.984637 479.664029 
L 969.092746 467.560174 
L 984.087912 455.824845 
L 999.330581 444.181053 
L 1014.118361 433.160462 
L 1029.16153 422.228747 
L 1044.112403 411.643375 
L 1058.976016 401.395786 
L 1073.75689 391.477929 
L 1088.459121 381.882221 
L 1103.086371 372.601509 
L 1117.641967 363.629012 
L 1132.128883 354.958336 
L 1146.549815 346.583393 
L 1160.907186 338.498421 
L 1175.203159 330.697927 
L 1189.770071 323.005053 
L 1204.276618 315.599231 
L 1218.724449 308.475362 
L 1233.115044 301.628581 
L 1247.449717 295.054234 
L 1261.729611 288.747869 
L 1275.955733 282.705201 
L 1290.128952 276.922141 
L 1304.570361 271.272061 
L 1318.957909 265.885339 
L 1333.292164 260.75808 
L 1347.573593 255.886524 
L 1361.802563 251.267052 
L 1375.979356 246.896167 
L 1390.104175 242.770494 
L 1404.177129 238.886759 
L 1418.509278 235.163505 
L 1432.78727 231.686491 
L 1447.011028 228.452559 
L 1461.180414 225.458631 
L 1475.295225 222.701721 
L 1489.355202 220.178941 
L 1503.360049 217.887467 
L 1517.612048 215.782229 
L 1531.805711 213.912761 
L 1545.940587 212.27628 
L 1560.016176 210.870092 
L 1574.031944 209.691547 
L 1587.987318 208.738081 
L 1601.881701 208.007172 
L 1616.008109 207.48787 
L 1630.069549 207.195563 
L 1644.065296 207.127752 
L 1657.994602 207.281976 
L 1671.85669 207.655824 
L 1685.65076 208.246939 
L 1699.661216 209.072069 
L 1713.599055 210.118782 
L 1727.463376 211.384709 
L 1741.253267 212.867505 
L 1754.96778 214.564879 
L 1768.605971 216.474587 
L 1782.166877 218.594396 
L 1795.923858 220.971778 
L 1809.598307 223.563368 
L 1823.189171 226.366908 
L 1836.695381 229.380186 
L 1850.115866 232.601003 
L 1863.449542 236.027198 
L 1876.695331 239.656649 
L 1890.114354 243.565892 
L 1903.439639 247.682196 
L 1916.67001 252.003394 
L 1929.804296 256.527325 
L 1942.841326 261.251867 
L 1955.779923 266.174914 
L 1968.618905 271.294392 
L 1981.605846 276.714371 
L 1994.486745 282.334262 
L 2007.260352 288.151937 
L 2019.925414 294.165296 
L 2032.480677 300.372244 
L 2044.924888 306.770725 
L 2057.256797 313.358697 
L 2069.475152 320.134138 
L 2081.810328 327.230722 
L 2094.024928 334.517892 
L 2106.117615 341.993576 
L 2118.08708 349.655728 
L 2129.932005 357.502335 
L 2141.651074 365.531385 
L 2153.242963 373.740915 
L 2164.706362 382.128972 
L 2176.039959 390.693632 
L 2187.452534 399.599561 
L 2198.727596 408.68487 
L 2209.863749 417.947618 
L 2220.859607 427.38588 
L 2231.713757 436.997782 
L 2242.424797 446.781464 
L 2252.991313 456.735112 
L 2263.411881 466.856962 
L 2273.685067 477.145269 
L 2283.809424 487.598346 
L 2293.783489 498.214543 
L 2303.605789 508.992272 
L 2313.274812 519.929975 
L 2322.789028 531.026174 
L 2332.146876 542.279434 
L 2341.346768 553.688391 
L 2350.387053 565.251752 
L 2359.266038 576.968303 
L 2367.981986 588.836894 
L 2376.53307 600.856481 
L 2384.917393 613.026111 
L 2393.132966 625.344917 
L 2401.177698 637.812168 
L 2408.905181 650.192268 
L 2416.463714 662.714286 
L 2423.850901 675.377869 
L 2431.064163 688.182797 
L 2438.100717 701.129004 
L 2444.957523 714.216562 
L 2451.507054 727.194777 
L 2457.876908 740.309647 
L 2464.063268 753.561678 
L 2469.948347 766.692714 
L 2475.648416 779.957029 
L 2481.052333 793.091453 
L 2486.268435 806.355614 
L 2491.192366 819.481201 
L 2495.924156 832.73299 
L 2500.366447 845.837325 
L 2504.5242 858.787007 
L 2508.484428 871.853901 
L 2512.161162 884.755958 
L 2515.55905 897.485059 
L 2518.682875 910.032695 
L 2521.601707 922.678456 
L 2524.247449 935.128655 
L 2526.625913 947.373206 
L 2528.792726 959.695905 
L 2530.696017 971.794971 
L 2532.382646 983.956293 
L 2533.813012 995.873614 
L 2535.025535 1007.834683 
L 2536.015897 1019.830498 
L 2536.781036 1031.851377 
L 2537.319258 1043.887229 
L 2537.630344 1055.927771 
L 2537.715525 1067.962864 
L 2537.577435 1079.98272 
L 2537.219934 1091.978195 
L 2536.630926 1104.239506 
L 2535.822704 1116.458411 
L 2534.774572 1128.924138 
L 2533.511236 1141.331831 
L 2532.003068 1153.96946 
L 2530.24358 1166.827863 
L 2528.226883 1179.898254 
L 2525.999332 1192.884657 
L 2523.513037 1206.070719 
L 2520.76273 1219.449089 
L 2517.743195 1233.012717 
L 2514.518523 1246.475394 
L 2511.022428 1260.114245 
L 2507.326728 1273.647806 
L 2503.356179 1287.349265 
L 2499.104689 1301.21241 
L 2494.65515 1314.962473 
L 2489.919611 1328.866099 
L 2484.988069 1342.65286 
L 2479.86478 1356.323005 
L 2474.449635 1370.136177 
L 2468.842985 1383.828365 
L 2463.048195 1397.399482 
L 2456.953746 1411.101921 
L 2450.670184 1424.678086 
L 2444.200258 1438.1275 
L 2437.546549 1451.449562 
L 2430.711452 1464.643548 
L 2423.697217 1477.708649 
L 2416.371154 1490.882246 
L 2408.863594 1503.920101 
L 2401.176577 1516.821048 
L 2393.312044 1529.583839 
L 2385.271875 1542.207144 
L 2377.057875 1554.689548 
L 2368.671803 1567.029591 
L 2360.115363 1579.225725 
L 2351.390222 1591.276358 
L 2342.498023 1603.179844 
L 2333.440373 1614.934473 
L 2324.218855 1626.538509 
L 2314.835036 1637.990152 
L 2305.290466 1649.287578 
L 2295.586687 1660.428916 
L 2285.725219 1671.412254 
L 2275.707587 1682.235666 
L 2265.535298 1692.897178 
L 2255.209874 1703.39479 
L 2244.732817 1713.726477 
L 2234.105639 1723.890188 
L 2223.329846 1733.883851 
L 2212.606852 1743.528338 
L 2201.743491 1753.004866 
L 2190.7412 1762.311405 
L 2179.601412 1771.445912 
L 2168.325574 1780.406311 
L 2156.915144 1789.190531 
L 2145.371567 1797.796454 
L 2133.696306 1806.221968 
L 2121.890835 1814.464936 
L 2109.956617 1822.523201 
L 2098.119649 1830.250534 
L 2086.161489 1837.795783 
L 2074.083555 1845.156862 
L 2061.887256 1852.331671 
L 2049.57402 1859.318093 
L 2037.145277 1866.114006 
L 2024.602458 1872.717254 
L 2011.947008 1879.125676 
L 1999.180362 1885.337089 
L 1986.547941 1891.237724 
L 1973.811252 1896.944501 
L 1960.971682 1902.455324 
L 1948.030616 1907.768056 
L 1934.989429 1912.880561 
L 1921.849523 1917.790669 
L 1908.612284 1922.496202 
L 1895.536411 1926.910406 
L 1882.369578 1931.123608 
L 1869.113093 1935.133682 
L 1855.768287 1938.938504 
L 1842.336475 1942.535897 
L 1828.818976 1945.923678 
L 1815.21711 1949.099648 
L 1801.801316 1952.005552 
L 1788.306939 1954.703576 
L 1774.735205 1957.191576 
L 1761.087359 1959.467346 
L 1747.364625 1961.528693 
L 1733.568218 1963.373356 
L 1719.699366 1964.999059 
L 1706.038768 1966.3776 
L 1692.310881 1967.541425 
L 1678.516828 1968.488303 
L 1664.65772 1969.215952 
L 1650.734661 1969.72205 
L 1636.748746 1970.004257 
L 1622.988345 1970.061295 
L 1609.169664 1969.89889 
L 1595.293674 1969.514693 
L 1581.36135 1968.906323 
L 1567.373642 1968.071344 
L 1553.331486 1967.007277 
L 1539.529993 1965.740955 
L 1525.677995 1964.250125 
L 1511.776315 1962.532296 
L 1497.82573 1960.584916 
L 1483.827003 1958.405385 
L 1469.78086 1955.991013 
L 1455.688011 1953.339074 
L 1441.850408 1950.510801 
L 1427.969288 1947.449552 
L 1414.045195 1944.152528 
L 1400.078647 1940.616875 
L 1386.070116 1936.839629 
L 1372.020014 1932.81776 
L 1357.928721 1928.548129 
L 1344.10421 1924.128465 
L 1330.240829 1919.465471 
L 1316.33877 1914.555907 
L 1302.398143 1909.396437 
L 1288.419013 1903.98359 
L 1274.40136 1898.313781 
L 1260.657873 1892.517941 
L 1246.877287 1886.469258 
L 1233.059353 1880.163976 
L 1219.20372 1873.598208 
L 1205.309931 1866.767878 
L 1191.37743 1859.668759 
L 1177.405543 1852.296435 
L 1163.393454 1844.646293 
L 1149.660074 1836.896975 
L 1135.886355 1828.873 
L 1122.071127 1820.569442 
L 1108.213025 1811.981126 
L 1094.310509 1803.102614 
L 1080.361848 1793.928187 
L 1066.365073 1784.451841 
L 1052.317968 1774.667224 
L 1038.546587 1764.806136 
L 1024.72223 1754.637959 
L 1010.842023 1744.155706 
L 996.902732 1733.351968 
L 982.900755 1722.218884 
L 968.832084 1710.748094 
L 954.692243 1698.930674 
L 940.476233 1686.7571 
L 926.178462 1674.217184 
L 911.792695 1661.299994 
L 897.311932 1647.993757 
L 882.728331 1634.285798 
L 868.033073 1620.162403 
L 853.216215 1605.608715 
L 838.266535 1590.608552 
L 823.17131 1575.144267 
L 807.91607 1559.196521 
L 792.484294 1542.744052 
L 776.482408 1525.352419 
L 760.252142 1507.379102 
L 743.766174 1488.792768 
L 726.598725 1469.102836 
L 708.687208 1448.218622 
L 689.953893 1426.035368 
L 669.45177 1401.40392 
L 646.964859 1374.03208 
L 619.880312 1340.697199 
L 530.70131 1230.622788 
L 511.584441 1207.571524 
L 495.070578 1188.004583 
L 480.252081 1170.789795 
L 466.697537 1155.383401 
L 454.630013 1141.983383 
L 442.66879 1129.034481 
L 431.699491 1117.484603 
L 420.983051 1106.533026 
L 411.540583 1097.180682 
L 402.574168 1088.579372 
L 393.086527 1079.797924 
L 384.137367 1071.839269 
L 375.836855 1064.759687 
L 368.312925 1058.6108 
L 360.347061 1052.39699 
L 353.315621 1047.181003 
L 345.866562 1041.947569 
L 339.559135 1037.76522 
L 332.89357 1033.608236 
L 325.814346 1029.50663 
L 320.192992 1026.493165 
L 314.266573 1023.563171 
L 307.995378 1020.754771 
L 303.600992 1018.975719 
L 299.019005 1017.295171 
L 294.234658 1015.739829 
L 289.233777 1014.343479 
L 284.004451 1013.148657 
L 278.539778 1012.208311 
L 272.842217 1011.586794 
L 269.910892 1011.418686 
L 266.929661 1011.359069 
L 263.904407 1011.418257 
L 260.842888 1011.606408 
L 257.754888 1011.933022 
L 254.652205 1012.40642 
L 251.548512 1013.033112 
L 248.458977 1013.81721 
L 245.399702 1014.759953 
L 242.387012 1015.859383 
L 239.436618 1017.110309 
L 236.562859 1018.504542 
L 233.778004 1020.031367 
L 231.091841 1021.678241 
L 228.511451 1023.431493 
L 226.041268 1025.277058 
L 223.683264 1027.201101 
L 221.43733 1029.190475 
L 217.273099 1033.317963 
L 213.520674 1037.577328 
L 210.141928 1041.906054 
L 207.095981 1046.258903 
L 204.343437 1050.604257 
L 201.848405 1054.920687 
L 199.579183 1059.194052 
L 196.539616 1065.504733 
L 193.869949 1071.682808 
L 191.508893 1077.722605 
L 189.40768 1083.624422 
L 186.943936 1091.28532 
L 184.801081 1098.720143 
L 182.923728 1105.943467 
L 180.885762 1114.697526 
L 179.131399 1123.171144 
L 177.33221 1133.003749 
L 175.806881 1142.505219 
L 174.309348 1153.214515 
L 172.899762 1165.010968 
L 171.622766 1177.781568 
L 170.508963 1191.423251 
L 169.577036 1205.843748 
L 168.836152 1220.961463 
L 168.288081 1236.704804 
L 167.911104 1254.152398 
L 167.736832 1273.114708 
L 167.780074 1293.42057 
L 168.058426 1315.91927 
L 168.607074 1341.301198 
L 169.461601 1370.104031 
L 170.740763 1405.291537 
L 172.841513 1456.23762 
L 173.704107 1476.509885 
L 173.704107 1476.509885 
" style="fill:none;stroke:#ffff00;stroke-linecap:square;stroke-width:1.5;"/>
   </g>
   <g id="line2d_29">
    <path clip-path="url(#pd24f167f57)" d="M 2368.122446 1045.087159 
L 2367.809028 1044.976073 
L 2367.22791 1044.528646 
L 2366.549057 1043.709993 
L 2365.791094 1042.412873 
L 2365.067476 1040.702621 
L 2364.414379 1038.549528 
L 2364.256258 1037.888469 
L 2364.256258 1037.888469 
" style="fill:none;stroke:#c0c0c0;stroke-linecap:square;stroke-width:1.5;"/>
   </g>
   <g id="line2d_30">
    <path clip-path="url(#pd24f167f57)" d="M 238.750116 1077.608616 
L 241.482815 1078.849863 
L 244.260456 1079.973548 
L 247.072826 1080.977564 
L 249.909655 1081.86147 
L 252.760924 1082.626422 
L 258.469708 1083.810978 
L 264.133572 1084.564778 
L 269.702463 1084.932732 
L 275.141924 1084.963982 
L 280.430933 1084.706783 
L 285.55883 1084.205502 
L 290.522375 1083.499227 
L 295.323316 1082.621506 
L 299.966543 1081.600676 
L 306.650589 1079.851828 
L 313.021031 1077.89725 
L 319.104714 1075.785359 
L 324.927338 1073.552919 
L 332.325347 1070.436446 
L 339.350804 1067.204406 
L 346.046382 1063.892222 
L 354.00684 1059.677765 
L 361.567777 1055.413512 
L 370.181816 1050.265001 
L 378.359524 1045.109264 
L 387.422404 1039.110597 
L 396.038032 1033.148338 
L 405.409693 1026.39487 
L 415.428452 1018.88759 
L 425.999329 1010.668289 
L 437.041305 1001.78121 
L 448.48641 992.27142 
L 460.278371 982.183603 
L 473.213091 970.811774 
L 486.332025 958.983978 
L 500.377211 946.029957 
L 515.951542 931.358283 
L 532.847134 915.130635 
L 551.538928 896.867671 
L 573.627598 874.960987 
L 600.915956 847.565563 
L 655.182263 792.674038 
L 691.612638 756.010697 
L 718.668224 729.095726 
L 742.032415 706.159584 
L 763.841128 685.061743 
L 784.247688 665.630676 
L 803.792299 647.330211 
L 822.547411 630.075981 
L 840.572664 613.793642 
L 858.31807 598.065638 
L 875.414244 583.207105 
L 892.288225 568.833754 
L 908.958181 554.926675 
L 925.440118 541.468573 
L 941.748202 528.443574 
L 957.89498 515.83708 
L 973.521252 503.914843 
L 989.013614 492.367334 
L 1004.380417 481.183705 
L 1019.990853 470.10023 
L 1035.484782 459.37744 
L 1050.868725 449.005848 
L 1066.148549 438.976565 
L 1081.32955 429.281236 
L 1096.416506 419.912011 
L 1111.413738 410.861465 
L 1126.325147 402.122604 
L 1141.154261 393.688803 
L 1155.904276 385.553776 
L 1170.578067 377.711568 
L 1185.178241 370.156504 
L 1199.707152 362.883196 
L 1214.502388 355.727038 
L 1229.227268 348.855254 
L 1243.883617 342.262817 
L 1258.473091 335.944932 
L 1272.997135 329.897002 
L 1287.457052 324.114628 
L 1301.853998 318.593583 
L 1316.188985 313.329812 
L 1330.786591 308.208448 
L 1345.321137 303.348087 
L 1359.793317 298.744853 
L 1374.203735 294.395028 
L 1388.552886 290.295001 
L 1402.84116 286.441311 
L 1417.068882 282.830589 
L 1431.236283 279.459591 
L 1445.656341 276.258167 
L 1460.013641 273.300696 
L 1474.308206 270.584004 
L 1488.540008 268.105033 
L 1502.708949 265.860804 
L 1516.81489 263.848418 
L 1531.162188 262.028812 
L 1545.443243 260.445378 
L 1559.657724 259.095266 
L 1573.805291 257.975694 
L 1587.885531 257.083963 
L 1601.898011 256.417427 
L 1615.842256 255.973508 
L 1629.717756 255.749677 
L 1643.816973 255.745679 
L 1657.84332 255.966096 
L 1671.796177 256.408404 
L 1685.674872 257.070139 
L 1699.478734 257.948877 
L 1713.207044 259.042258 
L 1727.142679 260.377386 
L 1740.998032 261.931336 
L 1754.772294 263.701722 
L 1768.464626 265.686196 
L 1782.07418 267.882449 
L 1795.600092 270.288226 
L 1809.041488 272.901289 
L 1822.669149 275.779078 
L 1836.206928 278.868124 
L 1849.653845 282.166154 
L 1863.008928 285.670954 
L 1876.271191 289.380312 
L 1889.439636 293.292074 
L 1902.513254 297.4041 
L 1915.749614 301.802489 
L 1928.885192 306.404838 
L 1941.918906 311.208969 
L 1954.849668 316.212726 
L 1967.676387 321.413987 
L 1980.397965 326.810667 
L 1993.013307 332.400695 
L 2005.521309 338.182024 
L 2018.162908 344.27159 
L 2030.6906 350.555834 
L 2043.10322 357.032665 
L 2055.399586 363.700029 
L 2067.578526 370.555894 
L 2079.638875 377.598266 
L 2091.579444 384.825159 
L 2103.399064 392.234633 
L 2115.320311 399.97248 
L 2127.113442 407.895998 
L 2138.777211 416.003213 
L 2150.310368 424.292177 
L 2161.711665 432.760995 
L 2172.979848 441.407784 
L 2184.113664 450.230715 
L 2195.111848 459.227978 
L 2205.973135 468.397825 
L 2216.69625 477.738523 
L 2227.279923 487.248406 
L 2237.72286 496.925836 
L 2248.216743 506.956549 
L 2258.561787 517.157944 
L 2268.756588 527.528452 
L 2278.799712 538.066594 
L 2288.689701 548.770942 
L 2298.425077 559.640159 
L 2308.004316 570.672979 
L 2317.425857 581.868227 
L 2326.688082 593.22483 
L 2335.789321 604.741815 
L 2344.563797 616.200651 
L 2353.179793 627.812473 
L 2361.635507 639.57672 
L 2369.929019 651.492974 
L 2378.058295 663.560955 
L 2386.021151 675.78058 
L 2393.815234 688.151921 
L 2401.437998 700.67527 
L 2408.747735 713.11055 
L 2415.886973 725.69334 
L 2422.852495 738.424574 
L 2429.511879 751.056308 
L 2435.996948 763.833357 
L 2442.181532 776.502516 
L 2448.189937 789.314691 
L 2453.902268 802.011338 
L 2459.434905 814.849407 
L 2464.674311 827.564815 
L 2469.728403 840.42042 
L 2474.49016 853.146287 
L 2478.963305 865.735752 
L 2483.151307 878.181914 
L 2487.057427 890.477488 
L 2490.684821 902.614753 
L 2494.036674 914.585423 
L 2497.188976 926.669614 
L 2500.062867 938.573788 
L 2502.6622 950.287243 
L 2504.991698 961.798548 
L 2507.108687 973.393967 
L 2508.957529 984.766313 
L 2510.546605 995.90213 
L 2511.920246 1007.091055 
L 2513.072579 1018.323139 
L 2513.977199 1029.282678 
L 2514.665779 1040.262023 
L 2515.137637 1051.250183 
L 2515.397876 1062.541252 
L 2515.433244 1073.818668 
L 2515.248344 1085.071779 
L 2514.835427 1096.593663 
L 2514.204039 1108.070749 
L 2513.337629 1119.795268 
L 2512.229011 1131.756029 
L 2510.872197 1143.942304 
L 2509.262137 1156.344009 
L 2507.440382 1168.659599 
L 2505.366872 1181.176965 
L 2503.037632 1193.88837 
L 2500.448785 1206.786617 
L 2497.596433 1219.864998 
L 2494.476535 1233.117188 
L 2491.084844 1246.537172 
L 2487.49372 1259.843118 
L 2483.629571 1273.310139 
L 2479.487077 1286.932603 
L 2475.14935 1300.435993 
L 2470.529493 1314.088211 
L 2465.717477 1327.619292 
L 2460.618042 1341.29213 
L 2455.327965 1354.841176 
L 2449.744003 1368.524187 
L 2443.969713 1382.079985 
L 2438.008421 1395.508965 
L 2431.863152 1408.811309 
L 2425.415574 1422.234412 
L 2418.782567 1435.52589 
L 2411.966617 1448.685405 
L 2404.970044 1461.71246 
L 2397.795015 1474.606407 
L 2390.443575 1487.366493 
L 2382.917671 1499.991815 
L 2375.074968 1512.711386 
L 2367.055074 1525.288974 
L 2358.859786 1537.723315 
L 2350.490853 1550.013071 
L 2341.949969 1562.156803 
L 2333.238778 1574.153019 
L 2324.358903 1586.000138 
L 2315.311925 1597.696525 
L 2306.099403 1609.240487 
L 2296.722881 1620.630275 
L 2287.183882 1631.864091 
L 2277.483918 1642.940082 
L 2267.624479 1653.856368 
L 2257.607068 1664.611013 
L 2247.433162 1675.202048 
L 2237.293425 1685.43942 
L 2227.005673 1695.515218 
L 2216.571297 1705.427499 
L 2205.991699 1715.174279 
L 2195.268293 1724.75354 
L 2184.40248 1734.163258 
L 2173.395663 1743.401372 
L 2162.249266 1752.465807 
L 2150.964696 1761.354454 
L 2139.543384 1770.065188 
L 2127.986758 1778.595872 
L 2116.296244 1786.944338 
L 2104.693429 1794.958904 
L 2092.964396 1802.79375 
L 2081.11052 1810.446774 
L 2069.133175 1817.915853 
L 2057.033746 1825.198856 
L 2044.813632 1832.293625 
L 2032.474216 1839.197984 
L 2020.016908 1845.909744 
L 2007.681413 1852.305547 
L 1995.235118 1858.511714 
L 1982.679361 1864.526123 
L 1970.015475 1870.346631 
L 1957.24481 1875.971086 
L 1944.368717 1881.3973 
L 1931.388544 1886.623074 
L 1918.558201 1891.551521 
L 1905.630332 1896.282914 
L 1892.606213 1900.815121 
L 1879.487126 1905.145986 
L 1866.274367 1909.273331 
L 1852.969207 1913.194957 
L 1839.572934 1916.908643 
L 1826.352125 1920.345473 
L 1813.046184 1923.578124 
L 1799.656311 1926.604434 
L 1786.18372 1929.422198 
L 1772.629599 1932.029196 
L 1758.995148 1934.423179 
L 1745.281552 1936.601858 
L 1731.766588 1938.525846 
L 1718.177858 1940.238622 
L 1704.516457 1941.737942 
L 1690.783484 1943.02153 
L 1676.980018 1944.087071 
L 1663.107118 1944.932206 
L 1649.165859 1945.554553 
L 1635.443828 1945.945833 
L 1621.658167 1946.118653 
L 1607.809825 1946.070638 
L 1593.899737 1945.799374 
L 1579.928823 1945.302386 
L 1565.897994 1944.577168 
L 1552.102248 1943.643421 
L 1538.2507 1942.485919 
L 1524.344121 1941.102139 
L 1510.383275 1939.4895 
L 1496.368882 1937.645354 
L 1482.301651 1935.567005 
L 1468.483189 1933.303426 
L 1454.615338 1930.810175 
L 1440.698663 1928.084508 
L 1426.733676 1925.123622 
L 1412.720862 1921.924624 
L 1398.660664 1918.484534 
L 1384.553463 1914.800288 
L 1370.707799 1910.956848 
L 1356.817749 1906.87368 
L 1342.883539 1902.547637 
L 1328.905311 1897.975471 
L 1314.883171 1893.153821 
L 1300.817133 1888.079202 
L 1286.70715 1882.748022 
L 1272.868107 1877.283647 
L 1258.986728 1871.566791 
L 1245.062718 1865.593688 
L 1231.095702 1859.360434 
L 1217.085191 1852.86296 
L 1203.030597 1846.097026 
L 1188.931205 1839.058217 
L 1175.108157 1831.91132 
L 1161.240602 1824.494912 
L 1147.327474 1816.804288 
L 1133.367563 1808.834531 
L 1119.359482 1800.580478 
L 1105.30166 1792.036719 
L 1091.192332 1783.197566 
L 1077.029495 1774.057028 
L 1063.142222 1764.832062 
L 1049.199433 1755.307343 
L 1035.198512 1745.476322 
L 1021.136555 1735.33206 
L 1007.010312 1724.867221 
L 992.816165 1714.074014 
L 978.550095 1702.944146 
L 964.207614 1691.468797 
L 949.783707 1679.638543 
L 935.2728 1667.4433 
L 920.668645 1654.872261 
L 905.964264 1641.913802 
L 891.505826 1628.878213 
L 876.936258 1615.44893 
L 862.246388 1601.612356 
L 847.062715 1587.000552 
L 831.729454 1571.928569 
L 816.232369 1556.377492 
L 800.555244 1540.326529 
L 784.679488 1523.752747 
L 768.583733 1506.630701 
L 751.850949 1488.503374 
L 734.830618 1469.737518 
L 717.078702 1449.83396 
L 698.523788 1428.695434 
L 678.647923 1405.709612 
L 657.296035 1380.674847 
L 632.875804 1351.693673 
L 600.959869 1313.446991 
L 541.902452 1242.61592 
L 520.111864 1216.865697 
L 501.902276 1195.678612 
L 485.8957 1177.387715 
L 471.76453 1161.559683 
L 458.300913 1146.809827 
L 445.619465 1133.257147 
L 433.861437 1121.025733 
L 423.196075 1110.241719 
L 412.853468 1100.095686 
L 402.893749 1090.642814 
L 393.391349 1081.940294 
L 384.436955 1074.045958 
L 376.138857 1067.016222 
L 368.622768 1060.903501 
L 360.67047 1054.717685 
L 353.654783 1049.516787 
L 346.225283 1044.288604 
L 339.935684 1040.101416 
L 333.288902 1035.929459 
L 326.227664 1031.800327 
L 320.617429 1028.756256 
L 314.697735 1025.785659 
L 308.42549 1022.925444 
L 304.02363 1021.105261 
L 299.426341 1019.37843 
L 294.616084 1017.772335 
L 289.575189 1016.322355 
L 284.287488 1015.074179 
L 278.741357 1014.086297 
L 272.934833 1013.432117 
L 269.937836 1013.257317 
L 266.883521 1013.20018 
L 263.778326 1013.27344 
L 260.631159 1013.489799 
L 257.453639 1013.861294 
L 254.260162 1014.398483 
L 251.067712 1015.109569 
L 247.89535 1015.999464 
L 244.763327 1017.069079 
L 241.691998 1018.314896 
L 238.700556 1019.728991 
L 235.805875 1021.299509 
L 233.021658 1023.011543 
L 230.357935 1024.848239 
L 227.820974 1026.791868 
L 225.413575 1028.824891 
L 223.13555 1030.930667 
L 220.984343 1033.093983 
L 217.043994 1037.541053 
L 213.546601 1042.079193 
L 210.439877 1046.646899 
L 207.672888 1051.20274 
L 205.199575 1055.719858 
L 202.979886 1060.181521 
L 200.979664 1064.577838 
L 198.328995 1071.038938 
L 196.029366 1077.335174 
L 194.019592 1083.468252 
L 191.70968 1091.402218 
L 189.744627 1099.075037 
L 188.05995 1106.506582 
L 186.274898 1115.485942 
L 184.780153 1124.152741 
L 183.295096 1134.182789 
L 182.082481 1143.851361 
L 180.944582 1154.724976 
L 179.936624 1166.677121 
L 179.097939 1179.590863 
L 178.453849 1193.36081 
L 178.018173 1207.893597 
L 177.795705 1223.107447 
L 177.784427 1238.931174 
L 177.99786 1256.448211 
L 178.459326 1275.466509 
L 179.176175 1295.813837 
L 180.192128 1318.340284 
L 181.562047 1343.73515 
L 183.39387 1373.439288 
L 185.898036 1410.254581 
L 190.354872 1471.884678 
L 194.736771 1533.514555 
L 197.329131 1573.12895 
L 199.324003 1607.008761 
L 200.908219 1637.707467 
L 202.153673 1666.156121 
L 203.111433 1693.149823 
L 203.798363 1718.808965 
L 204.232154 1743.235343 
L 204.432781 1767.06376 
L 204.405716 1789.797537 
L 204.379943 1793.536864 
L 204.379943 1793.536864 
" style="fill:none;stroke:#008000;stroke-linecap:square;stroke-width:1.5;"/>
   </g>
   <g id="line2d_31">
    <path clip-path="url(#pd24f167f57)" d="M 2368.122446 1045.087159 
L 2367.809028 1044.976073 
L 2367.22791 1044.528646 
L 2366.549057 1043.709993 
L 2365.791094 1042.412873 
L 2365.067476 1040.702621 
L 2364.414379 1038.549528 
L 2364.256258 1037.888469 
L 2364.256258 1037.888469 
" style="fill:none;stroke:#c0c0c0;stroke-linecap:square;stroke-width:1.5;"/>
   </g>
   <g id="line2d_32">
    <path clip-path="url(#pd24f167f57)" d="M 237.624683 1077.042817 
L 240.312276 1078.378676 
L 243.04889 1079.598611 
L 245.824392 1080.700163 
L 248.628525 1081.682541 
L 251.451244 1082.546536 
L 257.114988 1083.929602 
L 262.748879 1084.88061 
L 268.301322 1085.442686 
L 273.736181 1085.66373 
L 279.03075 1085.591245 
L 284.172817 1085.269184 
L 289.15779 1084.736504 
L 293.986242 1084.026798 
L 298.662054 1083.168549 
L 305.402743 1081.653887 
L 311.837174 1079.922652 
L 317.990481 1078.024167 
L 323.887086 1075.996082 
L 331.388795 1073.139392 
L 338.522171 1070.154184 
L 345.328625 1067.077357 
L 353.430473 1063.142858 
L 361.134718 1059.144651 
L 369.922039 1054.299373 
L 378.273474 1049.431661 
L 387.538685 1043.752345 
L 396.355573 1038.093814 
L 405.955333 1031.670881 
L 416.227771 1024.517126 
L 427.076489 1016.67102 
L 438.418938 1008.173955 
L 450.185615 999.068614 
L 462.31869 989.3977 
L 475.63791 978.483416 
L 489.156674 967.119918 
L 503.639626 954.663219 
L 519.709559 940.543311 
L 537.15299 924.914559 
L 556.460874 907.31454 
L 579.287828 886.191752 
L 607.498204 859.765398 
L 662.007484 808.31177 
L 700.261925 772.371442 
L 728.255315 746.371098 
L 752.413074 724.227089 
L 774.947527 703.870375 
L 796.019106 685.134162 
L 816.187169 667.500337 
L 835.527595 650.886776 
L 854.103008 635.220979 
L 872.377816 620.100651 
L 889.972303 605.828158 
L 907.326611 592.03377 
L 924.459676 578.699115 
L 941.38821 565.807406 
L 958.126999 553.343196 
L 974.689191 541.292267 
L 990.706957 529.907961 
L 1006.953318 518.636209 
L 1023.054429 507.741319 
L 1039.018736 497.2127 
L 1054.853845 487.040471 
L 1070.566591 477.215383 
L 1086.163165 467.728738 
L 1101.649159 458.57238 
L 1117.029621 449.738605 
L 1132.309143 441.220162 
L 1147.491865 433.010176 
L 1162.581553 425.102148 
L 1177.581629 417.489908 
L 1192.495176 410.167601 
L 1207.325005 403.12965 
L 1222.415711 396.216834 
L 1237.423887 389.590766 
L 1252.351764 383.246267 
L 1267.201344 377.178382 
L 1281.974443 371.382377 
L 1296.672676 365.853721 
L 1311.297501 360.588054 
L 1325.850215 355.581206 
L 1340.331974 350.829149 
L 1355.070546 346.228615 
L 1369.736936 341.886565 
L 1384.33199 337.799163 
L 1398.856436 333.962701 
L 1413.310899 330.373616 
L 1427.695907 327.028445 
L 1442.011895 323.923855 
L 1456.25922 321.056601 
L 1470.752477 318.367678 
L 1485.174486 315.920231 
L 1499.525407 313.711122 
L 1513.805313 311.737283 
L 1528.014218 309.995737 
L 1542.152086 308.483605 
L 1556.218821 307.198059 
L 1570.517735 306.115747 
L 1584.742032 305.264278 
L 1598.891458 304.640863 
L 1612.965721 304.242798 
L 1626.964481 304.067433 
L 1640.887364 304.112181 
L 1655.027738 304.382439 
L 1669.088073 304.877007 
L 1683.067863 305.593306 
L 1696.966579 306.528807 
L 1710.783655 307.681041 
L 1724.518497 309.047583 
L 1738.170501 310.626053 
L 1752.020806 312.453587 
L 1765.783417 314.497107 
L 1779.457619 316.754226 
L 1793.04267 319.222584 
L 1806.537812 321.899878 
L 1819.942273 324.783836 
L 1833.255274 327.872233 
L 1846.744845 331.232108 
L 1860.13749 334.800258 
L 1873.432317 338.574425 
L 1886.628448 342.552386 
L 1899.72499 346.731942 
L 1912.721027 351.110932 
L 1925.615651 355.687239 
L 1938.407937 360.458751 
L 1951.349679 365.524665 
L 1964.182997 370.789365 
L 1976.906896 376.250728 
L 1989.520369 381.906652 
L 2002.022409 387.755066 
L 2014.412006 393.793939 
L 2026.688159 400.021265 
L 2039.087153 406.56268 
L 2051.366066 413.29589 
L 2063.523819 420.218868 
L 2075.559324 427.329622 
L 2087.471493 434.62619 
L 2099.259242 442.106642 
L 2110.921481 449.76909 
L 2122.457113 457.611683 
L 2133.865041 465.632606 
L 2145.144167 473.830082 
L 2156.506516 482.365077 
L 2167.732749 491.079892 
L 2178.821685 499.972783 
L 2189.77214 509.042063 
L 2200.582921 518.286093 
L 2211.25283 527.703301 
L 2221.780657 537.292173 
L 2232.165165 547.051276 
L 2242.405117 556.979229 
L 2252.499247 567.074745 
L 2262.446269 577.336614 
L 2272.24487 587.763737 
L 2281.89369 598.355097 
L 2291.391349 609.109797 
L 2300.736397 620.027072 
L 2309.927347 631.106275 
L 2318.962623 642.34692 
L 2327.840591 653.748696 
L 2336.559497 665.311463 
L 2345.117476 677.035289 
L 2353.355654 688.694735 
L 2361.434952 700.510032 
L 2369.35313 712.481972 
L 2377.107732 724.611638 
L 2384.551683 736.662617 
L 2391.832766 748.868347 
L 2398.947727 761.230901 
L 2405.758344 773.505673 
L 2412.401721 785.936335 
L 2418.745522 798.272743 
L 2424.919219 810.76549 
L 2430.796308 823.158733 
L 2436.38103 835.446972 
L 2441.790385 847.891232 
L 2446.906674 860.226418 
L 2451.73231 872.447133 
L 2456.269097 884.547743 
L 2460.518306 896.522201 
L 2464.480705 908.363882 
L 2468.069388 919.778271 
L 2471.381776 931.037343 
L 2474.418847 942.131771 
L 2477.181977 953.05106 
L 2479.673286 963.783511 
L 2481.896021 974.316282 
L 2483.90943 984.940265 
L 2485.653131 995.3405 
L 2487.135454 1005.501071 
L 2488.402304 1015.716388 
L 2489.446961 1025.97448 
L 2490.264855 1036.26215 
L 2490.839402 1046.253173 
L 2491.206938 1056.558279 
L 2491.348982 1066.851777 
L 2491.270729 1077.120943 
L 2490.967215 1087.66387 
L 2490.428212 1098.466101 
L 2489.670545 1109.207449 
L 2488.675548 1120.184447 
L 2487.438408 1131.385023 
L 2485.955578 1142.798082 
L 2484.224392 1154.413615 
L 2482.242739 1166.222704 
L 2479.951825 1178.508606 
L 2477.397318 1190.967608 
L 2474.577717 1203.593409 
L 2471.491119 1216.380334 
L 2468.135164 1229.323187 
L 2464.506956 1242.417085 
L 2460.603069 1255.65731 
L 2456.506868 1268.767429 
L 2452.134367 1282.0199 
L 2447.480456 1295.40985 
L 2442.638352 1308.668397 
L 2437.510867 1322.059381 
L 2432.197707 1335.318604 
L 2426.59352 1348.704139 
L 2420.804543 1361.956357 
L 2414.834222 1375.076583 
L 2408.565683 1388.31435 
L 2402.114926 1401.416815 
L 2395.484624 1414.384489 
L 2388.677225 1427.21762 
L 2381.561571 1440.15454 
L 2374.266636 1452.951654 
L 2366.794477 1465.608578 
L 2359.147051 1478.124783 
L 2351.3262 1490.499567 
L 2343.333678 1502.732092 
L 2335.171169 1514.821392 
L 2326.840309 1526.766388 
L 2318.342656 1538.565903 
L 2309.67975 1550.218647 
L 2300.853085 1561.723271 
L 2291.864115 1573.078323 
L 2282.714289 1584.282292 
L 2273.405022 1595.3336 
L 2263.937715 1606.230601 
L 2254.31376 1616.971609 
L 2244.534532 1627.554863 
L 2234.6014 1637.978572 
L 2224.515738 1648.240892 
L 2214.278904 1658.339944 
L 2203.892252 1668.273802 
L 2193.35715 1678.04051 
L 2182.674945 1687.638076 
L 2171.847008 1697.064466 
L 2160.874701 1706.31763 
L 2149.966515 1715.228981 
L 2138.921866 1723.969441 
L 2127.742048 1732.537 
L 2116.428368 1740.929593 
L 2104.982135 1749.145161 
L 2093.404653 1757.181595 
L 2081.697241 1765.03678 
L 2069.861225 1772.708577 
L 2057.897923 1780.194813 
L 2045.808679 1787.4933 
L 2033.826412 1794.469489 
L 2021.725455 1801.260717 
L 2009.507084 1807.864855 
L 1997.172568 1814.279766 
L 1984.723188 1820.503265 
L 1972.160221 1826.533175 
L 1959.484959 1832.367281 
L 1946.94561 1837.896844 
L 1934.300701 1843.233787 
L 1921.551436 1848.375953 
L 1908.699054 1853.32117 
L 1895.744758 1858.06725 
L 1882.689781 1862.611972 
L 1869.535341 1866.953092 
L 1856.543451 1871.009251 
L 1843.458279 1874.865376 
L 1830.280976 1878.519269 
L 1817.01268 1881.968718 
L 1803.654535 1885.211492 
L 1790.207678 1888.245308 
L 1776.673237 1891.067873 
L 1763.325595 1893.626774 
L 1749.895971 1895.978328 
L 1736.385411 1898.120264 
L 1722.794949 1900.050295 
L 1709.125613 1901.766095 
L 1695.378421 1903.265306 
L 1681.554383 1904.545517 
L 1667.938908 1905.584912 
L 1654.251558 1906.40947 
L 1640.493241 1907.016828 
L 1626.664843 1907.40455 
L 1612.767238 1907.570178 
L 1598.801278 1907.511193 
L 1585.060844 1907.233319 
L 1571.256437 1906.735177 
L 1557.388789 1906.014243 
L 1543.458609 1905.067958 
L 1529.466596 1903.893691 
L 1515.413404 1902.488751 
L 1501.299654 1900.850395 
L 1487.428135 1899.018165 
L 1473.499704 1896.956922 
L 1459.514844 1894.663892 
L 1445.474002 1892.136207 
L 1431.377596 1889.370945 
L 1417.225971 1886.365073 
L 1403.328866 1883.188747 
L 1389.379457 1879.776188 
L 1375.377942 1876.124314 
L 1361.324447 1872.229928 
L 1347.21905 1868.089743 
L 1333.061751 1863.700366 
L 1318.852488 1859.058272 
L 1304.908599 1854.27149 
L 1290.914684 1849.236093 
L 1276.870438 1843.948425 
L 1262.775483 1838.404697 
L 1248.629335 1832.600967 
L 1234.43141 1826.533131 
L 1220.181 1820.196924 
L 1206.20297 1813.741175 
L 1192.173126 1807.02054 
L 1178.090444 1800.030505 
L 1163.953737 1792.766341 
L 1149.761674 1785.223111 
L 1135.512738 1777.395645 
L 1121.205218 1769.2785 
L 1106.837201 1760.865984 
L 1092.742867 1752.358208 
L 1078.58653 1743.557019 
L 1064.365697 1734.456209 
L 1050.077604 1725.049235 
L 1035.719161 1715.329168 
L 1021.286946 1705.288667 
L 1006.777143 1694.919951 
L 992.18552 1684.214757 
L 977.507363 1673.164258 
L 963.090203 1662.034813 
L 948.580154 1650.558018 
L 933.971182 1638.723861 
L 919.25654 1626.521617 
L 904.428724 1613.939745 
L 889.479319 1600.965802 
L 874.398912 1587.586344 
L 859.176902 1573.786781 
L 843.801361 1559.551245 
L 828.258774 1544.862409 
L 812.147859 1529.325437 
L 795.826743 1513.270378 
L 779.273795 1496.672312 
L 762.464028 1479.503516 
L 744.957576 1461.302199 
L 727.114815 1442.432449 
L 708.463629 1422.387233 
L 688.478762 1400.57725 
L 667.011807 1376.813448 
L 642.921001 1349.801083 
L 613.806312 1316.803138 
L 528.134749 1219.472112 
L 507.805595 1196.856129 
L 490.217723 1177.620361 
L 475.146856 1161.449515 
L 460.698574 1146.274244 
L 447.808377 1133.05205 
L 435.877584 1121.118557 
L 424.146934 1109.706961 
L 413.636044 1099.783622 
L 403.526566 1090.536177 
L 393.892741 1082.020483 
L 384.824803 1074.293083 
L 376.430285 1067.409344 
L 367.527545 1060.41535 
L 359.417823 1054.340636 
L 352.261077 1049.232254 
L 344.678113 1044.096863 
L 338.253607 1039.984672 
L 331.457282 1035.889439 
L 324.226622 1031.840698 
L 318.471836 1028.861551 
L 312.387757 1025.962955 
L 305.925382 1023.186755 
L 301.37873 1021.433222 
L 296.619078 1019.78592 
L 291.625873 1018.277873 
L 286.378517 1016.952627 
L 280.85878 1015.867549 
L 275.055483 1015.097422 
L 272.047858 1014.85931 
L 268.972675 1014.737112 
L 265.834905 1014.745657 
L 262.642264 1014.900441 
L 259.405753 1015.216987 
L 256.140011 1015.709933 
L 252.863415 1016.391815 
L 249.597734 1017.271746 
L 246.36725 1018.354097 
L 243.197356 1019.637536 
L 240.112754 1021.114636 
L 237.135652 1022.772238 
L 234.284235 1024.592569 
L 231.571733 1026.554773 
L 229.006184 1028.636619 
L 226.590784 1030.816057 
L 224.324654 1033.072367 
L 222.203766 1035.386909 
L 220.221899 1037.743483 
L 216.644076 1042.530221 
L 213.524468 1047.34965 
L 210.797119 1052.148128 
L 208.402972 1056.892712 
L 206.291548 1061.564296 
L 204.420733 1066.152661 
L 201.991103 1072.870091 
L 199.932753 1079.388438 
L 198.175459 1085.714131 
L 196.665642 1091.857354 
L 194.967206 1099.784364 
L 193.561436 1107.434578 
L 192.132923 1116.646374 
L 190.996746 1125.508742 
L 189.938831 1135.73471 
L 189.146303 1145.565544 
L 188.487075 1156.594912 
L 188.009697 1168.690403 
L 187.74673 1181.731271 
L 187.717053 1195.610032 
L 187.928645 1210.23252 
L 188.381197 1225.517084 
L 189.06832 1241.393252 
L 190.049884 1258.947373 
L 191.338971 1277.985241 
L 193.021168 1299.380327 
L 195.097752 1322.838476 
L 197.644143 1349.046364 
L 200.914867 1380.329455 
L 205.403985 1420.97245 
L 219.840022 1550.161026 
L 223.487118 1585.604619 
L 226.504042 1617.024853 
L 229.07753 1646.096949 
L 231.294618 1673.64857 
L 233.177212 1699.812491 
L 234.747482 1724.699949 
L 236.054803 1748.962833 
L 237.081583 1772.099388 
L 237.865011 1794.715651 
L 238.409046 1816.842449 
L 238.717701 1838.507205 
L 238.795019 1859.734398 
L 238.645019 1880.546018 
L 238.271676 1900.96186 
L 237.678922 1920.99984 
L 236.870618 1940.676212 
L 235.850546 1960.005766 
L 234.622424 1979.002015 
L 233.18987 1997.677329 
L 231.556435 2016.043059 
L 229.72559 2034.109646 
L 227.700717 2051.886719 
L 225.859896 2066.54425 
L 225.859896 2066.54425 
" style="fill:none;stroke:#800080;stroke-linecap:square;stroke-width:1.5;"/>
   </g>
   <g id="line2d_33">
    <path clip-path="url(#pd24f167f57)" d="M 2368.122446 1045.087159 
L 2367.809028 1044.976073 
L 2367.22791 1044.528646 
L 2366.549057 1043.709993 
L 2365.791094 1042.412873 
L 2365.067476 1040.702621 
L 2364.414379 1038.549528 
L 2364.256258 1037.888469 
L 2364.256258 1037.888469 
" style="fill:none;stroke:#c0c0c0;stroke-linecap:square;stroke-width:1.5;"/>
   </g>
   <g id="line2d_34">
    <path clip-path="url(#pd24f167f57)" d="M 236.519683 1076.438087 
L 239.158898 1077.866925 
L 241.851149 1079.181625 
L 244.586399 1080.379366 
L 247.354422 1081.459006 
L 250.145155 1082.420989 
L 255.756952 1084.000877 
L 261.354002 1085.147926 
L 266.883241 1085.903431 
L 272.306871 1086.314005 
L 277.600549 1086.426317 
L 282.750534 1086.283872 
L 287.750865 1085.925437 
L 292.600943 1085.384608 
L 297.303661 1084.68999 
L 304.092794 1083.411351 
L 310.583394 1081.905564 
L 316.79886 1080.222795 
L 322.762279 1078.401534 
L 330.358584 1075.808091 
L 337.591229 1073.073341 
L 344.500306 1070.23561 
L 352.733716 1066.58583 
L 360.571943 1062.858502 
L 369.521912 1058.322331 
L 378.036973 1053.74852 
L 387.49331 1048.395406 
L 396.500795 1043.047433 
L 406.317052 1036.962772 
L 416.830764 1030.171154 
L 427.944218 1022.707666 
L 439.573454 1014.610811 
L 451.647506 1005.920834 
L 464.107063 996.67841 
L 477.794715 986.234713 
L 491.697016 975.349061 
L 506.600276 963.404532 
L 523.146444 949.853172 
L 541.116698 934.841868 
L 561.017413 917.925618 
L 584.555156 897.611656 
L 613.653557 872.185458 
L 669.336247 823.150919 
L 709.342142 788.083775 
L 738.20148 763.077692 
L 763.575209 741.384223 
L 786.771232 721.84538 
L 808.451241 703.873388 
L 829.191317 686.970516 
L 849.06997 671.057457 
L 868.152126 656.064024 
L 886.915222 641.604783 
L 904.96975 627.96839 
L 922.76779 614.801045 
L 940.328872 602.085087 
L 957.670235 589.804337 
L 974.807166 577.943901 
L 991.753264 566.490036 
L 1008.520668 555.430024 
L 1025.120246 544.752059 
L 1041.561751 534.44515 
L 1057.85396 524.499046 
L 1074.004779 514.904146 
L 1090.021347 505.651472 
L 1105.910124 496.732572 
L 1121.676966 488.139494 
L 1137.327169 479.864738 
L 1152.865561 471.901233 
L 1168.296507 464.242265 
L 1183.623989 456.881478 
L 1198.851624 449.812844 
L 1213.982702 443.030623 
L 1229.020218 436.529349 
L 1243.96689 430.30381 
L 1259.16971 424.213732 
L 1274.282411 418.402056 
L 1289.307176 412.86392 
L 1304.245979 407.594645 
L 1319.100602 402.589767 
L 1333.872661 397.844984 
L 1348.563597 393.356168 
L 1363.174719 389.119353 
L 1378.036557 385.042921 
L 1392.817238 381.22213 
L 1407.517731 377.653177 
L 1422.13891 374.332398 
L 1436.681524 371.256247 
L 1451.146225 368.421293 
L 1465.533581 365.824221 
L 1480.161205 363.411955 
L 1494.708921 361.241563 
L 1509.17707 359.309827 
L 1523.565906 357.613608 
L 1537.875636 356.149859 
L 1552.106377 354.915616 
L 1566.2582 353.908005 
L 1580.63617 353.109642 
L 1594.931725 352.542024 
L 1609.144765 352.2023 
L 1623.275143 352.087712 
L 1637.322672 352.195548 
L 1651.287103 352.523168 
L 1665.168179 353.067984 
L 1679.258229 353.845952 
L 1693.260641 354.845194 
L 1707.175006 356.063138 
L 1721.000896 357.497265 
L 1734.73785 359.145101 
L 1748.385373 361.004226 
L 1761.942947 363.072265 
L 1775.410033 365.346891 
L 1789.063764 367.879618 
L 1802.621997 370.622858 
L 1816.084086 373.574264 
L 1829.449374 376.731543 
L 1842.717192 380.092424 
L 1855.886846 383.654686 
L 1868.957627 387.41614 
L 1882.192502 391.457463 
L 1895.322906 395.701711 
L 1908.348053 400.14667 
L 1921.267151 404.790171 
L 1934.079387 409.630076 
L 1946.783952 414.664286 
L 1959.380016 419.890731 
L 1972.115357 425.417638 
L 1984.736072 431.140312 
L 1997.241252 437.056673 
L 2009.630008 443.164666 
L 2021.901426 449.462282 
L 2034.05461 455.947549 
L 2046.088636 462.618531 
L 2058.002597 469.473335 
L 2070.025588 476.649876 
L 2081.921826 484.013655 
L 2093.690335 491.562786 
L 2105.330123 499.295437 
L 2116.840213 507.209816 
L 2128.219614 515.304185 
L 2139.467336 523.576868 
L 2150.582379 532.026231 
L 2161.563743 540.650712 
L 2172.410426 549.448794 
L 2183.121405 558.419058 
L 2193.695669 567.560135 
L 2204.331524 577.051444 
L 2214.626556 586.533608 
L 2224.97563 596.370188 
L 2235.178256 606.379412 
L 2245.233263 616.560362 
L 2255.139457 626.912235 
L 2264.895613 637.434382 
L 2274.320639 647.92302 
L 2283.598751 658.574821 
L 2292.728632 669.38971 
L 2301.708904 680.367802 
L 2310.538082 691.509481 
L 2319.214592 702.815397 
L 2327.736714 714.286506 
L 2336.102562 725.924139 
L 2344.153733 737.50139 
L 2352.050385 749.242547 
L 2359.79003 761.150185 
L 2367.222752 772.988979 
L 2374.498722 784.994373 
L 2381.473602 796.925413 
L 2388.29041 809.025342 
L 2394.81022 821.047485 
L 2401.037524 832.987384 
L 2407.103573 845.100521 
L 2412.877165 857.131165 
L 2418.36044 869.076079 
L 2423.554585 880.932221 
L 2428.347652 892.420887 
L 2432.859151 903.806007 
L 2437.08758 915.08356 
L 2440.931646 925.960337 
L 2444.496635 936.710093 
L 2447.779352 947.32534 
L 2450.693509 957.495523 
L 2453.330739 967.502306 
L 2455.689755 977.332507 
L 2457.77076 986.97088 
L 2459.576124 996.400289 
L 2461.111048 1005.602138 
L 2462.384029 1014.557083 
L 2463.440998 1023.568489 
L 2464.273848 1032.62163 
L 2464.859998 1041.3757 
L 2465.241368 1050.462565 
L 2465.39414 1059.541352 
L 2465.323707 1068.596044 
L 2465.024278 1077.933443 
L 2464.505868 1087.216168 
L 2463.753161 1096.750075 
L 2462.760286 1106.518977 
L 2461.523817 1116.507932 
L 2460.04223 1126.703597 
L 2458.261583 1137.398239 
L 2456.225173 1148.271091 
L 2453.870227 1159.610411 
L 2451.252952 1171.105539 
L 2448.375195 1182.750958 
L 2445.159228 1194.827946 
L 2441.67539 1207.039884 
L 2437.923476 1219.383572 
L 2433.902284 1231.856007 
L 2429.609702 1244.45421 
L 2425.042787 1257.175095 
L 2420.19785 1270.015353 
L 2415.070542 1282.971397 
L 2409.655913 1296.039286 
L 2404.062168 1308.957829 
L 2398.17682 1321.985065 
L 2392.114132 1334.86471 
L 2385.75373 1347.848001 
L 2379.216082 1360.683486 
L 2372.504146 1373.373215 
L 2365.62054 1385.918795 
L 2358.43035 1398.558551 
L 2351.066544 1411.050727 
L 2343.531199 1423.395922 
L 2335.826239 1435.594443 
L 2327.953453 1447.646335 
L 2319.914516 1459.551443 
L 2311.711024 1471.309394 
L 2303.344494 1482.919654 
L 2294.65394 1494.59635 
L 2285.797143 1506.118113 
L 2276.775548 1517.483916 
L 2267.590558 1528.692614 
L 2258.243553 1539.742942 
L 2248.73588 1550.633549 
L 2239.06887 1561.362982 
L 2229.42722 1571.735508 
L 2219.63458 1581.94978 
L 2209.692172 1592.004204 
L 2199.60122 1601.89713 
L 2189.362929 1611.626864 
L 2178.978514 1621.191641 
L 2168.449175 1630.589664 
L 2157.776115 1639.819084 
L 2146.96055 1648.878004 
L 2136.003678 1657.764495 
L 2124.906714 1666.476588 
L 2113.670864 1675.01227 
L 2102.297341 1683.369506 
L 2090.787361 1691.546214 
L 2079.363113 1699.391166 
L 2067.809836 1707.058283 
L 2056.128692 1714.545525 
L 2044.320834 1721.850814 
L 2032.387435 1728.972044 
L 2020.329654 1735.907075 
L 2008.148658 1742.653757 
L 1995.845622 1749.209897 
L 1983.661766 1755.452741 
L 1971.362755 1761.508061 
L 1958.949695 1767.373719 
L 1946.423691 1773.047547 
L 1933.785859 1778.527358 
L 1921.037298 1783.810929 
L 1908.179132 1788.896013 
L 1895.467737 1793.686517 
L 1882.653087 1798.281894 
L 1869.736227 1802.679948 
L 1856.718184 1806.878452 
L 1843.599987 1810.875153 
L 1830.38267 1814.667774 
L 1817.067244 1818.253999 
L 1803.923924 1821.56599 
L 1790.688301 1824.675266 
L 1777.361312 1827.579548 
L 1763.943895 1830.276538 
L 1750.436965 1832.763894 
L 1736.841427 1835.03923 
L 1723.15818 1837.100142 
L 1709.669989 1838.908712 
L 1696.099295 1840.506806 
L 1682.44689 1841.892038 
L 1668.71356 1843.061973 
L 1654.900074 1844.01413 
L 1641.00717 1844.74599 
L 1627.035569 1845.254971 
L 1613.279468 1845.534862 
L 1599.449217 1845.59603 
L 1585.545426 1845.435912 
L 1571.568672 1845.051869 
L 1557.519499 1844.441217 
L 1543.398431 1843.601207 
L 1529.50865 1842.55428 
L 1515.550878 1841.28225 
L 1501.525482 1839.782352 
L 1487.432809 1838.051733 
L 1473.27315 1836.087483 
L 1459.046753 1833.8866 
L 1444.75381 1831.446 
L 1430.707326 1828.823457 
L 1416.597376 1825.965408 
L 1402.423971 1822.868703 
L 1388.187066 1819.530097 
L 1373.886556 1815.946231 
L 1359.522251 1812.113646 
L 1345.41521 1808.122296 
L 1331.246593 1803.886267 
L 1317.015995 1799.401971 
L 1302.722899 1794.665684 
L 1288.366709 1789.673557 
L 1273.946707 1784.421581 
L 1259.462067 1778.905594 
L 1245.243253 1773.255735 
L 1230.960774 1767.345384 
L 1216.613465 1761.170136 
L 1202.200029 1754.725422 
L 1187.718996 1748.006453 
L 1173.168717 1741.008225 
L 1158.547351 1733.725487 
L 1143.852852 1726.152745 
L 1129.427296 1718.470616 
L 1114.92743 1710.50065 
L 1100.350625 1702.236886 
L 1085.69399 1693.673051 
L 1070.954313 1684.802534 
L 1056.128042 1675.618325 
L 1041.211233 1666.113016 
L 1026.199544 1656.27874 
L 1011.449128 1646.353311 
L 996.598717 1636.098156 
L 981.642802 1625.504454 
L 966.575268 1614.562786 
L 951.389335 1603.263078 
L 936.077453 1591.594515 
L 920.631204 1579.545455 
L 905.041196 1567.103367 
L 889.296893 1554.25468 
L 873.386484 1540.984668 
L 857.296634 1527.27732 
L 841.012283 1513.115115 
L 824.51633 1498.478875 
L 807.378216 1482.972013 
L 789.973485 1466.920341 
L 772.274291 1450.295789 
L 753.81472 1432.649036 
L 734.528374 1413.896288 
L 714.333702 1393.94118 
L 693.128961 1372.671564 
L 669.817398 1348.965115 
L 643.606513 1321.984928 
L 609.174375 1286.195794 
L 544.28916 1218.689058 
L 520.930143 1194.747131 
L 501.558319 1175.197379 
L 484.665065 1158.451986 
L 469.094929 1143.329068 
L 455.079936 1130.020791 
L 441.996217 1117.898982 
L 430.005565 1107.081696 
L 418.295656 1096.820734 
L 407.977991 1088.05571 
L 398.176872 1079.993503 
L 388.982221 1072.685877 
L 379.250645 1065.24588 
L 370.213411 1058.632124 
L 362.007055 1052.894428 
L 354.787227 1048.074389 
L 347.161868 1043.233181 
L 339.059855 1038.392599 
L 332.17401 1034.544012 
L 324.864273 1030.747367 
L 319.058574 1027.960126 
L 312.932166 1025.254832 
L 306.437337 1022.671787 
L 301.875107 1021.045808 
L 297.104925 1019.523993 
L 292.106145 1018.13815 
L 286.857518 1016.930445 
L 281.339359 1015.956859 
L 275.537756 1015.291297 
L 272.52974 1015.102993 
L 269.452462 1015.029353 
L 266.310156 1015.085869 
L 263.109855 1015.289059 
L 259.862011 1015.655902 
L 256.581071 1016.202912 
L 253.285773 1016.944873 
L 249.99901 1017.893286 
L 246.747026 1019.05473 
L 243.557958 1020.429454 
L 240.459769 1022.010656 
L 237.477965 1023.784639 
L 234.633609 1025.731936 
L 231.94198 1027.829157 
L 229.412151 1030.051127 
L 227.047395 1032.372795 
L 224.846083 1034.770775 
L 222.802926 1037.22421 
L 220.910116 1039.715245 
L 219.158365 1042.229017 
L 216.038087 1047.278958 
L 213.363245 1052.304869 
L 211.062291 1057.265516 
L 209.074347 1062.138046 
L 207.349127 1066.911092 
L 205.845606 1071.580289 
L 203.934732 1078.389602 
L 202.361107 1084.973643 
L 201.059214 1091.345883 
L 199.662127 1099.538686 
L 198.57414 1107.416421 
L 197.732205 1115.010856 
L 196.955717 1124.147803 
L 196.424087 1132.93238 
L 196.041155 1143.063468 
L 195.86977 1154.386726 
L 195.928991 1165.243087 
L 196.215317 1177.151813 
L 196.752731 1189.994677 
L 197.553584 1203.666278 
L 198.620923 1218.074128 
L 199.95069 1233.13788 
L 201.660238 1249.965847 
L 203.759625 1268.349002 
L 206.24344 1288.100976 
L 209.237989 1310.082102 
L 212.866274 1334.982021 
L 217.231006 1363.329547 
L 222.823167 1398.107275 
L 231.47711 1450.326252 
L 243.817494 1524.920196 
L 250.048053 1563.998694 
L 255.144519 1597.345381 
L 259.536744 1627.528623 
L 263.385325 1655.483869 
L 266.816827 1682.009244 
L 269.859661 1707.224802 
L 272.601603 1731.796044 
L 274.995311 1755.218649 
L 277.113773 1778.109151 
L 278.962775 1800.500966 
L 280.547958 1822.423657 
L 281.874854 1843.903523 
L 282.94883 1864.964065 
L 283.758261 1885.138898 
L 284.336327 1904.95194 
L 284.687576 1924.41925 
L 284.816423 1943.555408 
L 284.722246 1962.828848 
L 284.403594 1981.781833 
L 283.86475 2000.42631 
L 283.109877 2018.773262 
L 282.142989 2036.832772 
L 280.968001 2054.614134 
L 280.052599 2066.54425 
L 280.052599 2066.54425 
" style="fill:none;stroke:#000000;stroke-linecap:square;stroke-width:1.5;"/>
   </g>
   <g id="patch_13">
    <path d="M 60.114062 2027.988 
L 60.114062 7.2 
" style="fill:none;stroke:#000000;stroke-linecap:square;stroke-linejoin:miter;stroke-width:0.8;"/>
   </g>
   <g id="patch_14">
    <path d="M 2754.498063 2027.988 
L 2754.498063 7.2 
" style="fill:none;stroke:#000000;stroke-linecap:square;stroke-linejoin:miter;stroke-width:0.8;"/>
   </g>
   <g id="patch_15">
    <path d="M 60.114062 2027.988 
L 2754.498063 2027.988 
" style="fill:none;stroke:#000000;stroke-linecap:square;stroke-linejoin:miter;stroke-width:0.8;"/>
   </g>
   <g id="patch_16">
    <path d="M 60.114062 7.2 
L 2754.498063 7.2 
" style="fill:none;stroke:#000000;stroke-linecap:square;stroke-linejoin:miter;stroke-width:0.8;"/>
   </g>
  </g>
 </g>
 <defs>
  <clipPath id="pd24f167f57">
   <rect height="2020.788" width="2694.384" x="60.114062" y="7.2"/>
  </clipPath>
 </defs>
</svg>
