<?xml version="1.0" encoding="utf-8" standalone="no"?>
<!DOCTYPE svg PUBLIC "-//W3C//DTD SVG 1.1//EN"
  "http://www.w3.org/Graphics/SVG/1.1/DTD/svg11.dtd">
<!-- Created with matplotlib (https://matplotlib.org/) -->
<svg height="643.50825pt" version="1.1" viewBox="0 0 865.650062 643.50825" width="865.650062pt" xmlns="http://www.w3.org/2000/svg" xmlns:xlink="http://www.w3.org/1999/xlink">
 <metadata>
  <rdf:RDF xmlns:cc="http://creativecommons.org/ns#" xmlns:dc="http://purl.org/dc/elements/1.1/" xmlns:rdf="http://www.w3.org/1999/02/22-rdf-syntax-ns#">
   <cc:Work>
    <dc:type rdf:resource="http://purl.org/dc/dcmitype/StillImage"/>
    <dc:date>2021-08-06T14:46:14.051872</dc:date>
    <dc:format>image/svg+xml</dc:format>
    <dc:creator>
     <cc:Agent>
      <dc:title>Matplotlib v3.3.2, https://matplotlib.org/</dc:title>
     </cc:Agent>
    </dc:creator>
   </cc:Work>
  </rdf:RDF>
 </metadata>
 <defs>
  <style type="text/css">*{stroke-linecap:butt;stroke-linejoin:round;}</style>
 </defs>
 <g id="figure_1">
  <g id="patch_1">
   <path d="M 0 643.50825 
L 865.650062 643.50825 
L 865.650062 0 
L 0 0 
z
" style="fill:#ffffff;"/>
  </g>
  <g id="axes_1">
   <g id="patch_2">
    <path d="M 60.114063 605.952 
L 858.450063 605.952 
L 858.450063 7.2 
L 60.114063 7.2 
z
" style="fill:#ffffff;"/>
   </g>
   <g id="patch_3">
    <path clip-path="url(#p48b577e58a)" d="M 117.678694 325.113689 
C 120.434526 325.113689 123.077857 324.018786 125.026525 322.070118 
C 126.975192 320.121451 128.070096 317.478119 128.070096 314.722287 
C 128.070096 311.966455 126.975192 309.323124 125.026525 307.374456 
C 123.077857 305.425789 120.434526 304.330885 117.678694 304.330885 
C 114.922862 304.330885 112.279531 305.425789 110.330863 307.374456 
C 108.382196 309.323124 107.287292 311.966455 107.287292 314.722287 
C 107.287292 317.478119 108.382196 320.121451 110.330863 322.070118 
C 112.279531 324.018786 114.922862 325.113689 117.678694 325.113689 
z
" style="fill:#00008b;stroke:#00008b;stroke-linejoin:miter;"/>
   </g>
   <g id="patch_4">
    <path clip-path="url(#p48b577e58a)" d="M 743.968398 317.552141 
C 744.718928 317.552141 745.438819 317.253952 745.969524 316.723247 
C 746.500229 316.192542 746.798418 315.472651 746.798418 314.722121 
C 746.798418 313.971591 746.500229 313.2517 745.969524 312.720995 
C 745.438819 312.19029 744.718928 311.892102 743.968398 311.892102 
C 743.217868 311.892102 742.497977 312.19029 741.967272 312.720995 
C 741.436567 313.2517 741.138379 313.971591 741.138379 314.722121 
C 741.138379 315.472651 741.436567 316.192542 741.967272 316.723247 
C 742.497977 317.253952 743.217868 317.552141 743.968398 317.552141 
z
" style="fill:#808080;stroke:#808080;stroke-linejoin:miter;"/>
   </g>
   <g id="patch_5">
    <path clip-path="url(#p48b577e58a)" d="M 117.678694 325.113689 
C 120.434526 325.113689 123.077857 324.018786 125.026525 322.070118 
C 126.975192 320.121451 128.070096 317.478119 128.070096 314.722287 
C 128.070096 311.966455 126.975192 309.323124 125.026525 307.374456 
C 123.077857 305.425789 120.434526 304.330885 117.678694 304.330885 
C 114.922862 304.330885 112.279531 305.425789 110.330863 307.374456 
C 108.382196 309.323124 107.287292 311.966455 107.287292 314.722287 
C 107.287292 317.478119 108.382196 320.121451 110.330863 322.070118 
C 112.279531 324.018786 114.922862 325.113689 117.678694 325.113689 
z
" style="fill:#00008b;stroke:#00008b;stroke-linejoin:miter;"/>
   </g>
   <g id="patch_6">
    <path clip-path="url(#p48b577e58a)" d="M 743.968398 317.552141 
C 744.718928 317.552141 745.438819 317.253952 745.969524 316.723247 
C 746.500229 316.192542 746.798418 315.472651 746.798418 314.722121 
C 746.798418 313.971591 746.500229 313.2517 745.969524 312.720995 
C 745.438819 312.19029 744.718928 311.892102 743.968398 311.892102 
C 743.217868 311.892102 742.497977 312.19029 741.967272 312.720995 
C 741.436567 313.2517 741.138379 313.971591 741.138379 314.722121 
C 741.138379 315.472651 741.436567 316.192542 741.967272 316.723247 
C 742.497977 317.253952 743.217868 317.552141 743.968398 317.552141 
z
" style="fill:#808080;stroke:#808080;stroke-linejoin:miter;"/>
   </g>
   <g id="matplotlib.axis_1">
    <g id="xtick_1">
     <g id="line2d_1">
      <path clip-path="url(#p48b577e58a)" d="M 125.284348 605.952 
L 125.284348 7.2 
" style="fill:none;stroke:#b0b0b0;stroke-linecap:square;stroke-width:0.8;"/>
     </g>
     <g id="line2d_2">
      <defs>
       <path d="M 0 0 
L 0 3.5 
" id="m329495a0c2" style="stroke:#000000;stroke-width:0.8;"/>
      </defs>
      <g>
       <use style="stroke:#000000;stroke-width:0.8;" x="125.284348" xlink:href="#m329495a0c2" y="605.952"/>
      </g>
     </g>
     <g id="text_1">
      <!-- 0.0 -->
      <g transform="translate(117.332786 620.550437)scale(0.1 -0.1)">
       <defs>
        <path d="M 31.78125 66.40625 
Q 24.171875 66.40625 20.328125 58.90625 
Q 16.5 51.421875 16.5 36.375 
Q 16.5 21.390625 20.328125 13.890625 
Q 24.171875 6.390625 31.78125 6.390625 
Q 39.453125 6.390625 43.28125 13.890625 
Q 47.125 21.390625 47.125 36.375 
Q 47.125 51.421875 43.28125 58.90625 
Q 39.453125 66.40625 31.78125 66.40625 
z
M 31.78125 74.21875 
Q 44.046875 74.21875 50.515625 64.515625 
Q 56.984375 54.828125 56.984375 36.375 
Q 56.984375 17.96875 50.515625 8.265625 
Q 44.046875 -1.421875 31.78125 -1.421875 
Q 19.53125 -1.421875 13.0625 8.265625 
Q 6.59375 17.96875 6.59375 36.375 
Q 6.59375 54.828125 13.0625 64.515625 
Q 19.53125 74.21875 31.78125 74.21875 
z
" id="DejaVuSans-48"/>
        <path d="M 10.6875 12.40625 
L 21 12.40625 
L 21 0 
L 10.6875 0 
z
" id="DejaVuSans-46"/>
       </defs>
       <use xlink:href="#DejaVuSans-48"/>
       <use x="63.623047" xlink:href="#DejaVuSans-46"/>
       <use x="95.410156" xlink:href="#DejaVuSans-48"/>
      </g>
     </g>
    </g>
    <g id="xtick_2">
     <g id="line2d_3">
      <path clip-path="url(#p48b577e58a)" d="M 288.210063 605.952 
L 288.210063 7.2 
" style="fill:none;stroke:#b0b0b0;stroke-linecap:square;stroke-width:0.8;"/>
     </g>
     <g id="line2d_4">
      <g>
       <use style="stroke:#000000;stroke-width:0.8;" x="288.210063" xlink:href="#m329495a0c2" y="605.952"/>
      </g>
     </g>
     <g id="text_2">
      <!-- 100.0 -->
      <g transform="translate(273.896 620.550437)scale(0.1 -0.1)">
       <defs>
        <path d="M 12.40625 8.296875 
L 28.515625 8.296875 
L 28.515625 63.921875 
L 10.984375 60.40625 
L 10.984375 69.390625 
L 28.421875 72.90625 
L 38.28125 72.90625 
L 38.28125 8.296875 
L 54.390625 8.296875 
L 54.390625 0 
L 12.40625 0 
z
" id="DejaVuSans-49"/>
       </defs>
       <use xlink:href="#DejaVuSans-49"/>
       <use x="63.623047" xlink:href="#DejaVuSans-48"/>
       <use x="127.246094" xlink:href="#DejaVuSans-48"/>
       <use x="190.869141" xlink:href="#DejaVuSans-46"/>
       <use x="222.65625" xlink:href="#DejaVuSans-48"/>
      </g>
     </g>
    </g>
    <g id="xtick_3">
     <g id="line2d_5">
      <path clip-path="url(#p48b577e58a)" d="M 451.135777 605.952 
L 451.135777 7.2 
" style="fill:none;stroke:#b0b0b0;stroke-linecap:square;stroke-width:0.8;"/>
     </g>
     <g id="line2d_6">
      <g>
       <use style="stroke:#000000;stroke-width:0.8;" x="451.135777" xlink:href="#m329495a0c2" y="605.952"/>
      </g>
     </g>
     <g id="text_3">
      <!-- 200.0 -->
      <g transform="translate(436.821714 620.550437)scale(0.1 -0.1)">
       <defs>
        <path d="M 19.1875 8.296875 
L 53.609375 8.296875 
L 53.609375 0 
L 7.328125 0 
L 7.328125 8.296875 
Q 12.9375 14.109375 22.625 23.890625 
Q 32.328125 33.6875 34.8125 36.53125 
Q 39.546875 41.84375 41.421875 45.53125 
Q 43.3125 49.21875 43.3125 52.78125 
Q 43.3125 58.59375 39.234375 62.25 
Q 35.15625 65.921875 28.609375 65.921875 
Q 23.96875 65.921875 18.8125 64.3125 
Q 13.671875 62.703125 7.8125 59.421875 
L 7.8125 69.390625 
Q 13.765625 71.78125 18.9375 73 
Q 24.125 74.21875 28.421875 74.21875 
Q 39.75 74.21875 46.484375 68.546875 
Q 53.21875 62.890625 53.21875 53.421875 
Q 53.21875 48.921875 51.53125 44.890625 
Q 49.859375 40.875 45.40625 35.40625 
Q 44.1875 33.984375 37.640625 27.21875 
Q 31.109375 20.453125 19.1875 8.296875 
z
" id="DejaVuSans-50"/>
       </defs>
       <use xlink:href="#DejaVuSans-50"/>
       <use x="63.623047" xlink:href="#DejaVuSans-48"/>
       <use x="127.246094" xlink:href="#DejaVuSans-48"/>
       <use x="190.869141" xlink:href="#DejaVuSans-46"/>
       <use x="222.65625" xlink:href="#DejaVuSans-48"/>
      </g>
     </g>
    </g>
    <g id="xtick_4">
     <g id="line2d_7">
      <path clip-path="url(#p48b577e58a)" d="M 614.061491 605.952 
L 614.061491 7.2 
" style="fill:none;stroke:#b0b0b0;stroke-linecap:square;stroke-width:0.8;"/>
     </g>
     <g id="line2d_8">
      <g>
       <use style="stroke:#000000;stroke-width:0.8;" x="614.061491" xlink:href="#m329495a0c2" y="605.952"/>
      </g>
     </g>
     <g id="text_4">
      <!-- 300.0 -->
      <g transform="translate(599.747429 620.550437)scale(0.1 -0.1)">
       <defs>
        <path d="M 40.578125 39.3125 
Q 47.65625 37.796875 51.625 33 
Q 55.609375 28.21875 55.609375 21.1875 
Q 55.609375 10.40625 48.1875 4.484375 
Q 40.765625 -1.421875 27.09375 -1.421875 
Q 22.515625 -1.421875 17.65625 -0.515625 
Q 12.796875 0.390625 7.625 2.203125 
L 7.625 11.71875 
Q 11.71875 9.328125 16.59375 8.109375 
Q 21.484375 6.890625 26.8125 6.890625 
Q 36.078125 6.890625 40.9375 10.546875 
Q 45.796875 14.203125 45.796875 21.1875 
Q 45.796875 27.640625 41.28125 31.265625 
Q 36.765625 34.90625 28.71875 34.90625 
L 20.21875 34.90625 
L 20.21875 43.015625 
L 29.109375 43.015625 
Q 36.375 43.015625 40.234375 45.921875 
Q 44.09375 48.828125 44.09375 54.296875 
Q 44.09375 59.90625 40.109375 62.90625 
Q 36.140625 65.921875 28.71875 65.921875 
Q 24.65625 65.921875 20.015625 65.03125 
Q 15.375 64.15625 9.8125 62.3125 
L 9.8125 71.09375 
Q 15.4375 72.65625 20.34375 73.4375 
Q 25.25 74.21875 29.59375 74.21875 
Q 40.828125 74.21875 47.359375 69.109375 
Q 53.90625 64.015625 53.90625 55.328125 
Q 53.90625 49.265625 50.4375 45.09375 
Q 46.96875 40.921875 40.578125 39.3125 
z
" id="DejaVuSans-51"/>
       </defs>
       <use xlink:href="#DejaVuSans-51"/>
       <use x="63.623047" xlink:href="#DejaVuSans-48"/>
       <use x="127.246094" xlink:href="#DejaVuSans-48"/>
       <use x="190.869141" xlink:href="#DejaVuSans-46"/>
       <use x="222.65625" xlink:href="#DejaVuSans-48"/>
      </g>
     </g>
    </g>
    <g id="xtick_5">
     <g id="line2d_9">
      <path clip-path="url(#p48b577e58a)" d="M 776.987205 605.952 
L 776.987205 7.2 
" style="fill:none;stroke:#b0b0b0;stroke-linecap:square;stroke-width:0.8;"/>
     </g>
     <g id="line2d_10">
      <g>
       <use style="stroke:#000000;stroke-width:0.8;" x="776.987205" xlink:href="#m329495a0c2" y="605.952"/>
      </g>
     </g>
     <g id="text_5">
      <!-- 400.0 -->
      <g transform="translate(762.673143 620.550437)scale(0.1 -0.1)">
       <defs>
        <path d="M 37.796875 64.3125 
L 12.890625 25.390625 
L 37.796875 25.390625 
z
M 35.203125 72.90625 
L 47.609375 72.90625 
L 47.609375 25.390625 
L 58.015625 25.390625 
L 58.015625 17.1875 
L 47.609375 17.1875 
L 47.609375 0 
L 37.796875 0 
L 37.796875 17.1875 
L 4.890625 17.1875 
L 4.890625 26.703125 
z
" id="DejaVuSans-52"/>
       </defs>
       <use xlink:href="#DejaVuSans-52"/>
       <use x="63.623047" xlink:href="#DejaVuSans-48"/>
       <use x="127.246094" xlink:href="#DejaVuSans-48"/>
       <use x="190.869141" xlink:href="#DejaVuSans-46"/>
       <use x="222.65625" xlink:href="#DejaVuSans-48"/>
      </g>
     </g>
    </g>
    <g id="text_6">
     <!-- Unit: 1000 km -->
     <g transform="translate(423.751594 634.228562)scale(0.1 -0.1)">
      <defs>
       <path d="M 8.6875 72.90625 
L 18.609375 72.90625 
L 18.609375 28.609375 
Q 18.609375 16.890625 22.84375 11.734375 
Q 27.09375 6.59375 36.625 6.59375 
Q 46.09375 6.59375 50.34375 11.734375 
Q 54.59375 16.890625 54.59375 28.609375 
L 54.59375 72.90625 
L 64.5 72.90625 
L 64.5 27.390625 
Q 64.5 13.140625 57.4375 5.859375 
Q 50.390625 -1.421875 36.625 -1.421875 
Q 22.796875 -1.421875 15.734375 5.859375 
Q 8.6875 13.140625 8.6875 27.390625 
z
" id="DejaVuSans-85"/>
       <path d="M 54.890625 33.015625 
L 54.890625 0 
L 45.90625 0 
L 45.90625 32.71875 
Q 45.90625 40.484375 42.875 44.328125 
Q 39.84375 48.1875 33.796875 48.1875 
Q 26.515625 48.1875 22.3125 43.546875 
Q 18.109375 38.921875 18.109375 30.90625 
L 18.109375 0 
L 9.078125 0 
L 9.078125 54.6875 
L 18.109375 54.6875 
L 18.109375 46.1875 
Q 21.34375 51.125 25.703125 53.5625 
Q 30.078125 56 35.796875 56 
Q 45.21875 56 50.046875 50.171875 
Q 54.890625 44.34375 54.890625 33.015625 
z
" id="DejaVuSans-110"/>
       <path d="M 9.421875 54.6875 
L 18.40625 54.6875 
L 18.40625 0 
L 9.421875 0 
z
M 9.421875 75.984375 
L 18.40625 75.984375 
L 18.40625 64.59375 
L 9.421875 64.59375 
z
" id="DejaVuSans-105"/>
       <path d="M 18.3125 70.21875 
L 18.3125 54.6875 
L 36.8125 54.6875 
L 36.8125 47.703125 
L 18.3125 47.703125 
L 18.3125 18.015625 
Q 18.3125 11.328125 20.140625 9.421875 
Q 21.96875 7.515625 27.59375 7.515625 
L 36.8125 7.515625 
L 36.8125 0 
L 27.59375 0 
Q 17.1875 0 13.234375 3.875 
Q 9.28125 7.765625 9.28125 18.015625 
L 9.28125 47.703125 
L 2.6875 47.703125 
L 2.6875 54.6875 
L 9.28125 54.6875 
L 9.28125 70.21875 
z
" id="DejaVuSans-116"/>
       <path d="M 11.71875 12.40625 
L 22.015625 12.40625 
L 22.015625 0 
L 11.71875 0 
z
M 11.71875 51.703125 
L 22.015625 51.703125 
L 22.015625 39.3125 
L 11.71875 39.3125 
z
" id="DejaVuSans-58"/>
       <path id="DejaVuSans-32"/>
       <path d="M 9.078125 75.984375 
L 18.109375 75.984375 
L 18.109375 31.109375 
L 44.921875 54.6875 
L 56.390625 54.6875 
L 27.390625 29.109375 
L 57.625 0 
L 45.90625 0 
L 18.109375 26.703125 
L 18.109375 0 
L 9.078125 0 
z
" id="DejaVuSans-107"/>
       <path d="M 52 44.1875 
Q 55.375 50.25 60.0625 53.125 
Q 64.75 56 71.09375 56 
Q 79.640625 56 84.28125 50.015625 
Q 88.921875 44.046875 88.921875 33.015625 
L 88.921875 0 
L 79.890625 0 
L 79.890625 32.71875 
Q 79.890625 40.578125 77.09375 44.375 
Q 74.3125 48.1875 68.609375 48.1875 
Q 61.625 48.1875 57.5625 43.546875 
Q 53.515625 38.921875 53.515625 30.90625 
L 53.515625 0 
L 44.484375 0 
L 44.484375 32.71875 
Q 44.484375 40.625 41.703125 44.40625 
Q 38.921875 48.1875 33.109375 48.1875 
Q 26.21875 48.1875 22.15625 43.53125 
Q 18.109375 38.875 18.109375 30.90625 
L 18.109375 0 
L 9.078125 0 
L 9.078125 54.6875 
L 18.109375 54.6875 
L 18.109375 46.1875 
Q 21.1875 51.21875 25.484375 53.609375 
Q 29.78125 56 35.6875 56 
Q 41.65625 56 45.828125 52.96875 
Q 50 49.953125 52 44.1875 
z
" id="DejaVuSans-109"/>
      </defs>
      <use xlink:href="#DejaVuSans-85"/>
      <use x="73.193359" xlink:href="#DejaVuSans-110"/>
      <use x="136.572266" xlink:href="#DejaVuSans-105"/>
      <use x="164.355469" xlink:href="#DejaVuSans-116"/>
      <use x="203.564453" xlink:href="#DejaVuSans-58"/>
      <use x="237.255859" xlink:href="#DejaVuSans-32"/>
      <use x="269.042969" xlink:href="#DejaVuSans-49"/>
      <use x="332.666016" xlink:href="#DejaVuSans-48"/>
      <use x="396.289062" xlink:href="#DejaVuSans-48"/>
      <use x="459.912109" xlink:href="#DejaVuSans-48"/>
      <use x="523.535156" xlink:href="#DejaVuSans-32"/>
      <use x="555.322266" xlink:href="#DejaVuSans-107"/>
      <use x="613.232422" xlink:href="#DejaVuSans-109"/>
     </g>
    </g>
   </g>
   <g id="matplotlib.axis_2">
    <g id="ytick_1">
     <g id="line2d_11">
      <path clip-path="url(#p48b577e58a)" d="M 60.114063 559.110857 
L 858.450063 559.110857 
" style="fill:none;stroke:#b0b0b0;stroke-linecap:square;stroke-width:0.8;"/>
     </g>
     <g id="line2d_12">
      <defs>
       <path d="M 0 0 
L -3.5 0 
" id="m93c7110f69" style="stroke:#000000;stroke-width:0.8;"/>
      </defs>
      <g>
       <use style="stroke:#000000;stroke-width:0.8;" x="60.114063" xlink:href="#m93c7110f69" y="559.110857"/>
      </g>
     </g>
     <g id="text_7">
      <!-- -150.0 -->
      <g transform="translate(20.878125 562.910076)scale(0.1 -0.1)">
       <defs>
        <path d="M 4.890625 31.390625 
L 31.203125 31.390625 
L 31.203125 23.390625 
L 4.890625 23.390625 
z
" id="DejaVuSans-45"/>
        <path d="M 10.796875 72.90625 
L 49.515625 72.90625 
L 49.515625 64.59375 
L 19.828125 64.59375 
L 19.828125 46.734375 
Q 21.96875 47.46875 24.109375 47.828125 
Q 26.265625 48.1875 28.421875 48.1875 
Q 40.625 48.1875 47.75 41.5 
Q 54.890625 34.8125 54.890625 23.390625 
Q 54.890625 11.625 47.5625 5.09375 
Q 40.234375 -1.421875 26.90625 -1.421875 
Q 22.3125 -1.421875 17.546875 -0.640625 
Q 12.796875 0.140625 7.71875 1.703125 
L 7.71875 11.625 
Q 12.109375 9.234375 16.796875 8.0625 
Q 21.484375 6.890625 26.703125 6.890625 
Q 35.15625 6.890625 40.078125 11.328125 
Q 45.015625 15.765625 45.015625 23.390625 
Q 45.015625 31 40.078125 35.4375 
Q 35.15625 39.890625 26.703125 39.890625 
Q 22.75 39.890625 18.8125 39.015625 
Q 14.890625 38.140625 10.796875 36.28125 
z
" id="DejaVuSans-53"/>
       </defs>
       <use xlink:href="#DejaVuSans-45"/>
       <use x="36.083984" xlink:href="#DejaVuSans-49"/>
       <use x="99.707031" xlink:href="#DejaVuSans-53"/>
       <use x="163.330078" xlink:href="#DejaVuSans-48"/>
       <use x="226.953125" xlink:href="#DejaVuSans-46"/>
       <use x="258.740234" xlink:href="#DejaVuSans-48"/>
      </g>
     </g>
    </g>
    <g id="ytick_2">
     <g id="line2d_13">
      <path clip-path="url(#p48b577e58a)" d="M 60.114063 477.648 
L 858.450063 477.648 
" style="fill:none;stroke:#b0b0b0;stroke-linecap:square;stroke-width:0.8;"/>
     </g>
     <g id="line2d_14">
      <g>
       <use style="stroke:#000000;stroke-width:0.8;" x="60.114063" xlink:href="#m93c7110f69" y="477.648"/>
      </g>
     </g>
     <g id="text_8">
      <!-- -100.0 -->
      <g transform="translate(20.878125 481.447219)scale(0.1 -0.1)">
       <use xlink:href="#DejaVuSans-45"/>
       <use x="36.083984" xlink:href="#DejaVuSans-49"/>
       <use x="99.707031" xlink:href="#DejaVuSans-48"/>
       <use x="163.330078" xlink:href="#DejaVuSans-48"/>
       <use x="226.953125" xlink:href="#DejaVuSans-46"/>
       <use x="258.740234" xlink:href="#DejaVuSans-48"/>
      </g>
     </g>
    </g>
    <g id="ytick_3">
     <g id="line2d_15">
      <path clip-path="url(#p48b577e58a)" d="M 60.114063 396.185143 
L 858.450063 396.185143 
" style="fill:none;stroke:#b0b0b0;stroke-linecap:square;stroke-width:0.8;"/>
     </g>
     <g id="line2d_16">
      <g>
       <use style="stroke:#000000;stroke-width:0.8;" x="60.114063" xlink:href="#m93c7110f69" y="396.185143"/>
      </g>
     </g>
     <g id="text_9">
      <!-- -50.0 -->
      <g transform="translate(27.240625 399.984362)scale(0.1 -0.1)">
       <use xlink:href="#DejaVuSans-45"/>
       <use x="36.083984" xlink:href="#DejaVuSans-53"/>
       <use x="99.707031" xlink:href="#DejaVuSans-48"/>
       <use x="163.330078" xlink:href="#DejaVuSans-46"/>
       <use x="195.117188" xlink:href="#DejaVuSans-48"/>
      </g>
     </g>
    </g>
    <g id="ytick_4">
     <g id="line2d_17">
      <path clip-path="url(#p48b577e58a)" d="M 60.114063 314.722286 
L 858.450063 314.722286 
" style="fill:none;stroke:#b0b0b0;stroke-linecap:square;stroke-width:0.8;"/>
     </g>
     <g id="line2d_18">
      <g>
       <use style="stroke:#000000;stroke-width:0.8;" x="60.114063" xlink:href="#m93c7110f69" y="314.722286"/>
      </g>
     </g>
     <g id="text_10">
      <!-- 0.0 -->
      <g transform="translate(37.210938 318.521504)scale(0.1 -0.1)">
       <use xlink:href="#DejaVuSans-48"/>
       <use x="63.623047" xlink:href="#DejaVuSans-46"/>
       <use x="95.410156" xlink:href="#DejaVuSans-48"/>
      </g>
     </g>
    </g>
    <g id="ytick_5">
     <g id="line2d_19">
      <path clip-path="url(#p48b577e58a)" d="M 60.114063 233.259429 
L 858.450063 233.259429 
" style="fill:none;stroke:#b0b0b0;stroke-linecap:square;stroke-width:0.8;"/>
     </g>
     <g id="line2d_20">
      <g>
       <use style="stroke:#000000;stroke-width:0.8;" x="60.114063" xlink:href="#m93c7110f69" y="233.259429"/>
      </g>
     </g>
     <g id="text_11">
      <!-- 50.0 -->
      <g transform="translate(30.848438 237.058647)scale(0.1 -0.1)">
       <use xlink:href="#DejaVuSans-53"/>
       <use x="63.623047" xlink:href="#DejaVuSans-48"/>
       <use x="127.246094" xlink:href="#DejaVuSans-46"/>
       <use x="159.033203" xlink:href="#DejaVuSans-48"/>
      </g>
     </g>
    </g>
    <g id="ytick_6">
     <g id="line2d_21">
      <path clip-path="url(#p48b577e58a)" d="M 60.114063 151.796571 
L 858.450063 151.796571 
" style="fill:none;stroke:#b0b0b0;stroke-linecap:square;stroke-width:0.8;"/>
     </g>
     <g id="line2d_22">
      <g>
       <use style="stroke:#000000;stroke-width:0.8;" x="60.114063" xlink:href="#m93c7110f69" y="151.796571"/>
      </g>
     </g>
     <g id="text_12">
      <!-- 100.0 -->
      <g transform="translate(24.485938 155.59579)scale(0.1 -0.1)">
       <use xlink:href="#DejaVuSans-49"/>
       <use x="63.623047" xlink:href="#DejaVuSans-48"/>
       <use x="127.246094" xlink:href="#DejaVuSans-48"/>
       <use x="190.869141" xlink:href="#DejaVuSans-46"/>
       <use x="222.65625" xlink:href="#DejaVuSans-48"/>
      </g>
     </g>
    </g>
    <g id="ytick_7">
     <g id="line2d_23">
      <path clip-path="url(#p48b577e58a)" d="M 60.114063 70.333714 
L 858.450063 70.333714 
" style="fill:none;stroke:#b0b0b0;stroke-linecap:square;stroke-width:0.8;"/>
     </g>
     <g id="line2d_24">
      <g>
       <use style="stroke:#000000;stroke-width:0.8;" x="60.114063" xlink:href="#m93c7110f69" y="70.333714"/>
      </g>
     </g>
     <g id="text_13">
      <!-- 150.0 -->
      <g transform="translate(24.485938 74.132933)scale(0.1 -0.1)">
       <use xlink:href="#DejaVuSans-49"/>
       <use x="63.623047" xlink:href="#DejaVuSans-53"/>
       <use x="127.246094" xlink:href="#DejaVuSans-48"/>
       <use x="190.869141" xlink:href="#DejaVuSans-46"/>
       <use x="222.65625" xlink:href="#DejaVuSans-48"/>
      </g>
     </g>
    </g>
    <g id="text_14">
     <!-- Unit: 1000 km -->
     <g transform="translate(14.798438 342.106469)rotate(-90)scale(0.1 -0.1)">
      <use xlink:href="#DejaVuSans-85"/>
      <use x="73.193359" xlink:href="#DejaVuSans-110"/>
      <use x="136.572266" xlink:href="#DejaVuSans-105"/>
      <use x="164.355469" xlink:href="#DejaVuSans-116"/>
      <use x="203.564453" xlink:href="#DejaVuSans-58"/>
      <use x="237.255859" xlink:href="#DejaVuSans-32"/>
      <use x="269.042969" xlink:href="#DejaVuSans-49"/>
      <use x="332.666016" xlink:href="#DejaVuSans-48"/>
      <use x="396.289062" xlink:href="#DejaVuSans-48"/>
      <use x="459.912109" xlink:href="#DejaVuSans-48"/>
      <use x="523.535156" xlink:href="#DejaVuSans-32"/>
      <use x="555.322266" xlink:href="#DejaVuSans-107"/>
      <use x="613.232422" xlink:href="#DejaVuSans-109"/>
     </g>
    </g>
   </g>
   <g id="line2d_25">
    <path clip-path="url(#p48b577e58a)" d="M 743.968398 314.722121 
L 743.763122 314.611012 
L 743.401824 314.158118 
L 743.016374 313.288145 
L 742.822861 312.589176 
L 742.822861 312.589176 
" style="fill:none;stroke:#c0c0c0;stroke-linecap:square;stroke-width:1.5;"/>
   </g>
   <g id="line2d_26">
    <path clip-path="url(#p48b577e58a)" d="M 113.726717 324.657988 
L 116.25654 325.481735 
L 118.82972 325.98419 
L 121.373805 326.189387 
L 123.837882 326.142613 
L 126.194191 325.89454 
L 129.152247 325.329097 
L 131.904719 324.572828 
L 135.083136 323.450096 
L 138.567067 321.941485 
L 142.257933 320.057197 
L 146.082741 317.824479 
L 149.990974 315.277269 
L 154.326204 312.168526 
L 158.967291 308.544174 
L 163.826171 304.457151 
L 169.122995 299.700463 
L 174.74388 294.352502 
L 181.074971 288.011656 
L 188.154758 280.589805 
L 196.190776 271.829419 
L 205.83421 260.973045 
L 219.357608 245.37886 
L 247.723176 212.596807 
L 259.380271 199.514183 
L 269.678059 188.284504 
L 279.16039 178.26591 
L 288.267044 168.96627 
L 296.94356 160.419741 
L 305.450231 152.351444 
L 313.707634 144.822818 
L 321.844123 137.702155 
L 329.87557 130.966371 
L 337.814883 124.59531 
L 345.672608 118.57122 
L 353.556761 112.807451 
L 361.373477 107.368846 
L 369.128819 102.242297 
L 376.82775 97.415976 
L 384.5708 92.82353 
L 392.263572 88.517798 
L 400.004081 84.440847 
L 407.6981 80.639432 
L 415.34736 77.105381 
L 423.046786 73.792303 
L 430.702618 70.738195 
L 438.408043 67.903628 
L 446.069763 65.32085 
L 453.779357 62.957007 
L 461.44408 60.838731 
L 469.153981 58.939413 
L 476.81696 57.280192 
L 484.521571 55.840428 
L 492.176455 54.635882 
L 499.86867 53.651631 
L 507.507701 52.898183 
L 515.179087 52.366108 
L 522.793258 52.060771 
L 530.434192 51.978037 
L 538.013371 52.118237 
L 545.613153 52.482346 
L 553.146186 53.065769 
L 560.693137 53.874424 
L 568.167937 54.898893 
L 575.649473 56.149876 
L 583.053083 57.613237 
L 590.455786 59.30431 
L 597.774448 61.204343 
L 605.084116 63.333156 
L 612.303314 65.667494 
L 619.505018 68.231525 
L 626.609531 70.997588 
L 633.614449 73.961826 
L 640.589481 77.154725 
L 647.457885 80.542286 
L 654.287024 84.158997 
L 661.002253 87.966757 
L 667.601053 91.96179 
L 674.147085 96.184411 
L 680.569133 100.590636 
L 686.928207 105.224478 
L 693.155496 110.038167 
L 699.248369 115.028026 
L 705.263647 120.24347 
L 711.136387 125.631358 
L 716.863869 131.188145 
L 722.443358 136.910389 
L 727.872089 142.79475 
L 733.147254 148.838005 
L 738.265988 155.037065 
L 743.225343 161.388986 
L 748.022259 167.890991 
L 752.653531 174.54049 
L 757.115762 181.335101 
L 761.405304 188.272685 
L 765.477937 195.279884 
L 769.373152 202.423828 
L 773.049579 209.629076 
L 776.507458 216.890675 
L 779.746501 224.204053 
L 782.76575 231.564944 
L 785.563429 238.969279 
L 788.110172 246.33235 
L 790.433121 253.728076 
L 792.50537 261.068596 
L 794.328191 268.344678 
L 795.902615 275.545921 
L 797.229937 282.660428 
L 798.312425 289.674618 
L 799.154156 296.573321 
L 799.768298 303.428357 
L 800.156285 310.223947 
L 800.323807 317.032297 
L 800.270913 323.837432 
L 799.996331 330.711954 
L 799.498589 337.640608 
L 798.768695 344.696316 
L 797.802238 351.864795 
L 796.596483 359.133256 
L 795.149587 366.490478 
L 793.459938 373.926629 
L 791.525681 381.432949 
L 789.34444 389.001388 
L 786.939804 396.544598 
L 784.285525 404.137 
L 781.407768 411.693625 
L 778.307365 419.210144 
L 774.984482 426.681941 
L 771.438757 434.104043 
L 767.707644 441.398782 
L 763.755459 448.635308 
L 759.622628 455.737862 
L 755.312868 462.70404 
L 750.829645 469.53122 
L 746.176236 476.216588 
L 741.355769 482.757161 
L 736.371267 489.149804 
L 731.225669 495.391247 
L 725.92186 501.478103 
L 720.462688 507.406882 
L 714.850978 513.173998 
L 709.089535 518.775778 
L 703.181171 524.208476 
L 697.189319 529.417056 
L 691.058936 534.452371 
L 684.792772 539.310594 
L 678.458243 543.941978 
L 671.996057 548.392165 
L 665.408944 552.657282 
L 658.768024 556.693191 
L 652.010065 560.540051 
L 645.208469 564.157662 
L 638.297509 567.582403 
L 631.279846 570.810387 
L 624.232099 573.8075 
L 617.085073 576.604154 
L 609.917339 579.17048 
L 602.657504 581.532772 
L 595.38595 583.665512 
L 588.029216 585.590748 
L 580.669353 587.287414 
L 573.230945 588.773176 
L 565.797586 590.031526 
L 558.292014 591.075607 
L 550.799232 591.89357 
L 543.240236 592.493891 
L 535.701307 592.869484 
L 528.101803 593.024003 
L 520.529157 592.955224 
L 512.901181 592.661824 
L 505.306333 592.146545 
L 497.748112 591.412662 
L 490.14212 590.451133 
L 482.57811 589.272372 
L 474.970325 587.861941 
L 467.409258 586.235458 
L 459.80784 584.37289 
L 452.257203 582.29517 
L 444.66899 579.976434 
L 437.134865 577.443053 
L 429.565186 574.663071 
L 422.052054 571.668412 
L 414.504511 568.42074 
L 407.014998 564.957652 
L 399.491162 561.234082 
L 391.932147 557.242489 
L 384.430706 553.029135 
L 376.89209 548.537874 
L 369.409117 543.820984 
L 361.885124 538.814305 
L 354.412862 533.576241 
L 346.893345 528.033903 
L 339.32164 522.174733 
L 331.789903 516.066266 
L 324.194263 509.620376 
L 316.525986 502.820135 
L 308.774364 495.646356 
L 300.926206 488.077126 
L 292.965177 480.08719 
L 284.870872 471.647161 
L 276.509181 462.603176 
L 267.838827 452.892277 
L 258.689792 442.303146 
L 248.852863 430.568042 
L 237.799595 417.024938 
L 223.282386 398.855371 
L 199.33728 368.860941 
L 189.952782 357.491827 
L 182.317288 348.574668 
L 175.632198 341.098846 
L 169.707682 334.795356 
L 164.236584 329.294407 
L 159.388337 324.717307 
L 154.684567 320.581109 
L 150.587455 317.252841 
L 146.456485 314.185867 
L 142.786884 311.730945 
L 139.229942 309.619081 
L 138.141681 309.029746 
L 138.141681 309.029746 
" style="fill:none;stroke:#0000ff;stroke-linecap:square;stroke-width:1.5;"/>
   </g>
   <g id="line2d_27">
    <path clip-path="url(#p48b577e58a)" d="M 743.968398 314.722121 
L 743.763122 314.611012 
L 743.401824 314.158118 
L 743.016374 313.288145 
L 742.822861 312.589176 
L 742.822861 312.589176 
" style="fill:none;stroke:#c0c0c0;stroke-linecap:square;stroke-width:1.5;"/>
   </g>
   <g id="line2d_28">
    <path clip-path="url(#p48b577e58a)" d="M 113.382374 324.514012 
L 115.881801 325.425547 
L 118.435776 326.017497 
L 120.971053 326.311355 
L 123.435169 326.350597 
L 125.798609 326.184893 
L 128.774476 325.722994 
L 131.551537 325.063191 
L 134.767022 324.051981 
L 138.301243 322.665752 
L 142.055302 320.911255 
L 145.955289 318.813183 
L 149.949519 316.403694 
L 154.3899 313.447869 
L 159.153737 309.987392 
L 164.151152 306.072111 
L 169.609283 301.50284 
L 175.411548 296.353974 
L 181.957657 290.237627 
L 189.288998 283.067118 
L 197.621687 274.592377 
L 207.632298 264.079239 
L 221.521844 249.140622 
L 251.415669 216.915022 
L 263.495491 204.271312 
L 274.156742 193.427969 
L 283.963343 183.76406 
L 293.370686 174.804172 
L 302.323038 166.580599 
L 311.08947 158.828269 
L 319.588522 151.605754 
L 327.952752 144.786166 
L 336.19875 138.34706 
L 344.340058 132.268794 
L 352.387787 126.534034 
L 360.452678 121.060127 
L 368.438831 115.908486 
L 376.352735 111.066247 
L 384.298667 106.466121 
L 392.180579 102.160391 
L 400.002216 98.139052 
L 407.863326 94.347814 
L 415.668302 90.829968 
L 423.419149 87.577428 
L 431.212134 84.547311 
L 438.952431 81.77418 
L 446.734329 79.222039 
L 454.463668 76.919729 
L 462.232903 74.837761 
L 469.948627 72.999388 
L 477.701548 71.381304 
L 485.399098 70.0013 
L 493.130284 68.841978 
L 500.803472 67.915789 
L 508.505969 67.210992 
L 516.147177 66.734822 
L 523.81269 66.480974 
L 531.413035 66.451582 
L 539.032062 66.645581 
L 546.58153 67.060116 
L 554.143489 67.699173 
L 561.63104 68.555022 
L 569.124368 69.636531 
L 576.538026 70.931204 
L 583.950256 72.452635 
L 591.277179 74.183668 
L 598.59501 76.142469 
L 605.821559 78.307333 
L 613.030916 80.700858 
L 620.142702 83.296899 
L 627.154729 86.091564 
L 634.137768 89.113873 
L 641.014416 92.331302 
L 647.853063 95.776955 
L 654.578423 99.414167 
L 661.256396 103.280008 
L 667.813928 107.333799 
L 674.24862 111.571826 
L 680.622467 116.036932 
L 686.866021 120.682713 
L 692.976821 125.505594 
L 699.012663 130.553955 
L 704.907954 135.776003 
L 710.660123 141.16836 
L 716.266571 146.727778 
L 721.724669 152.451142 
L 727.031724 158.335492 
L 732.184977 164.378045 
L 737.18156 170.576214 
L 742.018476 176.927641 
L 746.692542 183.430225 
L 751.200337 190.082167 
L 755.538126 196.88201 
L 759.660584 203.75779 
L 763.568442 210.704511 
L 767.299538 217.791489 
L 770.812256 224.943874 
L 774.071679 232.08156 
L 777.113274 239.275324 
L 779.904136 246.442942 
L 782.445994 253.577482 
L 784.739483 260.671711 
L 786.784197 267.717645 
L 788.558524 274.621163 
L 790.086518 281.453521 
L 791.367519 288.201479 
L 792.402458 294.84937 
L 793.195057 301.379395 
L 793.759117 307.861518 
L 794.100787 314.366586 
L 794.218586 320.876311 
L 794.112832 327.461591 
L 793.78217 334.104808 
L 793.220319 340.877751 
L 792.424172 347.764663 
L 791.392752 354.75193 
L 790.109611 361.912875 
L 788.586693 369.151084 
L 786.802846 376.540875 
L 784.773992 383.99029 
L 782.498505 391.492641 
L 780.001313 398.962523 
L 777.255256 406.474557 
L 774.287378 413.945331 
L 771.098314 421.371115 
L 767.688 428.747704 
L 764.055837 436.070407 
L 760.239902 443.262764 
L 756.203429 450.393035 
L 751.987483 457.386583 
L 747.595592 464.241063 
L 743.031062 470.953874 
L 738.297029 477.5222 
L 733.39651 483.943028 
L 728.332427 490.213178 
L 723.107637 496.32933 
L 717.724958 502.288026 
L 712.187175 508.085705 
L 706.497064 513.718699 
L 700.715934 519.129983 
L 694.790881 524.372415 
L 688.724604 529.442195 
L 682.582543 534.287411 
L 676.307376 538.955804 
L 669.901772 543.443502 
L 663.435044 547.704047 
L 656.845764 551.779811 
L 650.136581 555.666873 
L 643.380403 559.324549 
L 636.511983 562.789552 
L 629.606434 566.025242 
L 622.596076 569.064431 
L 615.558094 571.874638 
L 608.422507 574.484646 
L 601.268432 576.866247 
L 594.023707 579.044061 
L 586.769247 580.994262 
L 579.430821 582.737171 
L 572.091009 584.253452 
L 564.673627 585.558992 
L 557.262788 586.639045 
L 549.780459 587.504915 
L 542.312156 588.146556 
L 534.778099 588.570544 
L 527.26508 588.771632 
L 519.691667 588.751505 
L 512.145805 588.509826 
L 504.544491 588.043227 
L 496.976706 587.356376 
L 489.357947 586.440673 
L 481.77812 585.30591 
L 474.151281 583.938058 
L 466.568146 582.352139 
L 458.941377 580.528482 
L 451.362392 578.487454 
L 443.742482 576.20351 
L 436.173668 573.702481 
L 428.565857 570.952671 
L 421.011576 567.985501 
L 413.419318 564.762819 
L 405.882011 561.321762 
L 398.306643 557.617361 
L 390.786456 553.692598 
L 383.226788 549.495254 
L 375.721079 545.074289 
L 368.172789 540.369708 
L 360.579017 535.371427 
L 353.033199 530.137442 
L 345.435175 524.594574 
L 337.878162 518.807063 
L 330.258824 512.691848 
L 322.569504 506.233268 
L 314.800834 499.413662 
L 307.044029 492.30902 
L 299.18512 484.811055 
L 291.207267 476.894301 
L 282.981587 468.415867 
L 274.584577 459.440633 
L 265.867463 449.797579 
L 256.655659 439.273087 
L 246.733272 427.595665 
L 235.425839 413.936059 
L 220.089313 395.026317 
L 198.338032 368.228439 
L 188.795845 356.840212 
L 181.01703 347.890431 
L 174.188937 340.372062 
L 168.117171 334.019457 
L 162.782099 328.747896 
L 157.796447 324.127482 
L 153.298276 320.248842 
L 149.071988 316.887997 
L 145.23374 314.102101 
L 141.442156 311.627755 
L 138.294261 309.805848 
L 134.811112 308.062594 
L 131.586747 306.732329 
L 128.750521 305.813139 
L 126.451955 305.258861 
L 123.997137 304.875033 
L 121.392758 304.728613 
L 119.58927 304.801899 
L 117.754994 305.038939 
L 115.919963 305.456951 
L 114.120862 306.062039 
L 112.395187 306.84579 
L 110.774145 307.786145 
L 109.277679 308.852462 
L 107.280754 310.617206 
L 105.567873 312.496986 
L 104.103935 314.424211 
L 102.470137 316.997664 
L 101.123377 319.52937 
L 99.745436 322.602313 
L 98.423283 326.140569 
L 97.209149 330.068695 
L 96.12877 334.320302 
L 95.100708 339.327718 
L 94.193234 344.960603 
L 93.440322 351.108878 
L 92.823663 358.080963 
L 92.375961 365.729687 
L 92.090134 374.625012 
L 91.999477 384.532764 
L 92.118642 396.149527 
L 92.495615 410.485639 
L 93.273766 430.838505 
L 93.770372 442.551077 
L 93.770372 442.551077 
" style="fill:none;stroke:#ffff00;stroke-linecap:square;stroke-width:1.5;"/>
   </g>
   <g id="patch_7">
    <path d="M 60.114063 605.952 
L 60.114063 7.2 
" style="fill:none;stroke:#000000;stroke-linecap:square;stroke-linejoin:miter;stroke-width:0.8;"/>
   </g>
   <g id="patch_8">
    <path d="M 858.450063 605.952 
L 858.450063 7.2 
" style="fill:none;stroke:#000000;stroke-linecap:square;stroke-linejoin:miter;stroke-width:0.8;"/>
   </g>
   <g id="patch_9">
    <path d="M 60.114063 605.952 
L 858.450063 605.952 
" style="fill:none;stroke:#000000;stroke-linecap:square;stroke-linejoin:miter;stroke-width:0.8;"/>
   </g>
   <g id="patch_10">
    <path d="M 60.114063 7.2 
L 858.450063 7.2 
" style="fill:none;stroke:#000000;stroke-linecap:square;stroke-linejoin:miter;stroke-width:0.8;"/>
   </g>
  </g>
 </g>
 <defs>
  <clipPath id="p48b577e58a">
   <rect height="598.752" width="798.336" x="60.114063" y="7.2"/>
  </clipPath>
 </defs>
</svg>
