<?xml version="1.0" encoding="utf-8" standalone="no"?>
<!DOCTYPE svg PUBLIC "-//W3C//DTD SVG 1.1//EN"
  "http://www.w3.org/Graphics/SVG/1.1/DTD/svg11.dtd">
<!-- Created with matplotlib (https://matplotlib.org/) -->
<svg height="1391.94825pt" version="1.1" viewBox="0 0 1863.570062 1391.94825" width="1863.570062pt" xmlns="http://www.w3.org/2000/svg" xmlns:xlink="http://www.w3.org/1999/xlink">
 <metadata>
  <rdf:RDF xmlns:cc="http://creativecommons.org/ns#" xmlns:dc="http://purl.org/dc/elements/1.1/" xmlns:rdf="http://www.w3.org/1999/02/22-rdf-syntax-ns#">
   <cc:Work>
    <dc:type rdf:resource="http://purl.org/dc/dcmitype/StillImage"/>
    <dc:date>2021-08-06T14:46:14.475121</dc:date>
    <dc:format>image/svg+xml</dc:format>
    <dc:creator>
     <cc:Agent>
      <dc:title>Matplotlib v3.3.2, https://matplotlib.org/</dc:title>
     </cc:Agent>
    </dc:creator>
   </cc:Work>
  </rdf:RDF>
 </metadata>
 <defs>
  <style type="text/css">*{stroke-linecap:butt;stroke-linejoin:round;}</style>
 </defs>
 <g id="figure_1">
  <g id="patch_1">
   <path d="M 0 1391.94825 
L 1863.570062 1391.94825 
L 1863.570062 0 
L 0 0 
z
" style="fill:#ffffff;"/>
  </g>
  <g id="axes_1">
   <g id="patch_2">
    <path d="M 60.114062 1354.392 
L 1856.370062 1354.392 
L 1856.370062 7.2 
L 60.114062 7.2 
z
" style="fill:#ffffff;"/>
   </g>
   <g id="patch_3">
    <path clip-path="url(#p220019757a)" d="M 189.634483 722.505801 
C 195.835105 722.505801 201.782601 720.042268 206.167103 715.657766 
C 210.551605 711.273264 213.015138 705.325769 213.015138 699.125147 
C 213.015138 692.924524 210.551605 686.977029 206.167103 682.592527 
C 201.782601 678.208025 195.835105 675.744492 189.634483 675.744492 
C 183.433861 675.744492 177.486366 678.208025 173.101864 682.592527 
C 168.717362 686.977029 166.253829 692.924524 166.253829 699.125147 
C 166.253829 705.325769 168.717362 711.273264 173.101864 715.657766 
C 177.486366 720.042268 183.433861 722.505801 189.634483 722.505801 
z
" style="fill:#00008b;stroke:#00008b;stroke-linejoin:miter;"/>
   </g>
   <g id="patch_4">
    <path clip-path="url(#p220019757a)" d="M 1598.786318 705.492317 
C 1600.47501 705.492317 1602.094766 704.821392 1603.288852 703.627306 
C 1604.482938 702.43322 1605.153862 700.813465 1605.153862 699.124773 
C 1605.153862 697.43608 1604.482938 695.816325 1603.288852 694.622239 
C 1602.094766 693.428153 1600.47501 692.757228 1598.786318 692.757228 
C 1597.097625 692.757228 1595.47787 693.428153 1594.283784 694.622239 
C 1593.089698 695.816325 1592.418774 697.43608 1592.418774 699.124773 
C 1592.418774 700.813465 1593.089698 702.43322 1594.283784 703.627306 
C 1595.47787 704.821392 1597.097625 705.492317 1598.786318 705.492317 
z
" style="fill:#808080;stroke:#808080;stroke-linejoin:miter;"/>
   </g>
   <g id="patch_5">
    <path clip-path="url(#p220019757a)" d="M 189.634483 722.505801 
C 195.835105 722.505801 201.782601 720.042268 206.167103 715.657766 
C 210.551605 711.273264 213.015138 705.325769 213.015138 699.125147 
C 213.015138 692.924524 210.551605 686.977029 206.167103 682.592527 
C 201.782601 678.208025 195.835105 675.744492 189.634483 675.744492 
C 183.433861 675.744492 177.486366 678.208025 173.101864 682.592527 
C 168.717362 686.977029 166.253829 692.924524 166.253829 699.125147 
C 166.253829 705.325769 168.717362 711.273264 173.101864 715.657766 
C 177.486366 720.042268 183.433861 722.505801 189.634483 722.505801 
z
" style="fill:#00008b;stroke:#00008b;stroke-linejoin:miter;"/>
   </g>
   <g id="patch_6">
    <path clip-path="url(#p220019757a)" d="M 1598.786318 705.492317 
C 1600.47501 705.492317 1602.094766 704.821392 1603.288852 703.627306 
C 1604.482938 702.43322 1605.153862 700.813465 1605.153862 699.124773 
C 1605.153862 697.43608 1604.482938 695.816325 1603.288852 694.622239 
C 1602.094766 693.428153 1600.47501 692.757228 1598.786318 692.757228 
C 1597.097625 692.757228 1595.47787 693.428153 1594.283784 694.622239 
C 1593.089698 695.816325 1592.418774 697.43608 1592.418774 699.124773 
C 1592.418774 700.813465 1593.089698 702.43322 1594.283784 703.627306 
C 1595.47787 704.821392 1597.097625 705.492317 1598.786318 705.492317 
z
" style="fill:#808080;stroke:#808080;stroke-linejoin:miter;"/>
   </g>
   <g id="patch_7">
    <path clip-path="url(#p220019757a)" d="M 189.634483 722.505801 
C 195.835105 722.505801 201.782601 720.042268 206.167103 715.657766 
C 210.551605 711.273264 213.015138 705.325769 213.015138 699.125147 
C 213.015138 692.924524 210.551605 686.977029 206.167103 682.592527 
C 201.782601 678.208025 195.835105 675.744492 189.634483 675.744492 
C 183.433861 675.744492 177.486366 678.208025 173.101864 682.592527 
C 168.717362 686.977029 166.253829 692.924524 166.253829 699.125147 
C 166.253829 705.325769 168.717362 711.273264 173.101864 715.657766 
C 177.486366 720.042268 183.433861 722.505801 189.634483 722.505801 
z
" style="fill:#00008b;stroke:#00008b;stroke-linejoin:miter;"/>
   </g>
   <g id="patch_8">
    <path clip-path="url(#p220019757a)" d="M 1598.786318 705.492317 
C 1600.47501 705.492317 1602.094766 704.821392 1603.288852 703.627306 
C 1604.482938 702.43322 1605.153862 700.813465 1605.153862 699.124773 
C 1605.153862 697.43608 1604.482938 695.816325 1603.288852 694.622239 
C 1602.094766 693.428153 1600.47501 692.757228 1598.786318 692.757228 
C 1597.097625 692.757228 1595.47787 693.428153 1594.283784 694.622239 
C 1593.089698 695.816325 1592.418774 697.43608 1592.418774 699.124773 
C 1592.418774 700.813465 1593.089698 702.43322 1594.283784 703.627306 
C 1595.47787 704.821392 1597.097625 705.492317 1598.786318 705.492317 
z
" style="fill:#808080;stroke:#808080;stroke-linejoin:miter;"/>
   </g>
   <g id="patch_9">
    <path clip-path="url(#p220019757a)" d="M 189.634483 722.505801 
C 195.835105 722.505801 201.782601 720.042268 206.167103 715.657766 
C 210.551605 711.273264 213.015138 705.325769 213.015138 699.125147 
C 213.015138 692.924524 210.551605 686.977029 206.167103 682.592527 
C 201.782601 678.208025 195.835105 675.744492 189.634483 675.744492 
C 183.433861 675.744492 177.486366 678.208025 173.101864 682.592527 
C 168.717362 686.977029 166.253829 692.924524 166.253829 699.125147 
C 166.253829 705.325769 168.717362 711.273264 173.101864 715.657766 
C 177.486366 720.042268 183.433861 722.505801 189.634483 722.505801 
z
" style="fill:#00008b;stroke:#00008b;stroke-linejoin:miter;"/>
   </g>
   <g id="patch_10">
    <path clip-path="url(#p220019757a)" d="M 1598.786318 705.492317 
C 1600.47501 705.492317 1602.094766 704.821392 1603.288852 703.627306 
C 1604.482938 702.43322 1605.153862 700.813465 1605.153862 699.124773 
C 1605.153862 697.43608 1604.482938 695.816325 1603.288852 694.622239 
C 1602.094766 693.428153 1600.47501 692.757228 1598.786318 692.757228 
C 1597.097625 692.757228 1595.47787 693.428153 1594.283784 694.622239 
C 1593.089698 695.816325 1592.418774 697.43608 1592.418774 699.124773 
C 1592.418774 700.813465 1593.089698 702.43322 1594.283784 703.627306 
C 1595.47787 704.821392 1597.097625 705.492317 1598.786318 705.492317 
z
" style="fill:#808080;stroke:#808080;stroke-linejoin:miter;"/>
   </g>
   <g id="matplotlib.axis_1">
    <g id="xtick_1">
     <g id="line2d_1">
      <path clip-path="url(#p220019757a)" d="M 206.747205 1354.392 
L 206.747205 7.2 
" style="fill:none;stroke:#b0b0b0;stroke-linecap:square;stroke-width:0.8;"/>
     </g>
     <g id="line2d_2">
      <defs>
       <path d="M 0 0 
L 0 3.5 
" id="m329495a0c2" style="stroke:#000000;stroke-width:0.8;"/>
      </defs>
      <g>
       <use style="stroke:#000000;stroke-width:0.8;" x="206.747205" xlink:href="#m329495a0c2" y="1354.392"/>
      </g>
     </g>
     <g id="text_1">
      <!-- 0.0 -->
      <g transform="translate(198.795643 1368.990438)scale(0.1 -0.1)">
       <defs>
        <path d="M 31.78125 66.40625 
Q 24.171875 66.40625 20.328125 58.90625 
Q 16.5 51.421875 16.5 36.375 
Q 16.5 21.390625 20.328125 13.890625 
Q 24.171875 6.390625 31.78125 6.390625 
Q 39.453125 6.390625 43.28125 13.890625 
Q 47.125 21.390625 47.125 36.375 
Q 47.125 51.421875 43.28125 58.90625 
Q 39.453125 66.40625 31.78125 66.40625 
z
M 31.78125 74.21875 
Q 44.046875 74.21875 50.515625 64.515625 
Q 56.984375 54.828125 56.984375 36.375 
Q 56.984375 17.96875 50.515625 8.265625 
Q 44.046875 -1.421875 31.78125 -1.421875 
Q 19.53125 -1.421875 13.0625 8.265625 
Q 6.59375 17.96875 6.59375 36.375 
Q 6.59375 54.828125 13.0625 64.515625 
Q 19.53125 74.21875 31.78125 74.21875 
z
" id="DejaVuSans-48"/>
        <path d="M 10.6875 12.40625 
L 21 12.40625 
L 21 0 
L 10.6875 0 
z
" id="DejaVuSans-46"/>
       </defs>
       <use xlink:href="#DejaVuSans-48"/>
       <use x="63.623047" xlink:href="#DejaVuSans-46"/>
       <use x="95.410156" xlink:href="#DejaVuSans-48"/>
      </g>
     </g>
    </g>
    <g id="xtick_2">
     <g id="line2d_3">
      <path clip-path="url(#p220019757a)" d="M 573.330062 1354.392 
L 573.330062 7.2 
" style="fill:none;stroke:#b0b0b0;stroke-linecap:square;stroke-width:0.8;"/>
     </g>
     <g id="line2d_4">
      <g>
       <use style="stroke:#000000;stroke-width:0.8;" x="573.330062" xlink:href="#m329495a0c2" y="1354.392"/>
      </g>
     </g>
     <g id="text_2">
      <!-- 100.0 -->
      <g transform="translate(559.016 1368.990438)scale(0.1 -0.1)">
       <defs>
        <path d="M 12.40625 8.296875 
L 28.515625 8.296875 
L 28.515625 63.921875 
L 10.984375 60.40625 
L 10.984375 69.390625 
L 28.421875 72.90625 
L 38.28125 72.90625 
L 38.28125 8.296875 
L 54.390625 8.296875 
L 54.390625 0 
L 12.40625 0 
z
" id="DejaVuSans-49"/>
       </defs>
       <use xlink:href="#DejaVuSans-49"/>
       <use x="63.623047" xlink:href="#DejaVuSans-48"/>
       <use x="127.246094" xlink:href="#DejaVuSans-48"/>
       <use x="190.869141" xlink:href="#DejaVuSans-46"/>
       <use x="222.65625" xlink:href="#DejaVuSans-48"/>
      </g>
     </g>
    </g>
    <g id="xtick_3">
     <g id="line2d_5">
      <path clip-path="url(#p220019757a)" d="M 939.91292 1354.392 
L 939.91292 7.2 
" style="fill:none;stroke:#b0b0b0;stroke-linecap:square;stroke-width:0.8;"/>
     </g>
     <g id="line2d_6">
      <g>
       <use style="stroke:#000000;stroke-width:0.8;" x="939.91292" xlink:href="#m329495a0c2" y="1354.392"/>
      </g>
     </g>
     <g id="text_3">
      <!-- 200.0 -->
      <g transform="translate(925.598857 1368.990438)scale(0.1 -0.1)">
       <defs>
        <path d="M 19.1875 8.296875 
L 53.609375 8.296875 
L 53.609375 0 
L 7.328125 0 
L 7.328125 8.296875 
Q 12.9375 14.109375 22.625 23.890625 
Q 32.328125 33.6875 34.8125 36.53125 
Q 39.546875 41.84375 41.421875 45.53125 
Q 43.3125 49.21875 43.3125 52.78125 
Q 43.3125 58.59375 39.234375 62.25 
Q 35.15625 65.921875 28.609375 65.921875 
Q 23.96875 65.921875 18.8125 64.3125 
Q 13.671875 62.703125 7.8125 59.421875 
L 7.8125 69.390625 
Q 13.765625 71.78125 18.9375 73 
Q 24.125 74.21875 28.421875 74.21875 
Q 39.75 74.21875 46.484375 68.546875 
Q 53.21875 62.890625 53.21875 53.421875 
Q 53.21875 48.921875 51.53125 44.890625 
Q 49.859375 40.875 45.40625 35.40625 
Q 44.1875 33.984375 37.640625 27.21875 
Q 31.109375 20.453125 19.1875 8.296875 
z
" id="DejaVuSans-50"/>
       </defs>
       <use xlink:href="#DejaVuSans-50"/>
       <use x="63.623047" xlink:href="#DejaVuSans-48"/>
       <use x="127.246094" xlink:href="#DejaVuSans-48"/>
       <use x="190.869141" xlink:href="#DejaVuSans-46"/>
       <use x="222.65625" xlink:href="#DejaVuSans-48"/>
      </g>
     </g>
    </g>
    <g id="xtick_4">
     <g id="line2d_7">
      <path clip-path="url(#p220019757a)" d="M 1306.495777 1354.392 
L 1306.495777 7.2 
" style="fill:none;stroke:#b0b0b0;stroke-linecap:square;stroke-width:0.8;"/>
     </g>
     <g id="line2d_8">
      <g>
       <use style="stroke:#000000;stroke-width:0.8;" x="1306.495777" xlink:href="#m329495a0c2" y="1354.392"/>
      </g>
     </g>
     <g id="text_4">
      <!-- 300.0 -->
      <g transform="translate(1292.181714 1368.990438)scale(0.1 -0.1)">
       <defs>
        <path d="M 40.578125 39.3125 
Q 47.65625 37.796875 51.625 33 
Q 55.609375 28.21875 55.609375 21.1875 
Q 55.609375 10.40625 48.1875 4.484375 
Q 40.765625 -1.421875 27.09375 -1.421875 
Q 22.515625 -1.421875 17.65625 -0.515625 
Q 12.796875 0.390625 7.625 2.203125 
L 7.625 11.71875 
Q 11.71875 9.328125 16.59375 8.109375 
Q 21.484375 6.890625 26.8125 6.890625 
Q 36.078125 6.890625 40.9375 10.546875 
Q 45.796875 14.203125 45.796875 21.1875 
Q 45.796875 27.640625 41.28125 31.265625 
Q 36.765625 34.90625 28.71875 34.90625 
L 20.21875 34.90625 
L 20.21875 43.015625 
L 29.109375 43.015625 
Q 36.375 43.015625 40.234375 45.921875 
Q 44.09375 48.828125 44.09375 54.296875 
Q 44.09375 59.90625 40.109375 62.90625 
Q 36.140625 65.921875 28.71875 65.921875 
Q 24.65625 65.921875 20.015625 65.03125 
Q 15.375 64.15625 9.8125 62.3125 
L 9.8125 71.09375 
Q 15.4375 72.65625 20.34375 73.4375 
Q 25.25 74.21875 29.59375 74.21875 
Q 40.828125 74.21875 47.359375 69.109375 
Q 53.90625 64.015625 53.90625 55.328125 
Q 53.90625 49.265625 50.4375 45.09375 
Q 46.96875 40.921875 40.578125 39.3125 
z
" id="DejaVuSans-51"/>
       </defs>
       <use xlink:href="#DejaVuSans-51"/>
       <use x="63.623047" xlink:href="#DejaVuSans-48"/>
       <use x="127.246094" xlink:href="#DejaVuSans-48"/>
       <use x="190.869141" xlink:href="#DejaVuSans-46"/>
       <use x="222.65625" xlink:href="#DejaVuSans-48"/>
      </g>
     </g>
    </g>
    <g id="xtick_5">
     <g id="line2d_9">
      <path clip-path="url(#p220019757a)" d="M 1673.078634 1354.392 
L 1673.078634 7.2 
" style="fill:none;stroke:#b0b0b0;stroke-linecap:square;stroke-width:0.8;"/>
     </g>
     <g id="line2d_10">
      <g>
       <use style="stroke:#000000;stroke-width:0.8;" x="1673.078634" xlink:href="#m329495a0c2" y="1354.392"/>
      </g>
     </g>
     <g id="text_5">
      <!-- 400.0 -->
      <g transform="translate(1658.764571 1368.990438)scale(0.1 -0.1)">
       <defs>
        <path d="M 37.796875 64.3125 
L 12.890625 25.390625 
L 37.796875 25.390625 
z
M 35.203125 72.90625 
L 47.609375 72.90625 
L 47.609375 25.390625 
L 58.015625 25.390625 
L 58.015625 17.1875 
L 47.609375 17.1875 
L 47.609375 0 
L 37.796875 0 
L 37.796875 17.1875 
L 4.890625 17.1875 
L 4.890625 26.703125 
z
" id="DejaVuSans-52"/>
       </defs>
       <use xlink:href="#DejaVuSans-52"/>
       <use x="63.623047" xlink:href="#DejaVuSans-48"/>
       <use x="127.246094" xlink:href="#DejaVuSans-48"/>
       <use x="190.869141" xlink:href="#DejaVuSans-46"/>
       <use x="222.65625" xlink:href="#DejaVuSans-48"/>
      </g>
     </g>
    </g>
    <g id="text_6">
     <!-- Unit: 1000 km -->
     <g transform="translate(922.711594 1382.668563)scale(0.1 -0.1)">
      <defs>
       <path d="M 8.6875 72.90625 
L 18.609375 72.90625 
L 18.609375 28.609375 
Q 18.609375 16.890625 22.84375 11.734375 
Q 27.09375 6.59375 36.625 6.59375 
Q 46.09375 6.59375 50.34375 11.734375 
Q 54.59375 16.890625 54.59375 28.609375 
L 54.59375 72.90625 
L 64.5 72.90625 
L 64.5 27.390625 
Q 64.5 13.140625 57.4375 5.859375 
Q 50.390625 -1.421875 36.625 -1.421875 
Q 22.796875 -1.421875 15.734375 5.859375 
Q 8.6875 13.140625 8.6875 27.390625 
z
" id="DejaVuSans-85"/>
       <path d="M 54.890625 33.015625 
L 54.890625 0 
L 45.90625 0 
L 45.90625 32.71875 
Q 45.90625 40.484375 42.875 44.328125 
Q 39.84375 48.1875 33.796875 48.1875 
Q 26.515625 48.1875 22.3125 43.546875 
Q 18.109375 38.921875 18.109375 30.90625 
L 18.109375 0 
L 9.078125 0 
L 9.078125 54.6875 
L 18.109375 54.6875 
L 18.109375 46.1875 
Q 21.34375 51.125 25.703125 53.5625 
Q 30.078125 56 35.796875 56 
Q 45.21875 56 50.046875 50.171875 
Q 54.890625 44.34375 54.890625 33.015625 
z
" id="DejaVuSans-110"/>
       <path d="M 9.421875 54.6875 
L 18.40625 54.6875 
L 18.40625 0 
L 9.421875 0 
z
M 9.421875 75.984375 
L 18.40625 75.984375 
L 18.40625 64.59375 
L 9.421875 64.59375 
z
" id="DejaVuSans-105"/>
       <path d="M 18.3125 70.21875 
L 18.3125 54.6875 
L 36.8125 54.6875 
L 36.8125 47.703125 
L 18.3125 47.703125 
L 18.3125 18.015625 
Q 18.3125 11.328125 20.140625 9.421875 
Q 21.96875 7.515625 27.59375 7.515625 
L 36.8125 7.515625 
L 36.8125 0 
L 27.59375 0 
Q 17.1875 0 13.234375 3.875 
Q 9.28125 7.765625 9.28125 18.015625 
L 9.28125 47.703125 
L 2.6875 47.703125 
L 2.6875 54.6875 
L 9.28125 54.6875 
L 9.28125 70.21875 
z
" id="DejaVuSans-116"/>
       <path d="M 11.71875 12.40625 
L 22.015625 12.40625 
L 22.015625 0 
L 11.71875 0 
z
M 11.71875 51.703125 
L 22.015625 51.703125 
L 22.015625 39.3125 
L 11.71875 39.3125 
z
" id="DejaVuSans-58"/>
       <path id="DejaVuSans-32"/>
       <path d="M 9.078125 75.984375 
L 18.109375 75.984375 
L 18.109375 31.109375 
L 44.921875 54.6875 
L 56.390625 54.6875 
L 27.390625 29.109375 
L 57.625 0 
L 45.90625 0 
L 18.109375 26.703125 
L 18.109375 0 
L 9.078125 0 
z
" id="DejaVuSans-107"/>
       <path d="M 52 44.1875 
Q 55.375 50.25 60.0625 53.125 
Q 64.75 56 71.09375 56 
Q 79.640625 56 84.28125 50.015625 
Q 88.921875 44.046875 88.921875 33.015625 
L 88.921875 0 
L 79.890625 0 
L 79.890625 32.71875 
Q 79.890625 40.578125 77.09375 44.375 
Q 74.3125 48.1875 68.609375 48.1875 
Q 61.625 48.1875 57.5625 43.546875 
Q 53.515625 38.921875 53.515625 30.90625 
L 53.515625 0 
L 44.484375 0 
L 44.484375 32.71875 
Q 44.484375 40.625 41.703125 44.40625 
Q 38.921875 48.1875 33.109375 48.1875 
Q 26.21875 48.1875 22.15625 43.53125 
Q 18.109375 38.875 18.109375 30.90625 
L 18.109375 0 
L 9.078125 0 
L 9.078125 54.6875 
L 18.109375 54.6875 
L 18.109375 46.1875 
Q 21.1875 51.21875 25.484375 53.609375 
Q 29.78125 56 35.6875 56 
Q 41.65625 56 45.828125 52.96875 
Q 50 49.953125 52 44.1875 
z
" id="DejaVuSans-109"/>
      </defs>
      <use xlink:href="#DejaVuSans-85"/>
      <use x="73.193359" xlink:href="#DejaVuSans-110"/>
      <use x="136.572266" xlink:href="#DejaVuSans-105"/>
      <use x="164.355469" xlink:href="#DejaVuSans-116"/>
      <use x="203.564453" xlink:href="#DejaVuSans-58"/>
      <use x="237.255859" xlink:href="#DejaVuSans-32"/>
      <use x="269.042969" xlink:href="#DejaVuSans-49"/>
      <use x="332.666016" xlink:href="#DejaVuSans-48"/>
      <use x="396.289062" xlink:href="#DejaVuSans-48"/>
      <use x="459.912109" xlink:href="#DejaVuSans-48"/>
      <use x="523.535156" xlink:href="#DejaVuSans-32"/>
      <use x="555.322266" xlink:href="#DejaVuSans-107"/>
      <use x="613.232422" xlink:href="#DejaVuSans-109"/>
     </g>
    </g>
   </g>
   <g id="matplotlib.axis_2">
    <g id="ytick_1">
     <g id="line2d_11">
      <path clip-path="url(#p220019757a)" d="M 60.114062 1248.999429 
L 1856.370062 1248.999429 
" style="fill:none;stroke:#b0b0b0;stroke-linecap:square;stroke-width:0.8;"/>
     </g>
     <g id="line2d_12">
      <defs>
       <path d="M 0 0 
L -3.5 0 
" id="m93c7110f69" style="stroke:#000000;stroke-width:0.8;"/>
      </defs>
      <g>
       <use style="stroke:#000000;stroke-width:0.8;" x="60.114062" xlink:href="#m93c7110f69" y="1248.999429"/>
      </g>
     </g>
     <g id="text_7">
      <!-- -150.0 -->
      <g transform="translate(20.878125 1252.798647)scale(0.1 -0.1)">
       <defs>
        <path d="M 4.890625 31.390625 
L 31.203125 31.390625 
L 31.203125 23.390625 
L 4.890625 23.390625 
z
" id="DejaVuSans-45"/>
        <path d="M 10.796875 72.90625 
L 49.515625 72.90625 
L 49.515625 64.59375 
L 19.828125 64.59375 
L 19.828125 46.734375 
Q 21.96875 47.46875 24.109375 47.828125 
Q 26.265625 48.1875 28.421875 48.1875 
Q 40.625 48.1875 47.75 41.5 
Q 54.890625 34.8125 54.890625 23.390625 
Q 54.890625 11.625 47.5625 5.09375 
Q 40.234375 -1.421875 26.90625 -1.421875 
Q 22.3125 -1.421875 17.546875 -0.640625 
Q 12.796875 0.140625 7.71875 1.703125 
L 7.71875 11.625 
Q 12.109375 9.234375 16.796875 8.0625 
Q 21.484375 6.890625 26.703125 6.890625 
Q 35.15625 6.890625 40.078125 11.328125 
Q 45.015625 15.765625 45.015625 23.390625 
Q 45.015625 31 40.078125 35.4375 
Q 35.15625 39.890625 26.703125 39.890625 
Q 22.75 39.890625 18.8125 39.015625 
Q 14.890625 38.140625 10.796875 36.28125 
z
" id="DejaVuSans-53"/>
       </defs>
       <use xlink:href="#DejaVuSans-45"/>
       <use x="36.083984" xlink:href="#DejaVuSans-49"/>
       <use x="99.707031" xlink:href="#DejaVuSans-53"/>
       <use x="163.330078" xlink:href="#DejaVuSans-48"/>
       <use x="226.953125" xlink:href="#DejaVuSans-46"/>
       <use x="258.740234" xlink:href="#DejaVuSans-48"/>
      </g>
     </g>
    </g>
    <g id="ytick_2">
     <g id="line2d_13">
      <path clip-path="url(#p220019757a)" d="M 60.114062 1065.708 
L 1856.370062 1065.708 
" style="fill:none;stroke:#b0b0b0;stroke-linecap:square;stroke-width:0.8;"/>
     </g>
     <g id="line2d_14">
      <g>
       <use style="stroke:#000000;stroke-width:0.8;" x="60.114062" xlink:href="#m93c7110f69" y="1065.708"/>
      </g>
     </g>
     <g id="text_8">
      <!-- -100.0 -->
      <g transform="translate(20.878125 1069.507219)scale(0.1 -0.1)">
       <use xlink:href="#DejaVuSans-45"/>
       <use x="36.083984" xlink:href="#DejaVuSans-49"/>
       <use x="99.707031" xlink:href="#DejaVuSans-48"/>
       <use x="163.330078" xlink:href="#DejaVuSans-48"/>
       <use x="226.953125" xlink:href="#DejaVuSans-46"/>
       <use x="258.740234" xlink:href="#DejaVuSans-48"/>
      </g>
     </g>
    </g>
    <g id="ytick_3">
     <g id="line2d_15">
      <path clip-path="url(#p220019757a)" d="M 60.114062 882.416571 
L 1856.370062 882.416571 
" style="fill:none;stroke:#b0b0b0;stroke-linecap:square;stroke-width:0.8;"/>
     </g>
     <g id="line2d_16">
      <g>
       <use style="stroke:#000000;stroke-width:0.8;" x="60.114062" xlink:href="#m93c7110f69" y="882.416571"/>
      </g>
     </g>
     <g id="text_9">
      <!-- -50.0 -->
      <g transform="translate(27.240625 886.21579)scale(0.1 -0.1)">
       <use xlink:href="#DejaVuSans-45"/>
       <use x="36.083984" xlink:href="#DejaVuSans-53"/>
       <use x="99.707031" xlink:href="#DejaVuSans-48"/>
       <use x="163.330078" xlink:href="#DejaVuSans-46"/>
       <use x="195.117188" xlink:href="#DejaVuSans-48"/>
      </g>
     </g>
    </g>
    <g id="ytick_4">
     <g id="line2d_17">
      <path clip-path="url(#p220019757a)" d="M 60.114062 699.125143 
L 1856.370062 699.125143 
" style="fill:none;stroke:#b0b0b0;stroke-linecap:square;stroke-width:0.8;"/>
     </g>
     <g id="line2d_18">
      <g>
       <use style="stroke:#000000;stroke-width:0.8;" x="60.114062" xlink:href="#m93c7110f69" y="699.125143"/>
      </g>
     </g>
     <g id="text_10">
      <!-- 0.0 -->
      <g transform="translate(37.210937 702.924362)scale(0.1 -0.1)">
       <use xlink:href="#DejaVuSans-48"/>
       <use x="63.623047" xlink:href="#DejaVuSans-46"/>
       <use x="95.410156" xlink:href="#DejaVuSans-48"/>
      </g>
     </g>
    </g>
    <g id="ytick_5">
     <g id="line2d_19">
      <path clip-path="url(#p220019757a)" d="M 60.114062 515.833714 
L 1856.370062 515.833714 
" style="fill:none;stroke:#b0b0b0;stroke-linecap:square;stroke-width:0.8;"/>
     </g>
     <g id="line2d_20">
      <g>
       <use style="stroke:#000000;stroke-width:0.8;" x="60.114062" xlink:href="#m93c7110f69" y="515.833714"/>
      </g>
     </g>
     <g id="text_11">
      <!-- 50.0 -->
      <g transform="translate(30.848437 519.632933)scale(0.1 -0.1)">
       <use xlink:href="#DejaVuSans-53"/>
       <use x="63.623047" xlink:href="#DejaVuSans-48"/>
       <use x="127.246094" xlink:href="#DejaVuSans-46"/>
       <use x="159.033203" xlink:href="#DejaVuSans-48"/>
      </g>
     </g>
    </g>
    <g id="ytick_6">
     <g id="line2d_21">
      <path clip-path="url(#p220019757a)" d="M 60.114062 332.542286 
L 1856.370062 332.542286 
" style="fill:none;stroke:#b0b0b0;stroke-linecap:square;stroke-width:0.8;"/>
     </g>
     <g id="line2d_22">
      <g>
       <use style="stroke:#000000;stroke-width:0.8;" x="60.114062" xlink:href="#m93c7110f69" y="332.542286"/>
      </g>
     </g>
     <g id="text_12">
      <!-- 100.0 -->
      <g transform="translate(24.485937 336.341504)scale(0.1 -0.1)">
       <use xlink:href="#DejaVuSans-49"/>
       <use x="63.623047" xlink:href="#DejaVuSans-48"/>
       <use x="127.246094" xlink:href="#DejaVuSans-48"/>
       <use x="190.869141" xlink:href="#DejaVuSans-46"/>
       <use x="222.65625" xlink:href="#DejaVuSans-48"/>
      </g>
     </g>
    </g>
    <g id="ytick_7">
     <g id="line2d_23">
      <path clip-path="url(#p220019757a)" d="M 60.114062 149.250857 
L 1856.370062 149.250857 
" style="fill:none;stroke:#b0b0b0;stroke-linecap:square;stroke-width:0.8;"/>
     </g>
     <g id="line2d_24">
      <g>
       <use style="stroke:#000000;stroke-width:0.8;" x="60.114062" xlink:href="#m93c7110f69" y="149.250857"/>
      </g>
     </g>
     <g id="text_13">
      <!-- 150.0 -->
      <g transform="translate(24.485937 153.050076)scale(0.1 -0.1)">
       <use xlink:href="#DejaVuSans-49"/>
       <use x="63.623047" xlink:href="#DejaVuSans-53"/>
       <use x="127.246094" xlink:href="#DejaVuSans-48"/>
       <use x="190.869141" xlink:href="#DejaVuSans-46"/>
       <use x="222.65625" xlink:href="#DejaVuSans-48"/>
      </g>
     </g>
    </g>
    <g id="text_14">
     <!-- Unit: 1000 km -->
     <g transform="translate(14.798437 716.326469)rotate(-90)scale(0.1 -0.1)">
      <use xlink:href="#DejaVuSans-85"/>
      <use x="73.193359" xlink:href="#DejaVuSans-110"/>
      <use x="136.572266" xlink:href="#DejaVuSans-105"/>
      <use x="164.355469" xlink:href="#DejaVuSans-116"/>
      <use x="203.564453" xlink:href="#DejaVuSans-58"/>
      <use x="237.255859" xlink:href="#DejaVuSans-32"/>
      <use x="269.042969" xlink:href="#DejaVuSans-49"/>
      <use x="332.666016" xlink:href="#DejaVuSans-48"/>
      <use x="396.289062" xlink:href="#DejaVuSans-48"/>
      <use x="459.912109" xlink:href="#DejaVuSans-48"/>
      <use x="523.535156" xlink:href="#DejaVuSans-32"/>
      <use x="555.322266" xlink:href="#DejaVuSans-107"/>
      <use x="613.232422" xlink:href="#DejaVuSans-109"/>
     </g>
    </g>
   </g>
   <g id="line2d_25">
    <path clip-path="url(#p220019757a)" d="M 1598.786318 699.124773 
L 1598.513709 699.01368 
L 1598.024947 698.577182 
L 1597.448327 697.747601 
L 1596.872803 696.52857 
L 1596.350148 694.905888 
L 1596.208859 694.325646 
L 1596.208859 694.325646 
" style="fill:none;stroke:#c0c0c0;stroke-linecap:square;stroke-width:1.5;"/>
   </g>
   <g id="line2d_26">
    <path clip-path="url(#p220019757a)" d="M 180.742536 721.480473 
L 184.517441 722.796985 
L 188.362511 723.789809 
L 192.224292 724.464428 
L 196.055904 724.840798 
L 199.820615 724.948365 
L 203.492657 724.820878 
L 207.056117 724.492339 
L 210.502887 723.994443 
L 215.449978 722.990468 
L 220.136267 721.746164 
L 224.577832 720.32177 
L 228.794477 718.762715 
L 234.101805 716.532088 
L 239.090386 714.179913 
L 244.937771 711.128693 
L 250.413789 708.002233 
L 256.568565 704.198686 
L 262.337113 700.373856 
L 268.654597 695.915864 
L 275.416085 690.854036 
L 282.533827 685.224391 
L 289.936649 679.066385 
L 297.568112 672.420407 
L 305.384161 665.326042 
L 313.944603 657.251377 
L 323.118285 648.278656 
L 332.798183 638.490564 
L 343.388645 627.450434 
L 354.735726 615.290459 
L 367.14743 601.6613 
L 381.257893 585.833561 
L 398.285766 566.386836 
L 421.856787 539.099625 
L 469.291491 484.128337 
L 489.139097 461.519405 
L 506.259201 442.348731 
L 522.043728 425.003933 
L 536.898567 409.008878 
L 551.171962 393.967411 
L 564.921117 379.802327 
L 578.191996 366.446603 
L 591.267002 353.603706 
L 603.925812 341.476768 
L 616.434246 329.797189 
L 628.807238 318.545529 
L 641.057668 307.704215 
L 653.196696 297.257307 
L 665.234031 287.19026 
L 677.178132 277.48977 
L 689.036406 268.143623 
L 700.815318 259.140557 
L 712.520562 250.470165 
L 724.157115 242.122795 
L 735.729359 234.089476 
L 747.461945 226.216189 
L 759.135289 218.652195 
L 770.752501 211.389764 
L 782.316303 204.421643 
L 793.829061 197.741022 
L 805.292829 191.341487 
L 816.924334 185.104028 
L 828.508419 179.146026 
L 840.046438 173.461763 
L 851.539529 168.045806 
L 862.988634 162.893015 
L 874.60533 157.910244 
L 886.177815 153.190464 
L 897.706567 148.728968 
L 909.19192 144.521271 
L 920.634078 140.563078 
L 932.239985 136.785024 
L 943.801187 133.25721 
L 955.31756 129.975641 
L 966.788883 126.936478 
L 978.214853 124.136027 
L 989.797889 121.527035 
L 1001.333067 119.158045 
L 1012.819835 117.025559 
L 1024.257583 115.126191 
L 1035.645641 113.45667 
L 1047.181739 111.99051 
L 1058.664833 110.755804 
L 1070.094062 109.749402 
L 1081.468527 108.968236 
L 1092.981945 108.401631 
L 1104.436695 108.061963 
L 1115.831722 107.946258 
L 1127.165932 108.051611 
L 1138.438208 108.375186 
L 1149.836849 108.925189 
L 1161.169033 109.695156 
L 1172.433512 110.682293 
L 1183.629029 111.883868 
L 1194.939111 113.322533 
L 1206.175224 114.977299 
L 1217.335989 116.845457 
L 1228.420014 118.924334 
L 1239.60567 121.250518 
L 1250.709135 123.788969 
L 1261.728917 126.537013 
L 1272.663526 129.492023 
L 1283.511468 132.651414 
L 1294.444054 136.068479 
L 1305.284026 139.691285 
L 1316.029812 143.517226 
L 1326.679825 147.543725 
L 1337.232492 151.768233 
L 1347.85136 156.259958 
L 1358.366485 160.950833 
L 1368.776214 165.838281 
L 1379.078908 170.919753 
L 1389.272917 176.192732 
L 1399.513277 181.741558 
L 1409.638131 187.482769 
L 1419.645769 193.413812 
L 1429.534492 199.532161 
L 1439.302598 205.835319 
L 1448.948398 212.320815 
L 1458.615716 219.090137 
L 1468.153432 226.042407 
L 1477.559787 233.175119 
L 1486.833024 240.485812 
L 1495.971396 247.972049 
L 1504.973146 255.631428 
L 1513.836525 263.461583 
L 1522.690858 271.582662 
L 1531.398946 279.874927 
L 1539.958945 288.336033 
L 1548.368994 296.963663 
L 1556.627222 305.755567 
L 1564.731746 314.709529 
L 1572.680651 323.823398 
L 1580.472003 333.095089 
L 1588.103819 342.522574 
L 1595.574088 352.103895 
L 1602.880737 361.837179 
L 1610.021632 371.720634 
L 1616.994562 381.752548 
L 1623.797225 391.931322 
L 1630.427213 402.255454 
L 1636.786946 412.566264 
L 1642.974069 423.015569 
L 1648.985841 433.602288 
L 1654.819296 444.325459 
L 1660.47123 455.184271 
L 1665.856721 466.010463 
L 1671.0591 476.967042 
L 1676.07432 488.053618 
L 1680.825149 499.096377 
L 1685.385381 510.264734 
L 1689.68299 521.381132 
L 1693.721399 532.439683 
L 1697.564155 543.615713 
L 1701.147256 554.725813 
L 1704.473134 565.763846 
L 1707.543981 576.723427 
L 1710.361822 587.597822 
L 1712.92861 598.379856 
L 1715.246367 609.061809 
L 1717.317355 619.635349 
L 1719.176124 630.285805 
L 1720.786226 640.811682 
L 1722.151732 651.202385 
L 1723.297421 661.644315 
L 1724.201971 671.93015 
L 1724.884461 682.246763 
L 1725.341732 692.583648 
L 1725.569981 702.73083 
L 1725.578358 713.075289 
L 1725.362103 723.407239 
L 1724.924693 733.716389 
L 1724.25627 744.190574 
L 1723.369297 754.622437 
L 1722.248015 765.199738 
L 1720.888286 775.912719 
L 1719.286788 786.752196 
L 1717.440794 797.709629 
L 1715.347947 808.777117 
L 1713.006073 819.947352 
L 1710.413001 831.213543 
L 1707.614782 842.383956 
L 1704.567247 853.641214 
L 1701.267481 864.979567 
L 1697.712316 876.393377 
L 1693.959446 887.698444 
L 1689.950181 899.071204 
L 1685.68044 910.505961 
L 1681.216095 921.823646 
L 1676.56145 933.023705 
L 1671.644463 944.275049 
L 1666.538972 955.403658 
L 1661.248342 966.408615 
L 1655.691374 977.452778 
L 1649.949825 988.367243 
L 1644.026492 999.150689 
L 1637.924009 1009.801677 
L 1631.644859 1020.318664 
L 1625.191413 1030.700008 
L 1618.465747 1041.095821 
L 1611.565143 1051.348224 
L 1604.49181 1061.455232 
L 1597.247883 1071.41479 
L 1589.83545 1081.22476 
L 1582.256558 1090.882949 
L 1574.513221 1100.387105 
L 1566.607425 1109.734916 
L 1558.54114 1118.924023 
L 1550.438405 1127.820432 
L 1542.183615 1136.558088 
L 1533.778622 1145.134613 
L 1525.225265 1153.547583 
L 1516.525392 1161.794547 
L 1507.680848 1169.873025 
L 1498.693475 1177.780499 
L 1489.565129 1185.51443 
L 1480.297666 1193.07225 
L 1471.034322 1200.342549 
L 1461.639581 1207.436928 
L 1452.115237 1214.352862 
L 1442.463103 1221.087791 
L 1432.68499 1227.639148 
L 1422.782725 1234.004331 
L 1412.758139 1240.180724 
L 1402.767679 1246.076447 
L 1392.662133 1251.783948 
L 1382.443284 1257.300661 
L 1372.112917 1262.623994 
L 1361.672828 1267.75134 
L 1351.287906 1272.605752 
L 1340.800091 1277.26506 
L 1330.211118 1281.726707 
L 1319.522728 1285.988101 
L 1308.736672 1290.046628 
L 1298.025462 1293.841039 
L 1287.222984 1297.433763 
L 1276.33092 1300.822232 
L 1265.350949 1304.003834 
L 1254.284759 1306.97593 
L 1243.311673 1309.693716 
L 1232.258313 1312.203431 
L 1221.12628 1314.502459 
L 1209.917173 1316.588143 
L 1198.815186 1318.429368 
L 1187.641641 1320.058865 
L 1176.39805 1321.473985 
L 1165.085912 1322.67204 
L 1153.893785 1323.636039 
L 1142.638181 1324.384719 
L 1131.320493 1324.915369 
L 1119.942091 1325.225235 
L 1108.504343 1325.311491 
L 1097.200647 1325.175464 
L 1085.842117 1324.817627 
L 1074.429979 1324.235113 
L 1062.965444 1323.424979 
L 1051.645289 1322.403789 
L 1040.276726 1321.156773 
L 1028.860811 1319.680911 
L 1017.398565 1317.973093 
L 1006.089751 1316.065627 
L 994.738029 1313.927913 
L 983.344245 1311.55672 
L 971.909188 1308.94871 
L 960.433605 1306.100431 
L 949.120532 1303.064681 
L 937.769583 1299.790063 
L 926.381265 1296.272927 
L 914.956017 1292.509492 
L 903.699196 1288.569713 
L 892.407352 1284.384671 
L 881.080645 1279.950312 
L 869.719132 1275.262411 
L 858.322764 1270.316548 
L 847.099514 1265.20517 
L 835.842191 1259.836065 
L 824.550354 1254.204425 
L 813.223409 1248.305176 
L 801.860587 1242.13298 
L 790.672376 1235.804242 
L 779.447564 1229.201531 
L 768.184827 1222.318901 
L 756.882586 1215.150062 
L 745.538991 1207.688316 
L 734.367148 1200.075823 
L 723.151047 1192.167362 
L 711.887961 1183.955291 
L 700.574759 1175.431436 
L 689.207831 1166.587027 
L 677.78306 1157.412642 
L 666.295717 1147.898116 
L 654.740388 1138.032466 
L 643.335258 1128.003991 
L 631.852065 1117.614102 
L 620.283117 1106.849488 
L 608.61959 1095.695596 
L 596.851309 1084.136435 
L 584.96652 1072.154389 
L 572.714596 1059.481751 
L 560.310487 1046.326112 
L 547.734346 1032.6616 
L 534.714994 1018.180382 
L 521.462822 1003.104937 
L 507.684006 987.091971 
L 493.05051 969.736696 
L 477.456442 950.888131 
L 460.19077 929.65835 
L 439.771211 904.181684 
L 370.262636 817.127112 
L 356.079142 799.928603 
L 343.883774 785.484963 
L 333.151672 773.103723 
L 323.165816 761.913103 
L 314.087483 752.057805 
L 305.523865 743.075619 
L 297.589854 735.057169 
L 289.751308 727.451341 
L 282.760925 720.958246 
L 276.038451 714.993851 
L 269.650452 709.600556 
L 263.679195 704.818893 
L 257.27982 699.993574 
L 251.385344 695.842621 
L 246.127911 692.394627 
L 240.49707 688.986059 
L 235.676205 686.316928 
L 235.676205 686.316928 
" style="fill:none;stroke:#0000ff;stroke-linecap:square;stroke-width:1.5;"/>
   </g>
   <g id="line2d_27">
    <path clip-path="url(#p220019757a)" d="M 1598.786318 699.124773 
L 1598.513709 699.01368 
L 1598.024947 698.577182 
L 1597.448327 697.747601 
L 1596.872803 696.52857 
L 1596.350148 694.905888 
L 1596.208859 694.325646 
L 1596.208859 694.325646 
" style="fill:none;stroke:#c0c0c0;stroke-linecap:square;stroke-width:1.5;"/>
   </g>
   <g id="line2d_28">
    <path clip-path="url(#p220019757a)" d="M 179.967763 721.156527 
L 183.694261 722.603983 
L 187.502185 723.73039 
L 191.337917 724.539368 
L 195.153913 725.04923 
L 198.912432 725.288114 
L 202.586552 725.288843 
L 206.15917 725.084847 
L 209.621083 724.707512 
L 214.599993 723.876737 
L 219.326639 722.796648 
L 223.814981 721.528026 
L 228.083222 720.116957 
L 233.464816 718.072729 
L 238.532065 715.895883 
L 244.481852 713.050324 
L 250.063079 710.116602 
L 256.346112 706.529831 
L 262.24384 702.908311 
L 268.712069 698.673117 
L 275.644892 693.849909 
L 282.953329 688.471633 
L 290.564869 682.575247 
L 298.421663 676.19915 
L 306.478308 669.381391 
L 315.31261 661.609889 
L 324.790595 652.962291 
L 334.802391 643.517522 
L 345.767078 632.853308 
L 357.52614 621.096435 
L 370.399302 607.908572 
L 385.045196 592.582964 
L 402.730147 573.742779 
L 427.221503 547.296128 
L 476.813335 493.687128 
L 497.403641 471.807685 
L 515.153433 453.26544 
L 531.507281 436.499407 
L 546.886579 421.048482 
L 561.652485 406.52937 
L 575.864708 392.867018 
L 589.571399 379.996132 
L 603.064639 367.630545 
L 616.117504 355.965365 
L 629.004566 344.74172 
L 641.741381 333.940726 
L 654.341413 323.545294 
L 666.816345 313.539895 
L 679.176368 303.910354 
L 691.430386 294.643682 
L 703.586204 285.727939 
L 715.650677 277.152107 
L 727.629839 268.905991 
L 739.529001 260.980129 
L 751.579518 253.222278 
L 763.556157 245.779279 
L 775.462758 238.643003 
L 787.302698 231.805852 
L 799.078938 225.26068 
L 810.794068 219.000772 
L 822.450362 213.019804 
L 834.268114 207.206679 
L 846.028634 201.670937 
L 857.733482 196.406906 
L 869.38398 191.409216 
L 880.981243 186.672761 
L 892.739509 182.112103 
L 904.444316 177.812504 
L 916.09631 173.76929 
L 927.695974 169.977994 
L 939.243671 166.434348 
L 950.948167 163.076475 
L 962.599153 159.966932 
L 974.196647 157.101731 
L 985.740564 154.477038 
L 997.230737 152.089158 
L 1008.870634 149.898143 
L 1020.454238 147.945151 
L 1031.981121 146.226673 
L 1043.450794 144.739315 
L 1055.062402 143.459706 
L 1066.613567 142.412635 
L 1078.103597 141.594844 
L 1089.531744 141.003168 
L 1100.89722 140.634525 
L 1112.393497 140.485271 
L 1123.823151 140.560637 
L 1135.185233 140.85762 
L 1146.478756 141.373296 
L 1157.892346 142.11905 
L 1169.232891 143.08508 
L 1180.499277 144.268509 
L 1191.690358 145.666527 
L 1202.804971 147.276372 
L 1214.025218 149.127418 
L 1225.163948 151.191822 
L 1236.219886 153.466857 
L 1247.19174 155.949825 
L 1258.078206 158.638087 
L 1269.054298 161.578104 
L 1279.939444 164.724829 
L 1290.732252 168.075609 
L 1301.431321 171.627841 
L 1312.205488 175.441072 
L 1322.879945 179.456999 
L 1333.453202 183.673002 
L 1343.923777 188.086498 
L 1354.29019 192.694943 
L 1364.712958 197.57356 
L 1375.025139 202.648163 
L 1385.225171 207.91619 
L 1395.311504 213.375099 
L 1405.28258 219.0224 
L 1415.136844 224.85562 
L 1425.023928 230.967777 
L 1434.787298 237.266686 
L 1444.425344 243.749865 
L 1453.936436 250.41487 
L 1463.318963 257.259294 
L 1472.571301 264.280767 
L 1481.831118 271.589029 
L 1490.953346 279.075032 
L 1499.93629 286.736431 
L 1508.778239 294.570922 
L 1517.477485 302.576256 
L 1526.032305 310.750236 
L 1534.440956 319.090722 
L 1542.701685 327.595642 
L 1550.812719 336.262988 
L 1558.772241 345.090816 
L 1566.578421 354.07728 
L 1574.229369 363.220601 
L 1581.723151 372.519107 
L 1589.05777 381.971226 
L 1596.231144 391.575488 
L 1603.241117 401.330565 
L 1610.085402 411.235253 
L 1616.761595 421.288502 
L 1623.267117 431.489418 
L 1629.504579 441.679417 
L 1635.570961 452.011463 
L 1641.463139 462.485259 
L 1647.177675 473.100725 
L 1652.627006 483.691432 
L 1657.896323 494.419978 
L 1662.903012 505.116078 
L 1667.72582 515.947062 
L 1672.287028 526.738718 
L 1676.589479 537.485681 
L 1680.635593 548.18265 
L 1684.427387 558.824294 
L 1688.025768 569.588618 
L 1691.365748 580.29048 
L 1694.395522 590.736072 
L 1697.174932 601.102163 
L 1699.704438 611.381282 
L 1701.984616 621.565107 
L 1704.016412 631.644373 
L 1705.801451 641.608828 
L 1707.342378 651.447307 
L 1708.667517 661.346415 
L 1709.749332 671.097042 
L 1710.610534 680.886091 
L 1711.236192 690.501424 
L 1711.644045 700.13087 
L 1711.835691 709.963224 
L 1711.802416 719.785676 
L 1711.548305 729.586661 
L 1711.067329 739.55469 
L 1710.353732 749.677832 
L 1709.403359 759.944677 
L 1708.213383 770.344589 
L 1706.781936 780.867856 
L 1705.107785 791.505742 
L 1703.190021 802.250443 
L 1701.027791 813.094976 
L 1698.620126 824.033053 
L 1695.965784 835.058924 
L 1693.063173 846.167235 
L 1689.910293 857.35288 
L 1686.504735 868.610885 
L 1682.843657 879.936297 
L 1678.986608 891.147076 
L 1674.873321 902.418791 
L 1670.568516 913.572822 
L 1666.005036 924.780763 
L 1661.252829 935.867296 
L 1656.238268 946.999882 
L 1651.036553 958.006525 
L 1645.650919 968.886557 
L 1639.998618 979.801074 
L 1634.162718 990.583204 
L 1628.145891 1001.231746 
L 1621.950652 1011.745357 
L 1615.579383 1022.122559 
L 1609.034351 1032.361761 
L 1602.317728 1042.461262 
L 1595.431608 1052.419254 
L 1588.378026 1062.233854 
L 1581.158965 1071.903082 
L 1573.77636 1081.424892 
L 1566.232122 1090.797169 
L 1558.52813 1100.017736 
L 1550.666236 1109.084353 
L 1542.648288 1117.994736 
L 1534.476115 1126.746538 
L 1526.151547 1135.337386 
L 1517.676393 1143.764851 
L 1509.05248 1152.026466 
L 1500.281622 1160.119736 
L 1491.365641 1168.042123 
L 1482.306367 1175.791058 
L 1473.243985 1183.252218 
L 1464.046087 1190.540031 
L 1454.714438 1197.651959 
L 1445.250816 1204.585426 
L 1435.656998 1211.33785 
L 1425.934781 1217.906611 
L 1416.085957 1224.289061 
L 1406.264381 1230.390121 
L 1396.323504 1236.30532 
L 1386.265075 1242.032059 
L 1376.090847 1247.567725 
L 1365.802589 1252.909669 
L 1355.562918 1257.977563 
L 1345.21612 1262.852496 
L 1334.763894 1267.531867 
L 1324.207961 1272.01306 
L 1313.550037 1276.293425 
L 1302.960708 1280.30816 
L 1292.275874 1284.123118 
L 1281.497187 1287.735686 
L 1270.6263 1291.143227 
L 1259.83957 1294.293915 
L 1248.96673 1297.240864 
L 1238.009367 1299.981459 
L 1226.969057 1302.513055 
L 1215.84738 1304.832967 
L 1204.827203 1306.90622 
L 1193.731275 1308.76929 
L 1182.561085 1310.419492 
L 1171.318114 1311.854107 
L 1160.003827 1313.070362 
L 1148.806873 1314.050924 
L 1137.543706 1314.814758 
L 1126.215698 1315.359079 
L 1114.824187 1315.681041 
L 1103.561904 1315.77798 
L 1092.24074 1315.654266 
L 1080.861924 1315.307009 
L 1069.426647 1314.733248 
L 1058.131287 1313.945484 
L 1046.783571 1312.932934 
L 1035.384549 1311.692553 
L 1023.935239 1310.221222 
L 1012.635275 1308.54713 
L 1001.288564 1306.643729 
L 989.89595 1304.507779 
L 978.45822 1302.13594 
L 966.976115 1299.524748 
L 955.652895 1296.722813 
L 944.288082 1293.682888 
L 932.88219 1290.401329 
L 921.435663 1286.874351 
L 910.154335 1283.167667 
L 898.834425 1279.216586 
L 887.476098 1275.017071 
L 876.079418 1270.564904 
L 864.644353 1265.855693 
L 853.379695 1260.977567 
L 842.077589 1255.842651 
L 830.737624 1250.446159 
L 819.359229 1244.783059 
L 807.941665 1238.848056 
L 796.696549 1232.75318 
L 785.411736 1226.385438 
L 774.085935 1219.73895 
L 762.717621 1212.807488 
L 751.304999 1205.584438 
L 740.062617 1198.207508 
L 728.773276 1190.536065 
L 717.434319 1182.562576 
L 706.042705 1174.278988 
L 694.594946 1165.676674 
L 683.087037 1156.746363 
L 671.737592 1147.659566 
L 660.320952 1138.237511 
L 648.831464 1128.469199 
L 637.262681 1118.342711 
L 625.607212 1107.845057 
L 613.856575 1096.962063 
L 602.001014 1085.678169 
L 590.029261 1073.976254 
L 577.928273 1061.837365 
L 565.682873 1049.240449 
L 553.030255 1035.900532 
L 540.186848 1022.031878 
L 527.126274 1007.602612 
L 513.558277 992.281215 
L 499.426343 975.986662 
L 484.386222 958.300554 
L 468.035127 938.718936 
L 449.581588 916.257628 
L 426.112715 887.313792 
L 378.045872 827.938085 
L 361.91509 808.429516 
L 348.770814 792.862803 
L 336.936262 779.183111 
L 326.193031 767.104257 
L 316.240706 756.255838 
L 307.2577 746.788583 
L 298.839989 738.232954 
L 291.117144 730.682765 
L 283.534363 723.576736 
L 276.129599 716.959512 
L 269.778543 711.559894 
L 262.964457 706.074124 
L 256.540224 701.217484 
L 250.615729 697.031713 
L 245.323552 693.548417 
L 239.644421 690.098751 
L 234.770599 687.393278 
L 229.54907 684.775448 
L 225.368273 682.903181 
L 220.927602 681.14774 
L 216.19446 679.559886 
L 212.860539 678.628986 
L 209.374321 677.832438 
L 205.731206 677.205541 
L 201.932832 676.791196 
L 197.991128 676.639379 
L 193.93328 676.804272 
L 189.806158 677.337613 
L 185.677339 678.27814 
L 181.629362 679.639589 
L 177.746594 681.403028 
L 174.099248 683.518827 
L 170.732199 685.918039 
L 167.662907 688.526983 
L 164.886753 691.278642 
L 162.385137 694.118219 
L 160.132639 697.004036 
L 158.102008 699.905935 
L 155.415231 704.244744 
L 153.09081 708.529368 
L 151.064431 712.736489 
L 148.73887 718.207676 
L 146.759216 723.514872 
L 145.056215 728.661226 
L 143.238742 734.880095 
L 141.41854 742.053619 
L 139.906382 748.942477 
L 138.445718 756.659281 
L 137.088482 765.105955 
L 135.869051 774.193793 
L 134.807625 783.844754 
L 133.913724 793.991398 
L 133.138588 805.437423 
L 132.561616 817.196565 
L 132.147051 830.019128 
L 131.904645 844.517542 
L 131.86707 860.46783 
L 132.05468 878.343304 
L 132.492578 898.502792 
L 133.258347 922.985163 
L 134.496276 954.926422 
L 135.840759 986.739923 
L 135.840759 986.739923 
" style="fill:none;stroke:#ffff00;stroke-linecap:square;stroke-width:1.5;"/>
   </g>
   <g id="line2d_29">
    <path clip-path="url(#p220019757a)" d="M 1598.786318 699.124773 
L 1598.513709 699.01368 
L 1598.024947 698.577182 
L 1597.448327 697.747601 
L 1596.872803 696.52857 
L 1596.350148 694.905888 
L 1596.208859 694.325646 
L 1596.208859 694.325646 
" style="fill:none;stroke:#c0c0c0;stroke-linecap:square;stroke-width:1.5;"/>
   </g>
   <g id="line2d_30">
    <path clip-path="url(#p220019757a)" d="M 179.204765 720.805744 
L 182.878325 722.382365 
L 186.644458 723.64098 
L 190.449467 724.583333 
L 194.245198 725.226062 
L 197.992946 725.595963 
L 201.664666 725.724908 
L 205.242093 725.645701 
L 208.71493 725.389386 
L 213.719604 724.732818 
L 218.480859 723.818263 
L 223.010518 722.706952 
L 227.325173 721.445585 
L 232.774497 719.590239 
L 237.914263 717.591366 
L 243.959236 714.954924 
L 249.638906 712.217496 
L 256.042581 708.851843 
L 262.062344 705.438011 
L 268.673494 701.430736 
L 275.769262 696.851974 
L 283.259562 691.731544 
L 291.070614 686.103874 
L 299.143256 680.005328 
L 307.43076 673.47236 
L 316.528261 666.013334 
L 326.299109 657.701207 
L 336.630712 648.611044 
L 347.956392 638.335463 
L 360.113247 626.995673 
L 373.432332 614.264756 
L 388.595976 599.459424 
L 406.916648 581.248006 
L 432.298746 555.672968 
L 483.689113 503.831322 
L 505.010254 482.686383 
L 523.377719 464.777539 
L 540.288612 448.595219 
L 556.17992 433.693299 
L 571.425687 419.701323 
L 586.088235 406.546343 
L 600.217999 394.164758 
L 614.116548 382.280805 
L 627.550644 371.081482 
L 640.803395 360.317701 
L 653.891022 349.971116 
L 666.827581 340.025118 
L 679.6253 330.464578 
L 692.294862 321.275677 
L 704.845629 312.445741 
L 717.285823 303.963094 
L 729.622686 295.816963 
L 741.862609 287.997362 
L 754.011242 280.495013 
L 766.304722 273.165904 
L 778.513222 266.148844 
L 790.640871 259.435851 
L 802.691311 253.019434 
L 814.66776 246.892562 
L 826.573044 241.048604 
L 838.632352 235.378895 
L 850.622684 229.990149 
L 862.546059 224.876457 
L 874.404226 220.032215 
L 886.198696 215.452103 
L 897.930766 211.131066 
L 909.81709 206.99133 
L 921.640806 203.110483 
L 933.402716 199.483886 
L 945.103469 196.107089 
L 956.743574 192.975845 
L 968.5334 190.035733 
L 980.261023 187.341807 
L 991.926606 184.89009 
L 1003.530207 182.676747 
L 1015.07179 180.698083 
L 1026.755651 178.921414 
L 1038.374912 177.380552 
L 1049.929281 176.071991 
L 1061.418395 174.992331 
L 1072.841821 174.138274 
L 1084.397729 173.497505 
L 1095.884552 173.083743 
L 1107.301661 172.893805 
L 1118.648383 172.924598 
L 1130.117786 173.179289 
L 1141.512812 173.656177 
L 1152.832634 174.352248 
L 1164.076376 175.264563 
L 1175.43173 176.411142 
L 1186.706492 177.775424 
L 1197.899649 179.354517 
L 1209.010167 181.145586 
L 1220.03699 183.14586 
L 1231.160683 185.391128 
L 1242.195604 187.847017 
L 1253.140584 190.510769 
L 1263.994439 193.379691 
L 1274.75597 196.45112 
L 1285.598072 199.777728 
L 1296.342267 203.308148 
L 1306.987273 207.039734 
L 1317.53179 210.969872 
L 1328.142102 215.164145 
L 1338.645936 219.558128 
L 1349.041918 224.149215 
L 1359.328655 228.934833 
L 1369.504771 233.91246 
L 1379.568871 239.079603 
L 1389.676598 244.520291 
L 1399.665831 250.151498 
L 1409.535114 255.970741 
L 1419.282984 261.975566 
L 1428.907984 268.163576 
L 1438.408646 274.532403 
L 1447.928986 281.183441 
L 1457.318027 288.016223 
L 1466.574233 295.028421 
L 1475.696057 302.217753 
L 1484.681953 309.582003 
L 1493.530365 317.119009 
L 1502.239721 324.826666 
L 1510.808445 332.702948 
L 1519.234946 340.74589 
L 1527.643894 349.081159 
L 1535.902819 357.58444 
L 1544.009971 366.253945 
L 1551.963558 375.088006 
L 1559.761733 384.085071 
L 1567.402591 393.243711 
L 1574.884148 402.562658 
L 1582.204327 412.040797 
L 1589.253738 421.530021 
L 1596.14228 431.172052 
L 1602.867573 440.966409 
L 1609.427038 450.912851 
L 1615.817856 461.011395 
L 1621.942565 471.103501 
L 1627.897465 481.34399 
L 1633.589859 491.570328 
L 1639.110073 501.942647 
L 1644.370082 512.294448 
L 1649.453773 522.791171 
L 1654.27764 533.262291 
L 1658.843914 543.703312 
L 1663.154228 554.109877 
L 1667.209565 564.477687 
L 1671.010208 574.802346 
L 1674.555703 585.079181 
L 1677.786863 595.115974 
L 1680.767328 605.089231 
L 1683.495339 614.992163 
L 1685.968923 624.816774 
L 1688.144031 634.357907 
L 1690.070472 643.796561 
L 1691.748677 653.120717 
L 1693.180667 662.317057 
L 1694.37051 671.37132 
L 1695.343898 680.471402 
L 1696.095213 689.604436 
L 1696.621366 698.756503 
L 1696.922055 707.913307 
L 1696.999764 717.060851 
L 1696.853933 726.388551 
L 1696.487864 735.680635 
L 1695.895876 745.12712 
L 1695.075024 754.715776 
L 1694.000284 764.633104 
L 1692.686634 774.668438 
L 1691.134845 784.81298 
L 1689.310197 795.251632 
L 1687.241812 805.781875 
L 1684.930599 816.398118 
L 1682.376924 827.095475 
L 1679.530602 838.054327 
L 1676.434044 849.081906 
L 1673.085929 860.174219 
L 1669.484296 871.327264 
L 1665.689357 882.359956 
L 1661.641362 893.448853 
L 1657.336661 904.589409 
L 1652.842912 915.605642 
L 1648.089901 926.667466 
L 1643.15037 937.602193 
L 1637.947675 948.575246 
L 1632.559732 959.41726 
L 1626.98959 970.127851 
L 1621.240053 980.706384 
L 1615.22257 991.30928 
L 1609.025413 1001.774164 
L 1602.650959 1012.099806 
L 1596.101469 1022.284798 
L 1589.379091 1032.327599 
L 1582.485903 1042.226539 
L 1575.423904 1051.979835 
L 1568.195052 1061.585603 
L 1560.801252 1071.041854 
L 1553.24437 1080.346526 
L 1545.526253 1089.497479 
L 1537.648729 1098.492498 
L 1529.613603 1107.329304 
L 1521.422668 1116.005565 
L 1513.077717 1124.518895 
L 1504.580532 1132.866848 
L 1496.063071 1140.926099 
L 1487.401323 1148.820047 
L 1478.597003 1156.546235 
L 1469.651821 1164.102171 
L 1460.567498 1171.485333 
L 1451.345758 1178.693159 
L 1441.988338 1185.723056 
L 1432.496977 1192.572407 
L 1423.020212 1199.138933 
L 1413.416914 1205.525213 
L 1403.688773 1211.728649 
L 1393.837478 1217.746634 
L 1383.864742 1223.576526 
L 1373.77228 1229.215652 
L 1363.719779 1234.579016 
L 1353.554528 1239.752226 
L 1343.278187 1244.732653 
L 1332.892419 1249.517648 
L 1322.398896 1254.10452 
L 1311.965725 1258.423585 
L 1301.431369 1262.545428 
L 1290.797441 1266.467402 
L 1280.065545 1270.186829 
L 1269.40992 1273.646836 
L 1258.662517 1276.905431 
L 1247.824876 1279.959965 
L 1236.898533 1282.807749 
L 1225.88502 1285.446064 
L 1214.965562 1287.834711 
L 1203.964659 1290.015241 
L 1192.883765 1291.984934 
L 1181.724316 1293.741035 
L 1170.672565 1295.257258 
L 1159.547549 1296.561395 
L 1148.350609 1297.650681 
L 1137.083073 1298.522294 
L 1125.746245 1299.173357 
L 1114.532054 1299.595649 
L 1103.253322 1299.798978 
L 1091.911237 1299.780425 
L 1080.506958 1299.537007 
L 1069.23646 1299.07556 
L 1057.908005 1298.39086 
L 1046.522619 1297.479846 
L 1035.081283 1296.339378 
L 1023.783617 1294.991885 
L 1012.433684 1293.416499 
L 1001.032304 1291.609968 
L 989.580234 1289.568933 
L 978.078194 1287.289932 
L 966.729911 1284.815703 
L 955.334584 1282.104815 
L 943.892712 1279.153618 
L 932.404709 1275.958342 
L 921.077284 1272.578745 
L 909.705939 1268.956056 
L 898.290823 1265.086261 
L 886.83199 1260.965159 
L 875.329389 1256.588379 
L 863.99317 1252.038008 
L 852.614303 1247.232235 
L 841.192358 1242.166309 
L 829.72676 1236.835256 
L 818.430326 1231.340055 
L 807.090254 1225.579198 
L 795.705478 1219.547194 
L 784.274728 1213.238248 
L 772.796494 1206.646231 
L 761.269007 1199.764634 
L 749.909157 1192.724792 
L 738.497653 1185.392629 
L 727.031894 1177.760759 
L 715.508901 1169.8213 
L 703.925253 1161.565821 
L 692.501681 1153.153401 
L 681.011794 1144.419109 
L 669.450782 1135.353064 
L 657.813173 1125.944587 
L 646.092702 1116.182108 
L 634.282219 1106.053046 
L 622.373522 1095.543688 
L 610.3572 1084.639002 
L 598.22241 1073.322483 
L 585.956609 1061.575889 
L 573.545247 1049.378981 
L 560.971341 1036.709188 
L 548.214972 1023.541184 
L 534.9962 1009.572375 
L 521.533503 995.021367 
L 507.523722 979.55031 
L 492.902586 963.072308 
L 477.304959 945.156813 
L 460.29793 925.281248 
L 440.411858 901.687209 
L 411.688394 867.219608 
L 379.014325 828.086939 
L 361.84578 807.875243 
L 348.044452 791.955008 
L 335.995365 778.380104 
L 325.057599 766.383592 
L 314.923515 755.599549 
L 305.773193 746.179777 
L 297.193647 737.658947 
L 289.315602 730.132158 
L 281.571312 723.04114 
L 274.780317 717.09932 
L 268.325482 711.713045 
L 262.287423 706.92471 
L 255.807876 702.077858 
L 249.827136 697.894334 
L 244.478175 694.40805 
L 238.728326 690.951067 
L 233.782973 688.237504 
L 228.470348 685.611843 
L 224.203302 683.736757 
L 219.655581 681.98562 
L 214.78838 680.416829 
L 211.346735 679.513143 
L 207.736125 678.762319 
L 203.951483 678.208196 
L 199.996578 677.904878 
L 195.890238 677.915627 
L 191.67378 678.307529 
L 189.544795 678.665655 
L 187.416496 679.139713 
L 185.301588 679.732976 
L 183.213572 680.446053 
L 181.16602 681.276597 
L 179.171725 682.219328 
L 177.241937 683.26634 
L 175.385793 684.407695 
L 171.91867 686.927912 
L 168.795054 689.687112 
L 166.008457 692.600903 
L 163.533465 695.60208 
L 161.336475 698.641558 
L 159.38264 701.685508 
L 157.639465 704.711587 
L 155.357945 709.187681 
L 153.406456 713.566455 
L 151.722547 717.837357 
L 149.811686 723.361145 
L 148.205947 728.695985 
L 146.534439 735.116691 
L 145.155739 741.286039 
L 143.801692 748.392251 
L 142.542601 756.321116 
L 141.426341 764.967574 
L 140.482002 774.238758 
L 139.724334 784.05463 
L 139.157769 794.347261 
L 138.757457 805.930242 
L 138.568491 817.804965 
L 138.577838 830.72987 
L 138.813636 845.319845 
L 139.299057 861.347093 
L 140.067613 879.285411 
L 141.190302 900.125709 
L 142.773691 925.194049 
L 145.202823 959.793983 
L 150.681407 1036.953248 
L 152.500839 1066.311597 
L 153.855355 1091.685872 
L 154.870863 1114.791982 
L 155.598053 1136.269276 
L 156.071051 1156.655642 
L 156.307047 1176.415216 
L 156.310624 1195.241475 
L 156.291316 1198.091242 
L 156.291316 1198.091242 
" style="fill:none;stroke:#008000;stroke-linecap:square;stroke-width:1.5;"/>
   </g>
   <g id="line2d_31">
    <path clip-path="url(#p220019757a)" d="M 1598.786318 699.124773 
L 1598.513709 699.01368 
L 1598.024947 698.577182 
L 1597.448327 697.747601 
L 1596.872803 696.52857 
L 1596.350148 694.905888 
L 1596.208859 694.325646 
L 1596.208859 694.325646 
" style="fill:none;stroke:#c0c0c0;stroke-linecap:square;stroke-width:1.5;"/>
   </g>
   <g id="line2d_32">
    <path clip-path="url(#p220019757a)" d="M 178.454476 720.428545 
L 182.070614 722.132407 
L 185.790371 723.521694 
L 189.560023 724.596266 
L 193.330863 725.371071 
L 197.063278 725.871541 
L 200.72812 726.128542 
L 204.306005 726.174218 
L 207.78554 726.039235 
L 212.809881 725.557669 
L 217.599949 724.809763 
L 222.165424 723.857117 
L 226.521246 722.746983 
L 232.031675 721.082778 
L 237.237724 719.264307 
L 243.370548 716.840179 
L 249.141772 714.302362 
L 255.658336 711.161906 
L 261.792844 707.959896 
L 268.53891 704.185383 
L 275.789043 699.856589 
L 283.452146 695.000188 
L 291.453272 689.648008 
L 299.73201 683.834349 
L 308.240369 677.594012 
L 317.590083 670.45641 
L 327.642005 662.489703 
L 338.280958 653.765009 
L 349.953972 643.890308 
L 362.493961 632.981099 
L 376.242904 620.722238 
L 391.906014 606.454705 
L 410.840309 588.893531 
L 437.08252 564.22014 
L 490.540994 513.896973 
L 512.55208 493.529651 
L 531.503849 476.289949 
L 548.942317 460.723107 
L 565.318878 446.399043 
L 581.019574 432.960991 
L 596.109067 420.338319 
L 610.63985 408.469316 
L 624.922428 397.08918 
L 638.717527 386.376489 
L 652.316318 376.092435 
L 665.735604 366.21927 
L 678.98999 356.740908 
L 692.092193 347.642666 
L 705.053357 338.911128 
L 717.883262 330.533954 
L 730.590519 322.499785 
L 743.182732 314.798106 
L 755.666631 307.419175 
L 768.048168 300.353921 
L 780.567959 293.466819 
L 792.99187 286.888423 
L 805.324304 280.610901 
L 817.569165 274.626898 
L 829.729909 268.929496 
L 841.809603 263.512186 
L 853.81095 258.368809 
L 865.960639 253.404093 
L 878.033715 248.711865 
L 890.032122 244.286583 
L 901.957576 240.122983 
L 913.811549 236.216053 
L 925.812882 232.495669 
L 937.742548 229.031765 
L 949.601518 225.81973 
L 961.390606 222.855145 
L 973.110476 220.13378 
L 984.97287 217.608629 
L 996.764484 215.327285 
L 1008.485634 213.285778 
L 1020.136521 211.480288 
L 1031.71724 209.907127 
L 1043.432711 208.540781 
L 1055.075423 207.407816 
L 1066.645214 206.504721 
L 1078.141846 205.82809 
L 1089.76477 205.36864 
L 1101.311246 205.136879 
L 1112.780829 205.129533 
L 1124.173018 205.343416 
L 1135.487257 205.775426 
L 1146.915976 206.435569 
L 1158.262734 207.315199 
L 1169.526821 208.411296 
L 1180.707474 209.720906 
L 1191.991253 211.268718 
L 1203.187068 213.031395 
L 1214.294026 215.006041 
L 1225.311208 217.189819 
L 1236.237668 219.579951 
L 1247.252237 222.218643 
L 1258.170999 225.065009 
L 1268.992899 228.116283 
L 1279.716866 231.369776 
L 1290.341808 234.822836 
L 1301.038326 238.534319 
L 1311.63025 242.446597 
L 1322.116393 246.557032 
L 1332.495574 250.863039 
L 1342.766599 255.362074 
L 1353.091259 260.128828 
L 1363.301735 265.089742 
L 1373.396752 270.242288 
L 1383.375042 275.58399 
L 1393.235315 281.112419 
L 1402.97629 286.825195 
L 1412.748407 292.815001 
L 1422.394723 298.990255 
L 1431.91389 305.348612 
L 1441.304537 311.88779 
L 1450.56531 318.605575 
L 1459.694829 325.4998 
L 1468.831243 332.680198 
L 1477.829405 340.038322 
L 1486.68785 347.572135 
L 1495.405102 355.279694 
L 1503.979677 363.159136 
L 1512.410053 371.208716 
L 1520.694686 379.4268 
L 1528.832008 387.811877 
L 1536.820398 396.362576 
L 1544.658185 405.077684 
L 1552.343635 413.956159 
L 1559.874933 422.997156 
L 1567.250166 432.200057 
L 1574.467292 441.564486 
L 1581.416786 450.942584 
L 1588.208606 460.477423 
L 1594.840259 470.169573 
L 1601.308965 480.020017 
L 1607.514414 489.87254 
L 1613.555531 499.8817 
L 1619.336506 509.887267 
L 1624.950132 520.049802 
L 1630.304866 530.205108 
L 1635.403165 540.349562 
L 1640.246788 550.479992 
L 1644.836676 560.59358 
L 1649.172802 570.687795 
L 1653.182753 580.578955 
L 1656.942195 590.440148 
L 1660.383558 600.081468 
L 1663.574259 609.680278 
L 1666.452608 619.039164 
L 1669.025294 628.143374 
L 1671.348286 637.174308 
L 1673.373458 645.921576 
L 1675.150667 654.568041 
L 1676.678804 663.099396 
L 1677.959182 671.499532 
L 1678.99619 679.751118 
L 1679.815477 688.044175 
L 1680.412021 696.362926 
L 1680.784393 704.690758 
L 1680.934864 713.011217 
L 1680.86474 721.516016 
L 1680.56687 730.188454 
L 1680.037421 739.012488 
L 1679.275373 747.973489 
L 1678.281757 757.058681 
L 1677.03013 766.456248 
L 1675.510809 776.151053 
L 1673.752597 785.934716 
L 1671.718443 795.993849 
L 1669.400455 806.317233 
L 1666.839031 816.706785 
L 1663.984472 827.345155 
L 1660.882873 838.039821 
L 1657.534447 848.788383 
L 1653.938401 859.588328 
L 1650.093082 870.436919 
L 1645.996083 881.33109 
L 1641.644363 892.267393 
L 1637.107823 903.071529 
L 1632.314752 913.913825 
L 1627.339838 924.623265 
L 1622.104815 935.365154 
L 1616.68936 945.971811 
L 1611.009074 956.603612 
L 1605.148737 967.09631 
L 1599.110967 977.449585 
L 1592.898191 987.662858 
L 1586.512658 997.735298 
L 1579.956515 1007.665873 
L 1573.231776 1017.453364 
L 1566.340395 1027.096392 
L 1559.176069 1036.736187 
L 1551.84384 1046.223799 
L 1544.458698 1055.419203 
L 1536.914166 1064.463246 
L 1529.211964 1073.353958 
L 1521.35378 1082.089276 
L 1513.341294 1090.667065 
L 1505.17617 1099.08512 
L 1496.86007 1107.341171 
L 1488.394645 1115.432886 
L 1479.781554 1123.35788 
L 1471.022448 1131.113721 
L 1462.118983 1138.69792 
L 1453.072825 1146.107949 
L 1444.025883 1153.232971 
L 1434.843748 1160.184075 
L 1425.528024 1166.958724 
L 1416.080329 1173.554349 
L 1406.502275 1179.96835 
L 1396.795487 1186.198092 
L 1387.113847 1192.149363 
L 1377.310552 1197.916833 
L 1367.387176 1203.497885 
L 1357.345299 1208.889883 
L 1347.186503 1214.09015 
L 1337.073795 1219.019274 
L 1326.850854 1223.757373 
L 1316.519215 1228.301812 
L 1306.080402 1232.649906 
L 1295.535946 1236.79895 
L 1285.057212 1240.685135 
L 1274.479116 1244.37323 
L 1263.803112 1247.860544 
L 1253.030668 1251.14436 
L 1242.163242 1254.221915 
L 1231.379808 1257.045812 
L 1220.50722 1259.664625 
L 1209.546851 1262.0756 
L 1198.500071 1264.275937 
L 1187.5514 1266.231957 
L 1176.521717 1267.978684 
L 1165.412295 1269.51331 
L 1154.224384 1270.832975 
L 1143.147607 1271.918207 
L 1131.997293 1272.789941 
L 1120.774586 1273.445285 
L 1109.4806 1273.881299 
L 1098.116437 1274.094954 
L 1086.877508 1274.085262 
L 1075.572771 1273.854696 
L 1064.203182 1273.400177 
L 1052.76965 1272.718534 
L 1041.471804 1271.824215 
L 1030.113847 1270.704224 
L 1018.696525 1269.355294 
L 1007.220542 1267.774061 
L 995.889389 1265.990984 
L 984.502794 1263.97693 
L 973.061259 1261.728391 
L 961.565209 1259.241724 
L 950.015008 1256.513171 
L 938.618622 1253.594112 
L 927.170452 1250.434109 
L 915.670586 1247.029167 
L 904.119022 1243.375127 
L 892.727074 1239.540986 
L 881.28496 1235.458257 
L 869.792328 1231.122466 
L 858.248703 1226.528926 
L 846.653456 1221.672729 
L 835.221969 1216.646083 
L 823.739069 1211.356329 
L 812.203645 1205.79809 
L 800.614381 1199.965672 
L 788.969723 1193.853083 
L 777.489198 1187.577393 
L 765.95163 1181.019537 
L 754.354752 1174.172759 
L 742.695943 1167.029892 
L 730.972216 1159.583275 
L 719.180162 1151.824743 
L 707.544753 1143.903991 
L 695.835689 1135.665921 
L 684.048218 1127.101002 
L 672.176927 1118.198959 
L 660.215654 1108.94868 
L 648.15737 1099.338102 
L 635.994044 1089.354105 
L 623.716488 1078.982339 
L 611.558591 1068.422333 
L 599.269293 1057.458177 
L 586.58513 1045.839678 
L 573.73422 1033.760682 
L 560.697537 1021.197407 
L 547.452693 1008.12309 
L 533.973173 994.507411 
L 519.954851 980.03145 
L 505.339863 964.617018 
L 490.055088 948.172426 
L 473.412523 929.932202 
L 455.214456 909.651365 
L 433.209928 884.781024 
L 365.036532 807.462962 
L 350.078254 790.987288 
L 337.294377 777.222263 
L 325.595391 764.951459 
L 315.222291 754.387384 
L 305.865073 745.156883 
L 297.099054 736.804567 
L 289.055732 729.424118 
L 281.153741 722.468435 
L 273.42822 715.982239 
L 266.790218 710.682954 
L 260.573747 705.971796 
L 253.891872 701.204496 
L 247.710662 697.093361 
L 242.167618 693.67351 
L 237.424021 690.964242 
L 232.352578 688.307701 
L 226.890244 685.747603 
L 222.489648 683.932292 
L 217.784073 682.25728 
L 214.45527 681.251915 
L 210.957032 680.368418 
L 207.277207 679.645032 
L 203.408343 679.131615 
L 199.353137 678.891408 
L 195.132863 679.000294 
L 192.97519 679.211325 
L 190.798028 679.539955 
L 188.613631 679.994544 
L 186.43651 680.581164 
L 184.282854 681.302731 
L 182.169592 682.158358 
L 180.11319 683.143091 
L 178.128456 684.248158 
L 176.227511 685.461713 
L 174.419176 686.769849 
L 172.70881 688.157746 
L 169.58779 691.114912 
L 166.85262 694.228989 
L 164.467405 697.420148 
L 162.387666 700.6331 
L 160.569434 703.832085 
L 158.973336 706.995142 
L 156.923621 711.64618 
L 155.208464 716.168801 
L 153.759582 720.55833 
L 152.154993 726.209421 
L 150.844632 731.644349 
L 149.525733 738.161624 
L 148.481606 744.403925 
L 147.5071 751.574891 
L 146.663908 759.556473 
L 145.992347 768.241782 
L 145.515232 777.537502 
L 145.242308 787.364034 
L 145.174116 797.654378 
L 145.323784 809.22168 
L 145.720445 821.893522 
L 146.374535 835.52025 
L 147.333952 850.715248 
L 148.602534 867.256761 
L 150.288859 886.278236 
L 152.503958 908.641308 
L 155.518267 936.683397 
L 161.101019 986.079315 
L 166.050592 1030.704891 
L 169.117728 1060.358354 
L 171.546607 1085.959481 
L 173.536507 1109.25565 
L 175.165744 1130.899475 
L 176.491557 1151.43773 
L 177.533352 1170.970988 
L 178.323206 1189.942963 
L 178.857864 1208.046064 
L 179.159642 1225.684949 
L 179.233355 1242.88979 
L 179.083796 1259.687012 
L 178.715714 1276.099898 
L 178.133764 1292.149087 
L 177.342502 1307.852946 
L 176.346375 1323.227912 
L 175.149713 1338.288737 
L 173.756731 1353.048727 
L 172.171521 1367.519904 
L 170.361441 1381.988775 
L 169.953852 1385.013491 
L 169.953852 1385.013491 
" style="fill:none;stroke:#800080;stroke-linecap:square;stroke-width:1.5;"/>
   </g>
   <g id="patch_11">
    <path d="M 60.114062 1354.392 
L 60.114062 7.2 
" style="fill:none;stroke:#000000;stroke-linecap:square;stroke-linejoin:miter;stroke-width:0.8;"/>
   </g>
   <g id="patch_12">
    <path d="M 1856.370062 1354.392 
L 1856.370062 7.2 
" style="fill:none;stroke:#000000;stroke-linecap:square;stroke-linejoin:miter;stroke-width:0.8;"/>
   </g>
   <g id="patch_13">
    <path d="M 60.114062 1354.392 
L 1856.370062 1354.392 
" style="fill:none;stroke:#000000;stroke-linecap:square;stroke-linejoin:miter;stroke-width:0.8;"/>
   </g>
   <g id="patch_14">
    <path d="M 60.114062 7.2 
L 1856.370062 7.2 
" style="fill:none;stroke:#000000;stroke-linecap:square;stroke-linejoin:miter;stroke-width:0.8;"/>
   </g>
  </g>
 </g>
 <defs>
  <clipPath id="p220019757a">
   <rect height="1347.192" width="1796.256" x="60.114062" y="7.2"/>
  </clipPath>
 </defs>
</svg>
