<?xml version="1.0" encoding="utf-8" standalone="no"?>
<!DOCTYPE svg PUBLIC "-//W3C//DTD SVG 1.1//EN"
  "http://www.w3.org/Graphics/SVG/1.1/DTD/svg11.dtd">
<!-- Created with matplotlib (https://matplotlib.org/) -->
<svg height="942.88425pt" version="1.1" viewBox="0 0 1264.818062 942.88425" width="1264.818062pt" xmlns="http://www.w3.org/2000/svg" xmlns:xlink="http://www.w3.org/1999/xlink">
 <metadata>
  <rdf:RDF xmlns:cc="http://creativecommons.org/ns#" xmlns:dc="http://purl.org/dc/elements/1.1/" xmlns:rdf="http://www.w3.org/1999/02/22-rdf-syntax-ns#">
   <cc:Work>
    <dc:type rdf:resource="http://purl.org/dc/dcmitype/StillImage"/>
    <dc:date>2021-08-06T14:46:14.256964</dc:date>
    <dc:format>image/svg+xml</dc:format>
    <dc:creator>
     <cc:Agent>
      <dc:title>Matplotlib v3.3.2, https://matplotlib.org/</dc:title>
     </cc:Agent>
    </dc:creator>
   </cc:Work>
  </rdf:RDF>
 </metadata>
 <defs>
  <style type="text/css">*{stroke-linecap:butt;stroke-linejoin:round;}</style>
 </defs>
 <g id="figure_1">
  <g id="patch_1">
   <path d="M 0 942.88425 
L 1264.818062 942.88425 
L 1264.818062 -0 
L 0 -0 
z
" style="fill:#ffffff;"/>
  </g>
  <g id="axes_1">
   <g id="patch_2">
    <path d="M 60.114063 905.328 
L 1257.618063 905.328 
L 1257.618063 7.2 
L 60.114063 7.2 
z
" style="fill:#ffffff;"/>
   </g>
   <g id="patch_3">
    <path clip-path="url(#p7303c00bec)" d="M 146.46101 484.070534 
C 150.594758 484.070534 154.559755 482.428179 157.482756 479.505177 
C 160.405757 476.582176 162.048113 472.617179 162.048113 468.483431 
C 162.048113 464.349683 160.405757 460.384686 157.482756 457.461685 
C 154.559755 454.538683 150.594758 452.896328 146.46101 452.896328 
C 142.327262 452.896328 138.362265 454.538683 135.439263 457.461685 
C 132.516262 460.384686 130.873907 464.349683 130.873907 468.483431 
C 130.873907 472.617179 132.516262 476.582176 135.439263 479.505177 
C 138.362265 482.428179 142.327262 484.070534 146.46101 484.070534 
z
" style="fill:#00008b;stroke:#00008b;stroke-linejoin:miter;"/>
   </g>
   <g id="patch_4">
    <path clip-path="url(#p7303c00bec)" d="M 1085.895566 472.728211 
C 1087.021361 472.728211 1088.101198 472.280928 1088.897255 471.484871 
C 1089.693313 470.688814 1090.140596 469.608977 1090.140596 468.483182 
C 1090.140596 467.357387 1089.693313 466.27755 1088.897255 465.481493 
C 1088.101198 464.685435 1087.021361 464.238152 1085.895566 464.238152 
C 1084.769771 464.238152 1083.689934 464.685435 1082.893877 465.481493 
C 1082.09782 466.27755 1081.650537 467.357387 1081.650537 468.483182 
C 1081.650537 469.608977 1082.09782 470.688814 1082.893877 471.484871 
C 1083.689934 472.280928 1084.769771 472.728211 1085.895566 472.728211 
z
" style="fill:#808080;stroke:#808080;stroke-linejoin:miter;"/>
   </g>
   <g id="patch_5">
    <path clip-path="url(#p7303c00bec)" d="M 146.46101 484.070534 
C 150.594758 484.070534 154.559755 482.428179 157.482756 479.505177 
C 160.405757 476.582176 162.048113 472.617179 162.048113 468.483431 
C 162.048113 464.349683 160.405757 460.384686 157.482756 457.461685 
C 154.559755 454.538683 150.594758 452.896328 146.46101 452.896328 
C 142.327262 452.896328 138.362265 454.538683 135.439263 457.461685 
C 132.516262 460.384686 130.873907 464.349683 130.873907 468.483431 
C 130.873907 472.617179 132.516262 476.582176 135.439263 479.505177 
C 138.362265 482.428179 142.327262 484.070534 146.46101 484.070534 
z
" style="fill:#00008b;stroke:#00008b;stroke-linejoin:miter;"/>
   </g>
   <g id="patch_6">
    <path clip-path="url(#p7303c00bec)" d="M 1085.895566 472.728211 
C 1087.021361 472.728211 1088.101198 472.280928 1088.897255 471.484871 
C 1089.693313 470.688814 1090.140596 469.608977 1090.140596 468.483182 
C 1090.140596 467.357387 1089.693313 466.27755 1088.897255 465.481493 
C 1088.101198 464.685435 1087.021361 464.238152 1085.895566 464.238152 
C 1084.769771 464.238152 1083.689934 464.685435 1082.893877 465.481493 
C 1082.09782 466.27755 1081.650537 467.357387 1081.650537 468.483182 
C 1081.650537 469.608977 1082.09782 470.688814 1082.893877 471.484871 
C 1083.689934 472.280928 1084.769771 472.728211 1085.895566 472.728211 
z
" style="fill:#808080;stroke:#808080;stroke-linejoin:miter;"/>
   </g>
   <g id="patch_7">
    <path clip-path="url(#p7303c00bec)" d="M 146.46101 484.070534 
C 150.594758 484.070534 154.559755 482.428179 157.482756 479.505177 
C 160.405757 476.582176 162.048113 472.617179 162.048113 468.483431 
C 162.048113 464.349683 160.405757 460.384686 157.482756 457.461685 
C 154.559755 454.538683 150.594758 452.896328 146.46101 452.896328 
C 142.327262 452.896328 138.362265 454.538683 135.439263 457.461685 
C 132.516262 460.384686 130.873907 464.349683 130.873907 468.483431 
C 130.873907 472.617179 132.516262 476.582176 135.439263 479.505177 
C 138.362265 482.428179 142.327262 484.070534 146.46101 484.070534 
z
" style="fill:#00008b;stroke:#00008b;stroke-linejoin:miter;"/>
   </g>
   <g id="patch_8">
    <path clip-path="url(#p7303c00bec)" d="M 1085.895566 472.728211 
C 1087.021361 472.728211 1088.101198 472.280928 1088.897255 471.484871 
C 1089.693313 470.688814 1090.140596 469.608977 1090.140596 468.483182 
C 1090.140596 467.357387 1089.693313 466.27755 1088.897255 465.481493 
C 1088.101198 464.685435 1087.021361 464.238152 1085.895566 464.238152 
C 1084.769771 464.238152 1083.689934 464.685435 1082.893877 465.481493 
C 1082.09782 466.27755 1081.650537 467.357387 1081.650537 468.483182 
C 1081.650537 469.608977 1082.09782 470.688814 1082.893877 471.484871 
C 1083.689934 472.280928 1084.769771 472.728211 1085.895566 472.728211 
z
" style="fill:#808080;stroke:#808080;stroke-linejoin:miter;"/>
   </g>
   <g id="matplotlib.axis_1">
    <g id="xtick_1">
     <g id="line2d_1">
      <path clip-path="url(#p7303c00bec)" d="M 157.869491 905.328 
L 157.869491 7.2 
" style="fill:none;stroke:#b0b0b0;stroke-linecap:square;stroke-width:0.8;"/>
     </g>
     <g id="line2d_2">
      <defs>
       <path d="M 0 0 
L 0 3.5 
" id="m329495a0c2" style="stroke:#000000;stroke-width:0.8;"/>
      </defs>
      <g>
       <use style="stroke:#000000;stroke-width:0.8;" x="157.869491" xlink:href="#m329495a0c2" y="905.328"/>
      </g>
     </g>
     <g id="text_1">
      <!-- 0.0 -->
      <g transform="translate(149.917929 919.926437)scale(0.1 -0.1)">
       <defs>
        <path d="M 31.78125 66.40625 
Q 24.171875 66.40625 20.328125 58.90625 
Q 16.5 51.421875 16.5 36.375 
Q 16.5 21.390625 20.328125 13.890625 
Q 24.171875 6.390625 31.78125 6.390625 
Q 39.453125 6.390625 43.28125 13.890625 
Q 47.125 21.390625 47.125 36.375 
Q 47.125 51.421875 43.28125 58.90625 
Q 39.453125 66.40625 31.78125 66.40625 
z
M 31.78125 74.21875 
Q 44.046875 74.21875 50.515625 64.515625 
Q 56.984375 54.828125 56.984375 36.375 
Q 56.984375 17.96875 50.515625 8.265625 
Q 44.046875 -1.421875 31.78125 -1.421875 
Q 19.53125 -1.421875 13.0625 8.265625 
Q 6.59375 17.96875 6.59375 36.375 
Q 6.59375 54.828125 13.0625 64.515625 
Q 19.53125 74.21875 31.78125 74.21875 
z
" id="DejaVuSans-48"/>
        <path d="M 10.6875 12.40625 
L 21 12.40625 
L 21 0 
L 10.6875 0 
z
" id="DejaVuSans-46"/>
       </defs>
       <use xlink:href="#DejaVuSans-48"/>
       <use x="63.623047" xlink:href="#DejaVuSans-46"/>
       <use x="95.410156" xlink:href="#DejaVuSans-48"/>
      </g>
     </g>
    </g>
    <g id="xtick_2">
     <g id="line2d_3">
      <path clip-path="url(#p7303c00bec)" d="M 402.258063 905.328 
L 402.258063 7.2 
" style="fill:none;stroke:#b0b0b0;stroke-linecap:square;stroke-width:0.8;"/>
     </g>
     <g id="line2d_4">
      <g>
       <use style="stroke:#000000;stroke-width:0.8;" x="402.258063" xlink:href="#m329495a0c2" y="905.328"/>
      </g>
     </g>
     <g id="text_2">
      <!-- 100.0 -->
      <g transform="translate(387.944 919.926437)scale(0.1 -0.1)">
       <defs>
        <path d="M 12.40625 8.296875 
L 28.515625 8.296875 
L 28.515625 63.921875 
L 10.984375 60.40625 
L 10.984375 69.390625 
L 28.421875 72.90625 
L 38.28125 72.90625 
L 38.28125 8.296875 
L 54.390625 8.296875 
L 54.390625 0 
L 12.40625 0 
z
" id="DejaVuSans-49"/>
       </defs>
       <use xlink:href="#DejaVuSans-49"/>
       <use x="63.623047" xlink:href="#DejaVuSans-48"/>
       <use x="127.246094" xlink:href="#DejaVuSans-48"/>
       <use x="190.869141" xlink:href="#DejaVuSans-46"/>
       <use x="222.65625" xlink:href="#DejaVuSans-48"/>
      </g>
     </g>
    </g>
    <g id="xtick_3">
     <g id="line2d_5">
      <path clip-path="url(#p7303c00bec)" d="M 646.646634 905.328 
L 646.646634 7.2 
" style="fill:none;stroke:#b0b0b0;stroke-linecap:square;stroke-width:0.8;"/>
     </g>
     <g id="line2d_6">
      <g>
       <use style="stroke:#000000;stroke-width:0.8;" x="646.646634" xlink:href="#m329495a0c2" y="905.328"/>
      </g>
     </g>
     <g id="text_3">
      <!-- 200.0 -->
      <g transform="translate(632.332571 919.926437)scale(0.1 -0.1)">
       <defs>
        <path d="M 19.1875 8.296875 
L 53.609375 8.296875 
L 53.609375 0 
L 7.328125 0 
L 7.328125 8.296875 
Q 12.9375 14.109375 22.625 23.890625 
Q 32.328125 33.6875 34.8125 36.53125 
Q 39.546875 41.84375 41.421875 45.53125 
Q 43.3125 49.21875 43.3125 52.78125 
Q 43.3125 58.59375 39.234375 62.25 
Q 35.15625 65.921875 28.609375 65.921875 
Q 23.96875 65.921875 18.8125 64.3125 
Q 13.671875 62.703125 7.8125 59.421875 
L 7.8125 69.390625 
Q 13.765625 71.78125 18.9375 73 
Q 24.125 74.21875 28.421875 74.21875 
Q 39.75 74.21875 46.484375 68.546875 
Q 53.21875 62.890625 53.21875 53.421875 
Q 53.21875 48.921875 51.53125 44.890625 
Q 49.859375 40.875 45.40625 35.40625 
Q 44.1875 33.984375 37.640625 27.21875 
Q 31.109375 20.453125 19.1875 8.296875 
z
" id="DejaVuSans-50"/>
       </defs>
       <use xlink:href="#DejaVuSans-50"/>
       <use x="63.623047" xlink:href="#DejaVuSans-48"/>
       <use x="127.246094" xlink:href="#DejaVuSans-48"/>
       <use x="190.869141" xlink:href="#DejaVuSans-46"/>
       <use x="222.65625" xlink:href="#DejaVuSans-48"/>
      </g>
     </g>
    </g>
    <g id="xtick_4">
     <g id="line2d_7">
      <path clip-path="url(#p7303c00bec)" d="M 891.035205 905.328 
L 891.035205 7.2 
" style="fill:none;stroke:#b0b0b0;stroke-linecap:square;stroke-width:0.8;"/>
     </g>
     <g id="line2d_8">
      <g>
       <use style="stroke:#000000;stroke-width:0.8;" x="891.035205" xlink:href="#m329495a0c2" y="905.328"/>
      </g>
     </g>
     <g id="text_4">
      <!-- 300.0 -->
      <g transform="translate(876.721143 919.926437)scale(0.1 -0.1)">
       <defs>
        <path d="M 40.578125 39.3125 
Q 47.65625 37.796875 51.625 33 
Q 55.609375 28.21875 55.609375 21.1875 
Q 55.609375 10.40625 48.1875 4.484375 
Q 40.765625 -1.421875 27.09375 -1.421875 
Q 22.515625 -1.421875 17.65625 -0.515625 
Q 12.796875 0.390625 7.625 2.203125 
L 7.625 11.71875 
Q 11.71875 9.328125 16.59375 8.109375 
Q 21.484375 6.890625 26.8125 6.890625 
Q 36.078125 6.890625 40.9375 10.546875 
Q 45.796875 14.203125 45.796875 21.1875 
Q 45.796875 27.640625 41.28125 31.265625 
Q 36.765625 34.90625 28.71875 34.90625 
L 20.21875 34.90625 
L 20.21875 43.015625 
L 29.109375 43.015625 
Q 36.375 43.015625 40.234375 45.921875 
Q 44.09375 48.828125 44.09375 54.296875 
Q 44.09375 59.90625 40.109375 62.90625 
Q 36.140625 65.921875 28.71875 65.921875 
Q 24.65625 65.921875 20.015625 65.03125 
Q 15.375 64.15625 9.8125 62.3125 
L 9.8125 71.09375 
Q 15.4375 72.65625 20.34375 73.4375 
Q 25.25 74.21875 29.59375 74.21875 
Q 40.828125 74.21875 47.359375 69.109375 
Q 53.90625 64.015625 53.90625 55.328125 
Q 53.90625 49.265625 50.4375 45.09375 
Q 46.96875 40.921875 40.578125 39.3125 
z
" id="DejaVuSans-51"/>
       </defs>
       <use xlink:href="#DejaVuSans-51"/>
       <use x="63.623047" xlink:href="#DejaVuSans-48"/>
       <use x="127.246094" xlink:href="#DejaVuSans-48"/>
       <use x="190.869141" xlink:href="#DejaVuSans-46"/>
       <use x="222.65625" xlink:href="#DejaVuSans-48"/>
      </g>
     </g>
    </g>
    <g id="xtick_5">
     <g id="line2d_9">
      <path clip-path="url(#p7303c00bec)" d="M 1135.423777 905.328 
L 1135.423777 7.2 
" style="fill:none;stroke:#b0b0b0;stroke-linecap:square;stroke-width:0.8;"/>
     </g>
     <g id="line2d_10">
      <g>
       <use style="stroke:#000000;stroke-width:0.8;" x="1135.423777" xlink:href="#m329495a0c2" y="905.328"/>
      </g>
     </g>
     <g id="text_5">
      <!-- 400.0 -->
      <g transform="translate(1121.109714 919.926437)scale(0.1 -0.1)">
       <defs>
        <path d="M 37.796875 64.3125 
L 12.890625 25.390625 
L 37.796875 25.390625 
z
M 35.203125 72.90625 
L 47.609375 72.90625 
L 47.609375 25.390625 
L 58.015625 25.390625 
L 58.015625 17.1875 
L 47.609375 17.1875 
L 47.609375 0 
L 37.796875 0 
L 37.796875 17.1875 
L 4.890625 17.1875 
L 4.890625 26.703125 
z
" id="DejaVuSans-52"/>
       </defs>
       <use xlink:href="#DejaVuSans-52"/>
       <use x="63.623047" xlink:href="#DejaVuSans-48"/>
       <use x="127.246094" xlink:href="#DejaVuSans-48"/>
       <use x="190.869141" xlink:href="#DejaVuSans-46"/>
       <use x="222.65625" xlink:href="#DejaVuSans-48"/>
      </g>
     </g>
    </g>
    <g id="text_6">
     <!-- Unit: 1000 km -->
     <g transform="translate(623.335594 933.604562)scale(0.1 -0.1)">
      <defs>
       <path d="M 8.6875 72.90625 
L 18.609375 72.90625 
L 18.609375 28.609375 
Q 18.609375 16.890625 22.84375 11.734375 
Q 27.09375 6.59375 36.625 6.59375 
Q 46.09375 6.59375 50.34375 11.734375 
Q 54.59375 16.890625 54.59375 28.609375 
L 54.59375 72.90625 
L 64.5 72.90625 
L 64.5 27.390625 
Q 64.5 13.140625 57.4375 5.859375 
Q 50.390625 -1.421875 36.625 -1.421875 
Q 22.796875 -1.421875 15.734375 5.859375 
Q 8.6875 13.140625 8.6875 27.390625 
z
" id="DejaVuSans-85"/>
       <path d="M 54.890625 33.015625 
L 54.890625 0 
L 45.90625 0 
L 45.90625 32.71875 
Q 45.90625 40.484375 42.875 44.328125 
Q 39.84375 48.1875 33.796875 48.1875 
Q 26.515625 48.1875 22.3125 43.546875 
Q 18.109375 38.921875 18.109375 30.90625 
L 18.109375 0 
L 9.078125 0 
L 9.078125 54.6875 
L 18.109375 54.6875 
L 18.109375 46.1875 
Q 21.34375 51.125 25.703125 53.5625 
Q 30.078125 56 35.796875 56 
Q 45.21875 56 50.046875 50.171875 
Q 54.890625 44.34375 54.890625 33.015625 
z
" id="DejaVuSans-110"/>
       <path d="M 9.421875 54.6875 
L 18.40625 54.6875 
L 18.40625 0 
L 9.421875 0 
z
M 9.421875 75.984375 
L 18.40625 75.984375 
L 18.40625 64.59375 
L 9.421875 64.59375 
z
" id="DejaVuSans-105"/>
       <path d="M 18.3125 70.21875 
L 18.3125 54.6875 
L 36.8125 54.6875 
L 36.8125 47.703125 
L 18.3125 47.703125 
L 18.3125 18.015625 
Q 18.3125 11.328125 20.140625 9.421875 
Q 21.96875 7.515625 27.59375 7.515625 
L 36.8125 7.515625 
L 36.8125 0 
L 27.59375 0 
Q 17.1875 0 13.234375 3.875 
Q 9.28125 7.765625 9.28125 18.015625 
L 9.28125 47.703125 
L 2.6875 47.703125 
L 2.6875 54.6875 
L 9.28125 54.6875 
L 9.28125 70.21875 
z
" id="DejaVuSans-116"/>
       <path d="M 11.71875 12.40625 
L 22.015625 12.40625 
L 22.015625 0 
L 11.71875 0 
z
M 11.71875 51.703125 
L 22.015625 51.703125 
L 22.015625 39.3125 
L 11.71875 39.3125 
z
" id="DejaVuSans-58"/>
       <path id="DejaVuSans-32"/>
       <path d="M 9.078125 75.984375 
L 18.109375 75.984375 
L 18.109375 31.109375 
L 44.921875 54.6875 
L 56.390625 54.6875 
L 27.390625 29.109375 
L 57.625 0 
L 45.90625 0 
L 18.109375 26.703125 
L 18.109375 0 
L 9.078125 0 
z
" id="DejaVuSans-107"/>
       <path d="M 52 44.1875 
Q 55.375 50.25 60.0625 53.125 
Q 64.75 56 71.09375 56 
Q 79.640625 56 84.28125 50.015625 
Q 88.921875 44.046875 88.921875 33.015625 
L 88.921875 0 
L 79.890625 0 
L 79.890625 32.71875 
Q 79.890625 40.578125 77.09375 44.375 
Q 74.3125 48.1875 68.609375 48.1875 
Q 61.625 48.1875 57.5625 43.546875 
Q 53.515625 38.921875 53.515625 30.90625 
L 53.515625 0 
L 44.484375 0 
L 44.484375 32.71875 
Q 44.484375 40.625 41.703125 44.40625 
Q 38.921875 48.1875 33.109375 48.1875 
Q 26.21875 48.1875 22.15625 43.53125 
Q 18.109375 38.875 18.109375 30.90625 
L 18.109375 0 
L 9.078125 0 
L 9.078125 54.6875 
L 18.109375 54.6875 
L 18.109375 46.1875 
Q 21.1875 51.21875 25.484375 53.609375 
Q 29.78125 56 35.6875 56 
Q 41.65625 56 45.828125 52.96875 
Q 50 49.953125 52 44.1875 
z
" id="DejaVuSans-109"/>
      </defs>
      <use xlink:href="#DejaVuSans-85"/>
      <use x="73.193359" xlink:href="#DejaVuSans-110"/>
      <use x="136.572266" xlink:href="#DejaVuSans-105"/>
      <use x="164.355469" xlink:href="#DejaVuSans-116"/>
      <use x="203.564453" xlink:href="#DejaVuSans-58"/>
      <use x="237.255859" xlink:href="#DejaVuSans-32"/>
      <use x="269.042969" xlink:href="#DejaVuSans-49"/>
      <use x="332.666016" xlink:href="#DejaVuSans-48"/>
      <use x="396.289062" xlink:href="#DejaVuSans-48"/>
      <use x="459.912109" xlink:href="#DejaVuSans-48"/>
      <use x="523.535156" xlink:href="#DejaVuSans-32"/>
      <use x="555.322266" xlink:href="#DejaVuSans-107"/>
      <use x="613.232422" xlink:href="#DejaVuSans-109"/>
     </g>
    </g>
   </g>
   <g id="matplotlib.axis_2">
    <g id="ytick_1">
     <g id="line2d_11">
      <path clip-path="url(#p7303c00bec)" d="M 60.114063 835.066286 
L 1257.618063 835.066286 
" style="fill:none;stroke:#b0b0b0;stroke-linecap:square;stroke-width:0.8;"/>
     </g>
     <g id="line2d_12">
      <defs>
       <path d="M 0 0 
L -3.5 0 
" id="m93c7110f69" style="stroke:#000000;stroke-width:0.8;"/>
      </defs>
      <g>
       <use style="stroke:#000000;stroke-width:0.8;" x="60.114063" xlink:href="#m93c7110f69" y="835.066286"/>
      </g>
     </g>
     <g id="text_7">
      <!-- -150.0 -->
      <g transform="translate(20.878125 838.865504)scale(0.1 -0.1)">
       <defs>
        <path d="M 4.890625 31.390625 
L 31.203125 31.390625 
L 31.203125 23.390625 
L 4.890625 23.390625 
z
" id="DejaVuSans-45"/>
        <path d="M 10.796875 72.90625 
L 49.515625 72.90625 
L 49.515625 64.59375 
L 19.828125 64.59375 
L 19.828125 46.734375 
Q 21.96875 47.46875 24.109375 47.828125 
Q 26.265625 48.1875 28.421875 48.1875 
Q 40.625 48.1875 47.75 41.5 
Q 54.890625 34.8125 54.890625 23.390625 
Q 54.890625 11.625 47.5625 5.09375 
Q 40.234375 -1.421875 26.90625 -1.421875 
Q 22.3125 -1.421875 17.546875 -0.640625 
Q 12.796875 0.140625 7.71875 1.703125 
L 7.71875 11.625 
Q 12.109375 9.234375 16.796875 8.0625 
Q 21.484375 6.890625 26.703125 6.890625 
Q 35.15625 6.890625 40.078125 11.328125 
Q 45.015625 15.765625 45.015625 23.390625 
Q 45.015625 31 40.078125 35.4375 
Q 35.15625 39.890625 26.703125 39.890625 
Q 22.75 39.890625 18.8125 39.015625 
Q 14.890625 38.140625 10.796875 36.28125 
z
" id="DejaVuSans-53"/>
       </defs>
       <use xlink:href="#DejaVuSans-45"/>
       <use x="36.083984" xlink:href="#DejaVuSans-49"/>
       <use x="99.707031" xlink:href="#DejaVuSans-53"/>
       <use x="163.330078" xlink:href="#DejaVuSans-48"/>
       <use x="226.953125" xlink:href="#DejaVuSans-46"/>
       <use x="258.740234" xlink:href="#DejaVuSans-48"/>
      </g>
     </g>
    </g>
    <g id="ytick_2">
     <g id="line2d_13">
      <path clip-path="url(#p7303c00bec)" d="M 60.114063 712.872 
L 1257.618063 712.872 
" style="fill:none;stroke:#b0b0b0;stroke-linecap:square;stroke-width:0.8;"/>
     </g>
     <g id="line2d_14">
      <g>
       <use style="stroke:#000000;stroke-width:0.8;" x="60.114063" xlink:href="#m93c7110f69" y="712.872"/>
      </g>
     </g>
     <g id="text_8">
      <!-- -100.0 -->
      <g transform="translate(20.878125 716.671219)scale(0.1 -0.1)">
       <use xlink:href="#DejaVuSans-45"/>
       <use x="36.083984" xlink:href="#DejaVuSans-49"/>
       <use x="99.707031" xlink:href="#DejaVuSans-48"/>
       <use x="163.330078" xlink:href="#DejaVuSans-48"/>
       <use x="226.953125" xlink:href="#DejaVuSans-46"/>
       <use x="258.740234" xlink:href="#DejaVuSans-48"/>
      </g>
     </g>
    </g>
    <g id="ytick_3">
     <g id="line2d_15">
      <path clip-path="url(#p7303c00bec)" d="M 60.114063 590.677714 
L 1257.618063 590.677714 
" style="fill:none;stroke:#b0b0b0;stroke-linecap:square;stroke-width:0.8;"/>
     </g>
     <g id="line2d_16">
      <g>
       <use style="stroke:#000000;stroke-width:0.8;" x="60.114063" xlink:href="#m93c7110f69" y="590.677714"/>
      </g>
     </g>
     <g id="text_9">
      <!-- -50.0 -->
      <g transform="translate(27.240625 594.476933)scale(0.1 -0.1)">
       <use xlink:href="#DejaVuSans-45"/>
       <use x="36.083984" xlink:href="#DejaVuSans-53"/>
       <use x="99.707031" xlink:href="#DejaVuSans-48"/>
       <use x="163.330078" xlink:href="#DejaVuSans-46"/>
       <use x="195.117188" xlink:href="#DejaVuSans-48"/>
      </g>
     </g>
    </g>
    <g id="ytick_4">
     <g id="line2d_17">
      <path clip-path="url(#p7303c00bec)" d="M 60.114063 468.483429 
L 1257.618063 468.483429 
" style="fill:none;stroke:#b0b0b0;stroke-linecap:square;stroke-width:0.8;"/>
     </g>
     <g id="line2d_18">
      <g>
       <use style="stroke:#000000;stroke-width:0.8;" x="60.114063" xlink:href="#m93c7110f69" y="468.483429"/>
      </g>
     </g>
     <g id="text_10">
      <!-- 0.0 -->
      <g transform="translate(37.210938 472.282647)scale(0.1 -0.1)">
       <use xlink:href="#DejaVuSans-48"/>
       <use x="63.623047" xlink:href="#DejaVuSans-46"/>
       <use x="95.410156" xlink:href="#DejaVuSans-48"/>
      </g>
     </g>
    </g>
    <g id="ytick_5">
     <g id="line2d_19">
      <path clip-path="url(#p7303c00bec)" d="M 60.114063 346.289143 
L 1257.618063 346.289143 
" style="fill:none;stroke:#b0b0b0;stroke-linecap:square;stroke-width:0.8;"/>
     </g>
     <g id="line2d_20">
      <g>
       <use style="stroke:#000000;stroke-width:0.8;" x="60.114063" xlink:href="#m93c7110f69" y="346.289143"/>
      </g>
     </g>
     <g id="text_11">
      <!-- 50.0 -->
      <g transform="translate(30.848438 350.088362)scale(0.1 -0.1)">
       <use xlink:href="#DejaVuSans-53"/>
       <use x="63.623047" xlink:href="#DejaVuSans-48"/>
       <use x="127.246094" xlink:href="#DejaVuSans-46"/>
       <use x="159.033203" xlink:href="#DejaVuSans-48"/>
      </g>
     </g>
    </g>
    <g id="ytick_6">
     <g id="line2d_21">
      <path clip-path="url(#p7303c00bec)" d="M 60.114063 224.094857 
L 1257.618063 224.094857 
" style="fill:none;stroke:#b0b0b0;stroke-linecap:square;stroke-width:0.8;"/>
     </g>
     <g id="line2d_22">
      <g>
       <use style="stroke:#000000;stroke-width:0.8;" x="60.114063" xlink:href="#m93c7110f69" y="224.094857"/>
      </g>
     </g>
     <g id="text_12">
      <!-- 100.0 -->
      <g transform="translate(24.485938 227.894076)scale(0.1 -0.1)">
       <use xlink:href="#DejaVuSans-49"/>
       <use x="63.623047" xlink:href="#DejaVuSans-48"/>
       <use x="127.246094" xlink:href="#DejaVuSans-48"/>
       <use x="190.869141" xlink:href="#DejaVuSans-46"/>
       <use x="222.65625" xlink:href="#DejaVuSans-48"/>
      </g>
     </g>
    </g>
    <g id="ytick_7">
     <g id="line2d_23">
      <path clip-path="url(#p7303c00bec)" d="M 60.114063 101.900571 
L 1257.618063 101.900571 
" style="fill:none;stroke:#b0b0b0;stroke-linecap:square;stroke-width:0.8;"/>
     </g>
     <g id="line2d_24">
      <g>
       <use style="stroke:#000000;stroke-width:0.8;" x="60.114063" xlink:href="#m93c7110f69" y="101.900571"/>
      </g>
     </g>
     <g id="text_13">
      <!-- 150.0 -->
      <g transform="translate(24.485938 105.69979)scale(0.1 -0.1)">
       <use xlink:href="#DejaVuSans-49"/>
       <use x="63.623047" xlink:href="#DejaVuSans-53"/>
       <use x="127.246094" xlink:href="#DejaVuSans-48"/>
       <use x="190.869141" xlink:href="#DejaVuSans-46"/>
       <use x="222.65625" xlink:href="#DejaVuSans-48"/>
      </g>
     </g>
    </g>
    <g id="text_14">
     <!-- Unit: 1000 km -->
     <g transform="translate(14.798438 491.794469)rotate(-90)scale(0.1 -0.1)">
      <use xlink:href="#DejaVuSans-85"/>
      <use x="73.193359" xlink:href="#DejaVuSans-110"/>
      <use x="136.572266" xlink:href="#DejaVuSans-105"/>
      <use x="164.355469" xlink:href="#DejaVuSans-116"/>
      <use x="203.564453" xlink:href="#DejaVuSans-58"/>
      <use x="237.255859" xlink:href="#DejaVuSans-32"/>
      <use x="269.042969" xlink:href="#DejaVuSans-49"/>
      <use x="332.666016" xlink:href="#DejaVuSans-48"/>
      <use x="396.289062" xlink:href="#DejaVuSans-48"/>
      <use x="459.912109" xlink:href="#DejaVuSans-48"/>
      <use x="523.535156" xlink:href="#DejaVuSans-32"/>
      <use x="555.322266" xlink:href="#DejaVuSans-107"/>
      <use x="613.232422" xlink:href="#DejaVuSans-109"/>
     </g>
    </g>
   </g>
   <g id="line2d_25">
    <path clip-path="url(#p7303c00bec)" d="M 1085.895566 468.483182 
L 1085.6588 468.372092 
L 1085.246316 467.940945 
L 1084.764878 467.095649 
L 1084.320213 465.85085 
L 1084.17726 465.283764 
L 1084.17726 465.283764 
" style="fill:none;stroke:#c0c0c0;stroke-linecap:square;stroke-width:1.5;"/>
   </g>
   <g id="line2d_26">
    <path clip-path="url(#p7303c00bec)" d="M 140.533045 483.386982 
L 143.049648 484.264657 
L 145.613028 484.926539 
L 148.187549 485.376285 
L 150.741957 485.627199 
L 153.251764 485.69891 
L 156.897103 485.51979 
L 160.373279 485.062962 
L 163.671339 484.393645 
L 166.795532 483.56411 
L 170.709593 482.276776 
L 174.365148 480.843816 
L 178.618592 478.917941 
L 182.571286 476.897549 
L 186.980547 474.401488 
L 191.741417 471.441273 
L 196.767974 468.040853 
L 201.993136 464.231151 
L 207.366227 460.045764 
L 213.32912 455.110923 
L 219.750232 449.487728 
L 226.526675 443.241293 
L 233.58087 436.436164 
L 241.206211 428.775213 
L 249.613281 420.012717 
L 258.948023 409.958512 
L 269.585116 398.169273 
L 282.545765 383.455263 
L 300.589773 362.597207 
L 336.65689 320.847586 
L 351.979364 303.501751 
L 365.193158 288.871321 
L 377.445638 275.631959 
L 389.025181 263.444064 
L 400.174256 252.03155 
L 410.941086 241.327685 
L 421.363684 231.275213 
L 431.631787 221.677813 
L 441.764091 212.511203 
L 451.776195 203.753937 
L 461.681185 195.38695 
L 471.490109 187.39318 
L 481.212314 179.757289 
L 490.855738 172.465401 
L 500.427138 165.504909 
L 509.932273 158.864312 
L 519.523138 152.436553 
L 529.055075 146.317752 
L 538.531786 140.498559 
L 547.956402 134.970324 
L 557.331551 129.725019 
L 566.802576 124.680829 
L 576.226761 119.913348 
L 585.605656 115.415751 
L 595.081601 111.119483 
L 604.513147 107.088454 
L 613.901048 103.316752 
L 623.245827 99.798781 
L 632.686316 96.482313 
L 642.082868 93.416524 
L 651.435462 90.596442 
L 660.880492 87.981176 
L 670.279776 85.609304 
L 679.632871 83.47633 
L 689.073753 81.552136 
L 698.465848 79.865068 
L 707.808376 78.410995 
L 717.232852 77.170078 
L 726.604475 76.160773 
L 735.922192 75.379228 
L 745.314956 74.81545 
L 754.649928 74.478309 
L 763.925835 74.364172 
L 773.268925 74.4725 
L 782.548533 74.802867 
L 791.763202 75.351803 
L 801.036303 76.127871 
L 810.239571 77.121623 
L 819.371407 78.329707 
L 828.552091 79.769456 
L 837.656015 81.422666 
L 846.681446 83.286071 
L 855.745369 85.385454 
L 864.725077 87.694115 
L 873.618741 90.208844 
L 882.539792 92.963584 
L 891.368713 95.923389 
L 900.103581 99.085081 
L 908.854026 102.490472 
L 917.503993 106.096623 
L 926.051486 109.900377 
L 934.494512 113.898628 
L 942.937267 118.143252 
L 951.268765 122.581096 
L 959.486953 127.209061 
L 967.691608 132.086218 
L 975.775857 137.152066 
L 983.737592 142.403502 
L 991.574713 147.83748 
L 999.380692 153.522278 
L 1007.054611 159.388041 
L 1014.594301 165.431739 
L 1021.997608 171.650387 
L 1029.262371 178.041055 
L 1036.473488 184.682899 
L 1043.538156 191.495164 
L 1050.454111 198.474992 
L 1057.219075 205.619594 
L 1063.830746 212.926258 
L 1070.286791 220.392356 
L 1076.584823 228.015348 
L 1082.722413 235.792804 
L 1088.697049 243.722397 
L 1094.506126 251.801923 
L 1100.146934 260.029313 
L 1105.616612 268.402652 
L 1110.848607 276.81545 
L 1115.907519 285.367429 
L 1120.789948 294.057254 
L 1125.492175 302.883787 
L 1129.955451 311.734637 
L 1134.234504 320.717247 
L 1138.274398 329.716394 
L 1142.076774 338.726915 
L 1145.642831 347.743846 
L 1148.973278 356.762337 
L 1152.068281 365.777548 
L 1154.927414 374.784498 
L 1157.549657 383.777895 
L 1159.933424 392.751907 
L 1162.047969 401.573235 
L 1163.925843 410.35839 
L 1165.565158 419.098752 
L 1166.945222 427.654229 
L 1168.091517 436.141856 
L 1169.005264 444.549564 
L 1169.698656 452.996664 
L 1170.160895 461.338262 
L 1170.40173 469.693311 
L 1170.420804 478.048648 
L 1170.220232 486.391368 
L 1169.796052 494.841188 
L 1169.14448 503.385421 
L 1168.263645 512.01211 
L 1167.153158 520.710371 
L 1165.792388 529.598827 
L 1164.197767 538.538485 
L 1162.370931 547.521835 
L 1160.283368 556.667002 
L 1157.960726 565.840971 
L 1155.403874 575.038439 
L 1152.613113 584.254469 
L 1149.588172 593.484309 
L 1146.328243 602.723241 
L 1142.832016 611.966464 
L 1139.097756 621.209015 
L 1135.173577 630.332419 
L 1131.011476 639.447548 
L 1126.663512 648.438499 
L 1122.076427 657.412635 
L 1117.306326 666.256657 
L 1112.356511 674.968865 
L 1107.166466 683.651182 
L 1101.798444 692.194459 
L 1096.255278 700.596472 
L 1090.539689 708.854865 
L 1084.65429 716.967168 
L 1078.601613 724.930802 
L 1072.384138 732.743093 
L 1066.004292 740.401285 
L 1059.464468 747.902541 
L 1052.767038 755.243954 
L 1045.914351 762.422545 
L 1038.994056 769.351797 
L 1031.926761 776.116197 
L 1024.714725 782.712713 
L 1017.360203 789.13828 
L 1009.865458 795.389786 
L 1002.232765 801.464074 
L 994.559952 807.287177 
L 986.756976 812.931128 
L 978.826066 818.392787 
L 970.769462 823.668968 
L 962.691149 828.694809 
L 954.494611 833.533459 
L 946.182049 838.181754 
L 937.861695 842.582016 
L 929.432501 846.790427 
L 920.896625 850.803834 
L 912.256228 854.61906 
L 903.62479 858.188411 
L 894.895692 861.558298 
L 886.071043 864.725544 
L 877.267883 867.650282 
L 868.375719 870.371272 
L 859.396595 872.885332 
L 850.450812 875.160675 
L 841.424276 877.228126 
L 832.31896 879.084482 
L 823.258126 880.706277 
L 814.12436 882.116118 
L 804.919525 883.310748 
L 795.769586 884.275278 
L 786.55404 885.023797 
L 777.27464 885.552966 
L 768.059763 885.856722 
L 758.786072 885.940322 
L 749.455177 885.800307 
L 740.197611 885.439709 
L 730.887414 884.854619 
L 721.526029 884.041416 
L 712.245898 883.012484 
L 702.918637 881.754401 
L 693.677814 880.28597 
L 684.393505 878.587257 
L 675.066769 876.654312 
L 665.69859 874.483017 
L 656.424562 872.105299 
L 647.111916 869.487539 
L 637.761323 866.625255 
L 628.509664 863.560647 
L 619.222113 860.249272 
L 609.898953 856.686172 
L 600.678197 852.924181 
L 591.42296 848.907467 
L 582.133027 844.630447 
L 572.947416 840.157002 
L 563.727109 835.419222 
L 554.471234 830.410715 
L 545.319723 825.206859 
L 536.131199 819.726841 
L 526.903922 813.963193 
L 517.778663 808.003304 
L 508.611301 801.752416 
L 499.398883 795.201612 
L 490.137891 788.341229 
L 480.824154 781.160756 
L 471.599639 773.768703 
L 462.313677 766.04338 
L 452.959717 757.971604 
L 443.530028 749.538822 
L 434.015468 740.728885 
L 424.405195 731.52378 
L 414.686297 721.903289 
L 404.843327 711.844576 
L 394.857669 701.321663 
L 384.544141 690.125729 
L 374.030975 678.383789 
L 363.111992 665.85583 
L 351.551821 652.251146 
L 339.069977 637.212167 
L 324.930796 619.814189 
L 307.138787 597.544823 
L 270.734346 551.890824 
L 258.541245 537.026744 
L 248.690301 525.351804 
L 239.859963 515.222775 
L 231.970738 506.504044 
L 224.893678 498.9964 
L 218.0093 492.020646 
L 211.839276 486.078878 
L 206.09254 480.839072 
L 200.353216 475.919432 
L 195.233397 471.821187 
L 190.278485 468.140126 
L 185.552851 464.913967 
L 181.142211 462.175188 
L 177.155491 459.944619 
L 177.155491 459.944619 
" style="fill:none;stroke:#0000ff;stroke-linecap:square;stroke-width:1.5;"/>
   </g>
   <g id="line2d_27">
    <path clip-path="url(#p7303c00bec)" d="M 1085.895566 468.483182 
L 1085.6588 468.372092 
L 1085.246316 467.940945 
L 1084.764878 467.095649 
L 1084.320213 465.85085 
L 1084.17726 465.283764 
L 1084.17726 465.283764 
" style="fill:none;stroke:#c0c0c0;stroke-linecap:square;stroke-width:1.5;"/>
   </g>
   <g id="line2d_28">
    <path clip-path="url(#p7303c00bec)" d="M 140.01653 483.171018 
L 142.500862 484.135989 
L 145.039477 484.886926 
L 147.596632 485.426245 
L 150.140629 485.766153 
L 152.646309 485.925409 
L 156.295543 485.873604 
L 159.785409 485.538342 
L 163.104683 484.984491 
L 166.25578 484.264432 
L 170.212179 483.114383 
L 173.915292 481.809761 
L 178.233049 480.033338 
L 182.253505 478.151949 
L 186.74674 475.811068 
L 191.607446 473.018542 
L 196.748895 469.795319 
L 202.102955 466.169958 
L 207.617793 462.174291 
L 213.747933 457.450164 
L 220.35971 452.05407 
L 227.347999 446.047514 
L 234.632992 439.492319 
L 242.518114 432.101781 
L 251.222201 423.637698 
L 260.897542 413.915161 
L 271.933661 402.50426 
L 285.391699 388.251753 
L 304.139385 368.037059 
L 341.812843 327.358303 
L 357.705141 310.575351 
L 371.399316 296.429629 
L 384.085983 283.63915 
L 396.064569 271.875 
L 407.586542 260.870056 
L 418.702305 250.559388 
L 429.451743 240.88718 
L 440.031002 231.664065 
L 450.459558 222.866455 
L 460.753718 214.473492 
L 470.927202 206.466596 
L 480.991612 198.829121 
L 490.956812 191.546078 
L 500.83121 184.603883 
L 510.621986 177.990191 
L 520.335285 171.693715 
L 530.126464 165.612894 
L 539.847865 159.838623 
L 549.503518 154.361692 
L 559.096845 149.173567 
L 568.776979 144.192984 
L 578.398418 139.494267 
L 587.963307 135.070201 
L 597.473429 130.914031 
L 607.073122 126.96239 
L 616.619094 123.274053 
L 626.112302 119.843138 
L 635.553463 116.664085 
L 645.082838 113.689705 
L 654.559457 110.964118 
L 663.983476 108.482361 
L 673.492318 106.208485 
L 682.946851 104.176083 
L 692.346801 102.380648 
L 701.82679 100.796908 
L 711.24966 99.448293 
L 720.614784 98.330656 
L 730.053968 97.428903 
L 739.432174 96.756651 
L 748.748491 96.310024 
L 758.131822 96.083676 
L 767.449427 96.081726 
L 776.70017 96.300503 
L 786.009918 96.744024 
L 795.248429 97.407192 
L 804.414386 98.286504 
L 813.630453 99.394973 
L 822.769114 100.718574 
L 831.828892 102.25393 
L 840.929067 104.02271 
L 849.94508 106.002243 
L 858.875324 108.189234 
L 867.835484 110.613703 
L 876.704201 113.24459 
L 885.479767 116.078667 
L 894.274033 119.153996 
L 902.969112 122.431399 
L 911.563203 125.907684 
L 920.054491 129.57972 
L 928.549399 133.495874 
L 936.935084 137.606582 
L 945.20967 141.908745 
L 953.475175 146.458092 
L 961.622839 151.197583 
L 969.65072 156.124151 
L 977.556871 161.234778 
L 985.437066 166.594628 
L 993.188431 172.13716 
L 1000.808958 177.859409 
L 1008.29663 183.75846 
L 1015.649439 189.831472 
L 1022.954685 196.154787 
L 1030.117497 202.650777 
L 1037.13576 209.31671 
L 1044.007328 216.149934 
L 1050.730042 223.147903 
L 1057.301698 230.308165 
L 1063.720048 237.628385 
L 1069.982786 245.106355 
L 1076.087524 252.740006 
L 1082.031783 260.527428 
L 1087.812958 268.466884 
L 1093.428289 276.556835 
L 1098.874823 284.795968 
L 1104.08531 293.078766 
L 1109.124651 301.50527 
L 1113.98911 310.075009 
L 1118.617048 318.678027 
L 1123.010595 327.309198 
L 1127.224352 336.077046 
L 1131.201994 344.867339 
L 1134.944062 353.675907 
L 1138.450392 362.498767 
L 1141.720016 371.331999 
L 1144.710885 380.049613 
L 1147.465948 388.765734 
L 1149.947296 397.350078 
L 1152.191296 405.918627 
L 1154.165308 414.3358 
L 1155.874775 422.588452 
L 1157.348029 430.793136 
L 1158.583054 438.937767 
L 1159.579622 447.008572 
L 1160.339974 454.990506 
L 1160.869297 462.867956 
L 1161.179302 470.759368 
L 1161.269938 478.783815 
L 1161.137509 486.792859 
L 1160.780609 494.905804 
L 1160.197146 503.108871 
L 1159.387188 511.389557 
L 1158.334511 519.866832 
L 1157.032096 528.527895 
L 1155.498035 537.233629 
L 1153.708685 546.103419 
L 1151.658395 555.127618 
L 1149.374026 564.173996 
L 1146.857503 573.23831 
L 1144.071958 582.436934 
L 1141.050503 591.642785 
L 1137.792853 600.851933 
L 1134.298047 610.060267 
L 1130.612426 619.149132 
L 1126.690879 628.231195 
L 1122.530948 637.301467 
L 1118.18469 646.244967 
L 1113.598856 655.168777 
L 1108.829505 663.960448 
L 1103.879901 672.618502 
L 1098.753069 681.141253 
L 1093.451848 689.526826 
L 1087.911129 697.872869 
L 1082.197158 706.073995 
L 1076.312496 714.127786 
L 1070.259632 722.031698 
L 1064.040991 729.783078 
L 1057.658964 737.379174 
L 1051.195678 744.728478 
L 1044.57746 751.920621 
L 1037.80654 758.952709 
L 1030.885143 765.821788 
L 1023.815495 772.524846 
L 1016.599812 779.058811 
L 1009.240332 785.420568 
L 1001.831604 791.532577 
L 994.286911 797.470364 
L 986.608427 803.230796 
L 978.798343 808.810698 
L 970.957661 814.141367 
L 962.992891 819.289669 
L 954.906188 824.252434 
L 946.69971 829.026454 
L 938.480407 833.552418 
L 930.14854 837.888011 
L 921.706233 842.030043 
L 913.264519 845.926589 
L 904.719286 849.628149 
L 896.072609 853.131538 
L 887.326565 856.433533 
L 878.597225 859.492464 
L 869.775098 862.348758 
L 860.862205 864.999179 
L 851.978026 867.410094 
L 843.009329 869.614044 
L 833.958054 871.607768 
L 824.946805 873.365919 
L 815.858871 874.91286 
L 806.696096 876.245274 
L 797.583929 877.346366 
L 788.402431 878.232009 
L 779.15333 878.898803 
L 769.964643 879.338769 
L 760.713445 879.558963 
L 751.401322 879.555874 
L 742.158602 879.330594 
L 732.859585 878.881034 
L 723.635977 878.214513 
L 714.360321 877.322697 
L 705.033884 876.201834 
L 695.790277 874.868738 
L 686.499589 873.305367 
L 677.162861 871.507713 
L 667.915388 869.502397 
L 658.624954 867.261242 
L 649.292309 864.779916 
L 640.054255 862.095161 
L 630.77635 859.168207 
L 621.458992 855.994288 
L 612.24032 852.620639 
L 602.983705 848.997341 
L 593.689089 845.119085 
L 584.495817 841.043969 
L 575.265021 836.710315 
L 565.996062 832.112085 
L 556.688054 827.24286 
L 547.48178 822.175891 
L 538.235082 816.832445 
L 528.946204 811.205036 
L 519.756928 805.37894 
L 510.522192 799.261471 
L 501.239029 792.8437 
L 491.903904 786.115939 
L 482.659823 779.180314 
L 473.356622 771.923158 
L 463.988739 764.332486 
L 454.549631 756.395122 
L 445.031573 748.096526 
L 435.578658 739.561317 
L 426.030145 730.643495 
L 416.373814 721.323871 
L 406.436274 711.420073 
L 396.353969 701.053293 
L 386.104616 690.193977 
L 375.493418 678.62276 
L 364.474609 666.271154 
L 352.988916 653.057775 
L 340.775138 638.666409 
L 327.12969 622.236872 
L 310.744103 602.144898 
L 263.480807 543.95168 
L 252.258379 530.631799 
L 242.7577 519.691429 
L 234.415169 510.410908 
L 226.792479 502.254327 
L 219.678684 494.96861 
L 213.222835 488.669419 
L 207.129197 483.03188 
L 201.511197 478.130284 
L 196.515743 474.03526 
L 191.696628 470.342475 
L 187.115173 467.087809 
L 182.851956 464.303094 
L 179.008443 462.010976 
L 174.842595 459.780268 
L 171.230818 458.077542 
L 167.323089 456.498493 
L 164.167661 455.439924 
L 160.795927 454.541256 
L 157.192158 453.870361 
L 154.659909 453.594131 
L 152.032106 453.49292 
L 149.326874 453.602848 
L 146.575459 453.958409 
L 143.822913 454.585427 
L 141.124262 455.493059 
L 138.53575 456.668685 
L 136.104186 458.079218 
L 133.859487 459.678692 
L 131.813292 461.417989 
L 129.962523 463.252428 
L 128.294779 465.145479 
L 126.098872 468.036317 
L 124.216007 470.935225 
L 122.591092 473.805962 
L 120.747642 477.557659 
L 119.197268 481.205117 
L 117.577893 485.610854 
L 115.990564 490.680045 
L 114.696136 495.53043 
L 113.464713 500.94186 
L 112.335166 506.839521 
L 111.23282 513.840904 
L 110.312509 521.137968 
L 109.51143 529.302846 
L 108.865433 538.207708 
L 108.369346 548.288917 
L 108.058305 559.36418 
L 107.942243 571.761435 
L 108.040225 585.719762 
L 108.389044 602.243553 
L 109.061677 622.815112 
L 110.349143 654.365178 
L 110.598527 660.226616 
L 110.598527 660.226616 
" style="fill:none;stroke:#ffff00;stroke-linecap:square;stroke-width:1.5;"/>
   </g>
   <g id="line2d_29">
    <path clip-path="url(#p7303c00bec)" d="M 1085.895566 468.483182 
L 1085.6588 468.372092 
L 1085.246316 467.940945 
L 1084.764878 467.095649 
L 1084.320213 465.85085 
L 1084.17726 465.283764 
L 1084.17726 465.283764 
" style="fill:none;stroke:#c0c0c0;stroke-linecap:square;stroke-width:1.5;"/>
   </g>
   <g id="line2d_30">
    <path clip-path="url(#p7303c00bec)" d="M 139.507864 482.937163 
L 141.956904 483.988244 
L 144.467659 484.82732 
L 147.004332 485.455555 
L 149.534819 485.884041 
L 152.033318 486.130642 
L 155.682001 486.206214 
L 159.181308 485.992924 
L 162.517757 485.555212 
L 165.691927 484.945509 
L 169.685852 483.934146 
L 173.432026 482.759441 
L 177.808852 481.134631 
L 181.892194 479.394525 
L 186.463958 477.211664 
L 191.418607 474.59021 
L 196.668723 471.548076 
L 202.1452 468.11144 
L 207.795119 464.310306 
L 214.085097 459.802583 
L 220.879551 454.640075 
L 228.071247 448.880608 
L 235.578246 442.583194 
L 243.713631 435.471899 
L 252.704234 427.316323 
L 262.708498 417.937014 
L 274.13032 406.917976 
L 288.069499 393.143809 
L 307.251304 373.845983 
L 346.747046 334.050161 
L 362.988319 318.04422 
L 377.152961 304.387244 
L 390.263664 292.049639 
L 402.631004 280.713122 
L 414.51544 270.119501 
L 425.969629 260.205627 
L 437.035421 250.91708 
L 447.915224 242.071479 
L 458.629349 233.645917 
L 469.194819 225.620098 
L 479.62601 217.975927 
L 489.935107 210.69716 
L 500.132499 203.76915 
L 510.227066 197.178614 
L 520.226427 190.913446 
L 530.137127 184.962579 
L 540.117714 179.229974 
L 550.017717 173.801265 
L 559.841485 168.667385 
L 569.592748 163.819918 
L 579.423124 159.182892 
L 589.184879 154.825463 
L 598.880414 150.740496 
L 608.511752 146.921294 
L 618.225089 143.309605 
L 627.875448 139.959128 
L 637.464002 136.864015 
L 647.133414 133.978138 
L 656.740835 131.344133 
L 666.286787 128.956796 
L 675.771603 126.811182 
L 685.333589 124.876247 
L 694.832829 123.180631 
L 704.269209 121.719825 
L 713.777865 120.47336 
L 723.221206 119.459793 
L 732.598762 118.674968 
L 742.042491 118.108485 
L 751.417271 117.769178 
L 760.722339 117.653155 
L 770.086414 117.759659 
L 779.377005 118.088113 
L 788.59311 118.634832 
L 797.860098 119.408315 
L 807.048292 120.398868 
L 816.156505 121.602973 
L 825.306596 123.038013 
L 834.371921 124.68548 
L 843.351134 126.541975 
L 852.36241 128.633438 
L 861.282361 130.932819 
L 870.109507 133.436815 
L 878.958148 136.1796 
L 887.708383 139.125866 
L 896.358626 142.272373 
L 905.019075 145.661251 
L 913.573575 149.249186 
L 922.020441 153.033005 
L 930.357994 157.009596 
L 938.690642 161.231247 
L 946.907628 165.644457 
L 955.007189 170.246174 
L 962.987566 175.033404 
L 970.946962 180.068102 
L 978.780454 185.28711 
L 986.486206 190.687514 
L 994.062379 196.266467 
L 1001.600518 202.095164 
L 1009.001967 208.101324 
L 1016.26479 214.282245 
L 1023.387043 220.635312 
L 1030.366758 227.158021 
L 1037.20194 233.847975 
L 1043.890562 240.702906 
L 1050.430547 247.720685 
L 1056.819761 254.899338 
L 1063.055993 262.237068 
L 1069.136933 269.732277 
L 1075.060149 277.383592 
L 1080.823047 285.189898 
L 1086.422834 293.150372 
L 1091.856455 301.264527 
L 1097.055788 309.427973 
L 1102.086121 317.74151 
L 1106.882889 326.097854 
L 1111.448014 334.492609 
L 1115.838797 343.033755 
L 1119.995468 351.609839 
L 1123.866763 360.1022 
L 1127.507586 368.620131 
L 1130.915856 377.161241 
L 1134.044826 385.601564 
L 1136.898068 393.932502 
L 1139.478469 402.144745 
L 1141.788479 410.227914 
L 1143.830516 418.170168 
L 1145.60759 425.957957 
L 1147.148348 433.707998 
L 1148.427568 441.273782 
L 1149.471115 448.770944 
L 1150.280036 456.182702 
L 1150.867807 463.626932 
L 1151.231125 471.086639 
L 1151.37084 478.5445 
L 1151.288342 486.119131 
L 1150.980295 493.793895 
L 1150.446716 501.553506 
L 1149.675519 509.516837 
L 1148.660566 517.669058 
L 1147.397387 525.996992 
L 1145.882403 534.489143 
L 1144.112262 543.135508 
L 1142.083375 551.927282 
L 1139.791597 560.85648 
L 1137.267984 569.793985 
L 1134.476246 578.857336 
L 1131.450896 587.92075 
L 1128.192204 596.981458 
L 1124.699579 606.036346 
L 1120.971717 615.08189 
L 1117.006749 624.114115 
L 1112.855401 633.01809 
L 1108.46651 641.902646 
L 1103.894616 650.655228 
L 1099.143142 659.275042 
L 1094.153285 667.864914 
L 1088.985576 676.316172 
L 1083.642807 684.62715 
L 1078.127614 692.795963 
L 1072.442513 700.820542 
L 1066.589922 708.69865 
L 1060.572189 716.427903 
L 1054.391604 724.005786 
L 1048.050424 731.429675 
L 1041.550866 738.696836 
L 1034.895137 745.804448 
L 1028.085418 752.749604 
L 1021.123897 759.529327 
L 1014.100365 766.060963 
L 1006.932942 772.425196 
L 999.623737 778.61897 
L 992.174868 784.639175 
L 984.588463 790.48265 
L 976.962811 796.077381 
L 969.207159 801.493455 
L 961.323595 806.727701 
L 953.314216 811.7769 
L 945.283554 816.578207 
L 937.134312 821.192708 
L 928.868546 825.617185 
L 920.595115 829.796041 
L 912.212115 833.783304 
L 903.72156 837.575753 
L 895.125471 841.17013 
L 886.538055 844.520919 
L 877.85173 847.672239 
L 869.068453 850.620819 
L 860.306097 853.329055 
L 851.453094 855.833307 
L 842.511336 858.130276 
L 833.602056 860.190538 
L 824.609981 862.04239 
L 815.536906 863.682484 
L 806.507159 865.089842 
L 797.401999 866.284387 
L 788.223111 867.262698 
L 779.097649 868.012507 
L 769.903636 868.545044 
L 760.642626 868.856779 
L 751.444334 868.944427 
L 742.183772 868.810184 
L 732.862327 868.450373 
L 723.612037 867.870969 
L 714.305092 867.06478 
L 704.942678 866.02792 
L 695.658931 864.775927 
L 686.323378 863.291822 
L 677.071413 861.59771 
L 667.770856 859.669907 
L 658.422448 857.504106 
L 649.163335 855.132474 
L 639.858883 852.52084 
L 630.509488 849.664492 
L 621.253887 846.606009 
L 611.955026 843.300201 
L 602.61287 839.741842 
L 593.367606 835.9843 
L 584.079728 831.970757 
L 574.748633 827.695309 
L 565.373487 823.151681 
L 556.096252 818.408282 
L 546.773869 813.39148 
L 537.404666 808.093992 
L 528.131865 802.59617 
L 518.809331 796.810649 
L 509.434233 790.728788 
L 500.003222 784.341243 
L 490.661102 777.745103 
L 481.256478 770.832413 
L 471.784094 763.591683 
L 462.237765 756.010317 
L 452.7637 748.203251 
L 443.202799 740.038224 
L 433.545425 731.499004 
L 423.780176 722.567469 
L 413.893503 713.223267 
L 403.869206 703.443374 
L 393.687803 693.20157 
L 383.156877 682.290387 
L 372.408851 670.834451 
L 361.228885 658.59444 
L 349.370616 645.279278 
L 336.539006 630.529206 
L 322.159835 613.65134 
L 303.960724 591.924428 
L 266.440338 547.041035 
L 254.13911 532.738685 
L 244.034931 521.320069 
L 235.359501 511.831631 
L 227.36959 503.412255 
L 220.255862 496.222235 
L 213.366834 489.57839 
L 207.26376 483.991457 
L 201.644797 479.127186 
L 196.073999 474.599631 
L 191.214036 470.915422 
L 186.589445 467.662889 
L 182.279813 464.875427 
L 178.386774 462.577923 
L 174.155753 460.340306 
L 170.474697 458.63353 
L 166.475075 457.05708 
L 163.230274 456.011219 
L 159.746696 455.14408 
L 157.281749 454.705021 
L 154.701071 454.414274 
L 152.0116 454.311191 
L 149.232772 454.439911 
L 146.401218 454.84377 
L 143.572413 455.555317 
L 140.815367 456.584398 
L 138.199312 457.910893 
L 135.778006 459.488106 
L 133.580513 461.255507 
L 131.611965 463.152881 
L 129.860699 465.129357 
L 128.306302 467.146308 
L 126.293114 470.190339 
L 124.596513 473.208826 
L 123.154151 476.172563 
L 121.542921 480.017306 
L 120.20996 483.732193 
L 118.841985 488.197324 
L 117.529729 493.313232 
L 116.333007 498.984943 
L 115.286056 505.12839 
L 114.404705 511.672596 
L 113.692689 518.559172 
L 113.106515 526.375357 
L 112.68713 534.981021 
L 112.45358 544.257132 
L 112.412002 554.636077 
L 112.592268 566.444921 
L 113.030557 579.917261 
L 113.755106 595.206386 
L 114.87898 614.015237 
L 116.681796 640.07581 
L 120.90841 700.142046 
L 122.218932 722.542077 
L 123.143879 742.071341 
L 123.770056 759.912851 
L 124.134799 776.521642 
L 124.262228 792.272065 
L 124.232232 801.127495 
L 124.232232 801.127495 
" style="fill:none;stroke:#008000;stroke-linecap:square;stroke-width:1.5;"/>
   </g>
   <g id="patch_9">
    <path d="M 60.114063 905.328 
L 60.114063 7.2 
" style="fill:none;stroke:#000000;stroke-linecap:square;stroke-linejoin:miter;stroke-width:0.8;"/>
   </g>
   <g id="patch_10">
    <path d="M 1257.618063 905.328 
L 1257.618063 7.2 
" style="fill:none;stroke:#000000;stroke-linecap:square;stroke-linejoin:miter;stroke-width:0.8;"/>
   </g>
   <g id="patch_11">
    <path d="M 60.114063 905.328 
L 1257.618063 905.328 
" style="fill:none;stroke:#000000;stroke-linecap:square;stroke-linejoin:miter;stroke-width:0.8;"/>
   </g>
   <g id="patch_12">
    <path d="M 60.114063 7.2 
L 1257.618063 7.2 
" style="fill:none;stroke:#000000;stroke-linecap:square;stroke-linejoin:miter;stroke-width:0.8;"/>
   </g>
  </g>
 </g>
 <defs>
  <clipPath id="p7303c00bec">
   <rect height="898.128" width="1197.504" x="60.114063" y="7.2"/>
  </clipPath>
 </defs>
</svg>
