<?xml version="1.0" encoding="utf-8" standalone="no"?>
<!DOCTYPE svg PUBLIC "-//W3C//DTD SVG 1.1//EN"
  "http://www.w3.org/Graphics/SVG/1.1/DTD/svg11.dtd">
<!-- Created with matplotlib (https://matplotlib.org/) -->
<svg height="443.92425pt" version="1.1" viewBox="0 0 599.538062 443.92425" width="599.538062pt" xmlns="http://www.w3.org/2000/svg" xmlns:xlink="http://www.w3.org/1999/xlink">
 <metadata>
  <rdf:RDF xmlns:cc="http://creativecommons.org/ns#" xmlns:dc="http://purl.org/dc/elements/1.1/" xmlns:rdf="http://www.w3.org/1999/02/22-rdf-syntax-ns#">
   <cc:Work>
    <dc:type rdf:resource="http://purl.org/dc/dcmitype/StillImage"/>
    <dc:date>2021-08-06T14:46:13.867117</dc:date>
    <dc:format>image/svg+xml</dc:format>
    <dc:creator>
     <cc:Agent>
      <dc:title>Matplotlib v3.3.2, https://matplotlib.org/</dc:title>
     </cc:Agent>
    </dc:creator>
   </cc:Work>
  </rdf:RDF>
 </metadata>
 <defs>
  <style type="text/css">*{stroke-linecap:butt;stroke-linejoin:round;}</style>
 </defs>
 <g id="figure_1">
  <g id="patch_1">
   <path d="M 0 443.92425 
L 599.538062 443.92425 
L 599.538062 0 
L 0 0 
z
" style="fill:#ffffff;"/>
  </g>
  <g id="axes_1">
   <g id="patch_2">
    <path d="M 60.114063 406.368 
L 592.338062 406.368 
L 592.338062 7.2 
L 60.114063 7.2 
z
" style="fill:#ffffff;"/>
   </g>
   <g id="patch_3">
    <path clip-path="url(#p595e7a0a41)" d="M 98.490484 219.14246 
C 100.327705 219.14246 102.089926 218.412524 103.389037 217.113412 
C 104.688149 215.8143 105.418085 214.05208 105.418085 212.214858 
C 105.418085 210.377637 104.688149 208.615416 103.389037 207.316304 
C 102.089926 206.017193 100.327705 205.287257 98.490484 205.287257 
C 96.653262 205.287257 94.891041 206.017193 93.59193 207.316304 
C 92.292818 208.615416 91.562882 210.377637 91.562882 212.214858 
C 91.562882 214.05208 92.292818 215.8143 93.59193 217.113412 
C 94.891041 218.412524 96.653262 219.14246 98.490484 219.14246 
z
" style="fill:#00008b;stroke:#00008b;stroke-linejoin:miter;"/>
   </g>
   <g id="patch_4">
    <path clip-path="url(#p595e7a0a41)" d="M 516.016953 214.101427 
C 516.517306 214.101427 516.997234 213.902635 517.351037 213.548831 
C 517.70484 213.195028 517.903633 212.715101 517.903633 212.214747 
C 517.903633 211.714394 517.70484 211.234467 517.351037 210.880663 
C 516.997234 210.52686 516.517306 210.328068 516.016953 210.328068 
C 515.5166 210.328068 515.036672 210.52686 514.682869 210.880663 
C 514.329066 211.234467 514.130273 211.714394 514.130273 212.214747 
C 514.130273 212.715101 514.329066 213.195028 514.682869 213.548831 
C 515.036672 213.902635 515.5166 214.101427 516.016953 214.101427 
z
" style="fill:#808080;stroke:#808080;stroke-linejoin:miter;"/>
   </g>
   <g id="matplotlib.axis_1">
    <g id="xtick_1">
     <g id="line2d_1">
      <path clip-path="url(#p595e7a0a41)" d="M 103.56092 406.368 
L 103.56092 7.2 
" style="fill:none;stroke:#b0b0b0;stroke-linecap:square;stroke-width:0.8;"/>
     </g>
     <g id="line2d_2">
      <defs>
       <path d="M 0 0 
L 0 3.5 
" id="m329495a0c2" style="stroke:#000000;stroke-width:0.8;"/>
      </defs>
      <g>
       <use style="stroke:#000000;stroke-width:0.8;" x="103.56092" xlink:href="#m329495a0c2" y="406.368"/>
      </g>
     </g>
     <g id="text_1">
      <!-- 0.0 -->
      <g transform="translate(95.609357 420.966437)scale(0.1 -0.1)">
       <defs>
        <path d="M 31.78125 66.40625 
Q 24.171875 66.40625 20.328125 58.90625 
Q 16.5 51.421875 16.5 36.375 
Q 16.5 21.390625 20.328125 13.890625 
Q 24.171875 6.390625 31.78125 6.390625 
Q 39.453125 6.390625 43.28125 13.890625 
Q 47.125 21.390625 47.125 36.375 
Q 47.125 51.421875 43.28125 58.90625 
Q 39.453125 66.40625 31.78125 66.40625 
z
M 31.78125 74.21875 
Q 44.046875 74.21875 50.515625 64.515625 
Q 56.984375 54.828125 56.984375 36.375 
Q 56.984375 17.96875 50.515625 8.265625 
Q 44.046875 -1.421875 31.78125 -1.421875 
Q 19.53125 -1.421875 13.0625 8.265625 
Q 6.59375 17.96875 6.59375 36.375 
Q 6.59375 54.828125 13.0625 64.515625 
Q 19.53125 74.21875 31.78125 74.21875 
z
" id="DejaVuSans-48"/>
        <path d="M 10.6875 12.40625 
L 21 12.40625 
L 21 0 
L 10.6875 0 
z
" id="DejaVuSans-46"/>
       </defs>
       <use xlink:href="#DejaVuSans-48"/>
       <use x="63.623047" xlink:href="#DejaVuSans-46"/>
       <use x="95.410156" xlink:href="#DejaVuSans-48"/>
      </g>
     </g>
    </g>
    <g id="xtick_2">
     <g id="line2d_3">
      <path clip-path="url(#p595e7a0a41)" d="M 212.178062 406.368 
L 212.178062 7.2 
" style="fill:none;stroke:#b0b0b0;stroke-linecap:square;stroke-width:0.8;"/>
     </g>
     <g id="line2d_4">
      <g>
       <use style="stroke:#000000;stroke-width:0.8;" x="212.178062" xlink:href="#m329495a0c2" y="406.368"/>
      </g>
     </g>
     <g id="text_2">
      <!-- 100.0 -->
      <g transform="translate(197.864 420.966437)scale(0.1 -0.1)">
       <defs>
        <path d="M 12.40625 8.296875 
L 28.515625 8.296875 
L 28.515625 63.921875 
L 10.984375 60.40625 
L 10.984375 69.390625 
L 28.421875 72.90625 
L 38.28125 72.90625 
L 38.28125 8.296875 
L 54.390625 8.296875 
L 54.390625 0 
L 12.40625 0 
z
" id="DejaVuSans-49"/>
       </defs>
       <use xlink:href="#DejaVuSans-49"/>
       <use x="63.623047" xlink:href="#DejaVuSans-48"/>
       <use x="127.246094" xlink:href="#DejaVuSans-48"/>
       <use x="190.869141" xlink:href="#DejaVuSans-46"/>
       <use x="222.65625" xlink:href="#DejaVuSans-48"/>
      </g>
     </g>
    </g>
    <g id="xtick_3">
     <g id="line2d_5">
      <path clip-path="url(#p595e7a0a41)" d="M 320.795205 406.368 
L 320.795205 7.2 
" style="fill:none;stroke:#b0b0b0;stroke-linecap:square;stroke-width:0.8;"/>
     </g>
     <g id="line2d_6">
      <g>
       <use style="stroke:#000000;stroke-width:0.8;" x="320.795205" xlink:href="#m329495a0c2" y="406.368"/>
      </g>
     </g>
     <g id="text_3">
      <!-- 200.0 -->
      <g transform="translate(306.481143 420.966437)scale(0.1 -0.1)">
       <defs>
        <path d="M 19.1875 8.296875 
L 53.609375 8.296875 
L 53.609375 0 
L 7.328125 0 
L 7.328125 8.296875 
Q 12.9375 14.109375 22.625 23.890625 
Q 32.328125 33.6875 34.8125 36.53125 
Q 39.546875 41.84375 41.421875 45.53125 
Q 43.3125 49.21875 43.3125 52.78125 
Q 43.3125 58.59375 39.234375 62.25 
Q 35.15625 65.921875 28.609375 65.921875 
Q 23.96875 65.921875 18.8125 64.3125 
Q 13.671875 62.703125 7.8125 59.421875 
L 7.8125 69.390625 
Q 13.765625 71.78125 18.9375 73 
Q 24.125 74.21875 28.421875 74.21875 
Q 39.75 74.21875 46.484375 68.546875 
Q 53.21875 62.890625 53.21875 53.421875 
Q 53.21875 48.921875 51.53125 44.890625 
Q 49.859375 40.875 45.40625 35.40625 
Q 44.1875 33.984375 37.640625 27.21875 
Q 31.109375 20.453125 19.1875 8.296875 
z
" id="DejaVuSans-50"/>
       </defs>
       <use xlink:href="#DejaVuSans-50"/>
       <use x="63.623047" xlink:href="#DejaVuSans-48"/>
       <use x="127.246094" xlink:href="#DejaVuSans-48"/>
       <use x="190.869141" xlink:href="#DejaVuSans-46"/>
       <use x="222.65625" xlink:href="#DejaVuSans-48"/>
      </g>
     </g>
    </g>
    <g id="xtick_4">
     <g id="line2d_7">
      <path clip-path="url(#p595e7a0a41)" d="M 429.412348 406.368 
L 429.412348 7.2 
" style="fill:none;stroke:#b0b0b0;stroke-linecap:square;stroke-width:0.8;"/>
     </g>
     <g id="line2d_8">
      <g>
       <use style="stroke:#000000;stroke-width:0.8;" x="429.412348" xlink:href="#m329495a0c2" y="406.368"/>
      </g>
     </g>
     <g id="text_4">
      <!-- 300.0 -->
      <g transform="translate(415.098286 420.966437)scale(0.1 -0.1)">
       <defs>
        <path d="M 40.578125 39.3125 
Q 47.65625 37.796875 51.625 33 
Q 55.609375 28.21875 55.609375 21.1875 
Q 55.609375 10.40625 48.1875 4.484375 
Q 40.765625 -1.421875 27.09375 -1.421875 
Q 22.515625 -1.421875 17.65625 -0.515625 
Q 12.796875 0.390625 7.625 2.203125 
L 7.625 11.71875 
Q 11.71875 9.328125 16.59375 8.109375 
Q 21.484375 6.890625 26.8125 6.890625 
Q 36.078125 6.890625 40.9375 10.546875 
Q 45.796875 14.203125 45.796875 21.1875 
Q 45.796875 27.640625 41.28125 31.265625 
Q 36.765625 34.90625 28.71875 34.90625 
L 20.21875 34.90625 
L 20.21875 43.015625 
L 29.109375 43.015625 
Q 36.375 43.015625 40.234375 45.921875 
Q 44.09375 48.828125 44.09375 54.296875 
Q 44.09375 59.90625 40.109375 62.90625 
Q 36.140625 65.921875 28.71875 65.921875 
Q 24.65625 65.921875 20.015625 65.03125 
Q 15.375 64.15625 9.8125 62.3125 
L 9.8125 71.09375 
Q 15.4375 72.65625 20.34375 73.4375 
Q 25.25 74.21875 29.59375 74.21875 
Q 40.828125 74.21875 47.359375 69.109375 
Q 53.90625 64.015625 53.90625 55.328125 
Q 53.90625 49.265625 50.4375 45.09375 
Q 46.96875 40.921875 40.578125 39.3125 
z
" id="DejaVuSans-51"/>
       </defs>
       <use xlink:href="#DejaVuSans-51"/>
       <use x="63.623047" xlink:href="#DejaVuSans-48"/>
       <use x="127.246094" xlink:href="#DejaVuSans-48"/>
       <use x="190.869141" xlink:href="#DejaVuSans-46"/>
       <use x="222.65625" xlink:href="#DejaVuSans-48"/>
      </g>
     </g>
    </g>
    <g id="xtick_5">
     <g id="line2d_9">
      <path clip-path="url(#p595e7a0a41)" d="M 538.029491 406.368 
L 538.029491 7.2 
" style="fill:none;stroke:#b0b0b0;stroke-linecap:square;stroke-width:0.8;"/>
     </g>
     <g id="line2d_10">
      <g>
       <use style="stroke:#000000;stroke-width:0.8;" x="538.029491" xlink:href="#m329495a0c2" y="406.368"/>
      </g>
     </g>
     <g id="text_5">
      <!-- 400.0 -->
      <g transform="translate(523.715429 420.966437)scale(0.1 -0.1)">
       <defs>
        <path d="M 37.796875 64.3125 
L 12.890625 25.390625 
L 37.796875 25.390625 
z
M 35.203125 72.90625 
L 47.609375 72.90625 
L 47.609375 25.390625 
L 58.015625 25.390625 
L 58.015625 17.1875 
L 47.609375 17.1875 
L 47.609375 0 
L 37.796875 0 
L 37.796875 17.1875 
L 4.890625 17.1875 
L 4.890625 26.703125 
z
" id="DejaVuSans-52"/>
       </defs>
       <use xlink:href="#DejaVuSans-52"/>
       <use x="63.623047" xlink:href="#DejaVuSans-48"/>
       <use x="127.246094" xlink:href="#DejaVuSans-48"/>
       <use x="190.869141" xlink:href="#DejaVuSans-46"/>
       <use x="222.65625" xlink:href="#DejaVuSans-48"/>
      </g>
     </g>
    </g>
    <g id="text_6">
     <!-- Unit: 1000 km -->
     <g transform="translate(290.695594 434.644562)scale(0.1 -0.1)">
      <defs>
       <path d="M 8.6875 72.90625 
L 18.609375 72.90625 
L 18.609375 28.609375 
Q 18.609375 16.890625 22.84375 11.734375 
Q 27.09375 6.59375 36.625 6.59375 
Q 46.09375 6.59375 50.34375 11.734375 
Q 54.59375 16.890625 54.59375 28.609375 
L 54.59375 72.90625 
L 64.5 72.90625 
L 64.5 27.390625 
Q 64.5 13.140625 57.4375 5.859375 
Q 50.390625 -1.421875 36.625 -1.421875 
Q 22.796875 -1.421875 15.734375 5.859375 
Q 8.6875 13.140625 8.6875 27.390625 
z
" id="DejaVuSans-85"/>
       <path d="M 54.890625 33.015625 
L 54.890625 0 
L 45.90625 0 
L 45.90625 32.71875 
Q 45.90625 40.484375 42.875 44.328125 
Q 39.84375 48.1875 33.796875 48.1875 
Q 26.515625 48.1875 22.3125 43.546875 
Q 18.109375 38.921875 18.109375 30.90625 
L 18.109375 0 
L 9.078125 0 
L 9.078125 54.6875 
L 18.109375 54.6875 
L 18.109375 46.1875 
Q 21.34375 51.125 25.703125 53.5625 
Q 30.078125 56 35.796875 56 
Q 45.21875 56 50.046875 50.171875 
Q 54.890625 44.34375 54.890625 33.015625 
z
" id="DejaVuSans-110"/>
       <path d="M 9.421875 54.6875 
L 18.40625 54.6875 
L 18.40625 0 
L 9.421875 0 
z
M 9.421875 75.984375 
L 18.40625 75.984375 
L 18.40625 64.59375 
L 9.421875 64.59375 
z
" id="DejaVuSans-105"/>
       <path d="M 18.3125 70.21875 
L 18.3125 54.6875 
L 36.8125 54.6875 
L 36.8125 47.703125 
L 18.3125 47.703125 
L 18.3125 18.015625 
Q 18.3125 11.328125 20.140625 9.421875 
Q 21.96875 7.515625 27.59375 7.515625 
L 36.8125 7.515625 
L 36.8125 0 
L 27.59375 0 
Q 17.1875 0 13.234375 3.875 
Q 9.28125 7.765625 9.28125 18.015625 
L 9.28125 47.703125 
L 2.6875 47.703125 
L 2.6875 54.6875 
L 9.28125 54.6875 
L 9.28125 70.21875 
z
" id="DejaVuSans-116"/>
       <path d="M 11.71875 12.40625 
L 22.015625 12.40625 
L 22.015625 0 
L 11.71875 0 
z
M 11.71875 51.703125 
L 22.015625 51.703125 
L 22.015625 39.3125 
L 11.71875 39.3125 
z
" id="DejaVuSans-58"/>
       <path id="DejaVuSans-32"/>
       <path d="M 9.078125 75.984375 
L 18.109375 75.984375 
L 18.109375 31.109375 
L 44.921875 54.6875 
L 56.390625 54.6875 
L 27.390625 29.109375 
L 57.625 0 
L 45.90625 0 
L 18.109375 26.703125 
L 18.109375 0 
L 9.078125 0 
z
" id="DejaVuSans-107"/>
       <path d="M 52 44.1875 
Q 55.375 50.25 60.0625 53.125 
Q 64.75 56 71.09375 56 
Q 79.640625 56 84.28125 50.015625 
Q 88.921875 44.046875 88.921875 33.015625 
L 88.921875 0 
L 79.890625 0 
L 79.890625 32.71875 
Q 79.890625 40.578125 77.09375 44.375 
Q 74.3125 48.1875 68.609375 48.1875 
Q 61.625 48.1875 57.5625 43.546875 
Q 53.515625 38.921875 53.515625 30.90625 
L 53.515625 0 
L 44.484375 0 
L 44.484375 32.71875 
Q 44.484375 40.625 41.703125 44.40625 
Q 38.921875 48.1875 33.109375 48.1875 
Q 26.21875 48.1875 22.15625 43.53125 
Q 18.109375 38.875 18.109375 30.90625 
L 18.109375 0 
L 9.078125 0 
L 9.078125 54.6875 
L 18.109375 54.6875 
L 18.109375 46.1875 
Q 21.1875 51.21875 25.484375 53.609375 
Q 29.78125 56 35.6875 56 
Q 41.65625 56 45.828125 52.96875 
Q 50 49.953125 52 44.1875 
z
" id="DejaVuSans-109"/>
      </defs>
      <use xlink:href="#DejaVuSans-85"/>
      <use x="73.193359" xlink:href="#DejaVuSans-110"/>
      <use x="136.572266" xlink:href="#DejaVuSans-105"/>
      <use x="164.355469" xlink:href="#DejaVuSans-116"/>
      <use x="203.564453" xlink:href="#DejaVuSans-58"/>
      <use x="237.255859" xlink:href="#DejaVuSans-32"/>
      <use x="269.042969" xlink:href="#DejaVuSans-49"/>
      <use x="332.666016" xlink:href="#DejaVuSans-48"/>
      <use x="396.289062" xlink:href="#DejaVuSans-48"/>
      <use x="459.912109" xlink:href="#DejaVuSans-48"/>
      <use x="523.535156" xlink:href="#DejaVuSans-32"/>
      <use x="555.322266" xlink:href="#DejaVuSans-107"/>
      <use x="613.232422" xlink:href="#DejaVuSans-109"/>
     </g>
    </g>
   </g>
   <g id="matplotlib.axis_2">
    <g id="ytick_1">
     <g id="line2d_11">
      <path clip-path="url(#p595e7a0a41)" d="M 60.114063 375.140571 
L 592.338062 375.140571 
" style="fill:none;stroke:#b0b0b0;stroke-linecap:square;stroke-width:0.8;"/>
     </g>
     <g id="line2d_12">
      <defs>
       <path d="M 0 0 
L -3.5 0 
" id="m93c7110f69" style="stroke:#000000;stroke-width:0.8;"/>
      </defs>
      <g>
       <use style="stroke:#000000;stroke-width:0.8;" x="60.114063" xlink:href="#m93c7110f69" y="375.140571"/>
      </g>
     </g>
     <g id="text_7">
      <!-- -150.0 -->
      <g transform="translate(20.878125 378.93979)scale(0.1 -0.1)">
       <defs>
        <path d="M 4.890625 31.390625 
L 31.203125 31.390625 
L 31.203125 23.390625 
L 4.890625 23.390625 
z
" id="DejaVuSans-45"/>
        <path d="M 10.796875 72.90625 
L 49.515625 72.90625 
L 49.515625 64.59375 
L 19.828125 64.59375 
L 19.828125 46.734375 
Q 21.96875 47.46875 24.109375 47.828125 
Q 26.265625 48.1875 28.421875 48.1875 
Q 40.625 48.1875 47.75 41.5 
Q 54.890625 34.8125 54.890625 23.390625 
Q 54.890625 11.625 47.5625 5.09375 
Q 40.234375 -1.421875 26.90625 -1.421875 
Q 22.3125 -1.421875 17.546875 -0.640625 
Q 12.796875 0.140625 7.71875 1.703125 
L 7.71875 11.625 
Q 12.109375 9.234375 16.796875 8.0625 
Q 21.484375 6.890625 26.703125 6.890625 
Q 35.15625 6.890625 40.078125 11.328125 
Q 45.015625 15.765625 45.015625 23.390625 
Q 45.015625 31 40.078125 35.4375 
Q 35.15625 39.890625 26.703125 39.890625 
Q 22.75 39.890625 18.8125 39.015625 
Q 14.890625 38.140625 10.796875 36.28125 
z
" id="DejaVuSans-53"/>
       </defs>
       <use xlink:href="#DejaVuSans-45"/>
       <use x="36.083984" xlink:href="#DejaVuSans-49"/>
       <use x="99.707031" xlink:href="#DejaVuSans-53"/>
       <use x="163.330078" xlink:href="#DejaVuSans-48"/>
       <use x="226.953125" xlink:href="#DejaVuSans-46"/>
       <use x="258.740234" xlink:href="#DejaVuSans-48"/>
      </g>
     </g>
    </g>
    <g id="ytick_2">
     <g id="line2d_13">
      <path clip-path="url(#p595e7a0a41)" d="M 60.114063 320.832 
L 592.338062 320.832 
" style="fill:none;stroke:#b0b0b0;stroke-linecap:square;stroke-width:0.8;"/>
     </g>
     <g id="line2d_14">
      <g>
       <use style="stroke:#000000;stroke-width:0.8;" x="60.114063" xlink:href="#m93c7110f69" y="320.832"/>
      </g>
     </g>
     <g id="text_8">
      <!-- -100.0 -->
      <g transform="translate(20.878125 324.631219)scale(0.1 -0.1)">
       <use xlink:href="#DejaVuSans-45"/>
       <use x="36.083984" xlink:href="#DejaVuSans-49"/>
       <use x="99.707031" xlink:href="#DejaVuSans-48"/>
       <use x="163.330078" xlink:href="#DejaVuSans-48"/>
       <use x="226.953125" xlink:href="#DejaVuSans-46"/>
       <use x="258.740234" xlink:href="#DejaVuSans-48"/>
      </g>
     </g>
    </g>
    <g id="ytick_3">
     <g id="line2d_15">
      <path clip-path="url(#p595e7a0a41)" d="M 60.114063 266.523429 
L 592.338062 266.523429 
" style="fill:none;stroke:#b0b0b0;stroke-linecap:square;stroke-width:0.8;"/>
     </g>
     <g id="line2d_16">
      <g>
       <use style="stroke:#000000;stroke-width:0.8;" x="60.114063" xlink:href="#m93c7110f69" y="266.523429"/>
      </g>
     </g>
     <g id="text_9">
      <!-- -50.0 -->
      <g transform="translate(27.240625 270.322647)scale(0.1 -0.1)">
       <use xlink:href="#DejaVuSans-45"/>
       <use x="36.083984" xlink:href="#DejaVuSans-53"/>
       <use x="99.707031" xlink:href="#DejaVuSans-48"/>
       <use x="163.330078" xlink:href="#DejaVuSans-46"/>
       <use x="195.117188" xlink:href="#DejaVuSans-48"/>
      </g>
     </g>
    </g>
    <g id="ytick_4">
     <g id="line2d_17">
      <path clip-path="url(#p595e7a0a41)" d="M 60.114063 212.214857 
L 592.338062 212.214857 
" style="fill:none;stroke:#b0b0b0;stroke-linecap:square;stroke-width:0.8;"/>
     </g>
     <g id="line2d_18">
      <g>
       <use style="stroke:#000000;stroke-width:0.8;" x="60.114063" xlink:href="#m93c7110f69" y="212.214857"/>
      </g>
     </g>
     <g id="text_10">
      <!-- 0.0 -->
      <g transform="translate(37.210938 216.014076)scale(0.1 -0.1)">
       <use xlink:href="#DejaVuSans-48"/>
       <use x="63.623047" xlink:href="#DejaVuSans-46"/>
       <use x="95.410156" xlink:href="#DejaVuSans-48"/>
      </g>
     </g>
    </g>
    <g id="ytick_5">
     <g id="line2d_19">
      <path clip-path="url(#p595e7a0a41)" d="M 60.114063 157.906286 
L 592.338062 157.906286 
" style="fill:none;stroke:#b0b0b0;stroke-linecap:square;stroke-width:0.8;"/>
     </g>
     <g id="line2d_20">
      <g>
       <use style="stroke:#000000;stroke-width:0.8;" x="60.114063" xlink:href="#m93c7110f69" y="157.906286"/>
      </g>
     </g>
     <g id="text_11">
      <!-- 50.0 -->
      <g transform="translate(30.848438 161.705504)scale(0.1 -0.1)">
       <use xlink:href="#DejaVuSans-53"/>
       <use x="63.623047" xlink:href="#DejaVuSans-48"/>
       <use x="127.246094" xlink:href="#DejaVuSans-46"/>
       <use x="159.033203" xlink:href="#DejaVuSans-48"/>
      </g>
     </g>
    </g>
    <g id="ytick_6">
     <g id="line2d_21">
      <path clip-path="url(#p595e7a0a41)" d="M 60.114063 103.597714 
L 592.338062 103.597714 
" style="fill:none;stroke:#b0b0b0;stroke-linecap:square;stroke-width:0.8;"/>
     </g>
     <g id="line2d_22">
      <g>
       <use style="stroke:#000000;stroke-width:0.8;" x="60.114063" xlink:href="#m93c7110f69" y="103.597714"/>
      </g>
     </g>
     <g id="text_12">
      <!-- 100.0 -->
      <g transform="translate(24.485938 107.396933)scale(0.1 -0.1)">
       <use xlink:href="#DejaVuSans-49"/>
       <use x="63.623047" xlink:href="#DejaVuSans-48"/>
       <use x="127.246094" xlink:href="#DejaVuSans-48"/>
       <use x="190.869141" xlink:href="#DejaVuSans-46"/>
       <use x="222.65625" xlink:href="#DejaVuSans-48"/>
      </g>
     </g>
    </g>
    <g id="ytick_7">
     <g id="line2d_23">
      <path clip-path="url(#p595e7a0a41)" d="M 60.114063 49.289143 
L 592.338062 49.289143 
" style="fill:none;stroke:#b0b0b0;stroke-linecap:square;stroke-width:0.8;"/>
     </g>
     <g id="line2d_24">
      <g>
       <use style="stroke:#000000;stroke-width:0.8;" x="60.114063" xlink:href="#m93c7110f69" y="49.289143"/>
      </g>
     </g>
     <g id="text_13">
      <!-- 150.0 -->
      <g transform="translate(24.485938 53.088362)scale(0.1 -0.1)">
       <use xlink:href="#DejaVuSans-49"/>
       <use x="63.623047" xlink:href="#DejaVuSans-53"/>
       <use x="127.246094" xlink:href="#DejaVuSans-48"/>
       <use x="190.869141" xlink:href="#DejaVuSans-46"/>
       <use x="222.65625" xlink:href="#DejaVuSans-48"/>
      </g>
     </g>
    </g>
    <g id="text_14">
     <!-- Unit: 1000 km -->
     <g transform="translate(14.798438 242.314469)rotate(-90)scale(0.1 -0.1)">
      <use xlink:href="#DejaVuSans-85"/>
      <use x="73.193359" xlink:href="#DejaVuSans-110"/>
      <use x="136.572266" xlink:href="#DejaVuSans-105"/>
      <use x="164.355469" xlink:href="#DejaVuSans-116"/>
      <use x="203.564453" xlink:href="#DejaVuSans-58"/>
      <use x="237.255859" xlink:href="#DejaVuSans-32"/>
      <use x="269.042969" xlink:href="#DejaVuSans-49"/>
      <use x="332.666016" xlink:href="#DejaVuSans-48"/>
      <use x="396.289062" xlink:href="#DejaVuSans-48"/>
      <use x="459.912109" xlink:href="#DejaVuSans-48"/>
      <use x="523.535156" xlink:href="#DejaVuSans-32"/>
      <use x="555.322266" xlink:href="#DejaVuSans-107"/>
      <use x="613.232422" xlink:href="#DejaVuSans-109"/>
     </g>
    </g>
   </g>
   <g id="line2d_25">
    <path clip-path="url(#p595e7a0a41)" d="M 516.016953 212.214747 
L 515.839485 212.103669 
L 515.542538 211.658126 
L 515.257827 210.812803 
L 515.253262 210.792784 
L 515.253262 210.792784 
" style="fill:none;stroke:#c0c0c0;stroke-linecap:square;stroke-width:1.5;"/>
   </g>
   <g id="line2d_26">
    <path clip-path="url(#p595e7a0a41)" d="M 95.855832 218.838659 
L 97.542381 219.387824 
L 99.257834 219.722793 
L 100.953891 219.859591 
L 103.128747 219.786573 
L 105.171105 219.493608 
L 107.528049 218.917382 
L 110.093445 218.033397 
L 112.782742 216.852418 
L 115.537905 215.40293 
L 118.615109 213.529455 
L 121.90385 211.26396 
L 125.559469 208.464784 
L 129.460929 205.192415 
L 133.711388 201.338548 
L 138.532208 196.659371 
L 143.902317 191.131077 
L 150.189399 184.330553 
L 158.064851 175.463885 
L 170.486571 161.090391 
L 186.213508 142.966072 
L 195.464222 132.650551 
L 203.547337 123.961932 
L 211.028908 116.239168 
L 218.145283 109.206485 
L 225.02054 102.719062 
L 231.75887 96.663797 
L 238.382975 91.009195 
L 244.910356 85.728751 
L 251.354639 80.799871 
L 257.726502 76.20307 
L 264.099729 71.878375 
L 270.414378 67.860004 
L 276.740047 64.097415 
L 283.015581 60.621088 
L 289.307538 57.38851 
L 295.616979 54.397583 
L 301.881936 51.672605 
L 308.16563 49.181253 
L 314.467493 46.922779 
L 320.725399 44.915162 
L 326.999975 43.134903 
L 333.289496 41.582067 
L 339.532118 40.268357 
L 345.786217 39.178131 
L 352.049188 38.311932 
L 358.318156 37.670367 
L 364.532178 37.256904 
L 370.746772 37.065262 
L 376.958385 37.096247 
L 383.163243 37.350662 
L 389.301852 37.824008 
L 395.426784 38.518446 
L 401.533707 39.434791 
L 407.61809 40.573808 
L 413.622441 41.923339 
L 419.596125 43.49325 
L 425.534138 45.284189 
L 431.431299 47.296729 
L 437.232659 49.511392 
L 442.984022 51.945122 
L 448.679785 54.598289 
L 454.267295 57.446215 
L 459.789431 60.510801 
L 465.195266 63.764072 
L 470.525617 67.231103 
L 475.774255 70.91192 
L 480.89303 74.773801 
L 485.878734 78.812233 
L 490.76767 83.058317 
L 495.514792 87.475017 
L 500.153917 92.096317 
L 504.642132 96.882497 
L 508.975974 101.829522 
L 513.151889 106.933544 
L 517.166197 112.190949 
L 521.015035 117.598378 
L 524.694281 123.152782 
L 528.171669 128.804553 
L 531.472944 134.596017 
L 534.567773 140.47621 
L 537.454395 146.44048 
L 540.108494 152.433382 
L 542.531198 158.448048 
L 544.722532 164.477935 
L 546.681193 170.516464 
L 548.389678 176.501114 
L 549.849688 182.420694 
L 551.062601 188.262294 
L 552.030441 194.010714 
L 552.763604 199.706698 
L 553.262771 205.331851 
L 553.534912 210.924996 
L 553.583069 216.52498 
L 553.409542 222.112103 
L 553.011261 227.78512 
L 552.378964 233.583948 
L 551.51719 239.434266 
L 550.417674 245.379646 
L 549.064855 251.462945 
L 547.481247 257.561656 
L 545.652295 263.722237 
L 543.59253 269.882747 
L 541.301826 276.036767 
L 538.778942 282.177643 
L 536.045111 288.248581 
L 533.102082 294.244962 
L 529.95094 300.161645 
L 526.592298 305.992958 
L 523.055676 311.687348 
L 519.34534 317.241565 
L 515.465275 322.652075 
L 511.419268 327.915098 
L 507.210975 333.026643 
L 502.843955 337.982536 
L 498.321716 342.778447 
L 493.647733 347.409905 
L 488.864941 351.837019 
L 483.939638 356.093216 
L 478.916946 360.141358 
L 473.760734 364.012085 
L 468.518219 367.671178 
L 463.150988 371.146393 
L 457.708234 374.406578 
L 452.149401 377.476483 
L 446.525533 380.328163 
L 440.842655 382.961751 
L 435.057178 385.397293 
L 429.222616 387.611923 
L 423.344606 389.606043 
L 417.428613 391.380156 
L 411.427389 392.947591 
L 405.39721 394.292644 
L 399.343111 395.416018 
L 393.269943 396.31849 
L 387.127223 397.006079 
L 380.973415 397.470595 
L 374.812877 397.712907 
L 368.649767 397.733917 
L 362.430724 397.531665 
L 356.215833 397.105792 
L 350.008672 396.457138 
L 343.812585 395.586524 
L 337.630675 394.49474 
L 331.406315 393.168761 
L 325.200811 391.618427 
L 319.016519 389.844183 
L 312.855495 387.846347 
L 306.658554 385.601861 
L 300.487342 383.128952 
L 294.342908 380.427224 
L 288.225898 377.496012 
L 282.074198 374.300706 
L 275.949103 370.868027 
L 269.849732 367.195944 
L 263.711071 363.239604 
L 257.593459 359.031913 
L 251.429209 354.519944 
L 245.277403 349.740333 
L 239.066636 344.630667 
L 232.853858 339.23075 
L 226.562163 333.466575 
L 220.176297 327.312375 
L 213.676461 320.737548 
L 206.965142 313.627784 
L 200.001274 305.920767 
L 192.650913 297.448568 
L 184.578188 287.794019 
L 175.064761 276.05261 
L 146.289653 240.27203 
L 140.147256 233.152591 
L 134.871321 227.372912 
L 130.289724 222.675843 
L 126.083503 218.683925 
L 122.442575 215.519748 
L 119.089667 212.881613 
L 115.864635 210.62843 
L 112.857982 208.812721 
L 112.132475 208.419831 
L 112.132475 208.419831 
" style="fill:none;stroke:#0000ff;stroke-linecap:square;stroke-width:1.5;"/>
   </g>
   <g id="patch_5">
    <path d="M 60.114063 406.368 
L 60.114063 7.2 
" style="fill:none;stroke:#000000;stroke-linecap:square;stroke-linejoin:miter;stroke-width:0.8;"/>
   </g>
   <g id="patch_6">
    <path d="M 592.338062 406.368 
L 592.338062 7.2 
" style="fill:none;stroke:#000000;stroke-linecap:square;stroke-linejoin:miter;stroke-width:0.8;"/>
   </g>
   <g id="patch_7">
    <path d="M 60.114063 406.368 
L 592.338062 406.368 
" style="fill:none;stroke:#000000;stroke-linecap:square;stroke-linejoin:miter;stroke-width:0.8;"/>
   </g>
   <g id="patch_8">
    <path d="M 60.114063 7.2 
L 592.338062 7.2 
" style="fill:none;stroke:#000000;stroke-linecap:square;stroke-linejoin:miter;stroke-width:0.8;"/>
   </g>
  </g>
 </g>
 <defs>
  <clipPath id="p595e7a0a41">
   <rect height="399.168" width="532.224" x="60.114063" y="7.2"/>
  </clipPath>
 </defs>
</svg>
